<?xml version="1.0" encoding="utf-8"?>
<!-- Generator: Adobe Illustrator 14.0.0, SVG Export Plug-In . SVG Version: 6.00 Build 43363)  -->
<!DOCTYPE svg PUBLIC "-//W3C//DTD SVG 1.1//EN" "http://www.w3.org/Graphics/SVG/1.1/DTD/svg11.dtd">
<svg version="1.1" id="Capa_1" xmlns="http://www.w3.org/2000/svg" xmlns:xlink="http://www.w3.org/1999/xlink" x="0px" y="0px"
	 width="283.46px" height="283.46px" viewBox="0 0 283.46 283.46" enable-background="new 0 0 283.46 283.46" xml:space="preserve">
<g>
	<path fill="#F29400" d="M268.51,126.207c0,65.196-56.774,118.042-126.758,118.042c-70.027,0-126.801-52.846-126.801-118.042
		C14.95,61.01,71.725,8.164,141.751,8.164C211.735,8.164,268.51,61.01,268.51,126.207"/>
	<path fill="#F8B334" d="M237.941,133.478c0,54.251-47.23,98.241-105.509,98.241c-58.242,0-105.474-43.99-105.474-98.241
		c0-54.246,47.232-98.226,105.474-98.226C190.711,35.252,237.941,79.232,237.941,133.478"/>
	<path fill="#FCEA0D" d="M216.097,141.94c0,43.591-37.943,78.923-84.771,78.923c-46.821,0-84.783-35.332-84.783-78.923
		c0-43.602,37.962-78.926,84.783-78.926C178.153,63.014,216.097,98.338,216.097,141.94"/>
</g>
<polygon points="88.094,167.795 95.916,243.088 98.455,239.932 90.239,167.795 "/>
<g>
	<defs>
		<rect id="SVGID_1_" x="68.719" y="93.273" width="124.498" height="186.76"/>
	</defs>
	<clipPath id="SVGID_2_">
		<use xlink:href="#SVGID_1_"  overflow="visible"/>
	</clipPath>
	<path clip-path="url(#SVGID_2_)" d="M91.103,113.258c0,0,1.989-2.768,3.611-3.888c1.621-1.121,2.274-1.669,2.274-1.669
		s-3.503-8.283,4.2-13.14c7.703-4.858,18.244,5.604,18.244,5.604s2.837,6.352,5.676,6.352c2.838,0,9.325-4.483,13.784,1.122
		c4.46,5.604,5.675,5.979,5.675,5.979s4.867-10.462,17.434-7.1c12.568,3.363,3.243,9.715,11.353,22.419
		c8.107,12.704,10.541,11.209,6.893,18.309c-3.65,7.1-6.487,13.078-14.597,14.199c-8.107,1.121-7.702-5.232-8.107,1.121
		c-0.405,6.352,4.865,6.145,1.216,13.721c-3.647,7.578-5.271,7.516-5.271,7.516s4.46,13.887,14.797,29.953
		c10.34,16.066,9.529,13.834,15.205,24.479c5.675,10.645,9.729,31.818,9.729,31.818s-11.122,7.486-10.717,3.75
		s-6.311-5.369-12.391-3.75c-6.082,1.619-21.486,0-16.623-9.172c0.361-0.684,5.359-2.695,10.136-2.66
		c2.926,0.018,6.487,3.639,6.487,0.373c0-8.594-0.812-23.539-8.109-29.518c-7.296-5.979-14.702-5.633-19.102-14.428
		c-4.396-8.791-6.033-14.717-6.033-14.717s-18.012,14.414-19.784,27.609c-1.771,13.197-6.569,17.09-7.786,26.125
		c-1.216,9.039-3.649,25.852-3.649,25.852s-13.152,1.869-13.063-1.494c0.09-3.363-7.188-1.494-9.022-0.375
		c-1.834,1.121-15.619-4.582-14.808-12.193c0.811-7.609,6.911-0.832,14.808-4.596c7.896-3.76,9.518-3.635,12.761-13.973
		c3.244-10.338,5.924-20.049,5.924-20.049s-4.892-10.521-0.34-18.529c4.552-8.004,15.903-22.705,13.471-28.059
		c-2.433-5.354-4.055-3.205-1.621-9.137c2.432-5.932,2.756-10.459-0.082-10.459c-2.837,0-4.293,3.736-5.915,2.242
		c-1.621-1.496-15.176,2.285-15.176,2.285s-7.999,1.869-9.022-2.615c-1.024-4.482,0.193-8.371,5.869-6.242
		c5.676,2.131,10.135-0.111,15.406-2.352c5.271-2.242,9.152-2.391,6.486-15.32c-1.933-9.38-3.243-7.847-0.405-10.836
		c2.839-2.989,5.679-6.8-0.405-7.846c-10.598-1.828-3.981-6.452-8.441-6.078c-4.459,0.374-6.68,5.205-8.795,2.963
		C91.158,114.612,91.103,113.258,91.103,113.258"/>
</g>
</svg>
