<?xml version="1.0" encoding="utf-8"?>
<!-- Generator: Adobe Illustrator 14.0.0, SVG Export Plug-In . SVG Version: 6.00 Build 43363)  -->
<!DOCTYPE svg PUBLIC "-//W3C//DTD SVG 1.1//EN" "http://www.w3.org/Graphics/SVG/1.1/DTD/svg11.dtd">
<svg version="1.1" id="Capa_1" xmlns="http://www.w3.org/2000/svg" xmlns:xlink="http://www.w3.org/1999/xlink" x="0px" y="0px"
	 width="283.465px" height="283.464px" viewBox="155.907 279.213 283.465 283.464"
	 enable-background="new 155.907 279.213 283.465 283.464" xml:space="preserve">
<circle fill="#15AD9B" cx="295.402" cy="421.618" r="135.094"/>
<g>
	<g>
		<path fill="#EA5931" d="M313.787,335.617c0,0,26.451-7.565,30.233,18.885c3.783,26.451,0,25.19,0,25.19s7.565,20.791,7.565,35.894
			c0,15.102,13.224,32.109,13.224,45.979c0,13.871-25.806,17.625-40.291,17.625c-14.486,0-10.087-7.566-15.104,3.783
			c-5.043,11.348-11.964,15.747-42.197,21.405c-30.233,5.66-86.693-7.424-95.127-17.623c-6.361-7.678-10.731-18.689-3.138-28.327
			c5.52-7.033,14.177-2.831,50.687-42.171c23.145-24.909,37.462-74.981,49.427-87.589c11.965-12.61,37.154-10.705,44.72-6.305
			C321.352,326.763,313.787,335.617,313.787,335.617z"/>
		<path fill="#BD1622" d="M258.14,346.404c0,0-32.783,59.15-35.641,67.779c-2.859,8.631,6.892,29.506,26.73,12.61
			c19.838-16.896,41.554-22.081,48.811-55.228c7.229-33.147,3.475-27.319-7.565-29.533
			C279.435,339.819,258.14,346.404,258.14,346.404z"/>
		<path fill="#1D1D1B" d="M170.298,462.406c0,0,27.066-6.305,46.597,13.226c19.529,19.529,83.751,1.877,108.94-19.53
			c25.19-21.407,28.58-25.581,32.84-15.158c4.259,10.424,17.934,22.051-3.476,32.56c-21.406,10.507-29.364,1.651-41.637,7.537
			c-12.272,5.912-2.241,16.671-42.169,22.274c-39.928,5.605-89.131-0.055-97.929-12.608
			C152.561,461.005,170.298,462.406,170.298,462.406z"/>
		<path fill="#671318" d="M302.438,345.059c0,0,0.561,47.493-37.35,71.143c-37.911,23.648-39.48,6.78-41.693,0.252
			s-9.442-15.915-9.135-0.196c0.309,15.719,7.565,30.178,35.585,20.427c28.02-9.751,55.283-60.131,57.412-74.309
			c2.102-14.179,2.102-17.316,2.102-17.316s24.573,23.621,27.713,27.711c3.138,4.091,19.668-3.138,4.005-27.711
			C325.443,320.486,302.438,345.059,302.438,345.059z"/>
		<path fill="#F29100" d="M284.506,460.557c0,0,3.783-29.813,21.1-36.622c17.316-6.81,39.984-5.239,34.324-33.904
			c-5.66-28.664-0.337-20.566,3.305-5.913c3.646,14.654,8.66,35.305,4.876,39.817c-3.782,4.51-18.633,21.127-31.129,28.692
			c-12.497,7.564-32.476,13.281-32.476,13.281V460.557L284.506,460.557z"/>
		<path fill="#C6C6C5" d="M217.427,416.845c0,0,35.277-3.138,40.292,4.399c5.016,7.537,12.834,8.771,7.37-5.071
			s-37.575-10.676-44.524-8.799C213.616,409.253,217.427,416.845,217.427,416.845z"/>
		<path fill="#C6C6C5" d="M257.719,360.835c0,0,35.278-3.139,40.292,4.398c5.044,7.565,12.833,8.771,7.37-5.071
			c-5.465-13.842-37.575-10.675-44.524-8.798C253.965,353.297,257.719,360.835,257.719,360.835z"/>
		<path fill="#C6C6C5" d="M273.467,409.28c0,0-23.929-35.276-25.806-35.893c-1.877-0.617,7.37-2.577,7.37-2.577
			s4.791,0.896,15.298,18.325c9.919,16.476,3.139,23.341,3.139,23.341V409.28z"/>
		<path fill="#C6C6C5" d="M292.38,377.786c0,0-42.506,7.874-50.688,11.657c-8.182,3.783-3.783,7.565-3.783,7.565
			s48.502-9.443,54.47-11.348C298.348,383.783,292.38,377.786,292.38,377.786z"/>
		<path fill="#868686" d="M168.14,470.503c0,0,11.488-9.638,24.097-4.595c12.609,5.015,30.85,23.284,40.292,22.668
			c9.443-0.617,29.028,0.028,29.028,0.028s-28.888,2.604-50.436-2.999c-21.715-5.659-22.359-17.624-33.063-10.872
			C167.356,481.46,168.14,470.503,168.14,470.503z"/>
		<path fill="#BD1622" d="M183.271,454.868l24.573-19.39c0,0-19.697,19.39,8.574,19.39c28.272,0,25.162,14.711,50.548,15.636
			c25.385,0.924-11.909,10.788-27.488,6.306c-15.579-4.484-30.457-19.502-48.166-17.233
			C173.576,461.874,183.271,454.868,183.271,454.868z"/>
	</g>
	<g>
		<path fill="#251403" d="M226.141,477.985c0,0-7.817-0.952,7.006-12.076c15.074-11.292,26.478-17.345,31.69-23.565
			c25.077-29.84,50.239-79.155,53.209-94.651c4.707-24.601,56.46-2.438,56.488-3.811c0,0-30.401-5.295-45.813,16.251
			c-15.411,21.548-46.793,96.081-54.807,104.317C265.901,472.69,226.141,477.985,226.141,477.985z"/>
		<g>
			<path fill="#EA5931" d="M373.441,351.139c0,0,26.45-7.564,30.233,18.887c3.782,26.45,0,25.188,0,25.188
				s7.564,20.791,7.564,35.894c0,15.103,13.226,32.111,13.226,45.979c0,13.87-25.806,17.625-40.291,17.625
				c-14.488,0-10.089-7.565-15.104,3.782c-5.044,11.349-11.964,15.748-42.197,21.408c-30.234,5.659-86.638-7.425-95.1-17.625
				c-6.361-7.677-10.731-18.689-3.138-28.328c5.52-7.033,14.178-2.829,50.688-42.142c23.144-24.91,37.462-74.98,49.426-87.562
				c11.965-12.58,37.155-10.703,44.721-6.305C381.007,342.313,373.441,351.139,373.441,351.139z"/>
			<path fill="#BD1622" d="M317.821,361.956c0,0-32.782,59.149-35.641,67.779c-2.857,8.631,6.894,29.506,26.731,12.608
				c19.837-16.896,41.553-22.078,48.81-55.227c7.229-33.147,3.475-27.318-7.565-29.532
				C339.117,355.371,317.821,361.956,317.821,361.956z"/>
			<path fill="#3C3C3B" d="M226.141,477.985c0,0,30.878-6.333,50.408,13.197c19.529,19.529,83.752,1.877,108.94-19.53
				c25.189-21.406,28.58-25.582,32.84-15.157c4.259,10.422,17.932,22.051-3.475,32.558c-21.407,10.535-29.365,1.653-41.638,7.537
				c-12.272,5.912-2.241,16.673-42.169,22.276c-39.929,5.604-89.104-0.084-97.929-12.608
				C218.94,486.167,226.141,477.985,226.141,477.985z"/>
			<path fill="#671318" d="M362.121,360.583c0,0,0.561,47.493-37.351,71.142c-37.91,23.649-39.479,6.78-41.693,0.252
				c-2.214-6.529-9.442-15.915-9.135-0.196c0.308,15.72,7.565,30.179,35.585,20.428c28.02-9.751,55.281-60.131,57.412-74.309
				c2.102-14.179,2.102-17.316,2.102-17.316s24.573,23.62,27.711,27.711c3.139,4.091,19.671-3.138,4.008-27.711
				S362.121,360.583,362.121,360.583z"/>
			<path fill="#BD1622" d="M344.161,476.08c0,0,3.781-29.813,21.098-36.621c17.316-6.81,39.984-5.24,34.324-33.905
				c-5.659-28.665-0.335-20.567,3.307-5.912s8.658,35.306,4.876,39.817c-3.783,4.511-18.633,21.125-31.131,28.69
				c-12.495,7.567-32.474,13.282-32.474,13.282V476.08L344.161,476.08z"/>
			<path fill="#C6C6C5" d="M277.081,432.369c0,0,35.277-3.138,40.293,4.399c5.016,7.536,12.833,8.77,7.368-5.072
				c-5.463-13.841-37.573-10.675-44.522-8.798C273.326,424.832,277.081,432.369,277.081,432.369z"/>
			<path fill="#C6C6C5" d="M317.401,376.385c0,0,35.277-3.138,40.292,4.399c5.043,7.565,12.834,8.77,7.37-5.071
				c-5.464-13.842-37.575-10.676-44.524-8.799C313.619,368.82,317.401,376.385,317.401,376.385z"/>
			<path fill="#C6C6C5" d="M333.148,424.832c0,0-23.929-35.277-25.806-35.893c-1.878-0.617,7.369-2.579,7.369-2.579
				s4.791,0.897,15.298,18.325c9.92,16.475,3.139,23.341,3.139,23.341V424.832z"/>
			<path fill="#C6C6C5" d="M352.034,393.336c0,0-42.506,7.874-50.688,11.657c-8.182,3.783-3.781,7.565-3.781,7.565
				s48.501-9.442,54.47-11.348C358.03,399.305,352.034,393.336,352.034,393.336z"/>
			<path fill="#868686" d="M227.823,486.026c0,0,11.488-9.639,24.097-4.595c12.608,5.044,30.849,23.284,40.292,22.667
				c9.442-0.615,29.028,0.028,29.028,0.028s-28.889,2.607-50.435-2.996c-21.716-5.662-22.36-17.625-33.064-10.872
				C227.038,497.01,227.823,486.026,227.823,486.026z"/>
			<path fill="#BD1622" d="M242.925,470.419l24.573-19.39c0,0-19.698,19.39,8.574,19.39c28.271,0,25.162,14.711,50.547,15.635
				c25.386,0.925-11.908,10.787-27.487,6.305s-30.458-19.502-48.166-17.231C233.258,477.396,242.925,470.419,242.925,470.419z"/>
		</g>
	</g>
</g>
</svg>
