<?xml version="1.0" encoding="utf-8"?>
<!-- Generator: Adobe Illustrator 25.0.0, SVG Export Plug-In . SVG Version: 6.00 Build 0)  -->
<svg version="1.1" id="Capa_1" xmlns="http://www.w3.org/2000/svg" xmlns:xlink="http://www.w3.org/1999/xlink" x="0px" y="0px"
	 viewBox="0 0 99.21 88.44" style="enable-background:new 0 0 99.21 88.44;" xml:space="preserve">
<style type="text/css">
	.st0{fill:#EA5931;}
	.st1{fill:#BD1622;}
	.st2{fill:#1D1D1B;}
	.st3{fill:#671318;}
	.st4{fill:#F29100;}
	.st5{fill:#C6C6C5;}
	.st6{fill:#868686;}
	.st7{fill:#251403;}
	.st8{fill:#3C3C3B;}
</style>
<g>
	<g>
		<path class="st0" d="M56.34,12.37c0,0,9.44-2.7,10.79,6.74c1.35,9.44,0,8.99,0,8.99s2.7,7.42,2.7,12.81s4.72,11.46,4.72,16.41
			s-9.21,6.29-14.38,6.29s-3.6-2.7-5.39,1.35c-1.8,4.05-4.27,5.62-15.06,7.64S8.78,69.95,5.77,66.31
			c-2.27-2.74-3.83-6.67-1.12-10.11c1.97-2.51,5.06-1.01,18.09-15.05C31,32.26,36.11,14.39,40.38,9.89s13.26-3.82,15.96-2.25
			S56.34,12.37,56.34,12.37z"/>
		<path class="st1" d="M36.48,16.22c0,0-11.7,21.11-12.72,24.19c-1.02,3.08,2.46,10.53,9.54,4.5s14.83-7.88,17.42-19.71
			c2.58-11.83,1.24-9.75-2.7-10.54S36.48,16.22,36.48,16.22z"/>
		<path class="st2" d="M5.13,57.62c0,0,9.66-2.25,16.63,4.72s29.89,0.67,38.88-6.97s10.2-9.13,11.72-5.41
			c1.52,3.72,6.4,7.87-1.24,11.62s-10.48,0.59-14.86,2.69c-4.38,2.11-0.8,5.95-15.05,7.95s-31.81-0.02-34.95-4.5
			C-1.2,57.12,5.13,57.62,5.13,57.62z"/>
		<path class="st3" d="M52.29,15.74c0,0,0.2,16.95-13.33,25.39s-14.09,2.42-14.88,0.09c-0.79-2.33-3.37-5.68-3.26-0.07
			c0.11,5.61,2.7,10.77,12.7,7.29s19.73-21.46,20.49-26.52c0.75-5.06,0.75-6.18,0.75-6.18s8.77,8.43,9.89,9.89
			c1.12,1.46,7.02-1.12,1.43-9.89C60.5,6.97,52.29,15.74,52.29,15.74z"/>
		<path class="st4" d="M45.89,56.96c0,0,1.35-10.64,7.53-13.07s14.27-1.87,12.25-12.1c-2.02-10.23-0.12-7.34,1.18-2.11
			s3.09,12.6,1.74,14.21c-1.35,1.61-6.65,7.54-11.11,10.24c-4.46,2.7-11.59,4.74-11.59,4.74V56.96z"/>
		<path class="st5" d="M21.95,41.36c0,0,12.59-1.12,14.38,1.57s4.58,3.13,2.63-1.81c-1.95-4.94-13.41-3.81-15.89-3.14
			S21.95,41.36,21.95,41.36z"/>
		<path class="st5" d="M36.33,21.37c0,0,12.59-1.12,14.38,1.57c1.8,2.7,4.58,3.13,2.63-1.81c-1.95-4.94-13.41-3.81-15.89-3.14
			C34.99,18.68,36.33,21.37,36.33,21.37z"/>
		<path class="st5" d="M41.95,38.66c0,0-8.54-12.59-9.21-12.81s2.63-0.92,2.63-0.92s1.71,0.32,5.46,6.54
			c3.54,5.88,1.12,8.33,1.12,8.33V38.66z"/>
		<path class="st5" d="M48.7,27.42c0,0-15.17,2.81-18.09,4.16s-1.35,2.7-1.35,2.7s17.31-3.37,19.44-4.05
			C50.83,29.56,48.7,27.42,48.7,27.42z"/>
		<path class="st6" d="M4.36,60.51c0,0,4.1-3.44,8.6-1.64c4.5,1.79,11.01,8.31,14.38,8.09s10.36,0.01,10.36,0.01
			s-10.31,0.93-18-1.07c-7.75-2.02-7.98-6.29-11.8-3.88C4.08,64.42,4.36,60.51,4.36,60.51z"/>
		<path class="st1" d="M9.76,54.93l8.77-6.92c0,0-7.03,6.92,3.06,6.92s8.98,5.25,18.04,5.58s-4.25,3.85-9.81,2.25
			s-10.87-6.96-17.19-6.15C6.3,57.43,9.76,54.93,9.76,54.93z"/>
	</g>
	<g>
		<path class="st7" d="M25.06,63.18c0,0-2.79-0.34,2.5-4.31c5.38-4.03,9.45-6.19,11.31-8.41c8.95-10.65,17.93-28.25,18.99-33.78
			c1.68-8.78,20.15-0.87,20.16-1.36c0,0-10.85-1.89-16.35,5.8s-16.7,34.29-19.56,37.23C39.25,61.29,25.06,63.18,25.06,63.18z"/>
		<g>
			<path class="st0" d="M77.63,17.91c0,0,9.44-2.7,10.79,6.74s0,8.99,0,8.99s2.7,7.42,2.7,12.81s4.72,11.46,4.72,16.41
				s-9.21,6.29-14.38,6.29c-5.17,0-3.6-2.7-5.39,1.35c-1.8,4.05-4.27,5.62-15.06,7.64c-10.79,2.02-30.92-2.65-33.94-6.29
				c-2.27-2.74-3.83-6.67-1.12-10.11c1.97-2.51,5.06-1.01,18.09-15.04c8.26-8.89,13.37-26.76,17.64-31.25s13.26-3.82,15.96-2.25
				C80.33,14.76,77.63,17.91,77.63,17.91z"/>
			<path class="st1" d="M57.78,21.77c0,0-11.7,21.11-12.72,24.19s2.46,10.53,9.54,4.5s14.83-7.88,17.42-19.71
				c2.58-11.83,1.24-9.75-2.7-10.54C65.38,19.42,57.78,21.77,57.78,21.77z"/>
			<path class="st8" d="M25.06,63.18c0,0,11.02-2.26,17.99,4.71s29.89,0.67,38.88-6.97s10.2-9.13,11.72-5.41
				c1.52,3.72,6.4,7.87-1.24,11.62c-7.64,3.76-10.48,0.59-14.86,2.69c-4.38,2.11-0.8,5.95-15.05,7.95c-14.25,2-31.8-0.03-34.95-4.5
				C22.49,66.1,25.06,63.18,25.06,63.18z"/>
			<path class="st3" d="M73.59,21.28c0,0,0.2,16.95-13.33,25.39s-14.09,2.42-14.88,0.09c-0.79-2.33-3.37-5.68-3.26-0.07
				s2.7,10.77,12.7,7.29s19.73-21.46,20.49-26.52c0.75-5.06,0.75-6.18,0.75-6.18s8.77,8.43,9.89,9.89c1.12,1.46,7.02-1.12,1.43-9.89
				S73.59,21.28,73.59,21.28z"/>
			<path class="st1" d="M67.18,62.5c0,0,1.35-10.64,7.53-13.07c6.18-2.43,14.27-1.87,12.25-12.1c-2.02-10.23-0.12-7.34,1.18-2.11
				c1.3,5.23,3.09,12.6,1.74,14.21c-1.35,1.61-6.65,7.54-11.11,10.24s-11.59,4.74-11.59,4.74V62.5z"/>
			<path class="st5" d="M43.24,46.9c0,0,12.59-1.12,14.38,1.57s4.58,3.13,2.63-1.81c-1.95-4.94-13.41-3.81-15.89-3.14
				C41.9,44.21,43.24,46.9,43.24,46.9z"/>
			<path class="st5" d="M57.63,26.92c0,0,12.59-1.12,14.38,1.57c1.8,2.7,4.58,3.13,2.63-1.81s-13.41-3.81-15.89-3.14
				C56.28,24.22,57.63,26.92,57.63,26.92z"/>
			<path class="st5" d="M63.25,44.21c0,0-8.54-12.59-9.21-12.81s2.63-0.92,2.63-0.92s1.71,0.32,5.46,6.54
				c3.54,5.88,1.12,8.33,1.12,8.33V44.21z"/>
			<path class="st5" d="M69.99,32.97c0,0-15.17,2.81-18.09,4.16c-2.92,1.35-1.35,2.7-1.35,2.7s17.31-3.37,19.44-4.05
				C72.13,35.1,69.99,32.97,69.99,32.97z"/>
			<path class="st6" d="M25.66,66.05c0,0,4.1-3.44,8.6-1.64s11.01,8.31,14.38,8.09C52.01,72.28,59,72.51,59,72.51
				s-10.31,0.93-18-1.07c-7.75-2.02-7.98-6.29-11.8-3.88C25.38,69.97,25.66,66.05,25.66,66.05z"/>
			<path class="st1" d="M31.05,60.48l8.77-6.92c0,0-7.03,6.92,3.06,6.92s8.98,5.25,18.04,5.58s-4.25,3.85-9.81,2.25
				c-5.56-1.6-10.87-6.96-17.19-6.15S31.05,60.48,31.05,60.48z"/>
		</g>
	</g>
</g>
</svg>
