<?xml version="1.0" encoding="utf-8"?>
<!-- Generator: Adobe Illustrator 25.0.0, SVG Export Plug-In . SVG Version: 6.00 Build 0)  -->
<svg version="1.1" id="Capa_1" xmlns="http://www.w3.org/2000/svg" xmlns:xlink="http://www.w3.org/1999/xlink" x="0px" y="0px"
	 viewBox="0 0 85.04 85.04" style="enable-background:new 0 0 85.04 85.04;" xml:space="preserve">
<style type="text/css">
	.st0{clip-path:url(#XMLID_3_);fill:#3C3C3B;}
	.st1{clip-path:url(#XMLID_3_);}
	.st2{fill:#008D36;}
	.st3{fill:#93C01F;}
	.st4{fill:#B8B700;}
	.st5{fill:#39A935;}
	.st6{fill:#FFFFFF;}
	.st7{fill:#F29100;}
	.st8{fill:#F8B133;}
	.st9{fill:#FCEA0D;}
</style>
<g>
	<g>
		<defs>
			<circle id="XMLID_2_" cx="43.81" cy="42.52" r="37.76"/>
		</defs>
		<use xlink:href="#XMLID_2_"  style="overflow:visible;fill:#ACDCEF;"/>
		<clipPath id="XMLID_3_">
			<use xlink:href="#XMLID_2_"  style="overflow:visible;"/>
		</clipPath>
		<path class="st0" d="M10.53,65.71c-0.21,1.47,6.13-51.81,15.33-34.47c6.43,12.12,6.1,15.07,12.85,10.81S43.7,5.06,51.34,16.4
			c11.25,16.69,11.08,11.83,22.53,8.45s7.06,12.35,14.3,23.93c1.53,2.45-15.93,40.43-56.41,40.35
			C28.53,89.12,10.53,65.71,10.53,65.71z"/>
		<g class="st1">
			<path class="st2" d="M58.63,71.32c0,0-19.34,4.08-15.29-0.39s16.23-24.45,15.64-28.4s-12.95,13.99-7.73,6.77
				S62.92-5.83,64.65,19.2c0.22,3.19,1.92,27.28,8.17,26.07s16.3,2.87,9.23,4.31c-7.07,1.43-17.09-0.61-11.92,6.61
				s16.43-3.97,14.96,4.53c-1.47,8.49-19.65,0.84-20.98,7.97S58.63,71.32,58.63,71.32z"/>
			<path class="st3" d="M52.01,71.76c0,0-21.62,9.3-20.36,5.85c1.26-3.45,10.91-6.62,10.86-10.17c-0.04-3.55-11.38,3.2-7.92-2.89
				s9.26,0.51,11.84-6.56c2.58-7.08-6.46,0.7-4.17-3.24s12.1-22.98,11.65-13.89c-0.45,9.09-2.85,14.9,3.35,14.39
				c6.2-0.51-6.84,3.33-6.13,7.4c0.71,4.08,8.86-7.56,11.6,2.22s0.69,0.73-4.44,1.72C53.15,67.6,52.01,71.76,52.01,71.76z"/>
			<path class="st4" d="M78.73,63.77c0,0,21.62,9.3,20.36,5.85c-1.26-3.45-10.91-6.62-10.86-10.17s11.38,3.2,7.92-2.89
				c-3.46-6.09-9.26,0.51-11.84-6.56c-2.58-7.08,6.46,0.7,4.17-3.24s-12.1-22.98-11.65-13.89c0.45,9.09,2.85,14.9-3.35,14.39
				s2.08,2.44,1.37,6.51s-4.1-6.67-6.83,3.11s-0.69,0.73,4.44,1.72S78.73,63.77,78.73,63.77z"/>
		</g>
		<g class="st1">
			<path class="st2" d="M30.05,88c0,0-19.34,4.08-15.29-0.39c4.05-4.47,16.49-12.74,15.9-16.7c-0.59-3.95-13.21,2.29-7.99-4.93
				s15.98-28.2,13.4-30.09c-2.58-1.88,1.92,27.28,8.17,26.07c6.26-1.21,16.3,2.87,9.23,4.31c-7.07,1.43-14.08-5.68-8.91,1.54
				c5.17,7.22,13.42,1.1,11.95,9.59c-1.47,8.49-19.65,0.84-20.98,7.97C34.2,92.5,30.05,88,30.05,88z"/>
			<path class="st5" d="M72.49,74c0,0-28.14,5.88-26.88,2.42c1.26-3.45,19.21-10.33,19.17-13.87s-11.38,3.2-7.92-2.89
				s9.26,0.51,11.84-6.56c2.58-7.08-6.46,0.7-4.17-3.24c2.29-3.94,12.1-22.98,11.65-13.89s-2.85,14.9,3.35,14.39
				c6.2-0.51-6.84,3.33-6.13,7.4s8.86-7.56,11.6,2.22s0.69,0.73-4.44,1.72C75.41,62.7,72.49,74,72.49,74z"/>
		</g>
		<g class="st1">
			<path class="st6" d="M16.43,43.9c0,0,2.28-11.54,4.22-12.72c1.94-1.18,5.42,0.07,6.4,4.39c0.98,4.33-1.9-2.23-3.54-0.85
				c-1.64,1.38,4.39,1.77,2.49,4.98c-1.9,3.21-4.92-1.51-4.79-3.08c0.13-1.57,1.57,3.02-1.18,5.25s0.39-3.65-1.05-1.6
				C17.55,42.33,16.43,43.9,16.43,43.9z"/>
			<path class="st6" d="M45.78,28.1c0,0,1.63-14.16,3.96-11.02s4.72,6.36,5.48,8.92c0.67,2.27-2.72-3.22-2.85,1.5
				s4.82,5.71-0.16,3.88s0.58-6.95-2.47-3.8s-5.05,9.42-5.18,5.31"/>
		</g>
		<g class="st1">
			<circle class="st7" cx="30.43" cy="19.95" r="8.51"/>
			<circle class="st8" cx="29.81" cy="20.48" r="7.08"/>
			<circle class="st9" cx="29.73" cy="21.09" r="5.69"/>
		</g>
	</g>
</g>
</svg>
