<?xml version="1.0" encoding="utf-8"?>
<!-- Generator: Adobe Illustrator 14.0.0, SVG Export Plug-In . SVG Version: 6.00 Build 43363)  -->
<!DOCTYPE svg PUBLIC "-//W3C//DTD SVG 1.1//EN" "http://www.w3.org/Graphics/SVG/1.1/DTD/svg11.dtd">
<svg version="1.1" id="Capa_1" xmlns="http://www.w3.org/2000/svg" xmlns:xlink="http://www.w3.org/1999/xlink" x="0px" y="0px"
	 width="70.87px" height="70.871px" viewBox="0 0 70.87 70.871" enable-background="new 0 0 70.87 70.871" xml:space="preserve">
<g>
	<g>
		<path fill="#F19300" d="M65.75,53.861c0,8.615-6.982,15.596-15.592,15.596c-8.617,0-15.6-6.98-15.6-15.596
			c0-8.611,6.982-15.596,15.6-15.596C58.767,38.265,65.75,45.25,65.75,53.861"/>
		<path fill="#F7B234" d="M61.989,54.822c0,7.168-5.809,12.98-12.979,12.98c-7.163,0-12.976-5.813-12.976-12.98
			c0-7.166,5.813-12.977,12.976-12.977C56.18,41.845,61.989,47.656,61.989,54.822"/>
		<path fill="#FCE90A" d="M59.303,55.941c0,5.756-4.669,10.426-10.431,10.426c-5.756,0-10.43-4.67-10.43-10.426
			c0-5.762,4.674-10.428,10.43-10.428C54.635,45.513,59.303,50.179,59.303,55.941"/>
	</g>
	<path fill="#BD0926" d="M51.299,36.202c0,0-1.144-13.047,2.781-5.842c1.778,3.27,7.25,3.836,4.106-0.732
		c-6.535-9.501,9.556,1.734,6.705-4.025c-2.31-4.668,7.291-6.056,0.618-6.92c-6.674-0.865-1.915-8.437-3.862-5.841
		c-1.946,2.597-8.508,6.99-6.778,2.881c1.729-4.11,4.832-9.585,2.021-7.639s-6.491-7.151-6.874-3.245
		c-0.914,9.33-7.615,2.162-6.319,4.975c1.296,2.812,5.008,8.522,1.116,8.091c-3.895-0.432-5.01-5.495-5.226-3.332
		c-0.217,2.163,0.156,5.625-2.409,4.326c-2.564-1.298-4.273,5.143,0,4.975c2.284-0.09,0,2.461,0.313,4.531
		c0.45,2.972,8.954-4.927,6.359-1.034c-2.596,3.893-3.398,8.185,0.928,5.588c4.324-2.598,4.231-7.786,5.376-3.245
		c1.144,4.541-1.422,6.863-0.139,6.676"/>
	<path fill="#0A71B3" d="M12.282,15.944c0,0,2.44,2.218,3.328,1.664c0.887-0.555,2.44,0.111,1.996-3.438
		c-0.443-3.549-5.878-5.325-3.661-7.321c2.219-1.996,1.886,5.99,3.106,2.44c1.221-3.55,1.665-5.99,1.886-4.104
		c0.222,1.886-0.666,5.768,0.888,4.438c1.553-1.332,3.217-3.217,3.549-1.886c0.333,1.332-3.328,2.551-3.328,5.324
		c0,2.774-1.109,3.106,0.111,3.994c1.221,0.888,0.777,1.84,2.33,0.643c1.552-1.197,3.217-1.308,3.549-4.082
		c0.333-2.773,2.44-4.108,2.44-2.22c0,1.888-2.107,4.105,0.665,2.664c2.774-1.441,3.106-0.776,2.664,0.666
		c-0.445,1.441-4.104,0.776-2.995,1.775c1.109,0.999,3.32,0.194,3.157,1.76c-0.162,1.567-4.822,0.014-5.487-0.651
		c-0.667-0.665-3.549,1.886-3.549,1.886s-0.777,2.44,0.332,2.995c1.11,0.555,3.771,1.664,3.771,1.664s4.104-2.44,4.326,0
		c0.222,2.44-3.993,0-2.107,1.665c1.886,1.663,3.45,1.109,2.723,2.439c-0.727,1.332-1.836-0.11-3.61-0.886
		c-1.774-0.777,0.999,0.221,0.554,2.329c-0.443,2.107-2.217,1.775-2.661-0.776c-0.445-2.552-1.088-4.549-4.039-4.881
		c-2.95-0.333-3.061,1.775-3.061,2.773c0,0.998,1.13,2.767,3.061,4.267c1.931,1.501,1.841,3.942,0,2.943
		c-1.84-0.998-2.839-3.438-2.728-1.996c0.11,1.441,1.22,3.549-0.666,3.659c-1.886,0.113-1.109-0.554-0.888-2.662
		c0.222-2.108,0.333-2.662-0.665-1.665c-0.999,0.999-1.997,3.329-2.441,1.109c-0.443-2.218,3.106-1.441,2.552-3.771
		c-0.555-2.329,2.107-3.438,0.333-3.66c-1.775-0.222-2.44-1.331-2.44-1.331l-2.995,1.997c0,0-0.888,4.547-1.997,4.659
		s-1.22-0.666-0.777-1.997c0.444-1.331,0-0.777-1.331-0.444c-1.331,0.332-2.995,0.11-1.664-0.998
		c1.332-1.109,3.217-0.889,2.551-1.553C8.4,24.707,5.98,25.15,6.026,23.486c0.044-1.664,3.373,0.998,4.592,0.111
		c1.22-0.887,3.439-1.109,3.439-1.109l0.221-2.884c0,0-1.996-2.33-3.549-1.775c-1.553,0.555-5.859,1.109-4.704-0.777
		c1.154-1.886,4.592,1.109,1.82-1.664c-2.774-2.773-2.33-2.996-0.223-1.997c2.108,0.999,2.33,0.888,1.775-0.555
		c-0.555-1.442,1.331-2.773,1.441-1.109C10.951,13.393,12.282,15.944,12.282,15.944z"/>
	<path fill="#96BD0D" d="M19.233,55.757c0,0,7.432-6.146,3.993-12.025c-3.439-5.879-5.879-5.988-8.209,0.557
		c-2.329,6.543-0.333,7.576,1.22,9.389C17.79,55.492,19.233,55.757,19.233,55.757z"/>
	<path fill="#00632E" d="M19.044,66.185c0,0-2.099-8.775,5.09-12.508c7.189-3.732,8.653,0,8.653,0s2.419,8.359-4.349,11.352
		C21.673,68.025,19.044,66.185,19.044,66.185z"/>
	<path fill="#40A52B" d="M17.125,62.591c0,0,1.22-7.434-5.769-10.096s-6.544-0.479-6.544-0.479s-0.776,6.914,5.658,9.242
		C16.903,63.587,17.125,62.591,17.125,62.591z"/>
</g>
</svg>
