<?xml version="1.0" encoding="utf-8"?>
<!-- Generator: Adobe Illustrator 14.0.0, SVG Export Plug-In . SVG Version: 6.00 Build 43363)  -->
<!DOCTYPE svg PUBLIC "-//W3C//DTD SVG 1.1//EN" "http://www.w3.org/Graphics/SVG/1.1/DTD/svg11.dtd">
<svg version="1.1" id="Capa_1" xmlns="http://www.w3.org/2000/svg" xmlns:xlink="http://www.w3.org/1999/xlink" x="0px" y="0px"
	 width="70.87px" height="70.871px" viewBox="0 0 70.87 70.871" enable-background="new 0 0 70.87 70.871" xml:space="preserve">
<path fill="#F19300" d="M6.325,40.472c-1.967-0.037-3.107-0.062-3.107-0.062S-2.305,56.462,6.67,56.462
	c8.975,0,60.582,2.417,61.791,0c1.208-2.416,3.451-17.087-6.559-16.052C53.422,41.289,17.21,40.679,6.325,40.472z"/>
<polygon fill="#1A171B" points="6.325,48.948 8.914,48.948 9.604,40.359 6.325,40.472 "/>
<polygon fill="#1A171B" points="26.001,48.948 28.59,48.948 29.28,40.359 26.001,40.472 "/>
<polygon fill="#1A171B" points="12.538,40.359 11.675,44.653 14.437,44.653 15.472,40.629 "/>
<polygon fill="#1A171B" points="31.295,40.485 30.908,44.849 33.653,44.545 34.24,40.432 "/>
<polygon fill="#1A171B" points="21.513,40.359 20.65,44.653 23.412,44.653 24.447,40.629 "/>
<polygon fill="#1A171B" points="17.158,40.664 15.472,50.939 18.324,50.939 19.623,40.709 "/>
<polygon fill="#1A171B" points="55.17,48.948 57.759,48.948 58.449,40.359 55.17,40.472 "/>
<polygon fill="#1A171B" points="60.464,40.485 60.076,44.849 62.823,44.545 63.409,40.432 "/>
<polygon fill="#1A171B" points="40.787,40.485 40.401,44.849 43.146,44.545 43.734,40.432 "/>
<polygon fill="#1A171B" points="50.682,40.359 49.82,44.653 52.581,44.653 53.615,40.629 "/>
<polygon fill="#1A171B" points="46.327,40.664 44.641,50.939 47.493,50.939 48.792,40.709 "/>
<polygon fill="#1A171B" points="36.63,40.745 36.168,51.149 39,50.812 39.082,40.5 "/>
</svg>
