<?xml version="1.0" encoding="utf-8"?>
<!-- Generator: Adobe Illustrator 25.0.0, SVG Export Plug-In . SVG Version: 6.00 Build 0)  -->
<svg version="1.1" id="Capa_1" xmlns="http://www.w3.org/2000/svg" xmlns:xlink="http://www.w3.org/1999/xlink" x="0px" y="0px"
	 viewBox="0 0 209.76 153.49" style="enable-background:new 0 0 209.76 153.49;" xml:space="preserve">
<style type="text/css">
	.st0{clip-path:url(#XMLID_3_);fill:#3C3C3B;}
	.st1{clip-path:url(#XMLID_3_);}
	.st2{fill:#008D36;}
	.st3{fill:#95C11F;}
	.st4{fill:#B9B800;}
	.st5{fill:#3AAA35;}
	.st6{fill:#FFFFFF;}
	.st7{fill:#F39200;}
	.st8{fill:#F9B233;}
	.st9{fill:#FCEA10;}
	.st10{fill:#F9B233;stroke:#F9B233;stroke-width:1.4065;stroke-miterlimit:10;}
	.st11{fill:#3C3C3B;stroke:#3C3C3B;stroke-width:1.4065;stroke-miterlimit:10;}
</style>
<g>
	<g>
		<g>
			<defs>
				<circle id="XMLID_2_" cx="107.65" cy="66.94" r="37.76"/>
			</defs>
			<use xlink:href="#XMLID_2_"  style="overflow:visible;fill:#ADDDF0;"/>
			<clipPath id="XMLID_3_">
				<use xlink:href="#XMLID_2_"  style="overflow:visible;"/>
			</clipPath>
			<path class="st0" d="M74.37,90.14c-0.21,1.47,6.13-51.81,15.33-34.47c6.43,12.12,6.1,15.07,12.85,10.81
				c6.76-4.26,4.98-36.99,12.62-25.65c11.25,16.69,11.08,11.83,22.53,8.45c11.45-3.39,7.06,12.35,14.3,23.93
				c1.53,2.45-15.93,40.43-56.41,40.35C92.37,113.55,74.37,90.14,74.37,90.14z"/>
			<g class="st1">
				<path class="st2" d="M122.47,95.74c0,0-19.34,4.08-15.29-0.39c4.05-4.47,16.23-24.45,15.64-28.4s-12.95,13.99-7.73,6.77
					c5.22-7.22,11.67-55.12,13.4-30.09c0.22,3.19,1.92,27.28,8.17,26.07c6.26-1.21,16.3,2.87,9.23,4.31
					c-7.07,1.43-17.09-0.61-11.92,6.61s16.43-3.97,14.96,4.53c-1.47,8.49-19.65,0.84-20.98,7.97
					C126.61,100.24,122.47,95.74,122.47,95.74z"/>
				<path class="st3" d="M115.85,96.19c0,0-21.62,9.3-20.36,5.85c1.26-3.45,10.91-6.62,10.86-10.17c-0.04-3.55-11.38,3.2-7.92-2.89
					c3.46-6.09,9.26,0.51,11.84-6.56c2.58-7.08-6.46,0.7-4.17-3.24s12.1-22.98,11.65-13.89c-0.45,9.09-2.85,14.9,3.35,14.39
					c6.2-0.51-6.84,3.33-6.13,7.4s8.86-7.56,11.6,2.22c2.74,9.78,0.69,0.73-4.44,1.72S115.85,96.19,115.85,96.19z"/>
				<path class="st4" d="M142.56,88.19c0,0,21.62,9.3,20.36,5.85c-1.26-3.45-10.91-6.62-10.86-10.17c0.04-3.55,11.38,3.2,7.92-2.89
					c-3.46-6.09-9.26,0.51-11.84-6.56s6.46,0.7,4.17-3.24s-12.1-22.98-11.65-13.89c0.45,9.09,2.85,14.9-3.35,14.39
					s2.08,2.44,1.37,6.51c-0.71,4.08-4.1-6.67-6.83,3.11c-2.74,9.78-0.69,0.73,4.44,1.72S142.56,88.19,142.56,88.19z"/>
			</g>
			<g class="st1">
				<path class="st2" d="M93.89,112.42c0,0-19.34,4.08-15.29-0.39c4.05-4.47,16.49-12.74,15.9-16.7c-0.59-3.95-13.21,2.29-7.99-4.93
					c5.22-7.22,15.98-28.2,13.4-30.09s1.92,27.28,8.17,26.07c6.26-1.21,16.3,2.87,9.23,4.31c-7.07,1.43-14.08-5.68-8.91,1.54
					c5.17,7.22,13.42,1.1,11.95,9.59c-1.47,8.49-19.65,0.84-20.98,7.97C98.03,116.92,93.89,112.42,93.89,112.42z"/>
				<path class="st5" d="M136.33,98.42c0,0-28.14,5.88-26.88,2.42s19.21-10.33,19.17-13.87c-0.04-3.55-11.38,3.2-7.92-2.89
					c3.46-6.09,9.26,0.51,11.84-6.56c2.58-7.08-6.46,0.7-4.17-3.24c2.29-3.94,12.1-22.98,11.65-13.89
					c-0.45,9.09-2.85,14.9,3.35,14.39c6.2-0.51-6.84,3.33-6.13,7.4c0.71,4.08,8.86-7.56,11.6,2.22c2.74,9.78,0.69,0.73-4.44,1.72
					S136.33,98.42,136.33,98.42z"/>
			</g>
			<g class="st1">
				<path class="st6" d="M80.27,68.33c0,0,2.28-11.54,4.22-12.72c1.94-1.18,5.42,0.07,6.4,4.39s-1.9-2.23-3.54-0.85
					c-1.64,1.38,4.39,1.77,2.49,4.98c-1.9,3.21-4.92-1.51-4.79-3.08s1.57,3.02-1.18,5.25c-2.75,2.23,0.39-3.65-1.05-1.6
					S80.27,68.33,80.27,68.33z"/>
				<path class="st6" d="M109.62,52.53c0,0,1.63-14.16,3.96-11.02c2.33,3.15,4.72,6.36,5.48,8.92c0.67,2.27-2.72-3.22-2.85,1.5
					c-0.13,4.72,4.82,5.71-0.16,3.88c-4.98-1.84,0.58-6.95-2.47-3.8c-3.04,3.15-5.05,9.42-5.18,5.31"/>
			</g>
			<g class="st1">
				<circle class="st7" cx="94.27" cy="44.38" r="8.51"/>
				<circle class="st8" cx="93.65" cy="44.9" r="7.08"/>
				<circle class="st9" cx="93.57" cy="45.51" r="5.69"/>
			</g>
		</g>
	</g>
	<g>
		<g>
			<path class="st10" d="M16.5,108.92h1.51c3.12,0,5.81,1.24,8.08,3.71v0.27c-0.12,0-0.66,0.36-1.63,1.09h-0.15
				c-2.06-1.83-4.16-2.74-6.3-2.74h-1.24c-3.36,0-6.15,1.83-8.36,5.49c-0.64,1.4-0.96,2.68-0.96,3.83v0.69
				c0,3.91,1.92,6.83,5.76,8.78c1.35,0.64,2.72,0.96,4.1,0.96c2.7,0,4.99-0.92,6.87-2.74h0.12c0.92,0.61,1.48,1.06,1.66,1.36v0.15
				c-2.24,2.37-5.13,3.56-8.65,3.56H17.2c-4.94,0-8.69-2.51-11.25-7.54c-0.54-1.4-0.82-2.77-0.82-4.1v-1.11
				c0-4.76,2.55-8.37,7.67-10.83C14.18,109.2,15.42,108.92,16.5,108.92z"/>
			<path class="st11" d="M40.19,109.05h1.09c4.71,0,8.37,2.6,10.98,7.81c0.45,1.62,0.67,2.94,0.67,3.98v12.49
				c0,0.18-0.09,0.27-0.27,0.27h-1.78c-0.18,0-0.27-0.09-0.27-0.27v-4.8h-0.12c-2.51,3.28-5.66,4.92-9.47,4.92h-0.27
				c-5.34,0-9.18-2.69-11.52-8.08c-0.46-1.12-0.69-2.45-0.69-3.98v-0.54c0-4.83,2.56-8.49,7.69-10.98
				C37.48,109.32,38.8,109.05,40.19,109.05z M30.84,120.84v0.42c0,4.35,2.24,7.46,6.72,9.32c0.92,0.36,2.02,0.54,3.29,0.54
				c4.3,0,7.42-2.33,9.35-7c0.26-0.96,0.4-1.91,0.4-2.87v-0.42c0-3.74-2.05-6.67-6.16-8.78c-1.04-0.46-2.23-0.69-3.58-0.69h-0.27
				c-4.5,0-7.66,2.47-9.47,7.42C30.93,119.65,30.84,120.33,30.84,120.84z"/>
			<path class="st11" d="M63.18,108.97h1.38c3.33,0,5.81,1.75,7.44,5.24h0.27c1.58-3.49,3.74-5.24,6.48-5.24h0.96
				c4.09,0,6.89,2.25,8.41,6.75c0.46,1.7,0.69,3.68,0.69,5.93v11.69c0,0.2-0.09,0.3-0.27,0.3h-1.8c-0.18,0-0.27-0.1-0.27-0.3v-11.84
				c0-5.26-1.47-8.52-4.4-9.79c-0.86-0.26-1.64-0.4-2.35-0.4h-0.54c-2.8,0-4.74,2.34-5.81,7.02c0,0.46-0.04,0.69-0.12,0.69
				c0.08,1.37,0.12,2.37,0.12,3.02v11.3c0,0.2-0.09,0.3-0.27,0.3h-1.93c-0.18,0-0.27-0.1-0.27-0.3v-12.93c0-4.29-1.43-7.19-4.28-8.7
				c-1.04-0.26-1.86-0.4-2.47-0.4h-0.82c-2.77,0-4.61,2.71-5.51,8.13v13.89c0,0.2-0.09,0.3-0.27,0.3h-1.8c-0.18,0-0.27-0.1-0.27-0.3
				v-14.19c0-2.67,1.1-5.37,3.31-8.11C60.23,109.67,61.7,108.97,63.18,108.97z"/>
			<path class="st11" d="M91.76,109h1.78c0.18,0.03,0.27,0.12,0.27,0.27v24.13c0,0.18-0.09,0.27-0.27,0.27h-1.78
				c-0.18,0-0.27-0.09-0.27-0.27v-24.13C91.52,109.09,91.61,109,91.76,109z"/>
			<path class="st11" d="M109.09,109.12c5.16,0,8.77,2.23,10.83,6.7c0.73,1.9,1.09,3.73,1.09,5.49v12.04c0,0.2-0.09,0.3-0.27,0.3
				h-1.78c-0.18,0-0.27-0.1-0.27-0.3v-11.77c0-4.61-1.87-7.76-5.61-9.44c-1.06-0.36-2.43-0.59-4.13-0.69
				c-4.83,0-7.89,2.28-9.17,6.85c-0.36,1.1-0.54,2.34-0.54,3.71v11.35c0,0.2-0.09,0.3-0.27,0.3h-1.78c-0.18,0-0.27-0.1-0.27-0.3V122
				c0-5.85,2.33-9.82,7-11.92C105.43,109.44,107.16,109.12,109.09,109.12z"/>
			<path class="st11" d="M124.35,109h1.78c0.18,0.03,0.27,0.12,0.27,0.27v24.13c0,0.18-0.09,0.27-0.27,0.27h-1.78
				c-0.18,0-0.27-0.09-0.27-0.27v-24.13C124.11,109.09,124.2,109,124.35,109z"/>
			<path class="st11" d="M167.29,108.97c5.14,0,9,2.7,11.57,8.11c0.46,1.7,0.69,3.12,0.69,4.28c0,5.26-2.75,9.12-8.26,11.57
				c-1.5,0.45-2.88,0.67-4.15,0.67c-5.22,0-9.07-2.75-11.55-8.26c-0.46-1.6-0.69-2.97-0.69-4.13c0-5.21,2.75-9.06,8.26-11.55
				C164.93,109.2,166.3,108.97,167.29,108.97z M157.25,121.36c0,4.05,2.15,7.13,6.45,9.22c1.43,0.46,2.63,0.69,3.58,0.69
				c4.1,0,7.18-2.16,9.22-6.48c0.46-1.42,0.69-2.61,0.69-3.58c0-3.49-1.7-6.34-5.09-8.53c-1.71-0.91-3.37-1.36-4.97-1.36
				c-3.45,0-6.29,1.7-8.53,5.09C157.71,118.16,157.25,119.81,157.25,121.36z"/>
			<path class="st11" d="M193.94,109.27c5.34,0,9.07,1.54,11.17,4.62v0.12c-1.15,0.61-1.8,0.92-1.93,0.92
				c-1.86-2.31-5.03-3.46-9.49-3.46c-5.65,0.18-8.48,1.12-8.48,2.82c-0.26,0.63-0.4,1.35-0.4,2.18c0,1.81,0.78,2.97,2.32,3.46
				c1.35,0.26,2.46,0.4,3.34,0.4h4.62c6.76,0,10.14,2.22,10.14,6.67v1.29c0,2.31-2.44,3.93-7.32,4.87c-1.9,0.26-3.65,0.4-5.27,0.4
				c-5.23,0-8.48-0.94-9.77-2.82c-0.17-0.64-0.25-1.03-0.25-1.16l0.25-0.12h1.8c1.04,1.29,3.77,1.93,8.21,1.93
				c5.46,0,8.8-0.99,10.04-2.97c0.08-0.13,0.12-0.35,0.12-0.64v-0.64c0-2.26-1.29-3.67-3.86-4.23c-1.07-0.26-2.48-0.4-4.23-0.4
				h-4.25c-5.39,0-8.08-2.01-8.08-6.03c0-2.85,1.03-4.82,3.09-5.91C187.58,109.7,190.32,109.27,193.94,109.27z"/>
		</g>
		<g>
			<path class="st10" d="M143.89,109.81c5.11,2.46,7.66,6.07,7.66,10.83v1.11c0,1.33-0.27,2.7-0.82,4.1
				c-2.55,5.03-6.3,7.54-11.25,7.54h-0.12c-3.53,0-6.41-1.19-8.65-3.56v-0.15c0.18-0.3,0.73-0.75,1.66-1.36h0.12
				c1.88,1.83,4.17,2.74,6.87,2.74c1.38,0,2.75-0.32,4.1-0.96c3.84-1.94,5.76-4.87,5.76-8.78v-0.69c0-1.15-0.32-2.43-0.96-3.83
				c-2.21-3.66-4.99-5.49-8.36-5.49h-1.24c-2.14,0-4.24,0.91-6.3,2.74h-0.15c-0.97-0.73-1.52-1.09-1.63-1.09v-0.27
				c2.27-2.47,4.97-3.71,8.08-3.71h1.51C141.27,109,142.51,109.27,143.89,109.81z"/>
		</g>
	</g>
</g>
</svg>
