<?xml version="1.0" encoding="utf-8"?>
<!-- Generator: Adobe Illustrator 25.0.0, SVG Export Plug-In . SVG Version: 6.00 Build 0)  -->
<svg version="1.1" id="Capa_1" xmlns="http://www.w3.org/2000/svg" xmlns:xlink="http://www.w3.org/1999/xlink" x="0px" y="0px"
	 viewBox="0 0 147.4 107.85" style="enable-background:new 0 0 147.4 107.85;" xml:space="preserve">
<style type="text/css">
	.st0{clip-path:url(#XMLID_3_);fill:#3C3C3B;}
	.st1{clip-path:url(#XMLID_3_);}
	.st2{fill:#008D36;}
	.st3{fill:#95C11F;}
	.st4{fill:#B9B800;}
	.st5{fill:#3AAA35;}
	.st6{fill:#FFFFFF;}
	.st7{fill:#F39200;}
	.st8{fill:#F9B233;}
	.st9{fill:#FCEA10;}
	.st10{fill:#F9B233;stroke:#F9B233;stroke-width:0.9988;stroke-miterlimit:10;}
	.st11{fill:#3C3C3B;stroke:#3C3C3B;stroke-width:0.9988;stroke-miterlimit:10;}
</style>
<g>
	<g>
		<g>
			<defs>
				<circle id="XMLID_2_" cx="75.45" cy="48.75" r="26.81"/>
			</defs>
			<use xlink:href="#XMLID_2_"  style="overflow:visible;fill:#ADDDF0;"/>
			<clipPath id="XMLID_3_">
				<use xlink:href="#XMLID_2_"  style="overflow:visible;"/>
			</clipPath>
			<path class="st0" d="M51.82,65.22c-0.15,1.04,4.36-36.79,10.89-24.48c4.56,8.6,4.33,10.7,9.13,7.68s3.53-26.27,8.96-18.22
				c7.99,11.85,7.87,8.4,16,6s5.01,8.77,10.15,16.99c1.09,1.74-11.31,28.71-40.06,28.66C64.6,81.85,51.82,65.22,51.82,65.22z"/>
			<g class="st1">
				<path class="st2" d="M85.97,69.2c0,0-13.73,2.89-10.86-0.28s11.52-17.36,11.11-20.17c-0.42-2.81-9.2,9.94-5.49,4.81
					c3.71-5.13,8.29-39.14,9.51-21.37c0.16,2.26,1.36,19.37,5.8,18.51s11.58,2.04,6.55,3.06c-5.02,1.02-12.14-0.44-8.46,4.69
					c3.67,5.13,11.67-2.82,10.62,3.21s-13.96,0.6-14.9,5.66C88.92,72.4,85.97,69.2,85.97,69.2z"/>
				<path class="st3" d="M81.27,69.52c0,0-15.35,6.6-14.46,4.15c0.89-2.45,7.75-4.7,7.71-7.22c-0.03-2.52-8.08,2.27-5.62-2.05
					s6.58,0.36,8.41-4.66c1.83-5.03-4.59,0.5-2.96-2.3c1.63-2.8,8.59-16.32,8.27-9.86S80.6,58.16,85,57.8
					c4.4-0.36-4.86,2.36-4.36,5.26c0.5,2.89,6.29-5.37,8.24,1.58c1.94,6.94,0.49,0.52-3.16,1.22S81.27,69.52,81.27,69.52z"/>
				<path class="st4" d="M100.24,63.84c0,0,15.35,6.6,14.46,4.15c-0.89-2.45-7.75-4.7-7.71-7.22c0.03-2.52,8.08,2.27,5.62-2.05
					s-6.58,0.36-8.41-4.66c-1.83-5.03,4.59,0.5,2.96-2.3s-8.59-16.32-8.27-9.86s2.03,10.58-2.38,10.22
					c-4.4-0.36,1.48,1.73,0.97,4.63c-0.5,2.89-2.91-4.73-4.85,2.21c-1.94,6.94-0.49,0.52,3.16,1.22S100.24,63.84,100.24,63.84z"/>
			</g>
			<g class="st1">
				<path class="st2" d="M65.68,81.05c0,0-13.73,2.89-10.86-0.28c2.88-3.17,11.71-9.05,11.29-11.86s-9.38,1.62-5.68-3.5
					c3.71-5.13,11.34-20.03,9.51-21.37s1.36,19.37,5.8,18.51c4.44-0.86,11.58,2.04,6.55,3.06c-5.02,1.02-10-4.03-6.33,1.09
					c3.67,5.13,9.53,0.78,8.48,6.81s-13.96,0.6-14.9,5.66C68.62,84.24,65.68,81.05,65.68,81.05z"/>
				<path class="st5" d="M95.82,71.11c0,0-19.98,4.17-19.09,1.72c0.89-2.45,13.64-7.33,13.61-9.85c-0.03-2.52-8.08,2.27-5.62-2.05
					c2.46-4.32,6.58,0.36,8.41-4.66s-4.59,0.5-2.96-2.3c1.63-2.8,8.59-16.32,8.27-9.86s-2.03,10.58,2.38,10.22
					c4.4-0.36-4.86,2.36-4.36,5.26c0.5,2.89,6.29-5.37,8.24,1.58c1.94,6.94,0.49,0.52-3.16,1.22S95.82,71.11,95.82,71.11z"/>
			</g>
			<g class="st1">
				<path class="st6" d="M56.01,49.74c0,0,1.62-8.19,3-9.03c1.38-0.84,3.85,0.05,4.55,3.12c0.7,3.07-1.35-1.58-2.51-0.61
					c-1.16,0.98,3.12,1.26,1.77,3.54c-1.35,2.28-3.49-1.07-3.4-2.19c0.09-1.12,1.12,2.14-0.84,3.72c-1.96,1.58,0.28-2.59-0.74-1.13
					C56.8,48.62,56.01,49.74,56.01,49.74z"/>
				<path class="st6" d="M76.85,38.51c0,0,1.15-10.06,2.81-7.82c1.66,2.23,3.35,4.52,3.89,6.33c0.48,1.61-1.93-2.29-2.03,1.07
					c-0.09,3.35,3.42,4.06-0.12,2.75c-3.54-1.3,0.41-4.94-1.75-2.7c-2.16,2.23-3.59,6.69-3.68,3.77"/>
			</g>
			<g class="st1">
				<circle class="st7" cx="65.95" cy="32.73" r="6.04"/>
				<circle class="st8" cx="65.51" cy="33.1" r="5.03"/>
				<circle class="st9" cx="65.45" cy="33.53" r="4.04"/>
			</g>
		</g>
	</g>
	<g>
		<g>
			<path class="st10" d="M10.73,78.57h1.07c2.21,0,4.13,0.88,5.74,2.63v0.19c-0.08,0-0.47,0.26-1.16,0.77h-0.11
				c-1.46-1.3-2.96-1.95-4.48-1.95h-0.88c-2.39,0-4.37,1.3-5.93,3.9c-0.46,1-0.69,1.9-0.69,2.72v0.49c0,2.77,1.36,4.85,4.09,6.23
				c0.96,0.46,1.93,0.69,2.91,0.69c1.92,0,3.55-0.65,4.88-1.95h0.09c0.66,0.43,1.05,0.75,1.18,0.97v0.11
				c-1.59,1.69-3.64,2.53-6.14,2.53h-0.09c-3.51,0-6.17-1.79-7.99-5.36c-0.39-0.99-0.58-1.97-0.58-2.91v-0.79
				c0-3.38,1.81-5.95,5.44-7.69C9.08,78.76,9.95,78.57,10.73,78.57z"/>
			<path class="st11" d="M27.54,78.65h0.77c3.35,0,5.95,1.85,7.8,5.55c0.32,1.15,0.47,2.09,0.47,2.83v8.87
				c0,0.13-0.06,0.19-0.19,0.19h-1.26c-0.13,0-0.19-0.06-0.19-0.19v-3.41h-0.09c-1.78,2.33-4.02,3.49-6.72,3.49h-0.19
				c-3.79,0-6.52-1.91-8.18-5.74c-0.33-0.8-0.49-1.74-0.49-2.83v-0.39c0-3.43,1.82-6.03,5.46-7.8
				C25.62,78.85,26.56,78.65,27.54,78.65z M20.91,87.03v0.3c0,3.09,1.59,5.3,4.78,6.62c0.66,0.26,1.43,0.39,2.33,0.39
				c3.05,0,5.27-1.66,6.64-4.97c0.19-0.68,0.28-1.36,0.28-2.04v-0.3c0-2.66-1.46-4.73-4.37-6.23c-0.74-0.33-1.59-0.49-2.55-0.49
				h-0.19c-3.19,0-5.44,1.76-6.72,5.27C20.97,86.18,20.91,86.66,20.91,87.03z"/>
			<path class="st11" d="M43.87,78.6h0.98c2.36,0,4.13,1.24,5.28,3.72h0.19c1.12-2.48,2.66-3.72,4.6-3.72h0.68
				c2.9,0,4.89,1.6,5.97,4.79c0.33,1.21,0.49,2.61,0.49,4.21v8.3c0,0.14-0.06,0.21-0.19,0.21H60.6c-0.13,0-0.19-0.07-0.19-0.21V87.5
				c0-3.73-1.04-6.05-3.13-6.95c-0.61-0.19-1.16-0.28-1.67-0.28h-0.39c-1.99,0-3.36,1.66-4.13,4.99c0,0.33-0.03,0.49-0.09,0.49
				c0.06,0.97,0.09,1.69,0.09,2.14v8.02c0,0.14-0.06,0.21-0.19,0.21h-1.37c-0.13,0-0.19-0.07-0.19-0.21v-9.18
				c0-3.04-1.01-5.1-3.04-6.18c-0.74-0.19-1.32-0.28-1.76-0.28h-0.58c-1.97,0-3.27,1.93-3.91,5.78v9.87c0,0.14-0.06,0.21-0.19,0.21
				h-1.28c-0.13,0-0.19-0.07-0.19-0.21V85.83c0-1.9,0.78-3.82,2.35-5.76C41.78,79.09,42.82,78.6,43.87,78.6z"/>
			<path class="st11" d="M64.17,78.62h1.26c0.13,0.02,0.19,0.09,0.19,0.19v17.14c0,0.13-0.06,0.19-0.19,0.19h-1.26
				c-0.13,0-0.19-0.06-0.19-0.19V78.81C64,78.68,64.06,78.62,64.17,78.62z"/>
			<path class="st11" d="M76.48,78.71c3.66,0,6.23,1.59,7.69,4.76c0.52,1.35,0.77,2.65,0.77,3.9v8.55c0,0.14-0.06,0.21-0.19,0.21
				h-1.26c-0.13,0-0.19-0.07-0.19-0.21v-8.36c0-3.28-1.33-5.51-3.98-6.71c-0.75-0.26-1.73-0.42-2.93-0.49
				c-3.43,0-5.6,1.62-6.51,4.86c-0.26,0.78-0.39,1.66-0.39,2.63v8.06c0,0.14-0.06,0.21-0.19,0.21h-1.26c-0.13,0-0.19-0.07-0.19-0.21
				v-8.06c0-4.15,1.66-6.98,4.97-8.46C73.88,78.93,75.11,78.71,76.48,78.71z"/>
			<path class="st11" d="M87.31,78.62h1.26c0.13,0.02,0.19,0.09,0.19,0.19v17.14c0,0.13-0.06,0.19-0.19,0.19h-1.26
				c-0.13,0-0.19-0.06-0.19-0.19V78.81C87.14,78.68,87.2,78.62,87.31,78.62z"/>
			<path class="st11" d="M117.8,78.6c3.65,0,6.39,1.92,8.22,5.76c0.33,1.21,0.49,2.22,0.49,3.04c0,3.73-1.95,6.47-5.86,8.22
				c-1.07,0.32-2.05,0.47-2.95,0.47c-3.71,0-6.44-1.95-8.2-5.86c-0.33-1.14-0.49-2.11-0.49-2.93c0-3.7,1.95-6.43,5.86-8.2
				C116.12,78.76,117.1,78.6,117.8,78.6z M110.67,87.4c0,2.88,1.53,5.06,4.58,6.55c1.02,0.33,1.87,0.49,2.55,0.49
				c2.91,0,5.1-1.53,6.55-4.6c0.33-1.01,0.49-1.86,0.49-2.55c0-2.48-1.21-4.5-3.62-6.06c-1.22-0.64-2.39-0.97-3.53-0.97
				c-2.45,0-4.47,1.21-6.06,3.62C111,85.13,110.67,86.3,110.67,87.4z"/>
			<path class="st11" d="M136.73,78.81c3.79,0,6.44,1.09,7.94,3.28v0.09c-0.82,0.43-1.28,0.65-1.37,0.65
				c-1.32-1.64-3.57-2.46-6.74-2.46c-4.01,0.13-6.02,0.8-6.02,2c-0.19,0.44-0.28,0.96-0.28,1.55c0,1.29,0.55,2.11,1.65,2.46
				c0.96,0.19,1.75,0.28,2.37,0.28h3.28c4.8,0,7.2,1.58,7.2,4.74v0.91c0,1.64-1.73,2.79-5.2,3.46c-1.35,0.19-2.59,0.28-3.74,0.28
				c-3.71,0-6.02-0.67-6.93-2c-0.12-0.46-0.18-0.73-0.18-0.83l0.18-0.09h1.28c0.74,0.91,2.68,1.37,5.83,1.37
				c3.87,0,6.25-0.7,7.13-2.11c0.06-0.09,0.09-0.25,0.09-0.46v-0.46c0-1.6-0.91-2.6-2.74-3c-0.76-0.19-1.76-0.28-3-0.28h-3.02
				c-3.83,0-5.74-1.43-5.74-4.28c0-2.02,0.73-3.42,2.19-4.2C132.21,79.12,134.15,78.81,136.73,78.81z"/>
		</g>
		<g>
			<path class="st10" d="M101.19,79.2c3.63,1.74,5.44,4.31,5.44,7.69v0.79c0,0.95-0.19,1.92-0.58,2.91
				c-1.81,3.57-4.48,5.36-7.99,5.36h-0.09c-2.5,0-4.55-0.84-6.14-2.53v-0.11c0.13-0.21,0.52-0.53,1.18-0.97h0.09
				c1.33,1.3,2.96,1.95,4.88,1.95c0.98,0,1.95-0.23,2.91-0.69c2.73-1.38,4.09-3.46,4.09-6.23v-0.49c0-0.82-0.23-1.73-0.69-2.72
				c-1.57-2.6-3.55-3.9-5.93-3.9h-0.88c-1.52,0-3.01,0.65-4.48,1.95H92.9c-0.69-0.52-1.08-0.77-1.16-0.77v-0.19
				c1.62-1.76,3.53-2.63,5.74-2.63h1.07C99.32,78.62,100.2,78.81,101.19,79.2z"/>
		</g>
	</g>
</g>
</svg>
