<?xml version="1.0" encoding="utf-8"?>
<!-- Generator: Adobe Illustrator 14.0.0, SVG Export Plug-In . SVG Version: 6.00 Build 43363)  -->
<!DOCTYPE svg PUBLIC "-//W3C//DTD SVG 1.1//EN" "http://www.w3.org/Graphics/SVG/1.1/DTD/svg11.dtd">
<svg version="1.1" id="Capa_1" xmlns="http://www.w3.org/2000/svg" xmlns:xlink="http://www.w3.org/1999/xlink" x="0px" y="0px"
	 width="70.87px" height="70.87px" viewBox="0 0 70.87 70.87" enable-background="new 0 0 70.87 70.87" xml:space="preserve">
<g>
	<path fill="#41281B" d="M35.802,58.622c0,0-23.491-28.095-14.155-40.639C30.982,5.438,47.61,6.897,51.695,20.317
		c4.084,13.419-9.779,24.125-12.837,31.215C35.802,58.622,35.802,58.622,35.802,58.622z"/>
	<circle fill="#FFFFFF" cx="37.82" cy="25.696" r="8.296"/>
</g>
<path fill="#008A2E" d="M2.279,57.286c0,0,38.717,4.933,49.506,2.03c10.787-2.902,18.11-3.694,18.11-3.694s-6.666,6.598-18.11,8.048
	c-11.445,1.451-39.331,1.076-45.361,4.892C0.395,72.377,2.279,57.286,2.279,57.286z"/>
</svg>
