<?xml version="1.0" encoding="utf-8"?>
<!-- Generator: Adobe Illustrator 14.0.0, SVG Export Plug-In . SVG Version: 6.00 Build 43363)  -->
<!DOCTYPE svg PUBLIC "-//W3C//DTD SVG 1.1//EN" "http://www.w3.org/Graphics/SVG/1.1/DTD/svg11.dtd">
<svg version="1.1" id="Capa_1" xmlns="http://www.w3.org/2000/svg" xmlns:xlink="http://www.w3.org/1999/xlink" x="0px" y="0px"
	 width="283.465px" height="283.464px" viewBox="155.907 279.213 283.465 283.464"
	 enable-background="new 155.907 279.213 283.465 283.464" xml:space="preserve">
<circle fill="#15AD9B" cx="297.402" cy="420.618" r="135.094"/>
<g>
	<path fill="#251403" d="M172.954,337.249c0,0,217.862-38.137,229.987-29.652c12.096,8.484,35.697,168.834,25.423,193.054
		c-10.276,24.22-116.813-0.614-153.715,10.275c-36.904,10.894-83.551,35.112-85.371,37.521c-1.82,2.434-2.408-104.689-9.688-141.592
		C172.31,369.95,172.954,337.249,172.954,337.249z"/>
	<path fill="#F6F6F6" d="M182.026,347.523l21.784,181.548c0,0,47.208-43.567,118.605-38.724
		c71.397,4.845,95.002,12.098,98.642-10.275c3.64-22.399-19.377-161.583-34.495-158.56
		C371.44,324.536,182.026,347.523,182.026,347.523z"/>
	<path fill="#CBBBA0" d="M196.95,357.968c0,0,0,155.758,33.291,141.788s143.886-33.29,164.635-19.964
		c20.748,13.3,10.442-81.197,0-121.824c-10.442-40.6-106.817-12.657-149.544-7.336C202.606,355.952,196.95,357.968,196.95,357.968z"
		/>
	<path fill="#009597" d="M222.57,362.055c0,0-37.379,49.363-5.292,40.263c32.088-9.072,50.679-28.167,62.187-9.407
		c11.507,18.76,32.2,0.139,14.532-22.4C276.327,347.971,222.57,362.055,222.57,362.055z"/>
	<path fill="#006633" d="M340.587,357.714c0,0-53.871,29.736-32.675,62.439c21.194,32.703,50.23-25.34,59.918,13.047
		c9.688,38.388,24.219-13.047,12.711-40.907C369.033,364.491,340.587,357.714,340.587,357.714z"/>
	<path fill="#008D36" d="M343.862,367.346c0,0-51.239,31.499-22.202,47.291c29.034,15.792,41.298-26.683,47.206,0
		c5.907,26.685,10.443-6.887,9.996-16.883c-0.449-9.996-26.74-33.292-33.04-30.408s-6.3,2.884-6.3,2.884"/>
	<path fill="#B9B800" d="M347.922,373.395c0,0-31.61,23.603-22.09,33.822c9.519,10.221,37.965-16.154,39.338-11.283
		c1.371,4.872,8.006,15.903,6.721,4.872c-1.288-11.033-14.672-26.32-19.601-27.075C347.39,372.946,347.922,373.395,347.922,373.395z
		"/>
	<path fill="#E30613" d="M350.329,380.73c0,0-28.278,19.964-14.139,17.557c14.139-2.408,25.508-10.893,28.363-6.356
		c2.884,4.536,2.939-5.292-4.928-6.497C351.786,384.231,350.329,380.73,350.329,380.73z"/>
	<path fill="#432918" d="M199.582,418.473c0,0,67.758-53.282,90.774-6.44c23.015,46.845,80.497,20.216,102.28,43.203
		c21.785,22.988,14.225,19.964,14.225,19.964l-7.701,5.795c0,0,3.166-23.322-24.078-28.781c-27.242-5.46-75.43-1.513-84.725-26.963
		c-9.295-25.424-19.516-35.449-46.591-26.768c-27.075,8.68-43.372,28.951-43.372,28.951L199.582,418.473z"/>
	<path fill="#634E42" d="M234.469,473.492c0,0,7.476,10.64,3.948,13.777c-3.556,3.161,9.493-1.962,9.493-1.962
		s-8.709-7.083-8.709-10.247S234.469,473.492,234.469,473.492z"/>
	<path fill="#8F861D" d="M231.921,480.578c0,0-9.547,1.566-9.659-7.086c-0.112-8.679,13.888-8.765,12.599-15.063
		c-1.288-6.3,5.321-8.063,6.692,0c1.373,8.063,0.392,9.352,3.248,12.795c2.856,3.444,14.224,1.485,3.948,4.62
		c-10.275,3.136-14.839-2.799-13.888,1.176C235.842,480.995,231.921,480.578,231.921,480.578z"/>
	<g>
		<path fill="#7D4E24" d="M251.017,469.46c0,0,5.851,8.287,3.08,10.75c-2.771,2.465,7.392-1.537,7.392-1.537
			s-6.775-5.545-6.775-7.98C254.713,468.255,251.017,469.46,251.017,469.46z"/>
		<path fill="#008D36" d="M247.824,476.767c0,0-9.547,2.129-9.659-9.603c-0.112-11.732,13.887-11.873,12.6-20.439
			c-1.288-8.54,5.32-10.948,6.69,0c1.373,10.947,0.393,12.682,3.249,17.359c2.856,4.675,14.224,2.016,3.948,6.271
			c-10.275,4.256-14.84-3.779-13.887,1.596C251.717,477.329,247.824,476.767,247.824,476.767z"/>
	</g>
	<g>
		<path fill="#7D4E24" d="M268.095,465.344c0,0,5.852,8.288,3.081,10.752c-2.772,2.466,7.391-1.54,7.391-1.54
			s-6.775-5.545-6.775-7.979C271.792,464.139,268.095,465.344,268.095,465.344z"/>
		<path fill="#006633" d="M264.904,472.653c0,0-9.547,2.128-9.66-9.604c-0.111-11.731,13.888-11.872,12.6-20.439
			c-1.288-8.54,5.32-10.948,6.691,0c1.373,10.948,0.393,12.683,3.249,17.36c2.856,4.676,14.223,2.016,3.948,6.27
			c-10.276,4.258-14.84-3.778-13.888,1.597C268.824,473.213,264.904,472.653,264.904,472.653z"/>
	</g>
	<path fill="#62B4C3" d="M226.517,364.771c0,0-26.18,32.172-11.648,31.136s11.06-6.021,26.347-9.968
		c15.288-3.948,24.079-6.047,27.691-5.208c3.612,0.841-26.179-6.271-38.583,3.417c-12.404,9.687-18.311,9.24-12.711,0.308
		C223.213,375.523,226.517,364.771,226.517,364.771z"/>
</g>
</svg>
