<?xml version="1.0" encoding="utf-8"?>
<!-- Generator: Adobe Illustrator 25.0.0, SVG Export Plug-In . SVG Version: 6.00 Build 0)  -->
<svg version="1.1" id="Capa_1" xmlns="http://www.w3.org/2000/svg" xmlns:xlink="http://www.w3.org/1999/xlink" x="0px" y="0px"
	 viewBox="0 0 99.21 88.44" style="enable-background:new 0 0 99.21 88.44;" xml:space="preserve">
<style type="text/css">
	.st0{fill:#251403;}
	.st1{fill:#F6F6F6;}
	.st2{fill:#CBBBA0;}
	.st3{fill:#009597;}
	.st4{fill:#006633;}
	.st5{fill:#008D36;}
	.st6{fill:#B9B800;}
	.st7{fill:#E30613;}
	.st8{fill:#432918;}
	.st9{fill:#634E42;}
	.st10{fill:#8F861D;}
	.st11{fill:#7D4E24;}
	.st12{fill:#62B4C3;}
</style>
<g>
	<path class="st0" d="M2.24,13.16c0,0,77.81-13.62,82.14-10.59c4.32,3.03,12.75,60.3,9.08,68.95c-3.67,8.65-41.72-0.22-54.9,3.67
		S8.72,87.73,8.07,88.59C7.42,89.46,7.21,51.2,4.61,38.02S2.24,13.16,2.24,13.16z"/>
	<path class="st1" d="M5.48,16.83l7.78,64.84c0,0,16.86-15.56,42.36-13.83s33.93,4.32,35.23-3.67c1.3-8-6.92-57.71-12.32-56.63
		C73.13,8.62,5.48,16.83,5.48,16.83z"/>
	<path class="st2" d="M10.81,20.56c0,0,0,55.63,11.89,50.64c11.89-4.99,51.39-11.89,58.8-7.13c7.41,4.75,3.73-29,0-43.51
		c-3.73-14.5-38.15-4.52-53.41-2.62S10.81,20.56,10.81,20.56z"/>
	<path class="st3" d="M19.96,22.02c0,0-13.35,17.63-1.89,14.38c11.46-3.24,18.1-10.06,22.21-3.36s11.5,0.05,5.19-8
		S19.96,22.02,19.96,22.02z"/>
	<path class="st4" d="M62.11,20.47c0,0-19.24,10.62-11.67,22.3s17.94-9.05,21.4,4.66c3.46,13.71,8.65-4.66,4.54-14.61
		C72.27,22.89,62.11,20.47,62.11,20.47z"/>
	<path class="st5" d="M63.28,23.91c0,0-18.3,11.25-7.93,16.89s14.75-9.53,16.86,0c2.11,9.53,3.73-2.46,3.57-6.03
		c-0.16-3.57-9.55-11.89-11.8-10.86c-2.25,1.03-2.25,1.03-2.25,1.03"/>
	<path class="st6" d="M64.73,26.07c0,0-11.29,8.43-7.89,12.08s13.56-5.77,14.05-4.03c0.49,1.74,2.86,5.68,2.4,1.74
		c-0.46-3.94-5.24-9.4-7-9.67C64.54,25.91,64.73,26.07,64.73,26.07z"/>
	<path class="st7" d="M65.59,28.69c0,0-10.1,7.13-5.05,6.27s9.11-3.89,10.13-2.27c1.03,1.62,1.05-1.89-1.76-2.32
		C66.11,29.94,65.59,28.69,65.59,28.69z"/>
	<path class="st8" d="M11.75,42.17c0,0,24.2-19.03,32.42-2.3s28.75,7.22,36.53,15.43s5.08,7.13,5.08,7.13l-2.75,2.07
		c0,0,1.13-8.33-8.6-10.28s-26.94-0.54-30.26-9.63c-3.32-9.08-6.97-12.66-16.64-9.56S12.04,45.37,12.04,45.37L11.75,42.17z"/>
	<path class="st9" d="M24.21,61.82c0,0,2.67,3.8,1.41,4.92c-1.27,1.13,3.39-0.7,3.39-0.7s-3.11-2.53-3.11-3.66
		C25.9,61.25,24.21,61.82,24.21,61.82z"/>
	<path class="st10" d="M23.3,64.35c0,0-3.41,0.56-3.45-2.53c-0.04-3.1,4.96-3.13,4.5-5.38c-0.46-2.25,1.9-2.88,2.39,0
		c0.49,2.88,0.14,3.34,1.16,4.57c1.02,1.23,5.08,0.53,1.41,1.65c-3.67,1.12-5.3-1-4.96,0.42C24.7,64.5,23.3,64.35,23.3,64.35z"/>
	<g>
		<path class="st11" d="M30.12,60.38c0,0,2.09,2.96,1.1,3.84c-0.99,0.88,2.64-0.55,2.64-0.55s-2.42-1.98-2.42-2.85
			S30.12,60.38,30.12,60.38z"/>
		<path class="st5" d="M28.98,62.99c0,0-3.41,0.76-3.45-3.43s4.96-4.24,4.5-7.3c-0.46-3.05,1.9-3.91,2.39,0
			c0.49,3.91,0.14,4.53,1.16,6.2s5.08,0.72,1.41,2.24c-3.67,1.52-5.3-1.35-4.96,0.57C30.37,63.19,28.98,62.99,28.98,62.99z"/>
	</g>
	<g>
		<path class="st11" d="M36.22,58.91c0,0,2.09,2.96,1.1,3.84c-0.99,0.88,2.64-0.55,2.64-0.55s-2.42-1.98-2.42-2.85
			S36.22,58.91,36.22,58.91z"/>
		<path class="st4" d="M35.08,61.52c0,0-3.41,0.76-3.45-3.43s4.96-4.24,4.5-7.3c-0.46-3.05,1.9-3.91,2.39,0
			c0.49,3.91,0.14,4.53,1.16,6.2c1.02,1.67,5.08,0.72,1.41,2.24c-3.67,1.52-5.3-1.35-4.96,0.57C36.48,61.72,35.08,61.52,35.08,61.52
			z"/>
	</g>
	<path class="st12" d="M21.37,22.99c0,0-9.35,11.49-4.16,11.12s3.95-2.15,9.41-3.56s8.6-2.16,9.89-1.86
		c1.29,0.3-9.35-2.24-13.78,1.22s-6.54,3.3-4.54,0.11S21.37,22.99,21.37,22.99z"/>
</g>
</svg>
