<?xml version="1.0" encoding="utf-8"?>
<!-- Generator: Adobe Illustrator 14.0.0, SVG Export Plug-In . SVG Version: 6.00 Build 43363)  -->
<!DOCTYPE svg PUBLIC "-//W3C//DTD SVG 1.1//EN" "http://www.w3.org/Graphics/SVG/1.1/DTD/svg11.dtd">
<svg version="1.1" id="Capa_1" xmlns="http://www.w3.org/2000/svg" xmlns:xlink="http://www.w3.org/1999/xlink" x="0px" y="0px"
	 width="283.465px" height="283.464px" viewBox="155.907 279.213 283.465 283.464"
	 enable-background="new 155.907 279.213 283.465 283.464" xml:space="preserve">
<circle fill="#15AD9B" cx="300.241" cy="420.945" r="135.094"/>
<path fill="#008D36" d="M275.237,445.794c0,0-35.751-8.519-56.075,50.932c-20.323,59.452-7.373,55.178-7.373,55.178l11.06,0.062
	c0,0-14.096-42.165,22.183-75.901C281.309,442.325,275.237,445.794,275.237,445.794z"/>
<g>
	<path fill="#C47800" d="M240.136,409.827c0,0-19.766,2.076-29.742-6.352c-9.975-8.426-21.748-6.443-28.347-2.664
		c-6.599,3.78-7.684,5.111-7.684,5.111s-3.687-7.28,14.003-13.29c17.689-6.01,24.753-8.271,35.938,0.961
		c11.183,9.231,19.332,10.347,20.229,11.71C245.434,406.667,240.136,409.827,240.136,409.827z"/>
	<path fill="#C47800" d="M258.725,387.366c0,0-6.072-8.519-11.928-6.599c-5.855,1.92-11.184-2.106-15.367-0.62
		c-4.182,1.488-3.625,7.683-3.625,7.683s11.432,8.954,15.769,5.33c4.338-3.625,15.955-4.617,15.955-4.617"/>
	<path fill="#F29100" d="M280.659,438.111c0,0,1.456,13.478,14.344,21.533c12.887,8.055,10.657,15.087,9.263,16.42
		c-1.395,1.332,1.767,8.332,5.36,0.403c3.594-7.933,0.187-6.478,1.301-14.346c1.085-7.868-7.962-17.287-15.273-25.899
		c-7.312-8.613-11.493-7.125-11.493-7.125L280.659,438.111z"/>
	<path fill="#FFD31F" d="M242.645,411.5c0,0-1.208-13.198-28.037-11.959c-26.83,1.24-41.483,8.366-49.259,15.521
		c-7.745,7.157-3.965,7.684,0.341,6.352s-5.329,4.803-1.394,4.956c3.935,0.155,27.045-0.805,41.638-0.929
		c14.623-0.124,30.237-1.891,35.287-8.272C246.302,410.818,242.645,411.5,242.645,411.5z"/>
	<path fill="#F29100" d="M230.284,411.531c0,0-23.205-7.684-41.266-2.634c-18.062,5.051-22.492,12.082-12.888,8.612
		c9.604-3.469,42.226-6.227,40.12-4.026c-2.107,2.199-24.877,5.483-29.37,5.297c-4.492-0.186-1.239,7.064,12.516,3.904
		s25.001-3.532,29.494-6.909C233.351,412.336,230.284,411.531,230.284,411.531z"/>
	<path fill="#FFD31F" d="M244.535,423.954c0,0-5.359-6.939-26.179,1.581c-36.742,15.057-35.039,24.164-44.395,37.517
		c-9.355,13.352,1.364,9.79,3.656,5.483c2.293-4.307-6.877,10.533,3.284,3.749c10.162-6.785,44.736-26.24,55.548-33.831
		C247.261,430.832,244.535,423.954,244.535,423.954z"/>
	<path fill="#F29100" d="M184.96,458.374c0,0-1.054-8.52,21.346-22.369c22.398-13.847,35.101-13.63,35.348-8.116
		c0.248,5.515-8.488,9.14-14.809,13.353c-6.32,4.214-27.821,17.133-26.86,14.405c0.96-2.726,33.335-18.959,33.768-22.491
		c0.435-3.531-27.758,11.309-30.701,14.623c-2.943,3.315-1.456-3.191,7.497-9.17c8.954-5.979-6.413-0.497-14.188,8.675
		C188.584,456.452,184.96,458.374,184.96,458.374z"/>
	<path fill="#FFD31F" d="M248.036,427.951c0,0-13.507,1.518-27.852,21.375c-14.344,19.858-18.588,44.459-12.733,46.101
		s2.665-4.926,5.576-0.559c2.913,4.399,1.27-0.465,12.454-9.883c11.184-9.417,32.313-44.921,31.848-53.348
		S248.036,427.951,248.036,427.951z"/>
	<path fill="#F29100" d="M209.837,485.326c0,0,10.843-35.132,26.644-46.904c15.8-11.772,16.978-13.476,17.008-4.214
		c0.032,9.265-21.655,40.678-26.798,45.449s15.459-23.205,13.446-27.418c-2.014-4.214-3.501-6.412-8.055,3.378
		c-4.585,9.789-8.768,14.219-8.148,7.435c0.62-6.785-8.984,9.14-7.683,14.623C217.52,483.158,209.837,485.326,209.837,485.326z"/>
	<path fill="#C47800" d="M260.429,434.364c0,0-13.136,10.75-14.345,26.799c-1.208,16.047-2.199,55.578-2.292,58.429
		c-0.093,2.851,3.191-2.913,4.213,0.37c0.991,3.285,3.563-2.787,9.418-11.027c5.855-8.272,9.232-40.646,10.533-53.008
		c1.302-12.362-4.027-21.502-4.027-21.502L260.429,434.364z"/>
	<path fill="#FFD31F" d="M269.227,432.875c0,0-15.212,17.629-6.072,39.099c9.139,21.47,15.273,28.873,15.924,37.579
		s5.081,13.26,5.081,13.26s4.616,8.829,10.874-15.584c6.257-24.412,0.496-38.385-4.337-47.462
		c-4.833-9.077-14.189-24.257-14.189-24.257L269.227,432.875z"/>
	<path fill="#F29100" d="M283.045,502.954c0.557-1.548-20.138-34.573-18.341-41.297c1.797-6.723,3.067-17.876,6.072-22.492
		c3.005-4.646,3.625-3.284,8.644,5.422s16.233,26.736,17.071,38.726c0.836,11.99-5.145,27.232-5.423,19.456
		c-0.248-7.745-0.464-35.162-8.829-46.347c-8.365-11.184-5.546,9.479-2.169,20.943c3.408,11.463-9.417-4.4-8.985-13.509
		c0.403-9.108-3.81,6.011,4.337,18.806C283.571,495.457,283.045,502.954,283.045,502.954z"/>
	<g>
		<path fill="#1D1D1B" d="M256.339,436.687c0,0-8.148-0.93-6.939-4.491c1.177-3.563,2.633-2.945-1.333-4.276
			c-3.965-1.332-7.56-2.633-5.576-4.678c1.982-2.045-1.58-2.852-4.679-4.741c-3.128-1.889-6.196-1.424-3.283-4.957
			c2.912-3.532-0.651-5.917,0.619-8.736c1.27-2.85-1.24-4.833,1.084-6.723c2.324-1.89,0.31-10.843,1.859-9.109
			c1.549,1.735,3.563,4.771,4.864,1.922c1.27-2.852,2.943-7.498,4.492-5.764c1.548,1.735,4.399-1.734,5.483-0.092
			c1.084,1.642,5.638-1.084,6.382-2.325c0.744-1.238-0.341,4.245,1.858,2.788c2.2-1.455,3.439-2.571,3.965-0.589
			c0.527,1.984,3.842,1.612,4.43,0.682c0.589-0.929,0.589,0.279,1.58,2.386c0.992,2.106,3.377-2.665,3.842,1.022
			c0.465,3.687,1.549,5.235,2.665,3.346c1.115-1.889,1.642,8.333,3.47,5.205c1.828-3.16,9.17-2.076,7.001-0.651
			c-2.137,1.426-4.337,4.09-2.881,5.082c1.456,0.99,8.954-1.208,7.993,2.602c-0.96,3.81-2.23,1.889-0.96,3.81
			c1.27,1.922,4.925,5.02,3.191,5.392c-1.735,0.372,2.199,0.929,0.836,3.005c-1.363,2.106-4.492,2.199-2.292,5.483
			c2.2,3.284-3.005,2.014-2.943,3.936c0.093,1.92,3.315,4.956,1.177,4.182c-2.106-0.774-2.571,2.695-2.757,4.803
			c-0.186,2.106-1.084,5.481-3.841,2.569c-2.757-2.942-7.311,5.67-9.325,3.254s-7.404-2.789-7.962-0.062
			c-0.558,2.725-12.144,0.218-8.953-1.549c3.191-1.768,0.341-1.859,0.341-1.859L256.339,436.687z"/>
		<path fill="#FFFFFF" d="M249.462,397.465c0,0-4.679,8.303,5.607,15.863c10.254,7.558,15.428-0.403,15.769-2.633
			c0.34-2.23-0.837-9.078-5.577-11.897c-4.74-2.788-7.157-4.461-9.232-3.284C253.923,396.721,249.462,397.465,249.462,397.465z"/>
	</g>
	<path fill="#C47800" d="M285.12,435.137c0,0-1.549,12.423,8.737,20.572c10.285,8.146,7.714,5.111,11.649,10.037
		c3.934,4.926-2.727-10.688-9.542-15.739c-6.816-5.049-3.594-9.727,3.222-1.3c6.785,8.427,6.785,8.427,6.785,8.427
		s-3.131-7.684-9.853-14.777c-6.723-7.096-8.086-9.14-8.086-9.14L285.12,435.137z"/>
	<path fill="#FFD31F" d="M235.118,404.839c0,0-10.007-0.713-21.935-12.083c-11.927-11.37-20.974-14.902-24.691-13.6
		c-3.718,1.3-6.289-2.542,4.337-6.847c10.626-4.307,21.872-5.824,34.791,4.585c12.918,10.41,15.986,16.265,15.986,16.265
		L235.118,404.839z"/>
	<path fill="#F29100" d="M202.155,381.604c0,0,7.373,2.757,12.919,7.187c1.858,1.487,3.5,3.129,4.584,4.925
		c4.399,7.188,15.8,9.17,15.8,9.17l5.701-8.085c0,0-9.357-14.034-20.386-19.828c-11.029-5.793-19.889-4.833-16.667-2.602
		c3.222,2.23,25.001,6.351,28.099,14.561c3.098,8.21-14.747-6.754-18.372-7.343c-3.594-0.62,6.568,8.087,12.145,11.091
		c5.576,3.036-8.365,1.581-14.127-6.66C206.089,375.78,202.155,381.604,202.155,381.604z"/>
	<path fill="#1C0C00" d="M262.567,443.533c0,0-7.529,11.836,2.076,31.849c9.604,20.014,12.702,26.52,14.437,34.172
		c1.735,7.621,5.019,7.652,6.165,9.852s-3.346-16.48-8.922-26.459c-5.545-9.975-15.707-26.982-13.57-35.843
		C264.89,448.212,262.567,443.533,262.567,443.533z"/>
	<path fill="#1C0C00" d="M244.629,429.839c0,0-16.047,10.628-24.723,22.802c-8.674,12.177-14.995,35.97-14.995,35.97
		s1.084-18.123,11.835-34.142c10.75-16.017,16.419-18.618,24.475-24.165C249.245,424.759,244.629,429.839,244.629,429.839z"/>
</g>
<g>
	<path fill="#250500" d="M423.757,413.39c0,0,7.901-0.124,10.255,2.881c2.354,3.005-5.917,1.486-7.807-0.403
		C424.346,414.01,423.757,413.39,423.757,413.39z"/>
	<g>
		<path fill="#422918" d="M313.777,372.403c0,0,22.214,4.708,31.568,18.124c9.325,13.414,8.643,24.876,2.695,23.917
			c-5.948-0.992-22.678-5.917-29.524-12.764s-10.812,0.155-13.136-0.898c-2.293-1.053-5.948-7.28-9.882-6.754
			c-3.935,0.527-5.669-8.333-8.302-8.365c-2.634-0.031-10.937-3.656-13.167-11.09c-2.23-7.435,3.315-9.419,8.52-9.636
			c5.236-0.217,4.151,1.395,6.351,0.062c2.2-1.332,16.513-3.438,16.513-3.438L313.777,372.403z"/>
		<path fill="#683B11" d="M302.623,364.007c0,0-7.403,1.239-10.718,2.014s-15.087-1.395-15.49,4.059
			c-0.434,5.452,3.284,8.829,7.529,12.453c4.244,3.625,6.877,0.743,7.837,5.514c0.961,4.772,11.555,3.656,12.703,7.064
			c1.146,3.377,10.223-2.447,9.851-9.604c-0.371-7.155,0.806-13.445-0.124-14.715C313.282,369.521,302.623,364.007,302.623,364.007z
			"/>
		<path fill="#7E4E24" d="M318.516,377.142c0,0,0.094,0.186,0.311,0.527c1.486,2.541,8.147,13.476,14.064,16.946
			c7.374,4.307,11.495,5.979,13.322,12.889c1.797,6.94-2.448,0.465-6.04-3.718c-3.596-4.214-10.351-3.47-17.228-12.424
			c-6.876-8.953-7.156-15.582-7.156-15.582L318.516,377.142z"/>
		<path fill="#422918" d="M302.903,365.214c0,0,7.312,0.62,9.108,6.692c1.797,6.042-1.921,6.847-1.271,11.928
			c0.652,5.081-1.455,8.798-2.168,8.953c-0.713,0.124,1.208-5.824,0.649-9.945c-0.557-4.12-2.229-9.45-5.481-11.308
			c-3.255-1.858-5.268-4.46-7.003-3.315c-1.766,1.146,3.748,5.545,5.082,10.162c1.332,4.616,3.035,9.015,2.353,11.865
			c-0.68,2.851-1.332,2.882-1.332,2.882s-0.556-5.887-2.757-7.653c-2.199-1.766,1.178,7.188-0.773,5.886
			c-1.951-1.3-5.607-10.192-4.492-5.886c1.115,4.276,0.124,8.118-1.766,3.315c-1.921-4.802-0.434-10.316-1.24-14.034
			c-0.805-3.718-3.283-6.134-1.486-6.785c1.796-0.649,8.488-2.788,9.788-2.602C301.353,365.524,302.903,365.214,302.903,365.214z"/>
		<g>
			<g>
				<path id="XMLID_3_" fill="#7A6A58" d="M313.188,374.416c0,0-4.151-1.704-0.93-7.559c4.337-7.87,20.665-17.566,51.397-16.204
					c30.731,1.363,48.328,15.77,48.328,15.77s-4.832,2.416-0.402,6.909c4.431,4.492,6.692,7.125,6.692,7.125
					s-6.444,2.076-3.811,5.917c2.633,3.842,4.738,7.403,4.738,7.403s-5.605,0.155-1.486,4.369l10.657,10.967
					c0,0-16.295-4.646-18.989-2.168c-2.696,2.478-4.585,3.935-4.585,3.935s-2.881-2.387-6.229,4.678
					c-3.344,7.064-5.545,10.471-8.302,8.488c-2.758-1.982-4.926-8.52-8.676-3.191c-3.748,5.33-11.927,4.772-14.56,0.837
					c-2.634-3.935-15.83-29.803-26.181-36.959C330.477,377.545,313.188,374.416,313.188,374.416z"/>
			</g>
			<g>
				<defs>
					<path id="SVGID_1_" d="M313.188,374.416c0,0-4.151-1.704-0.93-7.559c4.337-7.87,20.665-17.566,51.397-16.204
						c30.731,1.363,48.328,15.77,48.328,15.77s-4.832,2.416-0.402,6.909c4.431,4.492,6.692,7.125,6.692,7.125
						s-6.444,2.076-3.811,5.917c2.633,3.842,4.738,7.403,4.738,7.403s-5.605,0.155-1.486,4.369l10.657,10.967
						c0,0-16.295-4.646-18.989-2.168c-2.696,2.478-4.585,3.935-4.585,3.935s-2.881-2.387-6.229,4.678
						c-3.344,7.064-5.545,10.471-8.302,8.488c-2.758-1.982-4.926-8.52-8.676-3.191c-3.748,5.33-11.927,4.772-14.56,0.837
						c-2.634-3.935-15.83-29.803-26.181-36.959C330.477,377.545,313.188,374.416,313.188,374.416z"/>
				</defs>
				<clipPath id="SVGID_2_">
					<use xlink:href="#SVGID_1_"  overflow="visible"/>
				</clipPath>
				<path clip-path="url(#SVGID_2_)" fill="#B17F49" d="M379.641,373.022c0,0,21.223-0.713,23.174-0.279
					c1.951,0.402,4.554,1.983,4.554,1.983s-7.621,5.421-5.451,8.179c2.167,2.726,2.538,2.974,2.538,2.974l-26.827-7.652
					L379.641,373.022z"/>
			</g>
			<g>
				<defs>
					<path id="SVGID_3_" d="M313.188,374.416c0,0-4.151-1.704-0.93-7.559c4.337-7.87,20.665-17.566,51.397-16.204
						c30.731,1.363,48.328,15.77,48.328,15.77s-4.832,2.416-0.402,6.909c4.431,4.492,6.692,7.125,6.692,7.125
						s-6.444,2.076-3.811,5.917c2.633,3.842,4.738,7.403,4.738,7.403s-5.605,0.155-1.486,4.369l10.657,10.967
						c0,0-16.295-4.646-18.989-2.168c-2.696,2.478-4.585,3.935-4.585,3.935s-2.881-2.387-6.229,4.678
						c-3.344,7.064-5.545,10.471-8.302,8.488c-2.758-1.982-4.926-8.52-8.676-3.191c-3.748,5.33-11.927,4.772-14.56,0.837
						c-2.634-3.935-15.83-29.803-26.181-36.959C330.477,377.545,313.188,374.416,313.188,374.416z"/>
				</defs>
				<clipPath id="SVGID_4_">
					<use xlink:href="#SVGID_3_"  overflow="visible"/>
				</clipPath>
				<path clip-path="url(#SVGID_4_)" fill="#FFED78" d="M410.9,362.147c0,0-14.095,3.191-12.422,7.684
					c1.671,4.523,11.987,5.794,11.987,5.794s-8.61,5.452-6.473,8.55c2.138,3.099,8.486,5.298,8.486,5.298s-8.426-0.682-6.689,3.749
					c1.703,4.43,6.723,8.117,6.723,8.117s-8.087-1.829-9.048,0.774c-0.96,2.603-1.92,3.283-1.92,3.283s-6.723,0.125-9.325,4.803
					c-2.604,4.677,7.591,7.465,7.591,7.465s37.827,1.364,38.538-1.362c0.714-2.757-15.086-25.837-15.613-32.22
					c-0.526-6.382-1.146-19.549-5.02-20.23C413.844,363.108,410.9,362.147,410.9,362.147z"/>
			</g>
		</g>
		<g>
			<g>
				<path id="XMLID_1_" fill="#7E4E24" d="M302.654,367.569c0,0-4.429-1.952,13.198-16.977c17.63-15.026,40.397-32.53,68.777-40.77
					c28.378-8.241,36.341-4.399,35.626,3.501c-0.713,7.899-2.075,8.303-4.149,14.591c-2.077,6.29,0.866,6.259-1.643,9.791
					c-2.51,3.531,1.579,9.851-3.439,14.406c-5.05,4.584-6.226,9.449-6.226,9.449s-14.841-11.123-24.412-10.1
					c-9.545,1.053-38.448,0.93-54.744,6.042c-16.295,5.111-14.065,15.583-14.065,15.583L302.654,367.569z"/>
			</g>
			<g>
				<defs>
					<path id="SVGID_5_" d="M302.654,367.569c0,0-4.429-1.952,13.198-16.977c17.63-15.026,40.397-32.53,68.777-40.77
						c28.378-8.241,36.341-4.399,35.626,3.501c-0.713,7.899-2.075,8.303-4.149,14.591c-2.077,6.29,0.866,6.259-1.643,9.791
						c-2.51,3.531,1.579,9.851-3.439,14.406c-5.05,4.584-6.226,9.449-6.226,9.449s-14.841-11.123-24.412-10.1
						c-9.545,1.053-38.448,0.93-54.744,6.042c-16.295,5.111-14.065,15.583-14.065,15.583L302.654,367.569z"/>
				</defs>
				<clipPath id="SVGID_6_">
					<use xlink:href="#SVGID_5_"  overflow="visible"/>
				</clipPath>
				<path clip-path="url(#SVGID_6_)" fill="#F29100" d="M418.613,306.197c0,0-3.189-0.155-2.136,1.829
					c1.054,1.982,2.57,5.267,2.386,6.876c-0.187,1.612-1.736,5.67-2.448,6.816c-0.711,1.146-1.734,3.067-0.931,4.276
					c0.837,1.208-1.827,0.835-0.99,3.996c0.838,3.16-1.054,4.431-1.302,7.095c-0.245,2.665-2.105,7.993-1.797,9.542
					c0.311,1.519-2.57,3.842-2.168,6.382c0.403,2.54-6.847,5.578-5.854,8.426c0.99,2.851,11.337-4.678,12.267-10.471
					c0.898-5.824,2.85-26.519,4.741-30.268c1.889-3.749,3.129-10.936,1.486-12.516C420.225,306.6,418.613,306.197,418.613,306.197z"
					/>
			</g>
			<g>
				<defs>
					<path id="SVGID_7_" d="M302.654,367.569c0,0-4.429-1.952,13.198-16.977c17.63-15.026,40.397-32.53,68.777-40.77
						c28.378-8.241,36.341-4.399,35.626,3.501c-0.713,7.899-2.075,8.303-4.149,14.591c-2.077,6.29,0.866,6.259-1.643,9.791
						c-2.51,3.531,1.579,9.851-3.439,14.406c-5.05,4.584-6.226,9.449-6.226,9.449s-14.841-11.123-24.412-10.1
						c-9.545,1.053-38.448,0.93-54.744,6.042c-16.295,5.111-14.065,15.583-14.065,15.583L302.654,367.569z"/>
				</defs>
				<clipPath id="SVGID_8_">
					<use xlink:href="#SVGID_7_"  overflow="visible"/>
				</clipPath>
				<path clip-path="url(#SVGID_8_)" fill="#B17F49" d="M332.954,337.302c0,0,0.124-0.093,0.341-0.279
					c3.253-2.509,29.028-21.873,58.244-29.618c31.289-8.302,11.09,8.365,12.793,11.029c1.704,2.665,3.348,5.236,1.054,6.661
					c-2.292,1.425-2.138,2.014-1.301,3.408c0.838,1.394-1.456,4.895-0.711,5.855c0.743,0.96-1.456,5.483-0.559,6.258
					c0.93,0.774,0.93,3.19-0.063,4.306c-0.991,1.116-2.818,4.957-2.355,5.886c0.435,0.93-3.748,2.727-3.159,4.183
					c0.589,1.455-0.094,2.23-0.094,2.23s-51.334-6.723-56.414-4.679c-5.082,2.046,8.736-19.331,2.818-17.659
					C337.632,336.496,332.954,337.302,332.954,337.302z"/>
			</g>
		</g>
		<path fill="#E84E1B" d="M363.407,353.163c0,0,17.008-4.646,28.564,0.899c11.557,5.514,17.04,10.936,17.04,10.936
			s-28.501-0.991-33.242-0.495C370.998,364.998,363.407,353.163,363.407,353.163z"/>
		<path fill="#422918" d="M371.804,363.016c0,0,17.657-1.302,22.894-0.621c5.267,0.651,5.699,1.395,5.699,1.395l-1.052,10.409
			l-22.555-1.673L371.804,363.016z"/>
		<path fill="#C99D66" d="M391.443,415.279c0,0-9.138-9.729-14.188-13.972c-5.05-4.245-14.438,2.912-13.538,8.055
			c0.93,5.142,1.332,11.339,5.205,14.096c3.872,2.788,7.403,2.232,9.449-0.525c2.043-2.759,5.854-4.989,8.55-3.377
			C389.616,421.197,391.443,415.279,391.443,415.279z"/>
		<path fill="#A3897A" d="M372.206,396.165l19.457,19.362c0,0-0.404-7.589,2.633-8.892c3.034-1.3,6.506-1.61,6.506-1.61
			l-21.314-16.048L372.206,396.165z"/>
		<path fill="#F29100" d="M382.428,385.012l27.016,13.6c0,0-7.342,2.199-7.745,4.243c-0.402,2.045-0.619,3.718-0.619,3.718
			l-21.16-17.256L382.428,385.012z"/>
		<path fill="#7E4E24" d="M409.444,386.777c0,0-22.646-6.351-26.518-6.909c-3.874-0.558-1.426,4.555-1.426,4.555l28.935,15.056
			l-1.082-11.185L409.444,386.777z"/>
		<path fill="#683B11" d="M398.075,417.077c0,0-6.877-6.258-8.179-3.997s-10.04-1.302-14.686-2.726
			c-4.647-1.426-0.525,8.86-1.92,11.246c-1.396,2.354-1.456,6.413,4.708,1.673c6.166-4.771,5.05-2.571,9.388,0.123
			c4.337,2.666,8.303-0.153,9.449-2.663C397.983,418.191,398.075,417.077,398.075,417.077z"/>
		<path fill="#F8B133" d="M342.03,356.168c0,0,25.127-4.399,26.674-3.191c1.551,1.208,6.105,9.48,6.105,9.48l2.416,0.837
			l3.408,8.985l-56.975-2.262L342.03,356.168z"/>
		<path fill="#925F36" d="M324.402,368.406c0,0,7.839-8.984,13.57-10.75c5.761-1.767,7.436-1.581,11.865,0.774
			c4.431,2.324,7.714,2.542,7.714,2.542s-6.783,1.053-9.758,3.066s-16.575,5.05-19.363,6.133c-2.788,1.084-5.143,0.434-5.143,0.434
			L324.402,368.406z"/>
		<path fill="#1D70B7" d="M369.727,353.628c0,0,3.563-1.146,5.979,1.084c2.416,2.23,2.322,8.644-1.889,7.807
			C369.634,361.652,369.727,353.628,369.727,353.628z"/>
		<path fill="#1D70B7" d="M377.225,363.263c0,0,3.562-1.146,5.979,1.084c2.416,2.231,2.322,8.645-1.889,7.807
			C377.101,371.287,377.225,363.263,377.225,363.263z"/>
		<path fill="#1D70B7" d="M386.148,373.083c0,0,3.189-1.053,5.328,0.929c2.138,1.984,2.044,7.746-1.704,7.002
			C386.024,380.271,386.148,373.083,386.148,373.083z"/>
		<path fill="#1D70B7" d="M394.049,384.331c0,0,2.601-1.055,4.149,0.31c1.55,1.362,1.023,5.762-1.89,5.483
			C393.396,389.845,394.049,384.331,394.049,384.331z"/>
		<path fill="#1D70B7" d="M397.887,393.531c0,0,0.559,2.509-1.145,4.089c-1.704,1.581-6.104,1.271-5.236-1.61
			C392.374,393.16,397.887,393.531,397.887,393.531z"/>
		<path fill="#1D70B7" d="M385.156,393.933c0,0,1.951,2.974,0.311,5.764c-1.643,2.787-7.933,4.368-8.057,0.309
			C377.286,395.917,385.156,393.933,385.156,393.933z"/>
		<path fill="#FFED78" d="M380.2,371.721c0,0-16.576,1.487-23.826-2.417c-2.694-1.457-8.396-1.301-15.954-0.155
			c-7.56,1.178-20.974,0.806-18.031,3.965c2.943,3.16,29.989,6.661,32.097,10.162c2.075,3.501,4.183,12.889,5.732,17.008
			c1.549,4.121,5.049,12.919,5.049,12.919s2.664-11.803,5.855-10.472c3.191,1.333,8.396,1.146,8.396,1.146s-3.78-7.559,0.124-8.426
			c3.874-0.868,4.059-3.471,4.059-3.471l-3.688-2.167c0,0,7.095,0.897,5.144-1.89c-1.951-2.789-4.09-3.842-4.09-3.842
			s8.087,0.589,5.484-1.735c-2.604-2.323-4.926-3.005-4.926-3.005s2.881-6.071,0.743-6.846
			C380.2,371.721,380.2,371.721,380.2,371.721z"/>
		<path fill="#250500" d="M404.518,313.137c0,0-7.435,1.734-14.157,2.913c-4.43,0.774-8.552,1.3-10.07,0.93
			c-3.809-0.961-5.854-2.108-5.854-2.108s7.001,0.961,5.358,4.771c-1.643,3.81,5.236-1.239,9.109-2.23
			C392.777,316.42,404.518,313.137,404.518,313.137z"/>
		<path fill="#250500" d="M402.381,324.816c0,0-7.465,0.558-14.157,0.651c-4.399,0.062-8.491-0.062-9.884-0.713
			c-3.5-1.549-5.297-3.067-5.297-3.067s6.599,2.107,4.367,5.669c-2.229,3.563,5.267-0.402,9.171-0.774
			C390.515,326.21,402.381,324.816,402.381,324.816z"/>
		<path fill="#250500" d="M401.575,330.641c0,0-7.466,0.558-14.157,0.651c-4.4,0.062-8.489-0.062-9.884-0.713
			c-3.5-1.581-5.297-3.067-5.297-3.067s6.599,2.106,4.369,5.669c-2.231,3.563,5.267-0.403,9.171-0.775
			C389.679,332.034,401.575,330.641,401.575,330.641z"/>
		<path fill="#250500" d="M403.745,337.084c0,0-7.467,0.558-14.157,0.651c-4.401,0.061-8.49-0.063-9.884-0.713
			c-3.502-1.581-5.299-3.067-5.299-3.067s6.599,2.106,4.369,5.669c-2.231,3.563,5.267-0.403,9.169-0.775
			C391.878,338.478,403.745,337.084,403.745,337.084z"/>
		<path fill="#250500" d="M402.785,344.024c0,0-7.468,0.558-14.159,0.651c-4.4,0.062-8.489-0.062-9.884-0.713
			c-3.5-1.58-5.297-3.066-5.297-3.066s6.6,2.106,4.369,5.67c-2.231,3.562,5.267-0.403,9.169-0.775
			C390.887,345.418,402.785,344.024,402.785,344.024z"/>
		<path fill="#250500" d="M309.378,363.449c0,0,14.499-20.942,30.019-29.462c15.521-8.52,55.734-13.756,55.734-13.756
			s-2.57,1.488-0.559,3.78c2.017,2.292-4.087,0.558-2.104,5.917c1.979,5.36-4.185,3.129-1.859,6.599
			c2.322,3.47-3.656,2.416-0.683,6.165c2.975,3.749-3.252,3.624-1.425,7.156s-31.88,0.279-50.498,5.546
			C318.61,360.878,309.378,363.449,309.378,363.449z"/>
		<g>
			
				<ellipse transform="matrix(-0.6501 -0.7599 0.7599 -0.6501 186.2646 826.9966)" fill="#1D1D1B" cx="283.548" cy="370.611" rx="4.059" ry="4.617"/>
			
				<ellipse transform="matrix(-0.65 -0.7599 0.7599 -0.65 185.6493 823.3857)" fill="#FFFFFF" cx="282.428" cy="368.943" rx="1.209" ry="1.363"/>
			
				<ellipse transform="matrix(-0.65 -0.76 0.76 -0.65 190.3315 824.3441)" fill="#FFFFFF" cx="285.012" cy="368.339" rx="0.868" ry="0.991"/>
		</g>
		<path fill="#1D1D1B" d="M283.664,366.331c0,0,0.589-8.303-4.585-12.857c-5.174-4.554-10.626-8.675-6.32-12.393
			c4.306-3.717,1.642-4.058-0.465-2.54c-2.106,1.519-7.714,4.865-3.438,7.775c4.275,2.913,10.688,7.188,12.299,12.301
			C282.734,363.728,283.664,366.331,283.664,366.331z"/>
		<path fill="#1D1D1B" d="M282.084,366.423c0,0-7.156-10.627-17.225-13.167c-10.068-2.541-14.034-7.187-9.48-11.091
			c4.554-3.904,6.536-2.385,4.647,0.527c-1.89,2.943-5.576,4.771-0.712,6.63c4.864,1.858,13.848,4.863,17.473,8.922
			C280.411,362.333,282.084,366.423,282.084,366.423z"/>
		<path fill="#1D1D1B" d="M296.985,376.119c0,0-4.771,0.899-10.068,6.94c-5.298,6.041-18.124,17.163-18.124,17.163
			s-0.619,2.819,4.709-1.92c5.328-4.74,15.087-15.615,18.463-17.876c3.347-2.262,5.33-3.191,5.701-3.532
			C298.008,376.615,296.985,376.119,296.985,376.119z"/>
		<path fill="#1D1D1B" d="M303.151,382.998c0,0-0.032-3.718-2.386-1.456c-2.354,2.261-11.71,12.331-15.614,15.086
			c-3.904,2.758-11.804,9.852-11.804,9.852s0.589,4.772,3.036,1.426s12.268-12.083,17.225-16.761
			C298.565,386.467,303.151,382.998,303.151,382.998z"/>
		<path fill="#1D1D1B" d="M308.572,392.788c0,0-3.935,0.496-6.01,3.594c-2.045,3.098-10.472,21.159-11.896,22.615
			c-1.457,1.456,4.802-0.682,6.97-5.979c2.17-5.297,4.12-12.919,8.056-16.853C309.656,392.23,308.572,392.788,308.572,392.788z"/>
		<path fill="#FFED78" d="M333.667,339.997c0,0,5.979-5.948,10.066-2.695c4.091,3.284,7.035,2.757,9.481,2.85
			c2.448,0.093,7.126-0.899,3.159,2.695c-3.965,3.594-11.959,3.469-16.048,1.208c-4.059-2.261-5.481-1.92-7.745-1.332
			C330.321,343.312,333.667,339.997,333.667,339.997z"/>
		<path fill="#35A8E0" d="M350.614,329.37c0,0,5.203-1.921,9.881-0.403c4.679,1.519,9.543,4.926,6.073,7.125
			c-3.47,2.168-12.58-1.487-14.469-3.47C350.21,330.641,350.614,329.37,350.614,329.37z"/>
		<path fill="#FFED78" d="M408.701,308.056c0,0,7.405,1.177,6.041,2.819c-1.363,1.642-4.337,2.137-6.288-0.155
			C406.503,308.458,408.701,308.056,408.701,308.056z"/>
		<path fill="#E84E1B" d="M408.3,315.057c0,0,3.096-1.61,4.647,0.961c1.547,2.571-3.255,1.672-4.185,1.116
			C407.834,316.514,408.3,315.057,408.3,315.057z"/>
		<path fill="#FFED78" d="M407.989,321.439c0,0,2.322-3.346,3.563-0.992c1.239,2.355-2.819,4.616-3.78,3.501
			C406.842,322.833,407.989,321.439,407.989,321.439z"/>
		<path fill="#E84E1B" d="M406.131,328.225c0,0,1.27-4.028,3.066-2.633c1.827,1.393,0.371,5.421-1.456,4.553
			C405.914,329.277,406.131,328.225,406.131,328.225z"/>
		<path fill="#FFED78" d="M407.803,332.189c0,0-4.059-0.248-2.819,2.417c1.208,2.666,2.881,2.139,3.159,0.806
			C408.39,334.111,407.803,332.189,407.803,332.189z"/>
		<path fill="#E84E1B" d="M408.547,339.129c0,0-5.082-0.031-3.811,2.447c1.269,2.479,4.367,2.695,3.902,1.116
			C408.174,341.081,408.547,339.129,408.547,339.129z"/>
		<path fill="#FFED78" d="M406.533,346.41c0,0-0.93-1.612-2.077-0.186c-1.146,1.424-3.065,2.138-0.371,3.779
			c2.696,1.642,3.224-2.757,3.224-2.757L406.533,346.41z"/>
		<path fill="#E84E1B" d="M404.147,353.845c0,0-1.827-2.882-3.035-0.527c-1.21,2.355-2.853,4.151-1.891,5.762
			c0.961,1.612,2.602,2.23,3.966-0.897C404.55,355.054,404.147,353.845,404.147,353.845z"/>
		<path fill="#250500" d="M416.849,309.109c0,0,2.757,2.726,1.859,7.405c-0.806,4.088-3.656,6.444-3.533,7.837
			c0.031,0.186,0.094,0.372,0.248,0.558c1.238,1.301-3.439,4.027-1.795,5.824c1.641,1.797-0.962,4.182-0.437,6.351
			c0.528,2.168-1.3,4.089-0.928,6.444c0.371,2.354-2.17,3.779-2.107,7.125c0.061,3.346-5.236,8.148-5.329,9.542
			c-0.092,1.394-1.363-0.589-1.363-0.589s5.454-4.895,4.493-8.023c-0.96-3.129,5.575-7.529,3.842-11.618
			c-1.734-4.09,2.354-5.266,0.899-7.994c-1.488-2.726,3.622-4.988,2.104-6.536c-1.517-1.519,2.789-6.537,2.635-8.179
			c-0.154-1.642,1.239-4.027,0.31-5.36C416.818,310.565,416.849,309.109,416.849,309.109z"/>
		<path fill="#250500" d="M404.55,309.171c0,0,4.275,0.775,3.624,3.253c0,0-2.664,3.129-1.486,3.997
			c1.146,0.867-1.456,1.797-0.062,3.409c1.394,1.61-1.581,1.889,0.124,4.12c1.704,2.23-3.965,1.457-2.294,2.881
			c1.675,1.395-1.269,2.261,0.187,3.904c1.456,1.642-0.773,1.27-0.495,3.253c0.309,2.013-0.96,3.779,0.094,4.771
			c1.084,0.992-1.488,2.912-0.467,4.431c1.054,1.487-1.641,2.633-1.363,3.934c0.28,1.302-2.168,1.674-1.021,3.501
			c1.145,1.828-4.523,3.253-3.503,5.204c1.025,1.922-2.725-0.773-0.309-3.036c2.416-2.262,3.688-4.182,3.285-6.072
			c-0.404-1.89,3.344-1.549,1.765-4.864c-1.58-3.315,1.767-4.12,0.03-6.01c-1.733-1.921,2.077-2.448,0.839-3.904
			c-1.241-1.456,0.866-4.213-0.25-5.019c-1.114-0.806,3.346-2.819,2.014-4.367c-1.331-1.55,1.117-2.447-0.96-4.121
			c-2.075-1.672,2.851-3.532,2.077-4.027c-0.775-0.495,0.557-1.425-0.497-2.417C404.828,311,404.55,309.171,404.55,309.171z"/>
		<path fill="#FFED78" d="M363.687,320.262c0,0,5.451-3.345,7.807-2.819c2.353,0.527,7.124,3.253,7.124,3.253
			s-10.657,3.346-11.989,3.037C365.297,323.391,363.687,320.262,363.687,320.262z"/>
		<path fill="#FFED78" d="M390.391,316.576l5.267-1.302c0,0,1.426,3.656-0.032,3.687c-1.453,0.031-5.792,0.713-5.792,0.713
			s1.733-2.045,0.249-2.107C388.594,317.504,390.391,316.576,390.391,316.576z"/>
		<path fill="#DDDB00" d="M390.857,320.85c0,0-5.855,0.155-9.604,0.744c-3.781,0.589-12.302,3.811-12.302,3.811
			s5.238-0.589,8.243-0.341c3.005,0.249,15.024,0.124,14.188-0.867c-0.837-0.992-1.395-0.868-0.309-1.982
			C392.158,321.099,390.857,320.85,390.857,320.85z"/>
		<path fill="#BD1622" d="M389.277,326.21c0,0-16.763,1.333-15.739,2.912c1.023,1.581,14.9,2.85,14.964,1.209
			c0.093-1.642-1.238-2.417-0.248-3.253C389.277,326.21,389.277,326.21,389.277,326.21z"/>
		<path fill="#E5332A" d="M386.581,332.096c0,0-14.933,0.868-16.637,1.55c-1.703,0.682-3.406,2.23-1.455,2.788
			c1.981,0.558,18.741,0.712,18.4-0.682c-0.339-1.394-0.865-1.921,0.094-2.727C387.943,332.22,386.581,332.096,386.581,332.096z"/>
		<path fill="#E84E1B" d="M383.793,338.541c0,0-7.374-0.403-11.493,0.372c-4.121,0.806-11.37-0.186-10.533,2.014
			c0.836,2.262,23.7,2.138,23.7,2.138s-3.842-2.634-2.047-3.377C385.219,338.943,383.793,338.541,383.793,338.541z"/>
		<path fill="#F29100" d="M381.933,344.83c0,0-22.398-1.023-25.001-0.062c-2.602,0.961-6.816,1.519-2.912,2.819
			c3.902,1.302,28.626,3.563,27.448,2.168c-1.178-1.393-1.827-4.12-0.495-4.088C382.305,345.697,381.933,344.83,381.933,344.83z"/>
		<path fill="#B17F49" d="M340.512,349.755c0,0-15.428,7.684-19.083,9.232c-3.656,1.55-11.928,5.855-8.117,1.116
			c3.842-4.739,12.174-11.803,16.172-14.685s-3.035,3.625,0,2.943c3.035-0.682,5.143-5.453,5.731-2.788
			c0.589,2.695-8.799,6.165-3.626,4.739c5.206-1.394,6.755-3.594,6.353-2.075c-0.403,1.517-6.567,4.431-3.47,2.974
			C337.569,349.755,340.512,349.755,340.512,349.755z"/>
		<path fill="#250500" d="M318.176,373.734c0,0,4.523-12.577,10.782-14.901c6.258-2.323,41.729-6.722,41.729-6.722
			s-30.826,3.624-39.222,11.524C323.07,371.535,318.176,373.734,318.176,373.734z"/>
		<path fill="#250500" d="M322.234,370.265c0,0,20.229-3.563,26.952-5.268c9.327-2.354,25.279-3.129,25.279-3.129
			s-20.973,2.757-21.994,4.958c-1.021,2.23,14.529,5.731,18.031,4.801c8.426-2.23,11.835,0.868,11.835,0.868
			s-14.097-2.045-12.548,0.805c1.58,2.819,5.515,3.749,6.382,3.47c0.869-0.279,14.063,5.205,14.063,5.205
			s-15.024-4.864-17.533-2.788c-2.51,2.077,16.356,8.18,16.356,8.18l-20.23-6.692c0.806,1.426,14.811,11.338,14.811,11.338
			s-17.01-10.533-22.523-9.573c-5.515,0.961-4.679,1.457,0.588,5.112c5.236,3.655,13.664,11.556,13.664,11.556
			s-29.742-19.147-33.305-19.829c-3.563-0.681-21.812-3.066-21.812-3.066l1.549-3.099c0,0,13.818,0.62,21.036,4.09
			c7.22,3.47,25.716,3.377,26.333,1.858c0.621-1.518-7.156-4.863-9.263-6.598c-2.136-1.735-13.847-3.47-17.689-2.478
			c-3.842,0.991-20.198,1.828-20.198,1.828L322.234,370.265z"/>
		<path fill="#250500" d="M373.103,352.699c0,0-2.446,2.54-0.339,5.297c2.107,2.726,3.811,4.46,3.811,4.46h-5.701
			c0,0-4.059-2.54-3.903-6.196c0.154-3.656,0.836-3.253,0.836-3.253L373.103,352.699z"/>
		<path fill="#250500" d="M381.593,362.612l-5.018-0.186c0,0-2.262,1.457,0.466,5.577c2.725,4.121,3.159,3.687,3.159,3.687
			l3.871,0.31c0,0-4.462-5.142-3.965-6.63C380.601,363.883,381.593,362.612,381.593,362.612z"/>
		<path fill="#250500" d="M390.391,372.558l-4.306-0.155c0,0-2.447,4.43-0.899,5.576c1.549,1.146,2.757,3.253,2.757,3.253
			l4.431,0.465c0,0-5.515-3.532-3.748-6.351C390.391,372.558,390.391,372.558,390.391,372.558z"/>
		<path fill="#250500" d="M397.763,383.741l-3.468-0.868c0,0-3.378,3.656-1.859,5.421c1.519,1.767,3.439,2.201,3.439,2.201
			s-1.612-3.811-0.341-4.834C396.805,384.64,397.763,383.741,397.763,383.741z"/>
		<path fill="#250500" d="M398.354,393.376c0,0-10.626,0.371-10.225,1.332c0.404,0.96,2.231,2.602,2.231,2.602l10.192-3.779
			L398.354,393.376z"/>
		<path fill="#250500" d="M386.116,394.367l-2.448-2.386c0,0-6.35,0.992-6.969,3.161c-0.621,2.168-1.303,3.935-1.303,3.935
			s3.007,5.081,4.121,4.801c1.116-0.279-4.121-4.12,1.27-6.816C386.116,394.367,386.116,394.367,386.116,394.367z"/>
		<path fill="#250500" d="M366.35,415.093c0,0,3.688-11.153,5.979-11.215s8.58,1.643,8.58,1.643l-4.769-3.284
			c0,0-6.29-2.665-8.243,1.363c-1.951,4.028-3.281,8.488-3.281,8.488L366.35,415.093z"/>
		<path fill="#250500" d="M403.033,363.635c0,0-8.365,2.571-6.973,5.948c1.393,3.377,1.393,3.377,1.393,3.377l-3.622-0.186
			c0,0-3.873-4.834-0.992-6.94c2.911-2.106,3.997-3.408,3.997-3.408L403.033,363.635z"/>
		<path fill="#250500" d="M408.979,364.998c0,0-5.297,2.077-5.731,4.896c-0.433,2.819-0.433,2.819-0.433,2.819l4.15,1.518
			c0,0-0.743-4.802,0.589-6.32C408.919,366.393,408.979,364.998,408.979,364.998z"/>
		<path fill="#250500" d="M416.043,377.824l-9.077-3.563c0,0-6.536,4.275-5.729,7.157c0.804,2.881,0.804,2.881,0.804,2.881
			l3.687,2.354c0,0-3.406-6.878,0.342-9.077c3.75-2.2,2.603-1.519,2.603-1.519L416.043,377.824z"/>
		<path fill="#250500" d="M417.561,380.612c0,0-4.491-1.704-6.01,2.943c-1.519,4.616,7.157,9.79,7.157,9.79
			s-11.928-5.731-12.083-1.766c-0.123,3.935,4.739,7.405,10.936,10.904c6.195,3.501,6.195,3.501,6.195,3.501
			s11.958,6.692,10.813,7.498c-1.146,0.804-12.889-4.4-14.593-6.32c-1.733-1.92-11.431-8.458-15.8-5.112
			c-4.367,3.345,0.961,6.319,0.961,6.319s-10.379-3.903-12.174,2.728c-1.799,6.628,3.933,10.099,0.896,11.897
			c-3.035,1.796-4.895-1.116-4.584-5.361c0.339-4.244,1.484-11.618,5.854-12.732c4.369-1.115,4.834-0.558,4.834-0.558
			s1.517-3.687,4.213-5.266c2.696-1.581,4.183-0.589,4.183-0.589s-7.869-6.723-3.594-9.077c4.274-2.354,5.36-1.611,5.36-1.611
			s-3.844-4.554-0.342-6.877C416.447,376.429,417.561,380.612,417.561,380.612z"/>
		<path fill="#250500" d="M415.363,392.85c0,0-2.512-1.24-2.512,2.137c-0.028,3.408,2.047,6.537,2.047,6.537s-5.02-2.54-3.718-6.599
			C412.481,390.868,415.363,392.85,415.363,392.85z"/>
		<path fill="#250500" d="M418.337,405.242c0,0-10.193-3.222-12.827-1.084c-2.633,2.137-3.872,3.315-3.872,3.315
			s-4.399,0.682-5.669,2.912c-1.301,2.23-3.903,7.156-3.903,7.156s1.362-3.903,4.74-5.917c3.377-2.013,7.063-4.182,7.063-4.182
			s-0.467-2.106,3.778-1.611C411.892,406.326,418.337,405.242,418.337,405.242z"/>
		<path fill="#F29100" d="M406.718,363.697c0,0-6.691,0.278-9.449,2.974c-2.757,2.695,0,6.475,0,6.475l5.299-0.123
			c0,0-6.196-4.493-1.086-6.847C406.563,363.821,406.718,363.697,406.718,363.697z"/>
		<path fill="#F29100" d="M413.44,377.7c0,0-8.239,0.249-7.991,4.616c0.247,4.337,3.406,5.36,3.406,5.36s-6.196-1.24-4.554-6.971
			c1.612-5.731,8.178-4.399,8.178-4.399L413.44,377.7z"/>
		<path fill="#BD1622" d="M384.443,408.588c0,0-10.625-5.701-13.167-1.022c-2.54,4.677-4.089,9.201-0.96,12.207
			c3.129,3.005,8.056-0.899,11.028-3.718C384.321,413.172,384.443,408.588,384.443,408.588z"/>
		<path fill="#BD1622" d="M392.56,383.06c0,0-5.607-1.92-3.842,1.457c1.767,3.345,3.068,2.757,3.068,2.757L392.56,383.06z"/>
		<path fill="#BD1622" d="M396.06,392.508c0,0-3.439-3.717-6.164-2.013c-2.727,1.703-0.185,3.562-0.185,3.562L396.06,392.508z"/>
		<path fill="#BD1622" d="M382.338,372.496"/>
		<path fill="#1D1D1B" d="M380.23,352.792c0,0-2.325,2.045,0.03,4.12c2.354,2.076,5.916,4.895,5.916,4.895s-6.97,1.457-8.456-2.757
			C376.234,354.837,380.23,352.792,380.23,352.792z"/>
		<path fill="#1D1D1B" d="M389.245,353.504l-3.345-0.558c0,0,0.124,0.589,1.207,3.439c1.086,2.85,3.654,5.514,3.654,5.514
			l3.287,0.558c0,0-5.176-3.997-4.68-5.452C389.864,355.518,389.245,353.504,389.245,353.504z"/>
		<path fill="#F8B133" d="M379.672,356.261c0,0,3.285-2.199,5.577,0.65c2.292,2.85-0.278,2.944-2.635,2.262
			C380.23,358.522,379.672,356.261,379.672,356.261z"/>
		<path fill="#F29100" d="M372.424,415.558c0,0-4.678-5.948,4.956-7.001c9.636-1.054,1.084,9.758-2.013,9.789
			C372.267,418.346,372.424,415.558,372.424,415.558z"/>
		<path fill="#250500" d="M325.115,377.855c0,0,20.045,3.687,24.476,8.023c4.43,4.338,8.302,4.71,11.122,12.981
			c2.818,8.271,2.818,8.271,2.818,8.271s-13.476-19.084-20.85-22.214C335.277,381.79,325.115,377.855,325.115,377.855z"/>
		<path fill="#422918" d="M290.076,364.378c0,0-3.222-24.133,4.276-27.82c21.872-10.75,37.207,1.58,37.083,1.425
			c0,0-25.187,20.478-25.279,22.864C306,363.263,290.076,364.378,290.076,364.378z"/>
		<path fill="#1D1D1B" d="M292.493,370.574c0,0-14.002,5.763-17.627,8.366c-3.625,2.602-13.817,3.469-13.817,3.469
			s1.766-0.712,7.9-2.943c6.166-2.23,10.348-3.965,12.857-5.359C284.315,372.712,292.493,370.574,292.493,370.574z"/>
		<path fill="#683B11" d="M318.919,387.892c0,0-0.309,7.932,7.775,15.367c8.087,7.436,14.221,7.28,16.266,8.922
			c2.046,1.643-13.692-1.362-18.772-8.488c-5.082-7.095-7.281-8.612-7.157-11.742C317.184,388.853,318.919,387.892,318.919,387.892z
			"/>
		<path fill="#683B11" d="M330.848,382.069c0,0,13.134,6.071,17.534,17.72c4.399,11.649,1.673,12.888,1.673,12.888
			s-1.582-15.49-7.344-19.393C336.95,389.38,330.848,382.069,330.848,382.069z"/>
		<path fill="#B17F49" d="M295.468,361.869l-2.85-0.062c0,0-4.864-12.98-0.279-19.704c4.584-6.723-1.332,0.868,0,8.52
			C293.671,358.276,295.468,361.869,295.468,361.869z"/>
		<path fill="#F8B133" d="M297.42,338.665c0,0,0.96-0.031,6.32,0.558c5.357,0.62,7.869-0.713,7.869-0.713s-7.902,3.594-11.835,2.107
			C295.839,339.16,297.42,338.665,297.42,338.665z"/>
		<path fill="#F8B133" d="M296.056,342.971c0,0,7.342,0.124,9.015-0.062c1.674-0.186,3.781,0.463,5.236,2.168
			c1.486,1.734,4.615-0.248,5.234,1.146c0.621,1.362-1.579,0.495-5.173,1.424c-3.594,0.961-5.608-1.362-8.644-2.447
			C298.69,344.117,296.056,342.971,296.056,342.971z"/>
		<path fill="#FFED78" d="M294.228,347.401c0,0,9.202,2.261,12.269,2.571c3.099,0.279,7.837,0.279,8.117,0.899
			c0.278,0.62-3.75,2.788-3.75,2.788s-8.271-1.116-10.812-2.478c-2.54-1.364-6.351,0.527-6.568-0.93
			c-0.216-1.456,1.146-3.16,1.146-3.16L294.228,347.401z"/>
		<path fill="#F8B133" d="M316.906,333.429c0,0,6.164,1.364,7.312,2.386c1.146,1.022-0.465,1.054-5.112,0.186
			C314.458,335.163,316.906,333.429,316.906,333.429z"/>
		<path fill="#E5332A" d="M321.862,342.537c0,0-6.599-2.044-9.696-0.31c-3.099,1.766-5.298-0.464-3.159-1.487
			c2.105-1.021,6.227-1.703,9.262-0.898C321.337,340.679,321.862,342.537,321.862,342.537z"/>
		<path fill="#1D70B7" d="M323.194,343.807c0,0-3.189-2.013-5.515-0.897c-2.292,1.115-3.252,2.509-0.806,2.323
			c2.448-0.186,5.05-0.341,5.05-0.341L323.194,343.807z"/>
		<path fill="#F8B133" d="M329.576,338.85c0,0-2.043-1.27-3.779-1.27c-1.735,0-1.673,1.734-0.247,2.138
			c1.425,0.403,2.014,0.868,2.014,0.868L329.576,338.85z"/>
		<path fill="#F29100" d="M315.109,336.155c0,0-0.093-2.168-4.678-2.788c-4.586-0.62-9.914,1.766-9.914,1.766
			s3.159,3.532,6.412,3.036C310.183,337.673,315.109,336.155,315.109,336.155z"/>
		<path fill="#F8B133" d="M297.821,362.055c0,0-3.779-7.497-2.788-9.418c0.992-1.92,0.805,1.643,2.231,4.493
			C298.69,359.917,297.821,362.055,297.821,362.055z"/>
		<path fill="#F8B133" d="M300.331,361.281c0,0-2.85-6.475-0.619-7.498c2.231-1.053,0.341-1.115,0.465,1.549
			C300.331,358.028,300.331,361.281,300.331,361.281z"/>
		<path fill="#F8B133" d="M303.863,360.32c0,0-2.664-4.152-0.712-5.576c1.951-1.426,1.425-1.271,0.806,0.959
			C303.368,357.935,303.863,360.32,303.863,360.32z"/>
	</g>
</g>
</svg>
