<?xml version="1.0" encoding="utf-8"?>
<!-- Generator: Adobe Illustrator 25.0.0, SVG Export Plug-In . SVG Version: 6.00 Build 0)  -->
<svg version="1.1" id="Capa_1" xmlns="http://www.w3.org/2000/svg" xmlns:xlink="http://www.w3.org/1999/xlink" x="0px" y="0px"
	 viewBox="0 0 99.21 88.44" style="enable-background:new 0 0 99.21 88.44;" xml:space="preserve">
<style type="text/css">
	.st0{fill:#008D36;}
	.st1{fill:#C47800;}
	.st2{fill:#F29100;}
	.st3{fill:#FFD31F;}
	.st4{fill:#1D1D1B;}
	.st5{fill:#FFFFFF;}
	.st6{fill:#1C0C00;}
	.st7{fill:#250500;}
	.st8{fill:#422918;}
	.st9{fill:#683B11;}
	.st10{fill:#7E4E24;}
	.st11{clip-path:url(#XMLID_4_);fill:#B17F49;}
	.st12{clip-path:url(#XMLID_4_);fill:#FFED78;}
	.st13{clip-path:url(#XMLID_5_);fill:#F29100;}
	.st14{clip-path:url(#XMLID_5_);fill:#B17F49;}
	.st15{fill:#E84E1B;}
	.st16{fill:#C99D66;}
	.st17{fill:#A3897A;}
	.st18{fill:#F8B133;}
	.st19{fill:#925F36;}
	.st20{fill:#1D70B7;}
	.st21{fill:#FFED78;}
	.st22{fill:#35A8E0;}
	.st23{fill:#DDDB00;}
	.st24{fill:#BD1622;}
	.st25{fill:#E5332A;}
	.st26{fill:#B17F49;}
</style>
<path class="st0" d="M42.42,49.06c0,0-11.54-2.75-18.1,16.44s-2.38,17.81-2.38,17.81l3.57,0.02c0,0-4.55-13.61,7.16-24.5
	S42.42,49.06,42.42,49.06z"/>
<g>
	<path class="st1" d="M31.09,37.45c0,0-6.38,0.67-9.6-2.05c-3.22-2.72-7.02-2.08-9.15-0.86s-2.48,1.65-2.48,1.65
		s-1.19-2.35,4.52-4.29s7.99-2.67,11.6,0.31s6.24,3.34,6.53,3.78C32.8,36.43,31.09,37.45,31.09,37.45z"/>
	<path class="st1" d="M37.09,30.2c0,0-1.96-2.75-3.85-2.13c-1.89,0.62-3.61-0.68-4.96-0.2c-1.35,0.48-1.17,2.48-1.17,2.48
		s3.69,2.89,5.09,1.72c1.4-1.17,5.15-1.49,5.15-1.49"/>
	<path class="st2" d="M44.17,46.58c0,0,0.47,4.35,4.63,6.95s3.44,4.87,2.99,5.3c-0.45,0.43,0.57,2.69,1.73,0.13
		c1.16-2.56,0.06-2.09,0.42-4.63c0.35-2.54-2.57-5.58-4.93-8.36c-2.36-2.78-3.71-2.3-3.71-2.3L44.17,46.58z"/>
	<path class="st3" d="M31.9,37.99c0,0-0.39-4.26-9.05-3.86s-13.39,2.7-15.9,5.01c-2.5,2.31-1.28,2.48,0.11,2.05
		c1.39-0.43-1.72,1.55-0.45,1.6s8.73-0.26,13.44-0.3c4.72-0.04,9.76-0.61,11.39-2.67C33.08,37.77,31.9,37.99,31.9,37.99z"/>
	<path class="st2" d="M27.91,38c0,0-7.49-2.48-13.32-0.85s-7.26,3.9-4.16,2.78s13.63-2.01,12.95-1.3c-0.68,0.71-8.03,1.77-9.48,1.71
		c-1.45-0.06-0.4,2.28,4.04,1.26s8.07-1.14,9.52-2.23C28.9,38.26,27.91,38,27.91,38z"/>
	<path class="st3" d="M32.51,42.01c0,0-1.73-2.24-8.45,0.51c-11.86,4.86-11.31,7.8-14.33,12.11s0.44,3.16,1.18,1.77
		c0.74-1.39-2.22,3.4,1.06,1.21c3.28-2.19,14.44-8.47,17.93-10.92C33.39,44.23,32.51,42.01,32.51,42.01z"/>
	<path class="st2" d="M13.28,53.12c0,0-0.34-2.75,6.89-7.22s11.33-4.4,11.41-2.62c0.08,1.78-2.74,2.95-4.78,4.31
		c-2.04,1.36-8.98,5.53-8.67,4.65c0.31-0.88,10.76-6.12,10.9-7.26c0.14-1.14-8.96,3.65-9.91,4.72c-0.95,1.07-0.47-1.03,2.42-2.96
		s-2.07-0.16-4.58,2.8S13.28,53.12,13.28,53.12z"/>
	<path class="st3" d="M33.64,43.3c0,0-4.36,0.49-8.99,6.9s-6,14.35-4.11,14.88c1.89,0.53,0.86-1.59,1.8-0.18
		c0.94,1.42,0.41-0.15,4.02-3.19s10.43-14.5,10.28-17.22S33.64,43.3,33.64,43.3z"/>
	<path class="st2" d="M21.31,61.82c0,0,3.5-11.34,8.6-15.14s5.48-4.35,5.49-1.36c0.01,2.99-6.99,13.13-8.65,14.67
		c-1.66,1.54,4.99-7.49,4.34-8.85c-0.65-1.36-1.13-2.07-2.6,1.09c-1.48,3.16-2.83,4.59-2.63,2.4c0.2-2.19-2.9,2.95-2.48,4.72
		C23.79,61.12,21.31,61.82,21.31,61.82z"/>
	<path class="st1" d="M37.64,45.37c0,0-4.24,3.47-4.63,8.65s-0.71,17.94-0.74,18.86c-0.03,0.92,1.03-0.94,1.36,0.12
		c0.32,1.06,1.15-0.9,3.04-3.56c1.89-2.67,2.98-13.12,3.4-17.11s-1.3-6.94-1.3-6.94L37.64,45.37z"/>
	<path class="st3" d="M40.48,44.89c0,0-4.91,5.69-1.96,12.62c2.95,6.93,4.93,9.32,5.14,12.13c0.21,2.81,1.64,4.28,1.64,4.28
		s1.49,2.85,3.51-5.03c2.02-7.88,0.16-12.39-1.4-15.32s-4.58-7.83-4.58-7.83L40.48,44.89z"/>
	<path class="st2" d="M44.94,67.51c0.18-0.5-6.5-11.16-5.92-13.33s0.99-5.77,1.96-7.26c0.97-1.5,1.17-1.06,2.79,1.75
		c1.62,2.81,5.24,8.63,5.51,12.5c0.27,3.87-1.66,8.79-1.75,6.28c-0.08-2.5-0.15-11.35-2.85-14.96c-2.7-3.61-1.79,3.06-0.7,6.76
		c1.1,3.7-3.04-1.42-2.9-4.36c0.13-2.94-1.23,1.94,1.4,6.07S44.94,67.51,44.94,67.51z"/>
	<g>
		<path class="st4" d="M36.32,46.12c0,0-2.63-0.3-2.24-1.45c0.38-1.15,0.85-0.95-0.43-1.38s-2.44-0.85-1.8-1.51
			c0.64-0.66-0.51-0.92-1.51-1.53c-1.01-0.61-2-0.46-1.06-1.6c0.94-1.14-0.21-1.91,0.2-2.82c0.41-0.92-0.4-1.56,0.35-2.17
			s0.1-3.5,0.6-2.94s1.15,1.54,1.57,0.62c0.41-0.92,0.95-2.42,1.45-1.86c0.5,0.56,1.42-0.56,1.77-0.03
			c0.35,0.53,1.82-0.35,2.06-0.75c0.24-0.4-0.11,1.37,0.6,0.9s1.11-0.83,1.28-0.19c0.17,0.64,1.24,0.52,1.43,0.22
			c0.19-0.3,0.19,0.09,0.51,0.77c0.32,0.68,1.09-0.86,1.24,0.33s0.5,1.69,0.86,1.08s0.53,2.69,1.12,1.68
			c0.59-1.02,2.96-0.67,2.26-0.21c-0.69,0.46-1.4,1.32-0.93,1.64c0.47,0.32,2.89-0.39,2.58,0.84s-0.72,0.61-0.31,1.23
			c0.41,0.62,1.59,1.62,1.03,1.74c-0.56,0.12,0.71,0.3,0.27,0.97c-0.44,0.68-1.45,0.71-0.74,1.77s-0.97,0.65-0.95,1.27
			c0.03,0.62,1.07,1.6,0.38,1.35c-0.68-0.25-0.83,0.87-0.89,1.55c-0.06,0.68-0.35,1.77-1.24,0.83c-0.89-0.95-2.36,1.83-3.01,1.05
			c-0.65-0.78-2.39-0.9-2.57-0.02s-3.92,0.07-2.89-0.5c1.03-0.57,0.11-0.6,0.11-0.6L36.32,46.12z"/>
		<path class="st5" d="M34.1,33.46c0,0-1.51,2.68,1.81,5.12c3.31,2.44,4.98-0.13,5.09-0.85s-0.27-2.93-1.8-3.84
			c-1.53-0.9-2.31-1.44-2.98-1.06C35.54,33.22,34.1,33.46,34.1,33.46z"/>
	</g>
	<path class="st1" d="M45.61,45.62c0,0-0.5,4.01,2.82,6.64c3.32,2.63,2.49,1.65,3.76,3.24s-0.88-3.45-3.08-5.08
		s-1.16-3.14,1.04-0.42c2.19,2.72,2.19,2.72,2.19,2.72s-1.01-2.48-3.18-4.77c-2.17-2.29-2.61-2.95-2.61-2.95L45.61,45.62z"/>
	<path class="st3" d="M29.47,35.84c0,0-3.23-0.23-7.08-3.9s-6.77-4.81-7.97-4.39s-2.03-0.82,1.4-2.21s7.06-1.88,11.23,1.48
		s5.16,5.25,5.16,5.25L29.47,35.84z"/>
	<path class="st2" d="M18.83,28.34c0,0,2.38,0.89,4.17,2.32c0.6,0.48,1.13,1.01,1.48,1.59c1.42,2.32,5.1,2.96,5.1,2.96l1.84-2.61
		c0,0-3.02-4.53-6.58-6.4s-6.42-1.56-5.38-0.84c1.04,0.72,8.07,2.05,9.07,4.7s-4.76-2.18-5.93-2.37c-1.16-0.2,2.12,2.61,3.92,3.58
		c1.8,0.98-2.7,0.51-4.56-2.15S18.83,28.34,18.83,28.34z"/>
	<path class="st6" d="M38.33,48.33c0,0-2.43,3.82,0.67,10.28s4.1,8.56,4.66,11.03c0.56,2.46,1.62,2.47,1.99,3.18
		s-1.08-5.32-2.88-8.54c-1.79-3.22-5.07-8.71-4.38-11.57C39.08,49.84,38.33,48.33,38.33,48.33z"/>
	<path class="st6" d="M32.54,43.91c0,0-5.18,3.43-7.98,7.36s-4.84,11.61-4.84,11.61s0.35-5.85,3.82-11.02s5.3-6.01,7.9-7.8
		C34.03,42.27,32.54,43.91,32.54,43.91z"/>
</g>
<g>
	<path class="st7" d="M90.36,38.6c0,0,2.55-0.04,3.31,0.93c0.76,0.97-1.91,0.48-2.52-0.13C90.55,38.8,90.36,38.6,90.36,38.6z"/>
	<g>
		<path class="st8" d="M54.86,25.37c0,0,7.17,1.52,10.19,5.85c3.01,4.33,2.79,8.03,0.87,7.72c-1.92-0.32-7.32-1.91-9.53-4.12
			c-2.21-2.21-3.49,0.05-4.24-0.29c-0.74-0.34-1.92-2.35-3.19-2.18s-1.83-2.69-2.68-2.7c-0.85-0.01-3.53-1.18-4.25-3.58
			s1.07-3.04,2.75-3.11c1.69-0.07,1.34,0.45,2.05,0.02c0.71-0.43,5.33-1.11,5.33-1.11L54.86,25.37z"/>
		<path class="st9" d="M51.26,22.66c0,0-2.39,0.4-3.46,0.65c-1.07,0.25-4.87-0.45-5,1.31c-0.14,1.76,1.06,2.85,2.43,4.02
			c1.37,1.17,2.22,0.24,2.53,1.78s3.73,1.18,4.1,2.28c0.37,1.09,3.3-0.79,3.18-3.1s0.26-4.34-0.04-4.75S51.26,22.66,51.26,22.66z"/>
		<path class="st10" d="M56.39,26.9c0,0,0.03,0.06,0.1,0.17c0.48,0.82,2.63,4.35,4.54,5.47c2.38,1.39,3.71,1.93,4.3,4.16
			c0.58,2.24-0.79,0.15-1.95-1.2c-1.16-1.36-3.34-1.12-5.56-4.01s-2.31-5.03-2.31-5.03L56.39,26.9z"/>
		<path class="st8" d="M51.35,23.05c0,0,2.36,0.2,2.94,2.16c0.58,1.95-0.62,2.21-0.41,3.85s-0.47,2.84-0.7,2.89
			c-0.23,0.04,0.39-1.88,0.21-3.21s-0.72-3.05-1.77-3.65c-1.05-0.6-1.7-1.44-2.26-1.07c-0.57,0.37,1.21,1.79,1.64,3.28
			c0.43,1.49,0.98,2.91,0.76,3.83s-0.43,0.93-0.43,0.93s-0.18-1.9-0.89-2.47c-0.71-0.57,0.38,2.32-0.25,1.9
			c-0.63-0.42-1.81-3.29-1.45-1.9c0.36,1.38,0.04,2.62-0.57,1.07c-0.62-1.55-0.14-3.33-0.4-4.53c-0.26-1.2-1.06-1.98-0.48-2.19
			s2.74-0.9,3.16-0.84C50.85,23.15,51.35,23.05,51.35,23.05z"/>
		<g>
			<defs>
				<path id="XMLID_3_" d="M54.67,26.02c0,0-1.34-0.55-0.3-2.44c1.4-2.54,6.67-5.67,16.59-5.23s15.6,5.09,15.6,5.09
					s-1.56,0.78-0.13,2.23s2.16,2.3,2.16,2.3s-2.08,0.67-1.23,1.91s1.53,2.39,1.53,2.39s-1.81,0.05-0.48,1.41l3.44,3.54
					c0,0-5.26-1.5-6.13-0.7s-1.48,1.27-1.48,1.27s-0.93-0.77-2.01,1.51c-1.08,2.28-1.79,3.38-2.68,2.74
					c-0.89-0.64-1.59-2.75-2.8-1.03s-3.85,1.54-4.7,0.27s-5.11-9.62-8.45-11.93C60.25,27.03,54.67,26.02,54.67,26.02z"/>
			</defs>
			<use xlink:href="#XMLID_3_"  style="overflow:visible;fill:#7A6A58;"/>
			<clipPath id="XMLID_4_">
				<use xlink:href="#XMLID_3_"  style="overflow:visible;"/>
			</clipPath>
			<path class="st11" d="M76.12,25.57c0,0,6.85-0.23,7.48-0.09c0.63,0.13,1.47,0.64,1.47,0.64s-2.46,1.75-1.76,2.64
				c0.7,0.88,0.82,0.96,0.82,0.96l-8.66-2.47L76.12,25.57z"/>
			<path class="st12" d="M86.21,22.06c0,0-4.55,1.03-4.01,2.48c0.54,1.46,3.87,1.87,3.87,1.87s-2.78,1.76-2.09,2.76
				c0.69,1,2.74,1.71,2.74,1.71s-2.72-0.22-2.16,1.21c0.55,1.43,2.17,2.62,2.17,2.62s-2.61-0.59-2.92,0.25
				c-0.31,0.84-0.62,1.06-0.62,1.06s-2.17,0.04-3.01,1.55c-0.84,1.51,2.45,2.41,2.45,2.41s12.21,0.44,12.44-0.44
				c0.23-0.89-4.87-8.34-5.04-10.4c-0.17-2.06-0.37-6.31-1.62-6.53C87.16,22.37,86.21,22.06,86.21,22.06z"/>
		</g>
		<g>
			<defs>
				<path id="XMLID_1_" d="M51.27,23.81c0,0-1.43-0.63,4.26-5.48s13.04-10.5,22.2-13.16s11.73-1.42,11.5,1.13s-0.67,2.68-1.34,4.71
					c-0.67,2.03,0.28,2.02-0.53,3.16c-0.81,1.14,0.51,3.18-1.11,4.65c-1.63,1.48-2.01,3.05-2.01,3.05s-4.79-3.59-7.88-3.26
					c-3.08,0.34-12.41,0.3-17.67,1.95s-4.54,5.03-4.54,5.03L51.27,23.81z"/>
			</defs>
			<use xlink:href="#XMLID_1_"  style="overflow:visible;fill:#7E4E24;"/>
			<clipPath id="XMLID_5_">
				<use xlink:href="#XMLID_1_"  style="overflow:visible;"/>
			</clipPath>
			<path class="st13" d="M88.7,4c0,0-1.03-0.05-0.69,0.59c0.34,0.64,0.83,1.7,0.77,2.22c-0.06,0.52-0.56,1.83-0.79,2.2
				c-0.23,0.37-0.56,0.99-0.3,1.38c0.27,0.39-0.59,0.27-0.32,1.29s-0.34,1.43-0.42,2.29c-0.08,0.86-0.68,2.58-0.58,3.08
				c0.1,0.49-0.83,1.24-0.7,2.06c0.13,0.82-2.21,1.8-1.89,2.72c0.32,0.92,3.66-1.51,3.96-3.38c0.29-1.88,0.92-8.56,1.53-9.77
				s1.01-3.53,0.48-4.04S88.7,4,88.7,4z"/>
			<path class="st14" d="M61.05,14.04c0,0,0.04-0.03,0.11-0.09c1.05-0.81,9.37-7.06,18.8-9.56c10.1-2.68,3.58,2.7,4.13,3.56
				s1.08,1.69,0.34,2.15c-0.74,0.46-0.69,0.65-0.42,1.1s-0.47,1.58-0.23,1.89c0.24,0.31-0.47,1.77-0.18,2.02
				c0.3,0.25,0.3,1.03-0.02,1.39s-0.91,1.6-0.76,1.9c0.14,0.3-1.21,0.88-1.02,1.35s-0.03,0.72-0.03,0.72s-16.57-2.17-18.21-1.51
				c-1.64,0.66,2.82-6.24,0.91-5.7C62.56,13.78,61.05,14.04,61.05,14.04z"/>
		</g>
		<path class="st15" d="M70.88,19.16c0,0,5.49-1.5,9.22,0.29c3.73,1.78,5.5,3.53,5.5,3.53s-9.2-0.32-10.73-0.16
			C73.33,22.98,70.88,19.16,70.88,19.16z"/>
		<path class="st8" d="M73.59,22.34c0,0,5.7-0.42,7.39-0.2c1.7,0.21,1.84,0.45,1.84,0.45l-0.34,3.36l-7.28-0.54L73.59,22.34z"/>
		<path class="st16" d="M79.93,39.21c0,0-2.95-3.14-4.58-4.51c-1.63-1.37-4.66,0.94-4.37,2.6c0.3,1.66,0.43,3.66,1.68,4.55
			c1.25,0.9,2.39,0.72,3.05-0.17c0.66-0.89,1.89-1.61,2.76-1.09C79.34,41.12,79.93,39.21,79.93,39.21z"/>
		<path class="st17" d="M73.72,33.04L80,39.29c0,0-0.13-2.45,0.85-2.87s2.1-0.52,2.1-0.52l-6.88-5.18L73.72,33.04z"/>
		<path class="st2" d="M77.02,29.44l8.72,4.39c0,0-2.37,0.71-2.5,1.37c-0.13,0.66-0.2,1.2-0.2,1.2l-6.83-5.57L77.02,29.44z"/>
		<path class="st10" d="M85.74,30.01c0,0-7.31-2.05-8.56-2.23c-1.25-0.18-0.46,1.47-0.46,1.47l9.34,4.86l-0.35-3.61L85.74,30.01z"/>
		<path class="st9" d="M82.07,39.79c0,0-2.22-2.02-2.64-1.29s-3.24-0.42-4.74-0.88c-1.5-0.46-0.17,2.86-0.62,3.63
			c-0.45,0.76-0.47,2.07,1.52,0.54c1.99-1.54,1.63-0.83,3.03,0.04c1.4,0.86,2.68-0.05,3.05-0.86
			C82.04,40.15,82.07,39.79,82.07,39.79z"/>
		<path class="st18" d="M63.98,20.13c0,0,8.11-1.42,8.61-1.03s1.97,3.06,1.97,3.06l0.78,0.27l1.1,2.9l-18.39-0.73L63.98,20.13z"/>
		<path class="st19" d="M58.29,24.08c0,0,2.53-2.9,4.38-3.47c1.86-0.57,2.4-0.51,3.83,0.25c1.43,0.75,2.49,0.82,2.49,0.82
			s-2.19,0.34-3.15,0.99s-5.35,1.63-6.25,1.98c-0.9,0.35-1.66,0.14-1.66,0.14L58.29,24.08z"/>
		<path class="st20" d="M72.92,19.31c0,0,1.15-0.37,1.93,0.35s0.75,2.79-0.61,2.52C72.89,21.9,72.92,19.31,72.92,19.31z"/>
		<path class="st20" d="M75.34,22.42c0,0,1.15-0.37,1.93,0.35s0.75,2.79-0.61,2.52C75.3,25.01,75.34,22.42,75.34,22.42z"/>
		<path class="st20" d="M78.22,25.59c0,0,1.03-0.34,1.72,0.3c0.69,0.64,0.66,2.5-0.55,2.26C78.18,27.91,78.22,25.59,78.22,25.59z"/>
		<path class="st20" d="M80.77,29.22c0,0,0.84-0.34,1.34,0.1c0.5,0.44,0.33,1.86-0.61,1.77S80.77,29.22,80.77,29.22z"/>
		<path class="st20" d="M82.01,32.19c0,0,0.18,0.81-0.37,1.32s-1.97,0.41-1.69-0.52C80.23,32.07,82.01,32.19,82.01,32.19z"/>
		<path class="st20" d="M77.9,32.32c0,0,0.63,0.96,0.1,1.86c-0.53,0.9-2.56,1.41-2.6,0.1C75.36,32.96,77.9,32.32,77.9,32.32z"/>
		<path class="st21" d="M76.3,25.15c0,0-5.35,0.48-7.69-0.78c-0.87-0.47-2.71-0.42-5.15-0.05c-2.44,0.38-6.77,0.26-5.82,1.28
			c0.95,1.02,9.68,2.15,10.36,3.28c0.67,1.13,1.35,4.16,1.85,5.49c0.5,1.33,1.63,4.17,1.63,4.17s0.86-3.81,1.89-3.38
			c1.03,0.43,2.71,0.37,2.71,0.37s-1.22-2.44,0.04-2.72c1.25-0.28,1.31-1.12,1.31-1.12l-1.19-0.7c0,0,2.29,0.29,1.66-0.61
			c-0.63-0.9-1.32-1.24-1.32-1.24s2.61,0.19,1.77-0.56c-0.84-0.75-1.59-0.97-1.59-0.97s0.93-1.96,0.24-2.21
			C76.3,25.15,76.3,25.15,76.3,25.15z"/>
		<path class="st7" d="M84.15,6.24c0,0-2.4,0.56-4.57,0.94c-1.43,0.25-2.76,0.42-3.25,0.3c-1.23-0.31-1.89-0.68-1.89-0.68
			s2.26,0.31,1.73,1.54s1.69-0.4,2.94-0.72S84.15,6.24,84.15,6.24z"/>
		<path class="st7" d="M83.46,10.01c0,0-2.41,0.18-4.57,0.21c-1.42,0.02-2.74-0.02-3.19-0.23C74.57,9.49,73.99,9,73.99,9
			s2.13,0.68,1.41,1.83c-0.72,1.15,1.7-0.13,2.96-0.25C79.63,10.46,83.46,10.01,83.46,10.01z"/>
		<path class="st7" d="M83.2,11.89c0,0-2.41,0.18-4.57,0.21c-1.42,0.02-2.74-0.02-3.19-0.23c-1.13-0.51-1.71-0.99-1.71-0.99
			s2.13,0.68,1.41,1.83c-0.72,1.15,1.7-0.13,2.96-0.25S83.2,11.89,83.2,11.89z"/>
		<path class="st7" d="M83.9,13.97c0,0-2.41,0.18-4.57,0.21c-1.42,0.02-2.74-0.02-3.19-0.23c-1.13-0.51-1.71-0.99-1.71-0.99
			s2.13,0.68,1.41,1.83c-0.72,1.15,1.7-0.13,2.96-0.25C80.07,14.42,83.9,13.97,83.9,13.97z"/>
		<path class="st7" d="M83.59,16.21c0,0-2.41,0.18-4.57,0.21c-1.42,0.02-2.74-0.02-3.19-0.23c-1.13-0.51-1.71-0.99-1.71-0.99
			s2.13,0.68,1.41,1.83c-0.72,1.15,1.7-0.13,2.96-0.25S83.59,16.21,83.59,16.21z"/>
		<path class="st7" d="M53.44,22.48c0,0,4.68-6.76,9.69-9.51s17.99-4.44,17.99-4.44s-0.83,0.48-0.18,1.22s-1.32,0.18-0.68,1.91
			s-1.35,1.01-0.6,2.13c0.75,1.12-1.18,0.78-0.22,1.99s-1.05,1.17-0.46,2.31c0.59,1.14-10.29,0.09-16.3,1.79
			C56.42,21.65,53.44,22.48,53.44,22.48z"/>
		<g>
			<ellipse transform="matrix(0.76 -0.65 0.65 0.76 -5.2869 35.2663)" class="st4" cx="45.1" cy="24.79" rx="1.49" ry="1.31"/>
			<ellipse transform="matrix(0.76 -0.65 0.65 0.76 -5.0239 34.9043)" class="st5" cx="44.74" cy="24.25" rx="0.44" ry="0.39"/>
			<ellipse transform="matrix(0.76 -0.65 0.65 0.76 -4.6969 35.3932)" class="st5" cx="45.57" cy="24.06" rx="0.32" ry="0.28"/>
		</g>
		<path class="st4" d="M45.14,23.41c0,0,0.19-2.68-1.48-4.15s-3.43-2.8-2.04-4c1.39-1.2,0.53-1.31-0.15-0.82
			c-0.68,0.49-2.49,1.57-1.11,2.51c1.38,0.94,3.45,2.32,3.97,3.97C44.84,22.57,45.14,23.41,45.14,23.41z"/>
		<path class="st4" d="M44.63,23.44c0,0-2.31-3.43-5.56-4.25c-3.25-0.82-4.53-2.32-3.06-3.58s2.11-0.77,1.5,0.17
			c-0.61,0.95-1.8,1.54-0.23,2.14c1.57,0.6,4.47,1.57,5.64,2.88C44.09,22.12,44.63,23.44,44.63,23.44z"/>
		<path class="st4" d="M49.44,26.57c0,0-1.54,0.29-3.25,2.24s-5.85,5.54-5.85,5.54s-0.2,0.91,1.52-0.62
			c1.72-1.53,4.87-5.04,5.96-5.77c1.08-0.73,1.72-1.03,1.84-1.14C49.77,26.73,49.44,26.57,49.44,26.57z"/>
		<path class="st4" d="M51.43,28.79c0,0-0.01-1.2-0.77-0.47s-3.78,3.98-5.04,4.87c-1.26,0.89-3.81,3.18-3.81,3.18
			s0.19,1.54,0.98,0.46s3.96-3.9,5.56-5.41C49.95,29.91,51.43,28.79,51.43,28.79z"/>
		<path class="st4" d="M53.18,31.95c0,0-1.27,0.16-1.94,1.16c-0.66,1-3.38,6.83-3.84,7.3c-0.47,0.47,1.55-0.22,2.25-1.93
			s1.33-4.17,2.6-5.44C53.53,31.77,53.18,31.95,53.18,31.95z"/>
		<path class="st21" d="M61.28,14.91c0,0,1.93-1.92,3.25-0.87c1.32,1.06,2.27,0.89,3.06,0.92c0.79,0.03,2.3-0.29,1.02,0.87
			c-1.28,1.16-3.86,1.12-5.18,0.39c-1.31-0.73-1.77-0.62-2.5-0.43S61.28,14.91,61.28,14.91z"/>
		<path class="st22" d="M66.75,11.48c0,0,1.68-0.62,3.19-0.13s3.08,1.59,1.96,2.3c-1.12,0.7-4.06-0.48-4.67-1.12
			C66.62,11.89,66.75,11.48,66.75,11.48z"/>
		<path class="st21" d="M85.5,4.6c0,0,2.39,0.38,1.95,0.91s-1.4,0.69-2.03-0.05C84.79,4.73,85.5,4.6,85.5,4.6z"/>
		<path class="st15" d="M85.37,6.86c0,0,1-0.52,1.5,0.31c0.5,0.83-1.05,0.54-1.35,0.36C85.22,7.33,85.37,6.86,85.37,6.86z"/>
		<path class="st21" d="M85.27,8.92c0,0,0.75-1.08,1.15-0.32c0.4,0.76-0.91,1.49-1.22,1.13C84.9,9.37,85.27,8.92,85.27,8.92z"/>
		<path class="st15" d="M84.67,11.11c0,0,0.41-1.3,0.99-0.85c0.59,0.45,0.12,1.75-0.47,1.47S84.67,11.11,84.67,11.11z"/>
		<path class="st21" d="M85.21,12.39c0,0-1.31-0.08-0.91,0.78c0.39,0.86,0.93,0.69,1.02,0.26C85.4,13.01,85.21,12.39,85.21,12.39z"
			/>
		<path class="st15" d="M85.45,14.63c0,0-1.64-0.01-1.23,0.79c0.41,0.8,1.41,0.87,1.26,0.36C85.33,15.26,85.45,14.63,85.45,14.63z"
			/>
		<path class="st21" d="M84.8,16.98c0,0-0.3-0.52-0.67-0.06c-0.37,0.46-0.99,0.69-0.12,1.22c0.87,0.53,1.04-0.89,1.04-0.89
			L84.8,16.98z"/>
		<path class="st15" d="M84.03,19.38c0,0-0.59-0.93-0.98-0.17c-0.39,0.76-0.92,1.34-0.61,1.86c0.31,0.52,0.84,0.72,1.28-0.29
			C84.16,19.77,84.03,19.38,84.03,19.38z"/>
		<path class="st7" d="M88.13,4.94c0,0,0.89,0.88,0.6,2.39c-0.26,1.32-1.18,2.08-1.14,2.53c0.01,0.06,0.03,0.12,0.08,0.18
			c0.4,0.42-1.11,1.3-0.58,1.88c0.53,0.58-0.31,1.35-0.14,2.05s-0.42,1.32-0.3,2.08c0.12,0.76-0.7,1.22-0.68,2.3
			c0.02,1.08-1.69,2.63-1.72,3.08s-0.44-0.19-0.44-0.19s1.76-1.58,1.45-2.59c-0.31-1.01,1.8-2.43,1.24-3.75s0.76-1.7,0.29-2.58
			c-0.48-0.88,1.17-1.61,0.68-2.11c-0.49-0.49,0.9-2.11,0.85-2.64c-0.05-0.53,0.4-1.3,0.1-1.73C88.12,5.41,88.13,4.94,88.13,4.94z"
			/>
		<path class="st7" d="M84.16,4.96c0,0,1.38,0.25,1.17,1.05c0,0-0.86,1.01-0.48,1.29c0.37,0.28-0.47,0.58-0.02,1.1
			c0.45,0.52-0.51,0.61,0.04,1.33c0.55,0.72-1.28,0.47-0.74,0.93c0.54,0.45-0.41,0.73,0.06,1.26c0.47,0.53-0.25,0.41-0.16,1.05
			c0.1,0.65-0.31,1.22,0.03,1.54c0.35,0.32-0.48,0.94-0.15,1.43c0.34,0.48-0.53,0.85-0.44,1.27c0.09,0.42-0.7,0.54-0.33,1.13
			s-1.46,1.05-1.13,1.68c0.33,0.62-0.88-0.25-0.1-0.98s1.19-1.35,1.06-1.96c-0.13-0.61,1.08-0.5,0.57-1.57s0.57-1.33,0.01-1.94
			c-0.56-0.62,0.67-0.79,0.27-1.26s0.28-1.36-0.08-1.62c-0.36-0.26,1.08-0.91,0.65-1.41s0.36-0.79-0.31-1.33S85,6.81,84.75,6.65
			c-0.25-0.16,0.18-0.46-0.16-0.78S84.16,4.96,84.16,4.96z"/>
		<path class="st21" d="M70.97,8.54c0,0,1.76-1.08,2.52-0.91c0.76,0.17,2.3,1.05,2.3,1.05s-3.44,1.08-3.87,0.98
			C71.49,9.55,70.97,8.54,70.97,8.54z"/>
		<path class="st21" d="M79.59,7.35l1.7-0.42c0,0,0.46,1.18-0.01,1.19c-0.47,0.01-1.87,0.23-1.87,0.23s0.56-0.66,0.08-0.68
			S79.59,7.35,79.59,7.35z"/>
		<path class="st23" d="M79.74,8.73c0,0-1.89,0.05-3.1,0.24c-1.22,0.19-3.97,1.23-3.97,1.23s1.69-0.19,2.66-0.11
			c0.97,0.08,4.85,0.04,4.58-0.28s-0.45-0.28-0.1-0.64C80.16,8.81,79.74,8.73,79.74,8.73z"/>
		<path class="st24" d="M79.23,10.46c0,0-5.41,0.43-5.08,0.94c0.33,0.51,4.81,0.92,4.83,0.39c0.03-0.53-0.4-0.78-0.08-1.05
			C79.23,10.46,79.23,10.46,79.23,10.46z"/>
		<path class="st25" d="M78.36,12.36c0,0-4.82,0.28-5.37,0.5c-0.55,0.22-1.1,0.72-0.47,0.9c0.64,0.18,6.05,0.23,5.94-0.22
			c-0.11-0.45-0.28-0.62,0.03-0.88S78.36,12.36,78.36,12.36z"/>
		<path class="st15" d="M77.46,14.44c0,0-2.38-0.13-3.71,0.12c-1.33,0.26-3.67-0.06-3.4,0.65C70.62,15.94,78,15.9,78,15.9
			s-1.24-0.85-0.66-1.09S77.46,14.44,77.46,14.44z"/>
		<path class="st2" d="M76.86,16.47c0,0-7.23-0.33-8.07-0.02c-0.84,0.31-2.2,0.49-0.94,0.91c1.26,0.42,9.24,1.15,8.86,0.7
			s-0.59-1.33-0.16-1.32S76.86,16.47,76.86,16.47z"/>
		<path class="st26" d="M63.49,18.06c0,0-4.98,2.48-6.16,2.98c-1.18,0.5-3.85,1.89-2.62,0.36c1.24-1.53,3.93-3.81,5.22-4.74
			c1.29-0.93-0.98,1.17,0,0.95s1.66-1.76,1.85-0.9c0.19,0.87-2.84,1.99-1.17,1.53c1.68-0.45,2.18-1.16,2.05-0.67
			c-0.13,0.49-2.12,1.43-1.12,0.96S63.49,18.06,63.49,18.06z"/>
		<path class="st7" d="M56.28,25.8c0,0,1.46-4.06,3.48-4.81c2.02-0.75,13.47-2.17,13.47-2.17s-9.95,1.17-12.66,3.72
			S56.28,25.8,56.28,25.8z"/>
		<path class="st7" d="M57.59,24.68c0,0,6.53-1.15,8.7-1.7c3.01-0.76,8.16-1.01,8.16-1.01s-6.77,0.89-7.1,1.6
			c-0.33,0.72,4.69,1.85,5.82,1.55c2.72-0.72,3.82,0.28,3.82,0.28s-4.55-0.66-4.05,0.26c0.51,0.91,1.78,1.21,2.06,1.12
			s4.54,1.68,4.54,1.68s-4.85-1.57-5.66-0.9c-0.81,0.67,5.28,2.64,5.28,2.64l-6.53-2.16c0.26,0.46,4.78,3.66,4.78,3.66
			s-5.49-3.4-7.27-3.09c-1.78,0.31-1.51,0.47,0.19,1.65c1.69,1.18,4.41,3.73,4.41,3.73s-9.6-6.18-10.75-6.4
			c-1.15-0.22-7.04-0.99-7.04-0.99l0.5-1c0,0,4.46,0.2,6.79,1.32c2.33,1.12,8.3,1.09,8.5,0.6c0.2-0.49-2.31-1.57-2.99-2.13
			c-0.69-0.56-4.47-1.12-5.71-0.8c-1.24,0.32-6.52,0.59-6.52,0.59L57.59,24.68z"/>
		<path class="st7" d="M74.01,19.01c0,0-0.79,0.82-0.11,1.71c0.68,0.88,1.23,1.44,1.23,1.44l-1.84,0c0,0-1.31-0.82-1.26-2
			c0.05-1.18,0.27-1.05,0.27-1.05L74.01,19.01z"/>
		<path class="st7" d="M76.75,22.21l-1.62-0.06c0,0-0.73,0.47,0.15,1.8c0.88,1.33,1.02,1.19,1.02,1.19l1.25,0.1
			c0,0-1.44-1.66-1.28-2.14S76.75,22.21,76.75,22.21z"/>
		<path class="st7" d="M79.59,25.42l-1.39-0.05c0,0-0.79,1.43-0.29,1.8s0.89,1.05,0.89,1.05l1.43,0.15c0,0-1.78-1.14-1.21-2.05
			C79.59,25.42,79.59,25.42,79.59,25.42z"/>
		<path class="st7" d="M81.97,29.03l-1.12-0.28c0,0-1.09,1.18-0.6,1.75s1.11,0.71,1.11,0.71s-0.52-1.23-0.11-1.56
			C81.66,29.32,81.97,29.03,81.97,29.03z"/>
		<path class="st7" d="M82.16,32.14c0,0-3.43,0.12-3.3,0.43c0.13,0.31,0.72,0.84,0.72,0.84l3.29-1.22L82.16,32.14z"/>
		<path class="st7" d="M78.21,32.46l-0.79-0.77c0,0-2.05,0.32-2.25,1.02c-0.2,0.7-0.42,1.27-0.42,1.27s0.97,1.64,1.33,1.55
			c0.36-0.09-1.33-1.33,0.41-2.2C78.21,32.46,78.21,32.46,78.21,32.46z"/>
		<path class="st7" d="M71.83,39.15c0,0,1.19-3.6,1.93-3.62s2.77,0.53,2.77,0.53L74.99,35c0,0-2.03-0.86-2.66,0.44
			c-0.63,1.3-1.06,2.74-1.06,2.74L71.83,39.15z"/>
		<path class="st7" d="M83.67,22.54c0,0-2.7,0.83-2.25,1.92c0.45,1.09,0.45,1.09,0.45,1.09l-1.17-0.06c0,0-1.25-1.56-0.32-2.24
			c0.94-0.68,1.29-1.1,1.29-1.1L83.67,22.54z"/>
		<path class="st7" d="M85.59,22.98c0,0-1.71,0.67-1.85,1.58c-0.14,0.91-0.14,0.91-0.14,0.91l1.34,0.49c0,0-0.24-1.55,0.19-2.04
			C85.57,23.43,85.59,22.98,85.59,22.98z"/>
		<path class="st7" d="M87.87,27.12l-2.93-1.15c0,0-2.11,1.38-1.85,2.31s0.26,0.93,0.26,0.93l1.19,0.76c0,0-1.1-2.22,0.11-2.93
			c1.21-0.71,0.84-0.49,0.84-0.49L87.87,27.12z"/>
		<path class="st7" d="M88.36,28.02c0,0-1.45-0.55-1.94,0.95c-0.49,1.49,2.31,3.16,2.31,3.16s-3.85-1.85-3.9-0.57
			c-0.04,1.27,1.53,2.39,3.53,3.52c2,1.13,2,1.13,2,1.13s3.86,2.16,3.49,2.42c-0.37,0.26-4.16-1.42-4.71-2.04
			c-0.56-0.62-3.69-2.73-5.1-1.65s0.31,2.04,0.31,2.04s-3.35-1.26-3.93,0.88s1.27,3.26,0.29,3.84c-0.98,0.58-1.58-0.36-1.48-1.73
			c0.11-1.37,0.48-3.75,1.89-4.11c1.41-0.36,1.56-0.18,1.56-0.18s0.49-1.19,1.36-1.7c0.87-0.51,1.35-0.19,1.35-0.19
			s-2.54-2.17-1.16-2.93s1.73-0.52,1.73-0.52s-1.24-1.47-0.11-2.22C88,26.67,88.36,28.02,88.36,28.02z"/>
		<path class="st7" d="M87.65,31.97c0,0-0.81-0.4-0.81,0.69c-0.01,1.1,0.66,2.11,0.66,2.11s-1.62-0.82-1.2-2.13
			S87.65,31.97,87.65,31.97z"/>
		<path class="st7" d="M88.61,35.97c0,0-3.29-1.04-4.14-0.35s-1.25,1.07-1.25,1.07s-1.42,0.22-1.83,0.94
			c-0.42,0.72-1.26,2.31-1.26,2.31s0.44-1.26,1.53-1.91c1.09-0.65,2.28-1.35,2.28-1.35s-0.15-0.68,1.22-0.52
			S88.61,35.97,88.61,35.97z"/>
		<path class="st2" d="M84.86,22.56c0,0-2.16,0.09-3.05,0.96c-0.89,0.87,0,2.09,0,2.09l1.71-0.04c0,0-2-1.45-0.35-2.21
			C84.81,22.6,84.86,22.56,84.86,22.56z"/>
		<path class="st2" d="M87.03,27.08c0,0-2.66,0.08-2.58,1.49c0.08,1.4,1.1,1.73,1.1,1.73s-2-0.4-1.47-2.25
			c0.52-1.85,2.64-1.42,2.64-1.42L87.03,27.08z"/>
		<path class="st24" d="M77.67,37.05c0,0-3.43-1.84-4.25-0.33c-0.82,1.51-1.32,2.97-0.31,3.94c1.01,0.97,2.6-0.29,3.56-1.2
			C77.63,38.53,77.67,37.05,77.67,37.05z"/>
		<path class="st24" d="M80.29,28.81c0,0-1.81-0.62-1.24,0.47c0.57,1.08,0.99,0.89,0.99,0.89L80.29,28.81z"/>
		<path class="st24" d="M81.42,31.86c0,0-1.11-1.2-1.99-0.65c-0.88,0.55-0.06,1.15-0.06,1.15L81.42,31.86z"/>
		<path class="st24" d="M76.99,25.4"/>
		<path class="st4" d="M76.31,19.04c0,0-0.75,0.66,0.01,1.33c0.76,0.67,1.91,1.58,1.91,1.58s-2.25,0.47-2.73-0.89
			S76.31,19.04,76.31,19.04z"/>
		<path class="st4" d="M79.22,19.27l-1.08-0.18c0,0,0.04,0.19,0.39,1.11s1.18,1.78,1.18,1.78l1.06,0.18c0,0-1.67-1.29-1.51-1.76
			C79.42,19.92,79.22,19.27,79.22,19.27z"/>
		<path class="st18" d="M76.13,20.16c0,0,1.06-0.71,1.8,0.21c0.74,0.92-0.09,0.95-0.85,0.73C76.31,20.89,76.13,20.16,76.13,20.16z"
			/>
		<path class="st2" d="M73.79,39.3c0,0-1.51-1.92,1.6-2.26c3.11-0.34,0.35,3.15-0.65,3.16C73.74,40.2,73.79,39.3,73.79,39.3z"/>
		<path class="st7" d="M58.52,27.13c0,0,6.47,1.19,7.9,2.59c1.43,1.4,2.68,1.52,3.59,4.19c0.91,2.67,0.91,2.67,0.91,2.67
			s-4.35-6.16-6.73-7.17C61.8,28.4,58.52,27.13,58.52,27.13z"/>
		<path class="st8" d="M47.21,22.78c0,0-1.04-7.79,1.38-8.98c7.06-3.47,12.01,0.51,11.97,0.46c0,0-8.13,6.61-8.16,7.38
			C52.35,22.42,47.21,22.78,47.21,22.78z"/>
		<path class="st4" d="M47.99,24.78c0,0-4.52,1.86-5.69,2.7c-1.17,0.84-4.46,1.12-4.46,1.12s0.57-0.23,2.55-0.95
			c1.99-0.72,3.34-1.28,4.15-1.73C45.35,25.47,47.99,24.78,47.99,24.78z"/>
		<path class="st9" d="M56.52,30.37c0,0-0.1,2.56,2.51,4.96c2.61,2.4,4.59,2.35,5.25,2.88c0.66,0.53-4.42-0.44-6.06-2.74
			c-1.64-2.29-2.35-2.78-2.31-3.79C55.96,30.68,56.52,30.37,56.52,30.37z"/>
		<path class="st9" d="M60.37,28.49c0,0,4.24,1.96,5.66,5.72s0.54,4.16,0.54,4.16s-0.51-5-2.37-6.26S60.37,28.49,60.37,28.49z"/>
		<path class="st26" d="M48.95,21.97l-0.92-0.02c0,0-1.57-4.19-0.09-6.36s-0.43,0.28,0,2.75S48.95,21.97,48.95,21.97z"/>
		<path class="st18" d="M49.58,14.48c0,0,0.31-0.01,2.04,0.18c1.73,0.2,2.54-0.23,2.54-0.23s-2.55,1.16-3.82,0.68
			C49.07,14.64,49.58,14.48,49.58,14.48z"/>
		<path class="st18" d="M49.14,15.87c0,0,2.37,0.04,2.91-0.02c0.54-0.06,1.22,0.15,1.69,0.7c0.48,0.56,1.49-0.08,1.69,0.37
			c0.2,0.44-0.51,0.16-1.67,0.46c-1.16,0.31-1.81-0.44-2.79-0.79C49.99,16.24,49.14,15.87,49.14,15.87z"/>
		<path class="st21" d="M48.55,17.3c0,0,2.97,0.73,3.96,0.83c1,0.09,2.53,0.09,2.62,0.29c0.09,0.2-1.21,0.9-1.21,0.9
			s-2.67-0.36-3.49-0.8c-0.82-0.44-2.05,0.17-2.12-0.3c-0.07-0.47,0.37-1.02,0.37-1.02L48.55,17.3z"/>
		<path class="st18" d="M55.87,12.79c0,0,1.99,0.44,2.36,0.77c0.37,0.33-0.15,0.34-1.65,0.06C55.08,13.35,55.87,12.79,55.87,12.79z"
			/>
		<path class="st25" d="M57.47,15.73c0,0-2.13-0.66-3.13-0.1c-1,0.57-1.71-0.15-1.02-0.48c0.68-0.33,2.01-0.55,2.99-0.29
			C57.3,15.13,57.47,15.73,57.47,15.73z"/>
		<path class="st20" d="M57.9,16.14c0,0-1.03-0.65-1.78-0.29c-0.74,0.36-1.05,0.81-0.26,0.75s1.63-0.11,1.63-0.11L57.9,16.14z"/>
		<path class="st18" d="M59.96,14.54c0,0-0.66-0.41-1.22-0.41c-0.56,0-0.54,0.56-0.08,0.69s0.65,0.28,0.65,0.28L59.96,14.54z"/>
		<path class="st2" d="M55.29,13.67c0,0-0.03-0.7-1.51-0.9c-1.48-0.2-3.2,0.57-3.2,0.57s1.02,1.14,2.07,0.98
			S55.29,13.67,55.29,13.67z"/>
		<path class="st18" d="M49.71,22.03c0,0-1.22-2.42-0.9-3.04s0.26,0.53,0.72,1.45C49.99,21.34,49.71,22.03,49.71,22.03z"/>
		<path class="st18" d="M50.52,21.78c0,0-0.92-2.09-0.2-2.42c0.72-0.34,0.11-0.36,0.15,0.5C50.52,20.73,50.52,21.78,50.52,21.78z"/>
		<path class="st18" d="M51.66,21.47c0,0-0.86-1.34-0.23-1.8c0.63-0.46,0.46-0.41,0.26,0.31C51.5,20.7,51.66,21.47,51.66,21.47z"/>
	</g>
</g>
</svg>
