<?xml version="1.0" encoding="utf-8"?>
<!-- Generator: Adobe Illustrator 25.0.0, SVG Export Plug-In . SVG Version: 6.00 Build 0)  -->
<svg version="1.1" id="Capa_1" xmlns="http://www.w3.org/2000/svg" xmlns:xlink="http://www.w3.org/1999/xlink" x="0px" y="0px"
	 viewBox="0 0 70.9 70.9" style="enable-background:new 0 0 70.9 70.9;" xml:space="preserve">
<style type="text/css">
	.st0{fill:#96BD0D;}
	.st1{fill:#008F36;}
	.st2{fill:#00892E;}
	.st3{fill:#00632E;}
</style>
<g>
	<path class="st0" d="M15.4,48.9v-5.5c0,0,0.2-1.3-1.8-1c-2.1,0.3-8.7,5-8.7,5s-0.2-0.4,0,2.8c0.2,3.3-0.1,5-0.1,5s-1,1.6,3.3,1.6
		s5.9,0,5.9,0s1.3,0.4,1.4-2.5C15.5,51.3,15.4,48.9,15.4,48.9z"/>
	<path class="st1" d="M21.3,38.2v16.9c0,0,0,1.7,2.3,1.7c2.3,0,7.4,0,7.4,0s1.8-0.3,1.5-2.4c-0.3-2.1,0-19.4,0-19.4
		s-0.3-3.2-2.8-2.2c-2.5,1-7.9,4.3-7.9,4.3L21.3,38.2z"/>
	<path class="st2" d="M49.3,25.9v-1.5c0,0-0.2-1.5-2.1-0.9c-1.8,0.5-8.8,4.6-8.8,4.6s-0.1-0.2,0,2.5c0.1,2.7-0.1,24.5-0.1,24.5
		s-0.4,1.7,2.5,1.7c2.9,0,6.9,0,6.9,0s1.6,0,1.6-2.2C49.3,52.3,49.3,25.9,49.3,25.9z"/>
	<path class="st3" d="M55.2,20.1v35.1c0,0-0.2,1.6,2.9,1.6c3.1,0,7,0,7,0s1-0.2,1.1-2.1c0.1-1.9,0-38.7,0-38.7s-0.7-2.7-3.1-1.6
		c-2.4,1.2-7.4,4.2-7.4,4.2L55.2,20.1z"/>
</g>
</svg>
