<?xml version="1.0" encoding="utf-8"?>
<!-- Generator: Adobe Illustrator 14.0.0, SVG Export Plug-In . SVG Version: 6.00 Build 43363)  -->
<!DOCTYPE svg PUBLIC "-//W3C//DTD SVG 1.1//EN" "http://www.w3.org/Graphics/SVG/1.1/DTD/svg11.dtd">
<svg version="1.1" id="Capa_1" xmlns="http://www.w3.org/2000/svg" xmlns:xlink="http://www.w3.org/1999/xlink" x="0px" y="0px"
	 width="70.87px" height="70.87px" viewBox="0 0 70.87 70.87" enable-background="new 0 0 70.87 70.87" xml:space="preserve">
<g>
	<g>
		<path fill="#F29400" d="M69.007,24.919c0,7.473-6.059,13.531-13.528,13.531c-7.476,0-13.535-6.058-13.535-13.531
			c0-7.474,6.06-13.531,13.535-13.531C62.948,11.388,69.007,17.446,69.007,24.919"/>
		<path fill="#F8B334" d="M65.744,25.752c0,6.218-5.041,11.261-11.262,11.261c-6.216,0-11.258-5.043-11.258-11.261
			s5.042-11.26,11.258-11.26C60.703,14.493,65.744,19.534,65.744,25.752"/>
		<path fill="#FCEA0D" d="M63.413,26.722c0,4.997-4.051,9.046-9.049,9.046c-4.996,0-9.05-4.049-9.05-9.046
			c0-4.998,4.054-9.047,9.05-9.047C59.362,17.675,63.413,21.724,63.413,26.722"/>
	</g>
	<path fill="#00632E" d="M0.667,61.582c0,0,15.271-35.13,21.382-25.813c6.108,9.318,15.273,25.813,15.273,25.813H0.667z"/>
	<path fill="#41A62A" d="M55.477,61.582c0,0-11.354-25.96-18.154-18.94c-6.8,7.022-18.328,18.94-18.328,18.94H55.477z"/>
</g>
</svg>
