<?xml version="1.0" encoding="utf-8"?>
<!-- Generator: Adobe Illustrator 14.0.0, SVG Export Plug-In . SVG Version: 6.00 Build 43363)  -->
<!DOCTYPE svg PUBLIC "-//W3C//DTD SVG 1.1//EN" "http://www.w3.org/Graphics/SVG/1.1/DTD/svg11.dtd">
<svg version="1.1" id="Capa_1" xmlns="http://www.w3.org/2000/svg" xmlns:xlink="http://www.w3.org/1999/xlink" x="0px" y="0px"
	 width="1000.63px" height="276.66px" viewBox="0 0 1000.63 276.66" enable-background="new 0 0 1000.63 276.66"
	 xml:space="preserve">
<rect x="0.045" y="1.127" fill="#A2D7DA" width="1000.504" height="275.495"/>
<g>
	<path fill="#F29400" d="M939.77,75.512c0,28.917-23.242,52.355-51.893,52.355c-28.668,0-51.91-23.438-51.91-52.355
		c0-28.917,23.242-52.356,51.91-52.356C916.527,23.156,939.77,46.595,939.77,75.512"/>
	<path fill="#F8B334" d="M927.256,78.737c0,24.062-19.336,43.573-43.193,43.573c-23.844,0-43.18-19.512-43.18-43.573
		c0-24.061,19.336-43.566,43.18-43.566C907.92,35.171,927.256,54.677,927.256,78.737"/>
	<path fill="#FCEA0D" d="M918.313,82.49c0,19.335-15.533,35.006-34.703,35.006c-19.168,0-34.709-15.671-34.709-35.006
		c0-19.338,15.541-35.006,34.709-35.006C902.779,47.483,918.313,63.151,918.313,82.49"/>
</g>
<path fill="#5F4C3F" d="M671.975,186.73c0,0,179.906-20.438,248.959,2.987c69.055,23.426,79.494,24.099,79.494,24.099l0.084,64.467
	l-344.684-5.872L671.975,186.73z"/>
<path fill="#CBBB9D" d="M0.045,59.638c0,0,47.422,18.323,90.972,18.316c43.551-0.007,183.125,0.087,286.042,31.16
	c102.921,31.072,299.672,105.798,314.616,123.467s65.229,45.702,65.229,45.702H0.045V59.638z"/>
<path fill="#97BF0D" d="M980.662,232.754c0,0-6.434-1.361-4.477-2.723c1.959-1.36,4.199-3.899,3.641-4.715
	c-0.561-0.817-2.662-2.462-0.561-2.864c2.098-0.4,3.496-1.852,2.934-2.667c-0.557-0.818-1.43-1.543,0.125-2.813
	c1.555-1.27,4.49-2.267,3.652-3.173c-0.838-0.907-1.242-1.814,0.15-2.811c1.391-0.999,1.527-3.629,2.227-2.178
	c0.701,1.45,0.701,3.627,2.238,4.533c1.537,0.907-0.543,1.486,0,2.449c0.543,0.965,3.561,2.929,1.154,4.774
	c-2.412,1.848-1.713,5.913-0.035,6.602c1.678,0.687,3.447,2.229,0.955,3.044c-2.492,0.817-1.793,1.997-0.955,2.541
	c0.842,0.543-1.262,1.27-3.916,1.54C985.139,234.567,980.662,232.754,980.662,232.754z"/>
<path fill="#00632E" d="M648.23,192.669c0,0,5.531,1.951,10.797,1.426c5.268-0.527,7.057-3.053,5.918-4.631
	c-1.135-1.578-7.068-2.422-3.857-3.053c3.207-0.632,3.857-0.631,2.074-2.631c-1.787-2.001-3.184-2.251-1.582-2.947
	c1.605-0.697-1.178-1.711-1.504-2.698c-0.324-0.986-3.893-2.418-2.434-3.966c1.459-1.547-1.947-2.599-0.891-4.178
	c1.053-1.577,0-4.314,0-4.314s-2.049,7.748-4.971,7.642c-2.92-0.104-1.77,0.778-0.631,2.146c1.137,1.368,2.436,2.71,0,2.67
	c-2.432-0.039-5.518,1.646-3.734,2.382c1.785,0.737,5.844,3.58,2.76,3.158c-3.082-0.422-4.309,2.315-3.291,2.84
	c1.02,0.527,3.617,1.579,1.18,1.896c-2.432,0.316-7.465,1.896-4.703,2.948C646.115,192.41,648.23,192.669,648.23,192.669z"/>
<path fill="#008A2E" d="M877.84,180.295c0,0,9.783,1.521,11.738,0c1.959-1.523-6.652-4.836-4.303-4.322
	c2.348,0.514,1.955,3.561,6.262,2.799c4.305-0.762-5.479-1.775-3.523-5.583c1.955-3.806,2.605,1.777,4.629,0
	c2.025-1.776-6.193-4.06-4.629-6.09s5.205,2.03,4.951,0s-8.986-1.523-7.557-6.598c1.432-5.076-4.047-7.106-5.219-2.284
	c-1.174,4.822,0.779,7.613-2.35,7.105c-3.131-0.509-5.479,3.518-1.566,2.901c3.916-0.618,7.436,2.174,3.521,2.174
	c-3.91,0-7.23,0-5.568,1.522c1.658,1.522,4.006,5.569,0.873,4.053c-3.131-1.515-7.436,0.514-4.305,2.037
	S877.84,180.295,877.84,180.295z"/>
<path fill="#0C4223" d="M849.635,179.197c0,0,5.82,2.054,11.359,1.501c5.539-0.555,7.42-3.211,6.225-4.871
	c-1.195-1.659-7.436-2.545-4.059-3.209c3.373-0.665,4.059-0.665,2.178-2.767c-1.877-2.104-3.342-2.368-1.66-3.1
	c1.689-0.734-1.24-1.801-1.58-2.837c-0.344-1.037-4.096-2.544-2.563-4.171c1.541-1.627-2.045-2.734-0.936-4.395
	c1.107-1.661,0-4.538,0-4.538s-2.154,8.15-5.227,8.039c-3.072-0.11-1.861,0.815-0.666,2.256c1.197,1.438,2.563,2.85,0,2.809
	c-2.561-0.041-5.803,1.729-3.926,2.505c1.879,0.774,6.146,3.762,2.902,3.319c-3.24-0.442-4.531,2.435-3.459,2.99
	c1.068,0.553,3.801,1.66,1.242,1.992c-2.563,0.331-7.855,1.991-4.953,3.099C847.416,178.927,849.635,179.197,849.635,179.197z"/>
<path fill="#008A2E" d="M857.338,184.789c0,0,9.783,1.522,11.738,0c1.957-1.523-6.648-4.837-4.305-4.321
	c2.35,0.515,1.957,3.56,6.262,2.798c4.305-0.761-5.477-1.776-3.521-5.583c1.959-3.805,2.604,1.777,4.627,0
	c2.025-1.775-6.191-4.061-4.627-6.09c1.564-2.03,5.207,2.029,4.949,0c-0.254-2.03-8.986-1.523-7.557-6.598
	c1.436-5.075-4.045-7.105-5.217-2.284c-1.176,4.821,0.779,7.613-2.35,7.105c-3.131-0.508-5.48,3.521-1.564,2.901
	c3.914-0.618,7.434,2.173,3.521,2.173c-3.914,0-7.232,0-5.572,1.523c1.658,1.523,4.006,5.569,0.875,4.054
	c-3.133-1.517-7.436,0.515-4.305,2.037S857.338,184.789,857.338,184.789z"/>
<path fill="#97BF0D" d="M871.039,192.564c0,0-6.438-1.36-4.477-2.72c1.955-1.361,4.193-3.9,3.635-4.718
	c-0.563-0.814-2.658-2.461-0.563-2.862c2.1-0.401,3.5-1.854,2.941-2.669c-0.561-0.816-1.432-1.542,0.119-2.813
	c1.557-1.27,4.496-2.266,3.656-3.173c-0.838-0.908-1.24-1.813,0.15-2.812c1.387-0.999,1.527-3.629,2.227-2.178
	c0.703,1.452,0.703,3.628,2.238,4.535c1.537,0.906-0.547,1.487,0,2.449c0.545,0.963,3.561,2.929,1.152,4.775
	c-2.412,1.844-1.711,5.91-0.033,6.6c1.68,0.687,3.449,2.229,0.953,3.046c-2.49,0.815-1.795,1.994-0.953,2.538
	c0.84,0.545-1.258,1.27-3.916,1.542C875.514,194.379,871.039,192.564,871.039,192.564z"/>
<path fill="#41A62A" d="M928.561,196.969c0,0,5.822,2.053,11.361,1.497c5.541-0.552,7.418-3.209,6.221-4.869
	c-1.195-1.661-7.434-2.545-4.059-3.21c3.379-0.664,4.059-0.664,2.184-2.768c-1.877-2.102-3.348-2.365-1.658-3.1
	c1.682-0.732-1.242-1.798-1.586-2.836c-0.342-1.036-4.094-2.543-2.559-4.169c1.535-1.628-2.047-2.733-0.939-4.395s0-4.537,0-4.537
	s-2.15,8.147-5.225,8.035c-3.07-0.109-1.861,0.818-0.664,2.257c1.193,1.44,2.561,2.851,0,2.809c-2.563-0.04-5.805,1.729-3.928,2.506
	c1.877,0.774,6.145,3.763,2.904,3.32c-3.244-0.443-4.535,2.435-3.463,2.988s3.803,1.66,1.242,1.992
	c-2.561,0.333-7.854,1.994-4.949,3.099C926.346,196.696,928.561,196.969,928.561,196.969z"/>
<path fill="#97BF0D" d="M967.146,202.828c0,0-6.434-1.36-4.477-2.722c1.957-1.359,4.195-3.899,3.637-4.715
	c-0.561-0.817-2.658-2.463-0.561-2.864c2.1-0.399,3.496-1.852,2.938-2.667c-0.559-0.817-1.434-1.543,0.125-2.813
	c1.551-1.271,4.49-2.268,3.65-3.174c-0.84-0.907-1.242-1.813,0.148-2.811c1.393-0.999,1.529-3.63,2.229-2.178
	c0.699,1.45,0.699,3.627,2.238,4.535c1.541,0.905-0.545,1.484,0,2.447c0.545,0.964,3.563,2.929,1.152,4.774
	c-2.412,1.848-1.711,5.913-0.033,6.602c1.678,0.687,3.449,2.229,0.957,3.044c-2.494,0.817-1.795,1.996-0.957,2.54
	c0.84,0.543-1.258,1.27-3.916,1.541C971.619,204.642,967.146,202.828,967.146,202.828z"/>
<path fill="#008A2E" d="M974.146,211.401c0,0,6.264,2.21,12.229,1.615c5.963-0.596,7.984-3.455,6.699-5.243
	c-1.287-1.789-8.004-2.741-4.373-3.458c3.637-0.715,4.373-0.714,2.35-2.979c-2.02-2.265-3.602-2.546-1.787-3.336
	c1.818-0.789-1.336-1.937-1.701-3.054c-0.369-1.118-4.416-2.74-2.76-4.489c1.654-1.753-2.201-2.944-1.01-4.732
	c1.195-1.787,0-4.886,0-4.886s-2.318,8.774-5.625,8.653c-3.307-0.117-2.002,0.88-0.715,2.429c1.285,1.55,2.754,3.07,0,3.025
	c-2.758-0.045-6.248,1.861-4.229,2.696c2.021,0.834,6.617,4.052,3.125,3.575s-4.881,2.622-3.729,3.218
	c1.154,0.596,4.094,1.787,1.34,2.144c-2.756,0.358-8.455,2.147-5.33,3.338C971.756,211.11,974.146,211.401,974.146,211.401z"/>
<path fill="#0C4223" d="M946.65,199.82c0,0,5.822,2.053,11.357,1.497c5.543-0.551,7.418-3.208,6.227-4.868
	c-1.197-1.661-7.436-2.546-4.063-3.211c3.379-0.664,4.063-0.664,2.184-2.767s-3.348-2.366-1.658-3.1
	c1.682-0.733-1.242-1.798-1.586-2.836c-0.342-1.037-4.096-2.543-2.559-4.171c1.535-1.626-2.049-2.733-0.939-4.394
	c1.107-1.661,0-4.537,0-4.537s-2.15,8.147-5.223,8.036c-3.074-0.111-1.863,0.818-0.668,2.256c1.197,1.44,2.563,2.852,0,2.81
	c-2.561-0.041-5.801,1.729-3.926,2.504c1.877,0.776,6.146,3.764,2.9,3.321c-3.242-0.443-4.529,2.435-3.459,2.989
	c1.07,0.553,3.803,1.659,1.242,1.991c-2.559,0.333-7.852,1.993-4.949,3.099C944.43,199.548,946.65,199.82,946.65,199.82z"/>
<path fill="#00632E" d="M914.682,199.161c0,0,5.533,1.951,10.803,1.427c5.266-0.527,7.051-3.054,5.916-4.631
	c-1.139-1.579-7.07-2.422-3.861-3.052c3.211-0.633,3.861-0.632,2.076-2.632c-1.789-2.001-3.186-2.251-1.58-2.948
	c1.602-0.696-1.18-1.71-1.504-2.696c-0.328-0.986-3.896-2.418-2.436-3.967c1.463-1.544-1.947-2.6-0.891-4.179
	c1.053-1.577,0-4.313,0-4.313s-2.049,7.747-4.969,7.644c-2.922-0.104-1.77,0.775-0.631,2.146c1.133,1.366,2.432,2.709,0,2.669
	c-2.436-0.04-5.52,1.645-3.732,2.38c1.785,0.739,5.842,3.581,2.756,3.159c-3.082-0.422-4.307,2.315-3.289,2.842
	c1.018,0.525,3.615,1.579,1.18,1.895c-2.434,0.315-7.465,1.895-4.705,2.946C912.572,198.903,914.682,199.161,914.682,199.161z"/>
<path fill="#008A2E" d="M951.721,212.927c0,0,9.781,1.522,11.736,0c1.959-1.523-6.65-4.836-4.301-4.322
	c2.346,0.516,1.957,3.561,6.26,2.799c4.305-0.762-5.479-1.775-3.521-5.582c1.955-3.807,2.602,1.777,4.625,0
	c2.027-1.777-6.193-4.061-4.625-6.091c1.563-2.03,5.205,2.03,4.949,0c-0.254-2.03-8.988-1.522-7.557-6.598s-4.045-7.105-5.221-2.284
	c-1.174,4.822,0.785,7.613-2.346,7.106c-3.131-0.509-5.479,3.519-1.566,2.901c3.912-0.618,7.436,2.173,3.521,2.173
	c-3.912,0-7.23,0-5.57,1.522c1.658,1.523,4.004,5.569,0.875,4.053c-3.131-1.516-7.436,0.516-4.307,2.037
	C947.805,212.165,951.721,212.927,951.721,212.927z"/>
<path fill="#0C4223" d="M962.654,218.093c0,0,5.822,2.055,11.359,1.499c5.541-0.553,7.42-3.209,6.225-4.868
	c-1.195-1.661-7.434-2.547-4.059-3.21c3.375-0.665,4.059-0.665,2.182-2.769c-1.879-2.103-3.348-2.365-1.66-3.099
	c1.686-0.734-1.24-1.8-1.584-2.836c-0.342-1.038-4.096-2.545-2.563-4.171c1.537-1.628-2.045-2.734-0.936-4.396
	c1.107-1.658,0-4.537,0-4.537s-2.15,8.148-5.223,8.039c-3.072-0.112-1.865,0.815-0.668,2.256c1.197,1.438,2.561,2.849,0,2.809
	c-2.561-0.042-5.801,1.729-3.926,2.504c1.879,0.775,6.145,3.763,2.902,3.32c-3.244-0.442-4.531,2.435-3.461,2.989
	c1.072,0.553,3.805,1.66,1.242,1.992c-2.559,0.331-7.852,1.992-4.951,3.1C960.438,217.822,962.654,218.093,962.654,218.093z"/>
<path fill="#0C4223" d="M923.514,211.831c0,0,5.822,2.054,11.359,1.499c5.539-0.555,7.418-3.211,6.225-4.87
	c-1.193-1.66-7.438-2.545-4.061-3.209c3.375-0.666,4.061-0.666,2.182-2.769c-1.877-2.103-3.346-2.366-1.66-3.099
	c1.686-0.733-1.24-1.799-1.582-2.838c-0.344-1.036-4.096-2.543-2.563-4.17c1.539-1.627-2.045-2.733-0.936-4.394
	c1.105-1.66,0-4.539,0-4.539s-2.154,8.15-5.225,8.039c-3.072-0.11-1.863,0.816-0.668,2.257c1.195,1.438,2.563,2.849,0,2.807
	c-2.559-0.04-5.803,1.731-3.926,2.506c1.877,0.775,6.146,3.763,2.9,3.321c-3.24-0.444-4.527,2.433-3.459,2.987
	c1.072,0.555,3.803,1.661,1.244,1.992c-2.563,0.333-7.855,1.993-4.953,3.1C921.297,211.56,923.514,211.831,923.514,211.831z"/>
<path fill="#41A62A" d="M841.334,179.92c0,0,5.82,2.054,11.357,1.5c5.541-0.555,7.42-3.211,6.225-4.871
	c-1.195-1.661-7.434-2.545-4.061-3.21c3.377-0.663,4.061-0.663,2.182-2.768c-1.877-2.102-3.346-2.365-1.658-3.098
	c1.684-0.733-1.24-1.8-1.584-2.838c-0.342-1.037-4.096-2.543-2.561-4.169c1.537-1.628-2.047-2.734-0.938-4.395
	c1.107-1.661,0-4.538,0-4.538s-2.152,8.148-5.223,8.037c-3.074-0.11-1.863,0.817-0.668,2.257s2.561,2.85,0,2.808
	c-2.563-0.041-5.801,1.731-3.926,2.506c1.877,0.774,6.145,3.763,2.9,3.32c-3.242-0.442-4.529,2.435-3.459,2.987
	c1.068,0.555,3.803,1.661,1.242,1.994c-2.559,0.332-7.852,1.992-4.949,3.098C839.113,179.648,841.334,179.92,841.334,179.92z"/>
<path fill="#00632E" d="M903.883,195.395c0,0,9.783,1.522,11.74,0c1.953-1.523-6.654-4.837-4.307-4.322
	c2.35,0.517,1.957,3.561,6.26,2.799c4.307-0.762-5.477-1.776-3.521-5.583c1.959-3.806,2.605,1.777,4.629,0
	c2.023-1.776-6.191-4.06-4.629-6.09c1.568-2.03,5.209,2.03,4.953,0s-8.988-1.523-7.559-6.598c1.434-5.075-4.045-7.105-5.219-2.284
	s0.783,7.613-2.348,7.105c-3.133-0.507-5.479,3.52-1.566,2.901c3.914-0.617,7.434,2.173,3.523,2.173c-3.916,0-7.23,0-5.572,1.523
	c1.656,1.522,4.006,5.569,0.877,4.053c-3.133-1.514-7.436,0.517-4.305,2.037C899.971,194.633,903.883,195.395,903.883,195.395z"/>
<path fill="#00632E" d="M964.49,222.973c0,0,9.785,1.523,11.742,0c1.955-1.523-6.652-4.836-4.307-4.319
	c2.35,0.514,1.957,3.558,6.262,2.796c4.305-0.761-5.48-1.775-3.523-5.583c1.959-3.805,2.602,1.777,4.629,0
	c2.023-1.774-6.191-4.06-4.629-6.09c1.568-2.029,5.207,2.03,4.951,0c-0.254-2.029-8.988-1.521-7.557-6.597
	c1.432-5.076-4.047-7.105-5.219-2.284c-1.176,4.82,0.783,7.613-2.35,7.105c-3.129-0.507-5.479,3.52-1.566,2.901
	c3.916-0.617,7.436,2.174,3.525,2.174c-3.914,0-7.234,0-5.576,1.522c1.662,1.521,4.008,5.568,0.877,4.055
	c-3.129-1.517-7.434,0.514-4.303,2.035C960.576,222.211,964.49,222.973,964.49,222.973z"/>
<path fill="#97BF0D" d="M638.359,194.019c0,0-6.436-1.36-4.477-2.72c1.961-1.36,4.197-3.9,3.635-4.718
	c-0.559-0.814-2.656-2.462-0.559-2.862s3.498-1.854,2.936-2.669c-0.557-0.816-1.43-1.543,0.127-2.813
	c1.553-1.269,4.49-2.266,3.652-3.173c-0.842-0.908-1.244-1.813,0.146-2.812c1.391-0.999,1.533-3.628,2.23-2.176
	c0.699,1.451,0.699,3.626,2.238,4.533s-0.547,1.486,0,2.449c0.545,0.963,3.563,2.929,1.15,4.775c-2.408,1.845-1.711,5.911-0.033,6.6
	c1.678,0.686,3.449,2.229,0.957,3.045c-2.496,0.816-1.797,1.995-0.957,2.539c0.84,0.545-1.258,1.271-3.916,1.542
	C642.832,195.834,638.359,194.019,638.359,194.019z"/>
<path fill="#00632E" d="M879.916,185.78c0,0-6.432-1.359-4.477-2.722c1.961-1.359,4.197-3.897,3.637-4.715
	c-0.559-0.815-2.656-2.462-0.559-2.863s3.494-1.853,2.936-2.668c-0.557-0.816-1.432-1.543,0.125-2.813
	c1.555-1.27,4.492-2.266,3.652-3.174c-0.84-0.907-1.24-1.813,0.148-2.812c1.391-0.999,1.529-3.629,2.23-2.178
	c0.697,1.451,0.697,3.628,2.234,4.536c1.541,0.905-0.545,1.483,0,2.447c0.547,0.965,3.564,2.931,1.152,4.773
	c-2.41,1.848-1.713,5.913-0.031,6.603c1.678,0.687,3.447,2.229,0.955,3.045c-2.494,0.816-1.795,1.995-0.955,2.539
	c0.84,0.545-1.26,1.27-3.918,1.542C884.391,187.596,879.916,185.78,879.916,185.78z"/>
<path fill="#0C4223" d="M811.25,177.47c0,0,3.424,1.207,6.682,0.882c3.258-0.324,4.361-1.887,3.658-2.864
	c-0.705-0.976-4.373-1.497-2.385-1.887c1.984-0.392,2.385-0.392,1.281-1.627c-1.104-1.237-1.969-1.391-0.975-1.822
	c0.988-0.431-0.732-1.058-0.932-1.669c-0.201-0.609-2.41-1.495-1.506-2.452c0.902-0.956-1.205-1.608-0.555-2.585
	c0.656-0.977,0-2.667,0-2.667s-1.264,4.791-3.07,4.727c-1.807-0.065-1.094,0.479-0.393,1.327c0.703,0.846,1.506,1.676,0,1.65
	c-1.504-0.024-3.41,1.017-2.307,1.474c1.104,0.455,3.609,2.213,1.703,1.953c-1.902-0.263-2.662,1.432-2.033,1.757
	c0.631,0.324,2.236,0.978,0.73,1.172s-4.619,1.172-2.912,1.822C809.947,177.311,811.25,177.47,811.25,177.47z"/>
<path fill="#008A2E" d="M931.215,217.42c0,0,9.783,1.523,11.74,0c1.959-1.521-6.65-4.835-4.303-4.32
	c2.346,0.515,1.957,3.559,6.262,2.799c4.303-0.762-5.479-1.777-3.523-5.583c1.957-3.807,2.604,1.775,4.627,0
	c2.025-1.776-6.193-4.062-4.627-6.091c1.564-2.03,5.207,2.029,4.951,0c-0.256-2.03-8.988-1.521-7.557-6.598
	c1.432-5.075-4.047-7.105-5.221-2.284s0.781,7.613-2.35,7.106c-3.129-0.508-5.479,3.519-1.563,2.9
	c3.912-0.616,7.434,2.175,3.521,2.175c-3.914,0-7.232,0-5.57,1.521c1.656,1.523,4.004,5.569,0.871,4.054
	c-3.131-1.515-7.436,0.515-4.305,2.037C927.301,216.658,931.215,217.42,931.215,217.42z"/>
<path fill="#008A2E" d="M886.918,194.355c0,0,6.262,2.209,12.227,1.613c5.967-0.597,7.986-3.455,6.701-5.243
	c-1.287-1.787-8.006-2.741-4.369-3.458c3.635-0.714,4.369-0.714,2.346-2.979c-2.02-2.263-3.604-2.546-1.787-3.337
	c1.816-0.788-1.336-1.937-1.703-3.053c-0.365-1.117-4.414-2.738-2.76-4.49c1.656-1.752-2.199-2.943-1.008-4.731
	c1.195-1.787,0-4.886,0-4.886s-2.314,8.774-5.625,8.655c-3.307-0.12-2.004,0.88-0.717,2.428c1.287,1.549,2.758,3.069,0,3.024
	c-2.754-0.045-6.248,1.861-4.227,2.695c2.021,0.835,6.617,4.054,3.123,3.575c-3.492-0.476-4.877,2.624-3.725,3.219
	c1.152,0.596,4.092,1.787,1.336,2.146c-2.756,0.356-8.453,2.146-5.328,3.336C884.525,194.062,886.918,194.355,886.918,194.355z"/>
<path fill="#0C4223" d="M859.422,182.772c0,0,5.82,2.053,11.357,1.499c5.541-0.554,7.422-3.21,6.225-4.87
	c-1.195-1.661-7.436-2.546-4.059-3.211c3.375-0.663,4.059-0.663,2.18-2.767c-1.877-2.103-3.346-2.366-1.658-3.098
	c1.686-0.734-1.242-1.801-1.586-2.839c-0.34-1.036-4.096-2.542-2.559-4.169s-2.049-2.734-0.936-4.395c1.105-1.661,0-4.538,0-4.538
	s-2.154,8.148-5.227,8.037s-1.859,0.817-0.668,2.256c1.197,1.44,2.563,2.851,0,2.809c-2.561-0.04-5.801,1.731-3.924,2.506
	c1.879,0.775,6.145,3.763,2.902,3.32c-3.244-0.442-4.531,2.435-3.463,2.988c1.074,0.554,3.805,1.66,1.242,1.992
	c-2.559,0.333-7.852,1.994-4.949,3.099C857.201,182.501,859.422,182.772,859.422,182.772z"/>
<path fill="#00632E" d="M827.453,182.113c0,0,5.533,1.953,10.801,1.427c5.268-0.527,7.053-3.054,5.914-4.631
	c-1.135-1.579-7.066-2.423-3.855-3.052c3.209-0.633,3.855-0.631,2.072-2.633c-1.785-2-3.182-2.248-1.58-2.946
	c1.604-0.697-1.178-1.71-1.504-2.696c-0.324-0.986-3.895-2.419-2.434-3.966c1.463-1.547-1.945-2.602-0.893-4.181
	c1.055-1.577,0-4.313,0-4.313s-2.043,7.749-4.967,7.644c-2.922-0.105-1.771,0.775-0.633,2.146c1.137,1.367,2.436,2.709,0,2.671
	c-2.434-0.042-5.518,1.644-3.734,2.379c1.785,0.738,5.842,3.58,2.76,3.159c-3.082-0.42-4.311,2.315-3.289,2.842
	c1.018,0.524,3.613,1.579,1.18,1.896c-2.436,0.314-7.467,1.894-4.707,2.946C825.342,181.854,827.453,182.113,827.453,182.113z"/>
<path fill="#97BF0D" d="M852.16,188.161c0,0-6.432-1.359-4.477-2.721c1.959-1.36,4.197-3.899,3.639-4.717
	c-0.561-0.815-2.658-2.46-0.561-2.862c2.098-0.401,3.494-1.852,2.936-2.668c-0.559-0.817-1.432-1.542,0.123-2.813
	c1.555-1.27,4.494-2.269,3.654-3.175c-0.838-0.907-1.244-1.813,0.148-2.811c1.391-0.998,1.529-3.628,2.227-2.177
	c0.701,1.451,0.701,3.627,2.238,4.534c1.541,0.906-0.543,1.485,0,2.449c0.547,0.964,3.564,2.927,1.154,4.773
	c-2.41,1.848-1.713,5.913-0.035,6.602c1.68,0.687,3.451,2.229,0.957,3.045c-2.494,0.817-1.793,1.996-0.957,2.539
	c0.844,0.546-1.258,1.271-3.916,1.542C856.637,189.975,852.16,188.161,852.16,188.161z"/>
<path fill="#008A2E" d="M864.492,195.879c0,0,9.783,1.521,11.738,0c1.955-1.523-6.652-4.836-4.303-4.322
	c2.348,0.516,1.953,3.561,6.258,2.799s-5.477-1.775-3.521-5.583c1.957-3.806,2.604,1.778,4.627,0c2.025-1.775-6.189-4.06-4.627-6.09
	c1.566-2.03,5.207,2.03,4.951,0c-0.254-2.03-8.986-1.521-7.557-6.597c1.432-5.076-4.047-7.107-5.221-2.284
	c-1.172,4.821,0.783,7.611-2.346,7.104c-3.133-0.506-5.48,3.52-1.566,2.901c3.912-0.616,7.434,2.176,3.521,2.176s-7.23,0-5.57,1.521
	c1.658,1.523,4.004,5.568,0.873,4.053c-3.131-1.515-7.434,0.516-4.305,2.037C860.576,195.117,864.492,195.879,864.492,195.879z"/>
<path fill="#0C4223" d="M875.426,201.046c0,0,5.822,2.053,11.361,1.498c5.539-0.551,7.418-3.208,6.223-4.868
	c-1.195-1.661-7.436-2.546-4.059-3.211c3.375-0.663,4.059-0.663,2.182-2.768c-1.879-2.103-3.35-2.365-1.662-3.1
	c1.688-0.732-1.24-1.797-1.582-2.835c-0.344-1.038-4.098-2.546-2.563-4.172c1.539-1.626-2.045-2.733-0.936-4.393
	c1.109-1.661,0-4.539,0-4.539s-2.152,8.149-5.223,8.039c-3.074-0.112-1.861,0.815-0.666,2.256c1.193,1.438,2.559,2.851,0,2.809
	c-2.563-0.042-5.807,1.729-3.926,2.504c1.877,0.776,6.143,3.762,2.9,3.322c-3.244-0.444-4.531,2.435-3.463,2.987
	c1.072,0.554,3.805,1.66,1.244,1.992c-2.563,0.333-7.854,1.993-4.951,3.099C873.209,200.774,875.426,201.046,875.426,201.046z"/>
<path fill="#97BF0D" d="M907.635,215.212c0,0,9.783,1.522,11.74,0c1.955-1.522-6.654-4.836-4.307-4.321
	c2.35,0.516,1.957,3.561,6.262,2.799s-5.479-1.776-3.521-5.583c1.959-3.806,2.604,1.776,4.627,0
	c2.025-1.776-6.191-4.061-4.627-6.091c1.566-2.03,5.207,2.03,4.949,0c-0.254-2.03-8.986-1.522-7.553-6.598
	c1.43-5.075-4.049-7.105-5.223-2.283s0.783,7.612-2.348,7.105s-5.479,3.52-1.564,2.9c3.912-0.616,7.436,2.174,3.521,2.174
	s-7.23,0-5.572,1.523c1.658,1.522,4.006,5.568,0.875,4.053c-3.129-1.515-7.434,0.516-4.303,2.037
	C903.723,214.451,907.635,215.212,907.635,215.212z"/>
<path fill="#00632E" d="M895.998,208.447c0,0,9.785,1.522,11.74,0s-6.652-4.835-4.305-4.321c2.35,0.516,1.957,3.56,6.26,2.799
	c4.307-0.761-5.477-1.775-3.52-5.584c1.957-3.806,2.602,1.778,4.629,0c2.021-1.774-6.193-4.059-4.629-6.088
	c1.564-2.031,5.207,2.029,4.947,0c-0.252-2.031-8.988-1.523-7.553-6.598c1.432-5.076-4.049-7.107-5.221-2.285
	c-1.174,4.821,0.781,7.613-2.35,7.105c-3.131-0.507-5.479,3.52-1.563,2.902c3.912-0.617,7.434,2.173,3.521,2.173
	c-3.914,0-7.23,0-5.572,1.522c1.658,1.523,4.006,5.569,0.875,4.053c-3.129-1.514-7.434,0.516-4.303,2.038
	C892.086,207.686,895.998,208.447,895.998,208.447z"/>
<path fill="#41A62A" d="M868.977,212.469c0,0,9.783,1.521,11.742,0c1.953-1.523-6.654-4.836-4.307-4.322
	c2.348,0.517,1.957,3.561,6.26,2.799c4.307-0.762-5.477-1.775-3.521-5.583c1.957-3.806,2.602,1.778,4.629,0
	c2.023-1.775-6.191-4.059-4.629-6.09c1.568-2.03,5.205,2.031,4.949,0c-0.252-2.03-8.988-1.522-7.555-6.597
	c1.432-5.076-4.047-7.107-5.219-2.284c-1.174,4.821,0.781,7.612-2.35,7.104s-5.479,3.52-1.564,2.902
	c3.914-0.618,7.434,2.173,3.523,2.173c-3.914,0-7.234,0-5.576,1.522c1.662,1.523,4.008,5.569,0.877,4.053s-7.434,0.517-4.305,2.037
	C865.063,211.707,868.977,212.469,868.977,212.469z"/>
<path fill="#0C4223" d="M836.287,194.782c0,0,5.818,2.055,11.355,1.499c5.543-0.553,7.42-3.209,6.227-4.869
	c-1.195-1.66-7.436-2.546-4.061-3.209c3.377-0.666,4.061-0.666,2.18-2.769c-1.877-2.103-3.346-2.366-1.658-3.099
	c1.684-0.733-1.242-1.799-1.582-2.837c-0.344-1.037-4.098-2.544-2.563-4.169c1.537-1.627-2.047-2.735-0.936-4.395
	c1.105-1.661,0-4.54,0-4.54s-2.154,8.149-5.227,8.039c-3.07-0.11-1.861,0.816-0.666,2.257c1.197,1.44,2.559,2.85,0,2.808
	c-2.559-0.041-5.801,1.729-3.924,2.505c1.879,0.775,6.143,3.763,2.9,3.321c-3.242-0.444-4.533,2.435-3.461,2.987
	c1.072,0.554,3.803,1.661,1.242,1.993c-2.561,0.333-7.854,1.993-4.949,3.099C834.064,194.511,836.287,194.782,836.287,194.782z"/>
<path fill="#0C4223" d="M916.793,226.541c0,0,5.82,2.054,11.359,1.499c5.539-0.554,7.418-3.211,6.221-4.869
	c-1.195-1.66-7.436-2.546-4.059-3.211c3.377-0.664,4.059-0.664,2.184-2.768c-1.879-2.102-3.348-2.365-1.662-3.098
	c1.686-0.734-1.24-1.799-1.584-2.838c-0.338-1.036-4.096-2.543-2.559-4.17s-2.047-2.735-0.939-4.396c1.113-1.658,0-4.537,0-4.537
	s-2.152,8.149-5.223,8.039c-3.074-0.111-1.861,0.815-0.666,2.256c1.193,1.438,2.563,2.85,0,2.808
	c-2.561-0.04-5.805,1.729-3.926,2.505c1.877,0.775,6.143,3.764,2.902,3.321c-3.244-0.443-4.531,2.434-3.461,2.988
	c1.07,0.554,3.801,1.661,1.242,1.992c-2.563,0.332-7.854,1.992-4.949,3.1C914.576,226.27,916.793,226.541,916.793,226.541z"/>
<path fill="#97BF0D" d="M818.002,195.701c0,0,9.783,1.521,11.738,0c1.959-1.523-6.65-4.837-4.303-4.321
	c2.348,0.514,1.957,3.56,6.262,2.798c4.303-0.761-5.48-1.776-3.523-5.584c1.957-3.805,2.602,1.778,4.627,0
	c2.025-1.775-6.193-4.06-4.627-6.089c1.564-2.03,5.205,2.029,4.951,0c-0.254-2.03-8.99-1.522-7.557-6.598
	c1.43-5.076-4.047-7.106-5.223-2.285c-1.174,4.822,0.785,7.614-2.346,7.105c-3.133-0.506-5.479,3.521-1.566,2.902
	c3.912-0.617,7.436,2.175,3.523,2.175c-3.916,0-7.232,0-5.574,1.521c1.658,1.523,4.008,5.57,0.877,4.055
	c-3.129-1.516-7.436,0.514-4.305,2.037C814.088,194.939,818.002,195.701,818.002,195.701z"/>
<path fill="#008A2E" d="M824.34,206.769c0,0,5.82,2.051,11.357,1.498c5.541-0.554,7.418-3.21,6.223-4.871
	c-1.195-1.659-7.434-2.545-4.059-3.209c3.377-0.664,4.059-0.664,2.182-2.767c-1.879-2.104-3.346-2.368-1.66-3.1
	c1.686-0.732-1.24-1.8-1.582-2.837c-0.342-1.036-4.098-2.544-2.561-4.171c1.535-1.626-2.047-2.733-0.938-4.395
	c1.105-1.66,0-4.538,0-4.538s-2.152,8.151-5.225,8.039c-3.07-0.109-1.863,0.816-0.666,2.256c1.195,1.439,2.559,2.85,0,2.809
	c-2.561-0.04-5.803,1.729-3.926,2.506c1.877,0.773,6.145,3.763,2.898,3.318c-3.242-0.442-4.529,2.436-3.457,2.99
	c1.072,0.553,3.799,1.661,1.24,1.992c-2.559,0.332-7.852,1.992-4.951,3.1C822.119,206.497,824.34,206.769,824.34,206.769z"/>
<path fill="#0C4223" d="M853.418,215.234c0,0,5.82,2.053,11.355,1.498c5.541-0.553,7.418-3.209,6.223-4.87
	c-1.193-1.66-7.434-2.545-4.059-3.209c3.377-0.665,4.059-0.665,2.184-2.769c-1.879-2.102-3.348-2.365-1.66-3.1
	c1.684-0.732-1.24-1.797-1.584-2.835c-0.342-1.037-4.096-2.544-2.559-4.17c1.533-1.628-2.049-2.733-0.939-4.395
	c1.107-1.661,0-4.538,0-4.538s-2.152,8.148-5.225,8.037c-3.072-0.11-1.861,0.818-0.666,2.258c1.195,1.438,2.559,2.85,0,2.808
	c-2.561-0.041-5.801,1.729-3.924,2.504c1.875,0.775,6.146,3.764,2.898,3.322c-3.242-0.445-4.529,2.433-3.459,2.987
	c1.07,0.554,3.803,1.66,1.24,1.992c-2.557,0.332-7.85,1.994-4.949,3.099C851.195,214.962,853.418,215.234,853.418,215.234z"/>
<path fill="#41A62A" d="M834.65,222.521c0,0,5.822,2.054,11.361,1.498c5.539-0.552,7.416-3.209,6.221-4.868
	c-1.195-1.661-7.434-2.546-4.059-3.212c3.377-0.663,4.059-0.663,2.182-2.767c-1.877-2.103-3.346-2.365-1.66-3.099
	s-1.242-1.798-1.582-2.837c-0.342-1.036-4.098-2.543-2.561-4.171c1.535-1.625-2.047-2.734-0.939-4.394c1.109-1.66,0-4.539,0-4.539
	s-2.152,8.15-5.223,8.039c-3.076-0.11-1.863,0.816-0.666,2.256c1.195,1.439,2.563,2.852,0,2.809c-2.561-0.04-5.803,1.73-3.926,2.505
	c1.877,0.776,6.145,3.764,2.898,3.321c-3.24-0.444-4.529,2.435-3.457,2.988c1.07,0.554,3.799,1.661,1.242,1.992
	c-2.561,0.332-7.854,1.993-4.953,3.1C832.434,222.249,834.65,222.521,834.65,222.521z"/>
<path fill="#41A62A" d="M445.898,134.113c0,0,8.251,2.909,16.1,2.124c7.852-0.784,10.513-4.55,8.819-6.902
	c-1.694-2.354-10.538-3.607-5.755-4.549c4.787-0.941,5.755-0.941,3.094-3.922c-2.663-2.98-4.744-3.354-2.353-4.392
	c2.388-1.04-1.759-2.55-2.244-4.021c-0.486-1.47-5.806-3.605-3.63-5.911c2.177-2.305-2.899-3.875-1.327-6.227
	c1.567-2.353,0-6.431,0-6.431s-3.051,11.549-7.405,11.392c-4.353-0.158-2.638,1.157-0.944,3.198c1.694,2.039,3.63,4.039,0,3.98
	c-3.628-0.058-8.224,2.451-5.563,3.549c2.66,1.1,8.709,5.334,4.111,4.707c-4.597-0.628-6.423,3.45-4.904,4.235
	c1.52,0.784,5.39,2.354,1.76,2.824c-3.629,0.471-11.129,2.824-7.016,4.392C442.754,133.727,445.898,134.113,445.898,134.113z"/>
<path fill="#97BF0D" d="M500.579,142.418c0,0-9.116-1.928-6.345-3.856c2.778-1.928,5.949-5.526,5.156-6.684
	c-0.793-1.157-3.768-3.489-0.793-4.057c2.973-0.569,4.952-2.626,4.159-3.782c-0.789-1.158-2.025-2.186,0.18-3.986
	c2.199-1.799,6.363-3.212,5.174-4.498c-1.188-1.286-1.76-2.571,0.211-3.984c1.973-1.415,2.17-5.143,3.16-3.085
	c0.99,2.057,0.99,5.141,3.17,6.426c2.182,1.286-0.77,2.105,0,3.471c0.773,1.366,5.049,4.15,1.635,6.766
	c-3.418,2.618-2.428,8.381-0.049,9.355c2.379,0.973,4.887,3.159,1.354,4.316c-3.533,1.158-2.539,2.829-1.354,3.599
	c1.189,0.771-1.781,1.799-5.549,2.185C506.922,144.988,500.579,142.418,500.579,142.418z"/>
<path fill="#0C4223" d="M510.5,154.57c0,0,8.879,3.131,17.332,2.286s11.316-4.896,9.494-7.432
	c-1.824-2.532-11.346-3.883-6.193-4.898c5.152-1.013,6.193-1.012,3.328-4.221c-2.863-3.209-5.107-3.611-2.533-4.729
	s-1.896-2.746-2.416-4.329c-0.518-1.583-6.252-3.882-3.908-6.364c2.346-2.483-3.119-4.171-1.43-6.705c1.693-2.533,0-6.924,0-6.924
	s-3.285,12.435-7.973,12.265c-4.689-0.169-2.838,1.246-1.012,3.442c1.82,2.196,3.904,4.35,0,4.287
	c-3.91-0.063-8.859,2.638-5.994,3.821s9.375,5.743,4.428,5.067s-6.916,3.715-5.281,4.56c1.637,0.846,5.803,2.533,1.895,3.04
	c-3.906,0.507-11.98,3.043-7.553,4.73C507.113,154.154,510.5,154.57,510.5,154.57z"/>
<path fill="#0C4223" d="M538.527,174.845c0,0,8.879,3.132,17.332,2.288c8.453-0.845,11.316-4.898,9.496-7.433
	c-1.822-2.533-11.346-3.885-6.195-4.899c5.152-1.013,6.195-1.011,3.328-4.222c-2.865-3.208-5.105-3.609-2.529-4.728
	c2.572-1.119-1.9-2.745-2.42-4.328c-0.518-1.584-6.252-3.883-3.906-6.364c2.344-2.482-3.119-4.171-1.432-6.706
	c1.695-2.533,0-6.925,0-6.925s-3.283,12.438-7.971,12.267c-4.689-0.169-2.838,1.246-1.014,3.441c1.822,2.196,3.906,4.35,0,4.287
	c-3.91-0.063-8.857,2.638-5.99,3.82c2.863,1.184,9.373,5.744,4.426,5.067c-4.949-0.676-6.916,3.716-5.279,4.561
	c1.633,0.844,5.801,2.533,1.895,3.04c-3.908,0.507-11.982,3.041-7.555,4.73C535.141,174.429,538.527,174.845,538.527,174.845z"/>
<path fill="#0C4223" d="M644.793,203.062c0,0,8.879,3.132,17.328,2.287c8.453-0.846,11.318-4.897,9.5-7.432
	c-1.824-2.532-11.35-3.884-6.197-4.899c5.15-1.013,6.197-1.011,3.326-4.221c-2.863-3.209-5.102-3.611-2.529-4.729
	c2.574-1.118-1.896-2.745-2.418-4.329c-0.52-1.583-6.25-3.88-3.906-6.363c2.342-2.481-3.119-4.171-1.43-6.705
	c1.693-2.533,0-6.925,0-6.925s-3.283,12.436-7.971,12.266c-4.689-0.167-2.84,1.247-1.016,3.443c1.82,2.194,3.904,4.349,0,4.284
	c-3.908-0.063-8.855,2.639-5.992,3.822c2.865,1.183,9.377,5.743,4.428,5.067c-4.947-0.676-6.914,3.716-5.281,4.561
	s5.803,2.532,1.895,3.04c-3.904,0.508-11.98,3.041-7.553,4.729C641.404,202.646,644.793,203.062,644.793,203.062z"/>
<path fill="#008A2E" d="M654.297,207.703c0,0,8.879,3.132,17.33,2.287c8.453-0.845,11.316-4.897,9.498-7.433
	c-1.824-2.532-11.35-3.885-6.197-4.897s6.197-1.012,3.328-4.222c-2.865-3.208-5.104-3.61-2.531-4.729
	c2.574-1.119-1.896-2.746-2.418-4.329c-0.52-1.583-6.25-3.882-3.906-6.364c2.342-2.482-3.119-4.171-1.43-6.704
	c1.691-2.533,0-6.925,0-6.925s-3.283,12.436-7.973,12.265c-4.688-0.169-2.838,1.247-1.014,3.442c1.82,2.196,3.904,4.35,0,4.286
	c-3.908-0.063-8.855,2.639-5.992,3.822c2.865,1.183,9.377,5.742,4.43,5.067c-4.949-0.676-6.916,3.715-5.281,4.56
	c1.633,0.843,5.801,2.533,1.893,3.039c-3.904,0.508-11.98,3.042-7.551,4.731C650.908,207.287,654.297,207.703,654.297,207.703z"/>
<path fill="#0C4223" d="M471.533,138.153c0,0,8.25,2.911,16.1,2.125c7.851-0.783,10.513-4.549,8.818-6.901
	c-1.694-2.354-10.537-3.609-5.753-4.549c4.785-0.941,5.753-0.941,3.093-3.922c-2.663-2.98-4.745-3.353-2.354-4.392
	c2.389-1.039-1.759-2.55-2.243-4.021c-0.484-1.469-5.807-3.604-3.63-5.91c2.18-2.305-2.9-3.874-1.327-6.227
	c1.568-2.354,0-6.432,0-6.432s-3.051,11.55-7.405,11.392c-4.353-0.158-2.639,1.157-0.944,3.198c1.694,2.04,3.63,4.038,0,3.979
	c-3.628-0.057-8.224,2.452-5.563,3.551c2.66,1.098,8.709,5.333,4.112,4.706c-4.598-0.627-6.422,3.451-4.906,4.237
	c1.521,0.783,5.392,2.352,1.761,2.823c-3.627,0.471-11.127,2.823-7.014,4.392C468.387,137.77,471.533,138.153,471.533,138.153z"/>
<path fill="#00632E" d="M426.226,137.222c0,0,7.843,2.766,15.306,2.02c7.466-0.746,9.997-4.326,8.387-6.562
	c-1.609-2.237-10.019-3.432-5.469-4.327c4.548-0.895,5.469-0.894,2.939-3.729c-2.531-2.835-4.512-3.189-2.237-4.176
	c2.272-0.988-1.673-2.423-2.133-3.822c-0.461-1.398-5.521-3.429-3.453-5.622c2.073-2.192-2.755-3.684-1.261-5.921
	c1.492-2.236,0-6.115,0-6.115s-2.902,10.981-7.042,10.833c-4.141-0.149-2.507,1.099-0.897,3.04c1.611,1.939,3.451,3.841,0,3.785
	c-3.449-0.058-7.818,2.33-5.29,3.374c2.53,1.045,8.281,5.072,3.91,4.476c-4.37-0.597-6.105,3.281-4.663,4.026
	c1.443,0.746,5.124,2.238,1.673,2.687c-3.45,0.447-10.58,2.685-6.67,4.176C423.236,136.854,426.226,137.222,426.226,137.222z"/>
<path fill="#008A2E" d="M478.717,156.729c0,0,13.864,2.159,16.638,0c2.772-2.157-9.427-6.853-6.101-6.123
	c3.327,0.729,2.771,5.044,8.873,3.966c6.101-1.078-7.765-2.517-4.992-7.912c2.774-5.395,3.691,2.518,6.56,0
	c2.87-2.518-8.776-5.754-6.56-8.632c2.22-2.876,7.379,2.878,7.019,0c-0.363-2.876-12.739-2.157-10.71-9.351
	c2.028-7.192-5.736-10.069-7.399-3.236c-1.664,6.833,1.109,10.789-3.327,10.07c-4.438-0.719-7.765,4.987-2.219,4.113
	c5.546-0.876,10.537,3.08,4.991,3.08c-5.547,0-10.246,0-7.896,2.158c2.349,2.157,5.677,7.893,1.24,5.744
	c-4.436-2.148-10.537,0.729-6.1,2.888C473.171,155.649,478.717,156.729,478.717,156.729z"/>
<path fill="#0C4223" d="M438.744,155.178c0,0,8.248,2.908,16.096,2.123c7.853-0.783,10.515-4.549,8.823-6.901
	c-1.694-2.354-10.537-3.608-5.753-4.55c4.782-0.94,5.753-0.94,3.091-3.922c-2.663-2.979-4.743-3.354-2.353-4.391
	c2.39-1.04-1.761-2.55-2.242-4.021c-0.485-1.47-5.807-3.604-3.632-5.911c2.18-2.305-2.898-3.875-1.327-6.228
	c1.57-2.353,0-6.432,0-6.432s-3.05,11.55-7.405,11.392c-4.355-0.157-2.638,1.158-0.942,3.198c1.694,2.039,3.628,4.039,0,3.98
	c-3.63-0.058-8.226,2.451-5.563,3.549c2.66,1.098,8.708,5.333,4.11,4.706c-4.596-0.627-6.421,3.452-4.904,4.237
	c1.52,0.783,5.39,2.354,1.761,2.822c-3.629,0.472-11.129,2.825-7.017,4.393C435.599,154.792,438.744,155.178,438.744,155.178z"/>
<path fill="#008A2E" d="M449.658,163.099c0,0,13.866,2.157,16.64,0c2.773-2.158-9.429-6.853-6.101-6.123
	c3.327,0.729,2.773,5.044,8.874,3.965c6.099-1.078-7.765-2.517-4.993-7.912c2.773-5.395,3.688,2.519,6.56,0
	c2.869-2.517-8.776-5.754-6.56-8.631c2.22-2.877,7.379,2.877,7.017,0c-0.359-2.877-12.74-2.158-10.709-9.351
	c2.029-7.193-5.734-10.071-7.397-3.236c-1.665,6.833,1.108,10.789-3.33,10.069c-4.437-0.719-7.763,4.987-2.217,4.112
	c5.547-0.876,10.537,3.081,4.991,3.081s-10.248,0-7.897,2.158c2.352,2.156,5.679,7.891,1.241,5.744
	c-4.437-2.148-10.538,0.729-6.1,2.887C444.112,162.02,449.658,163.099,449.658,163.099z"/>
<path fill="#97BF0D" d="M469.077,174.119c0,0-9.121-1.927-6.344-3.855c2.773-1.928,5.943-5.527,5.152-6.684
	c-0.793-1.157-3.767-3.488-0.793-4.059c2.972-0.568,4.956-2.625,4.163-3.782c-0.791-1.157-2.026-2.185,0.175-3.984
	c2.205-1.801,6.366-3.213,5.178-4.498c-1.189-1.286-1.763-2.571,0.209-3.985c1.969-1.415,2.169-5.141,3.162-3.085
	c0.988,2.058,0.988,5.142,3.17,6.427c2.18,1.285-0.774,2.105,0,3.471c0.772,1.365,5.048,4.15,1.632,6.766
	c-3.416,2.618-2.426,8.38-0.046,9.355c2.377,0.973,4.887,3.159,1.353,4.315c-3.534,1.158-2.544,2.828-1.353,3.599
	c1.188,0.771-1.784,1.801-5.55,2.186C475.418,176.691,469.077,174.119,469.077,174.119z"/>
<path fill="#41A62A" d="M550.604,180.36c0,0,8.248,2.91,16.098,2.124c7.852-0.784,10.514-4.549,8.818-6.902
	c-1.693-2.354-10.535-3.606-5.752-4.549c4.785-0.94,5.752-0.94,3.092-3.922c-2.662-2.98-4.742-3.354-2.354-4.392
	c2.389-1.039-1.758-2.55-2.242-4.021s-5.807-3.604-3.629-5.911c2.178-2.306-2.9-3.875-1.328-6.228c1.568-2.354,0-6.432,0-6.432
	s-3.051,11.55-7.404,11.393s-2.641,1.158-0.945,3.198c1.693,2.039,3.629,4.038,0,3.979c-3.629-0.058-8.225,2.451-5.564,3.549
	c2.66,1.1,8.711,5.334,4.113,4.708c-4.596-0.629-6.422,3.45-4.904,4.234c1.518,0.785,5.389,2.354,1.76,2.824
	s-11.131,2.824-7.016,4.392C547.457,179.976,550.604,180.36,550.604,180.36z"/>
<path fill="#97BF0D" d="M605.283,188.665c0,0-9.117-1.927-6.344-3.855c2.777-1.928,5.949-5.527,5.156-6.684
	c-0.793-1.157-3.768-3.488-0.793-4.059c2.973-0.568,4.953-2.625,4.16-3.781c-0.791-1.157-2.027-2.186,0.176-3.985
	c2.201-1.801,6.365-3.213,5.176-4.498c-1.189-1.286-1.762-2.571,0.211-3.984c1.971-1.415,2.168-5.142,3.158-3.086
	c0.992,2.058,0.992,5.142,3.172,6.427c2.18,1.286-0.771,2.105,0,3.471c0.773,1.366,5.051,4.15,1.633,6.766
	c-3.416,2.618-2.424,8.38-0.047,9.355c2.379,0.973,4.889,3.159,1.354,4.315c-3.533,1.158-2.541,2.829-1.354,3.599
	c1.191,0.771-1.783,1.801-5.551,2.186C611.625,191.237,605.283,188.665,605.283,188.665z"/>
<path fill="#008A2E" d="M615.205,200.818c0,0,8.877,3.131,17.33,2.286c8.455-0.844,11.318-4.896,9.496-7.432
	c-1.824-2.533-11.346-3.885-6.193-4.897c5.152-1.014,6.193-1.013,3.326-4.223c-2.863-3.208-5.105-3.61-2.531-4.728
	c2.574-1.119-1.896-2.746-2.416-4.329s-6.252-3.882-3.91-6.364c2.348-2.482-3.117-4.171-1.43-6.705c1.693-2.532,0-6.925,0-6.925
	s-3.281,12.437-7.971,12.266c-4.688-0.169-2.838,1.245-1.014,3.441c1.822,2.197,3.906,4.35,0,4.287
	c-3.906-0.063-8.855,2.638-5.992,3.82c2.863,1.185,9.377,5.743,4.428,5.068c-4.945-0.676-6.914,3.716-5.281,4.559
	c1.637,0.845,5.803,2.534,1.896,3.041c-3.906,0.508-11.984,3.042-7.555,4.73C611.816,200.402,615.205,200.818,615.205,200.818z"/>
<path fill="#0C4223" d="M576.238,184.402c0,0,8.25,2.909,16.098,2.125c7.852-0.785,10.514-4.55,8.818-6.903
	c-1.693-2.353-10.535-3.608-5.754-4.549c4.787-0.941,5.754-0.941,3.094-3.923c-2.66-2.979-4.742-3.353-2.35-4.391
	c2.385-1.041-1.76-2.551-2.246-4.021c-0.484-1.469-5.807-3.605-3.627-5.91c2.176-2.306-2.902-3.874-1.332-6.227
	c1.57-2.354,0-6.433,0-6.433s-3.049,11.55-7.402,11.392c-4.355-0.156-2.641,1.158-0.945,3.197c1.695,2.04,3.629,4.04,0,3.98
	c-3.627-0.058-8.223,2.452-5.564,3.551c2.662,1.098,8.711,5.332,4.113,4.706c-4.598-0.628-6.422,3.45-4.904,4.236
	c1.518,0.782,5.389,2.353,1.758,2.823c-3.625,0.471-11.125,2.823-7.014,4.392C573.092,184.018,576.238,184.402,576.238,184.402z"/>
<path fill="#00632E" d="M530.932,183.47c0,0,7.842,2.766,15.307,2.02s9.994-4.325,8.387-6.563
	c-1.613-2.237-10.021-3.432-5.471-4.326c4.549-0.895,5.471-0.894,2.939-3.729c-2.531-2.834-4.514-3.188-2.238-4.176
	c2.273-0.987-1.672-2.424-2.133-3.823c-0.461-1.397-5.521-3.428-3.451-5.62s-2.756-3.684-1.264-5.922c1.494-2.236,0-6.115,0-6.115
	s-2.9,10.981-7.041,10.833c-4.139-0.148-2.506,1.1-0.896,3.04c1.611,1.938,3.451,3.841,0,3.784
	c-3.449-0.056-7.818,2.331-5.289,3.375c2.529,1.046,8.279,5.072,3.91,4.476c-4.371-0.597-6.107,3.282-4.662,4.026
	c1.441,0.746,5.123,2.239,1.672,2.687c-3.449,0.446-10.582,2.685-6.672,4.177C527.939,183.103,530.932,183.47,530.932,183.47z"/>
<path fill="#008A2E" d="M571.045,200.43c0,0,13.865,2.158,16.639,0c2.773-2.156-9.428-6.852-6.102-6.123
	c3.328,0.729,2.773,5.044,8.875,3.967c6.1-1.08-7.766-2.519-4.992-7.914c2.773-5.395,3.689,2.519,6.557,0
	c2.871-2.517-8.775-5.754-6.557-8.631s7.379,2.877,7.018,0c-0.363-2.877-12.738-2.157-10.711-9.351s-5.734-10.07-7.4-3.237
	c-1.664,6.834,1.109,10.79-3.326,10.07c-4.436-0.719-7.764,4.987-2.219,4.112s10.539,3.08,4.99,3.08c-5.543,0-10.246,0-7.895,2.159
	c2.352,2.156,5.678,7.892,1.242,5.744c-4.438-2.148-10.539,0.729-6.102,2.887C565.498,199.351,571.045,200.43,571.045,200.43z"/>
<path fill="#0C4223" d="M590.049,210.301c0,0,8.25,2.909,16.098,2.124c7.852-0.784,10.514-4.549,8.82-6.902
	c-1.695-2.353-10.537-3.607-5.754-4.549c4.785-0.942,5.754-0.942,3.094-3.922c-2.662-2.979-4.746-3.354-2.352-4.392
	c2.387-1.041-1.76-2.551-2.246-4.021c-0.484-1.469-5.807-3.604-3.629-5.909c2.178-2.306-2.9-3.875-1.328-6.229
	c1.568-2.353,0-6.432,0-6.432s-3.049,11.549-7.404,11.394c-4.355-0.158-2.639,1.156-0.943,3.195c1.693,2.04,3.627,4.04,0,3.98
	c-3.629-0.057-8.225,2.452-5.564,3.551c2.662,1.098,8.709,5.333,4.111,4.706c-4.598-0.628-6.422,3.449-4.904,4.236
	c1.518,0.783,5.391,2.353,1.76,2.823c-3.627,0.471-11.127,2.823-7.016,4.392C586.904,209.916,590.049,210.301,590.049,210.301z"/>
<path fill="#0C4223" d="M543.447,201.425c0,0,8.25,2.91,16.1,2.124c7.85-0.784,10.512-4.549,8.82-6.901
	c-1.695-2.354-10.537-3.607-5.754-4.55c4.783-0.94,5.754-0.94,3.092-3.922c-2.664-2.98-4.742-3.354-2.354-4.392
	c2.391-1.039-1.758-2.549-2.242-4.021c-0.484-1.471-5.807-3.605-3.629-5.911s-2.9-3.875-1.33-6.228c1.572-2.354,0-6.432,0-6.432
	s-3.051,11.551-7.402,11.393c-4.355-0.157-2.639,1.157-0.945,3.198c1.695,2.039,3.629,4.038,0,3.979
	c-3.629-0.058-8.223,2.451-5.563,3.55s8.709,5.333,4.111,4.706c-4.596-0.628-6.422,3.45-4.902,4.235
	c1.516,0.785,5.387,2.353,1.758,2.824c-3.629,0.471-11.129,2.824-7.016,4.392C540.305,201.04,543.447,201.425,543.447,201.425z"/>
<path fill="#41A62A" d="M426.979,156.2c0,0,8.247,2.909,16.097,2.124c7.851-0.785,10.513-4.55,8.82-6.902
	c-1.692-2.354-10.536-3.607-5.754-4.55c4.784-0.94,5.754-0.94,3.092-3.922c-2.66-2.98-4.741-3.354-2.352-4.392
	c2.389-1.04-1.76-2.55-2.242-4.021c-0.485-1.47-5.808-3.604-3.63-5.91c2.177-2.306-2.9-3.875-1.33-6.229
	c1.571-2.353,0-6.431,0-6.431s-3.051,11.549-7.403,11.391c-4.354-0.156-2.638,1.158-0.944,3.198c1.694,2.041,3.628,4.039,0,3.98
	c-3.628-0.058-8.223,2.451-5.563,3.55c2.66,1.1,8.709,5.334,4.111,4.707c-4.596-0.629-6.421,3.449-4.902,4.235
	c1.518,0.784,5.387,2.354,1.759,2.823c-3.628,0.472-11.129,2.825-7.017,4.392C423.833,155.814,426.979,156.2,426.979,156.2z"/>
<path fill="#00632E" d="M515.625,178.13c0,0,13.863,2.158,16.637,0s-9.428-6.854-6.1-6.125c3.326,0.729,2.773,5.046,8.873,3.967
	c6.102-1.079-7.764-2.519-4.99-7.913c2.771-5.394,3.689,2.519,6.557,0c2.871-2.517-8.775-5.754-6.557-8.631
	c2.217-2.878,7.379,2.877,7.016,0c-0.361-2.878-12.738-2.158-10.711-9.351c2.031-7.192-5.734-10.07-7.396-3.236
	c-1.666,6.833,1.109,10.789-3.328,10.069s-7.766,4.988-2.219,4.111c5.547-0.874,10.537,3.082,4.992,3.082
	c-5.547,0-10.246,0-7.896,2.157c2.35,2.158,5.676,7.894,1.24,5.744c-4.436-2.146-10.537,0.729-6.1,2.888
	C510.078,177.051,515.625,178.13,515.625,178.13z"/>
<path fill="#00632E" d="M610.395,217.216c0,0,13.865,2.157,16.639,0c2.773-2.158-9.428-6.854-6.1-6.125
	c3.326,0.729,2.773,5.046,8.873,3.967s-7.764-2.519-4.992-7.912c2.773-5.396,3.688,2.518,6.559,0
	c2.869-2.518-8.775-5.755-6.559-8.632c2.219-2.878,7.379,2.877,7.016,0c-0.361-2.878-12.74-2.158-10.709-9.351
	c2.029-7.192-5.734-10.07-7.398-3.236c-1.664,6.833,1.109,10.789-3.328,10.069c-4.436-0.72-7.764,4.988-2.217,4.111
	c5.545-0.874,10.535,3.082,4.99,3.082s-10.246,0-7.898,2.157c2.354,2.158,5.682,7.894,1.244,5.744
	c-4.438-2.146-10.537,0.729-6.102,2.888C604.85,216.137,610.395,217.216,610.395,217.216z"/>
<path fill="#97BF0D" d="M411.261,134.809c0,0-9.118-1.927-6.344-3.855c2.775-1.929,5.947-5.527,5.154-6.685
	c-0.793-1.156-3.766-3.488-0.793-4.058c2.972-0.568,4.954-2.625,4.162-3.782c-0.792-1.157-2.027-2.186,0.175-3.985
	c2.203-1.8,6.366-3.214,5.177-4.498c-1.19-1.286-1.762-2.571,0.21-3.985c1.971-1.415,2.169-5.141,3.159-3.084
	c0.992,2.056,0.992,5.14,3.172,6.425c2.181,1.286-0.773,2.106,0,3.472c0.773,1.365,5.05,4.15,1.633,6.766
	c-3.416,2.618-2.425,8.379-0.047,9.355c2.378,0.973,4.888,3.159,1.354,4.316c-3.533,1.157-2.544,2.827-1.354,3.599
	c1.189,0.771-1.783,1.8-5.549,2.185C417.602,137.38,411.261,134.809,411.261,134.809z"/>
<path fill="#00632E" d="M481.659,164.505c0,0-9.119-1.927-6.343-3.856c2.775-1.927,5.946-5.526,5.152-6.684
	c-0.792-1.157-3.766-3.488-0.792-4.058c2.973-0.568,4.955-2.626,4.163-3.781c-0.793-1.158-2.029-2.187,0.174-3.986
	c2.204-1.8,6.367-3.213,5.178-4.498c-1.19-1.286-1.762-2.571,0.209-3.984c1.97-1.414,2.17-5.142,3.16-3.085
	c0.991,2.057,0.991,5.14,3.172,6.426s-0.773,2.105,0,3.472c0.771,1.366,5.049,4.149,1.631,6.765
	c-3.416,2.618-2.423,8.382-0.045,9.355c2.378,0.975,4.887,3.159,1.352,4.316c-3.532,1.157-2.542,2.828-1.352,3.599
	c1.189,0.771-1.785,1.8-5.551,2.186C488,167.075,481.659,164.505,481.659,164.505z"/>
<path fill="#0C4223" d="M402.272,139.927c0,0,4.85,1.711,9.464,1.249c4.618-0.461,6.184-2.674,5.188-4.058
	c-0.997-1.385-6.198-2.121-3.383-2.675c2.813-0.553,3.383-0.553,1.817-2.307c-1.564-1.751-2.789-1.97-1.385-2.582
	c1.406-0.611-1.032-1.499-1.318-2.365c-0.283-0.864-3.413-2.12-2.134-3.476c1.28-1.356-1.705-2.279-0.781-3.662
	c0.924-1.384,0-3.782,0-3.782s-1.795,6.791-4.355,6.699c-2.56-0.092-1.551,0.681-0.555,1.881c0.997,1.199,2.135,2.375,0,2.339
	c-2.132-0.033-4.835,1.441-3.271,2.088c1.565,0.646,5.12,3.135,2.417,2.768c-2.702-0.369-3.775,2.028-2.884,2.49
	c0.894,0.461,3.169,1.384,1.035,1.661c-2.133,0.276-6.544,1.66-4.127,2.582C400.422,139.701,402.272,139.927,402.272,139.927z"/>
<path fill="#41A62A" d="M379.042,123.712c0,0-9.118-1.928-6.344-3.856c2.776-1.928,5.946-5.527,5.154-6.685
	c-0.794-1.155-3.766-3.488-0.794-4.057c2.974-0.569,4.955-2.625,4.163-3.782c-0.792-1.157-2.027-2.186,0.176-3.986
	c2.202-1.798,6.365-3.212,5.176-4.498c-1.188-1.286-1.762-2.57,0.21-3.984c1.971-1.415,2.168-5.142,3.161-3.085
	c0.989,2.057,0.989,5.141,3.172,6.426c2.179,1.286-0.775,2.106,0,3.472c0.771,1.365,5.047,4.149,1.631,6.766
	s-2.425,8.379-0.047,9.355c2.377,0.973,4.888,3.159,1.354,4.315c-3.534,1.157-2.542,2.828-1.354,3.6
	c1.189,0.771-1.783,1.8-5.55,2.184C385.384,126.284,379.042,123.712,379.042,123.712z"/>
<path fill="#41A62A" d="M378.926,127.434c0,0,4.852,1.711,9.468,1.249c4.616-0.461,6.182-2.675,5.187-4.059
	c-0.997-1.384-6.196-2.121-3.385-2.675c2.814-0.553,3.385-0.553,1.818-2.306c-1.563-1.752-2.788-1.971-1.383-2.582
	c1.405-0.611-1.034-1.5-1.319-2.364c-0.285-0.864-3.413-2.12-2.134-3.476c1.28-1.357-1.705-2.278-0.782-3.663
	c0.925-1.384,0-3.782,0-3.782s-1.794,6.791-4.354,6.7c-2.56-0.092-1.551,0.68-0.555,1.88c0.997,1.2,2.135,2.375,0,2.34
	c-2.134-0.034-4.835,1.441-3.271,2.088c1.563,0.646,5.12,3.135,2.417,2.767c-2.702-0.37-3.775,2.028-2.884,2.49
	c0.894,0.461,3.169,1.384,1.035,1.661s-6.544,1.66-4.127,2.582C377.078,127.208,378.926,127.434,378.926,127.434z"/>
<path fill="#008A2E" d="M311.958,94.711c0,0,3.936,1.388,7.683,1.013c3.747-0.374,5.018-2.17,4.21-3.293
	c-0.809-1.124-5.03-1.722-2.745-2.171c2.282-0.449,2.745-0.449,1.475-1.872c-1.27-1.421-2.264-1.6-1.123-2.095
	s-0.84-1.217-1.07-1.919c-0.231-0.7-2.772-1.721-1.732-2.82c1.039-1.1-1.384-1.85-0.634-2.973c0.749-1.122,0-3.069,0-3.069
	s-1.456,5.512-3.534,5.438c-2.078-0.075-1.26,0.551-0.45,1.525c0.809,0.975,1.73,1.929,0,1.899
	c-1.732-0.026-3.925,1.169-2.655,1.695c1.271,0.525,4.155,2.544,1.963,2.246c-2.194-0.301-3.065,1.646-2.341,2.021
	c0.724,0.375,2.571,1.123,0.84,1.349c-1.732,0.225-5.312,1.348-3.349,2.095C310.457,94.528,311.958,94.711,311.958,94.711z"/>
<path fill="#008A2E" d="M554.365,209.347c0,0,13.863,2.157,16.637,0s-9.43-6.853-6.1-6.124c3.326,0.729,2.771,5.046,8.873,3.967
	c6.1-1.08-7.766-2.519-4.992-7.913s3.686,2.518,6.559,0c2.869-2.517-8.775-5.755-6.559-8.631c2.219-2.878,7.379,2.876,7.016,0
	c-0.361-2.878-12.738-2.158-10.709-9.351s-5.734-10.07-7.398-3.237s1.109,10.789-3.326,10.07c-4.439-0.72-7.768,4.987-2.221,4.111
	c5.547-0.874,10.539,3.082,4.992,3.082s-10.248,0-7.898,2.157c2.352,2.158,5.68,7.893,1.24,5.744
	c-4.434-2.146-10.535,0.729-6.098,2.887C548.816,208.269,554.365,209.347,554.365,209.347z"/>
<path fill="#97BF0D" d="M573.781,220.367c0,0-9.121-1.927-6.344-3.855c2.773-1.929,5.945-5.526,5.152-6.685
	c-0.793-1.156-3.766-3.488-0.793-4.058c2.973-0.568,4.957-2.626,4.164-3.781c-0.793-1.158-2.027-2.187,0.174-3.985
	c2.203-1.8,6.367-3.214,5.178-4.498c-1.191-1.285-1.762-2.571,0.209-3.985c1.969-1.414,2.17-5.142,3.16-3.084
	c0.992,2.057,0.992,5.14,3.172,6.426c2.18,1.284-0.775,2.104,0,3.471c0.771,1.365,5.049,4.149,1.631,6.766
	c-3.414,2.617-2.422,8.38-0.045,9.354s4.889,3.16,1.352,4.317c-3.533,1.156-2.543,2.826-1.352,3.598
	c1.188,0.772-1.785,1.8-5.549,2.186C580.121,222.938,573.781,220.367,573.781,220.367z"/>
<path fill="#008A2E" d="M491.579,176.657c0,0,8.879,3.132,17.332,2.287c8.453-0.845,11.318-4.898,9.496-7.432
	c-1.822-2.534-11.346-3.885-6.193-4.898c5.15-1.013,6.193-1.012,3.328-4.222c-2.867-3.208-5.105-3.61-2.533-4.729
	c2.574-1.119-1.895-2.746-2.414-4.329c-0.523-1.583-6.252-3.882-3.908-6.364s-3.121-4.171-1.43-6.705c1.689-2.532,0-6.924,0-6.924
	s-3.283,12.436-7.975,12.266c-4.688-0.17-2.838,1.245-1.014,3.44c1.822,2.196,3.907,4.351,0,4.287
	c-3.907-0.063-8.855,2.639-5.99,3.821c2.863,1.184,9.375,5.744,4.428,5.068c-4.948-0.677-6.916,3.714-5.281,4.56
	c1.634,0.844,5.801,2.533,1.894,3.039c-3.905,0.507-11.979,3.042-7.553,4.731C488.192,176.241,491.579,176.657,491.579,176.657z"/>
<path fill="#0C4223" d="M458.367,155.178c0,0,8.249,2.908,16.099,2.123c7.851-0.783,10.513-4.549,8.818-6.901
	c-1.692-2.354-10.536-3.608-5.754-4.55c4.786-0.94,5.754-0.94,3.095-3.922c-2.663-2.979-4.744-3.354-2.354-4.391
	c2.389-1.04-1.76-2.55-2.243-4.021c-0.487-1.47-5.808-3.605-3.63-5.911c2.177-2.305-2.899-3.875-1.328-6.228
	c1.568-2.353,0-6.432,0-6.432s-3.05,11.55-7.404,11.392c-4.354-0.157-2.638,1.158-0.945,3.198c1.694,2.039,3.629,4.038,0,3.98
	c-3.628-0.058-8.223,2.451-5.563,3.549c2.659,1.098,8.709,5.333,4.112,4.706c-4.598-0.627-6.422,3.452-4.905,4.237
	c1.519,0.783,5.389,2.353,1.76,2.822c-3.627,0.472-11.127,2.824-7.015,4.393C455.22,154.792,458.367,155.178,458.367,155.178z"/>
<path fill="#41A62A" d="M561.969,236.627c0,0-8.193-0.655-5.318-4.347c2.881-3.694,7.529-4.412,4.209-6.136
	c-3.322-1.723-2.574-3.733,1.15-5.168c3.721-1.437-2.479-2.529,0.842-4.64c3.32-2.109,5.98-3.115,2.215-4.981
	c-3.764-1.866-2.879-3.159-0.443-5.026c2.436-1.865,7.307-7.465,7.088-5.024c-0.223,2.44-2.426,4.595,0.006,6.462
	c2.43,1.867-2.689,3.829,3.314,5.168c6.002,1.339,5.432,4.115,2.828,4.427c-2.607,0.313-6.371,2.551-2.387,5.094
	c3.986,2.542,5.443,5.154,2.656,6.131c-2.785,0.979-4.426,5.213-0.883,6.412c3.541,1.198,0.664,3.064-1.773,2.922
	C573.039,237.775,561.969,236.627,561.969,236.627z"/>
<path fill="#41A62A" d="M322.848,139.927c0,0,4.852,1.711,9.467,1.249c4.617-0.461,6.183-2.674,5.187-4.058
	c-0.996-1.385-6.196-2.121-3.382-2.675c2.813-0.553,3.382-0.553,1.817-2.307c-1.565-1.751-2.789-1.97-1.383-2.582
	c1.404-0.611-1.035-1.499-1.319-2.365c-0.285-0.864-3.415-2.12-2.135-3.476c1.28-1.356-1.705-2.279-0.781-3.662
	c0.924-1.384,0-3.782,0-3.782s-1.795,6.791-4.355,6.699c-2.561-0.092-1.551,0.681-0.554,1.881c0.996,1.199,2.133,2.375,0,2.339
	c-2.135-0.033-4.836,1.441-3.271,2.088c1.563,0.646,5.119,3.135,2.418,2.768c-2.703-0.369-3.776,2.028-2.885,2.49
	c0.894,0.461,3.169,1.384,1.035,1.661c-2.133,0.276-6.545,1.66-4.126,2.582C321,139.701,322.848,139.927,322.848,139.927z"/>
<path fill="#0C4223" d="M324.458,167.335c0,0,8.248,2.909,16.098,2.124c7.852-0.784,10.513-4.55,8.819-6.902
	c-1.693-2.354-10.536-3.607-5.752-4.549c4.784-0.94,5.752-0.94,3.092-3.922c-2.662-2.98-4.744-3.354-2.354-4.392
	c2.39-1.039-1.76-2.55-2.243-4.021c-0.484-1.471-5.807-3.605-3.628-5.911c2.176-2.305-2.9-3.875-1.33-6.228
	c1.571-2.353,0-6.432,0-6.432s-3.051,11.55-7.404,11.393c-4.355-0.158-2.639,1.157-0.943,3.198c1.693,2.04,3.629,4.038,0,3.98
	c-3.63-0.059-8.225,2.451-5.563,3.549c2.66,1.099,8.707,5.333,4.112,4.706c-4.597-0.628-6.423,3.451-4.904,4.236
	c1.518,0.784,5.388,2.353,1.759,2.823c-3.628,0.472-11.129,2.824-7.016,4.393S324.458,167.335,324.458,167.335z"/>
<path fill="#00632E" d="M407.306,159.309c0,0,7.843,2.766,15.307,2.02c7.465-0.745,9.995-4.325,8.386-6.562
	c-1.61-2.238-10.019-3.433-5.47-4.327s5.47-0.894,2.938-3.729c-2.53-2.834-4.51-3.189-2.236-4.177
	c2.271-0.988-1.672-2.423-2.133-3.821c-0.461-1.398-5.522-3.429-3.451-5.622c2.071-2.192-2.757-3.684-1.263-5.922
	c1.493-2.236,0-6.114,0-6.114s-2.901,10.981-7.041,10.833s-2.509,1.101-0.896,3.041c1.611,1.938,3.45,3.841,0,3.785
	c-3.449-0.057-7.82,2.329-5.291,3.373c2.531,1.046,8.28,5.072,3.91,4.476c-4.371-0.597-6.107,3.282-4.662,4.026
	c1.441,0.746,5.122,2.239,1.673,2.688c-3.45,0.446-10.582,2.684-6.672,4.176C404.317,158.941,407.306,159.309,407.306,159.309z"/>
<path fill="#97BF0D" d="M442.322,167.88c0,0-9.118-1.929-6.343-3.856c2.774-1.928,5.945-5.527,5.152-6.685
	c-0.792-1.156-3.767-3.488-0.792-4.057c2.972-0.57,4.955-2.626,4.161-3.783c-0.79-1.156-2.027-2.186,0.178-3.985
	c2.202-1.799,6.364-3.213,5.174-4.498c-1.188-1.286-1.76-2.57,0.211-3.984c1.971-1.415,2.169-5.142,3.16-3.085
	c0.991,2.057,0.991,5.141,3.172,6.426c2.18,1.286-0.773,2.106,0,3.472c0.771,1.365,5.048,4.149,1.631,6.767
	c-3.414,2.616-2.425,8.379-0.045,9.354c2.377,0.973,4.887,3.16,1.353,4.314c-3.535,1.158-2.542,2.829-1.353,3.601
	c1.188,0.771-1.785,1.8-5.552,2.184C448.664,170.45,442.322,167.88,442.322,167.88z"/>
<path fill="#97BF0D" d="M388.488,143.261c0,0-9.118-1.927-6.345-3.855c2.776-1.929,5.948-5.527,5.154-6.685
	c-0.793-1.157-3.767-3.488-0.793-4.058c2.973-0.568,4.955-2.625,4.161-3.782c-0.791-1.158-2.027-2.186,0.177-3.985
	c2.203-1.8,6.366-3.214,5.176-4.499c-1.189-1.285-1.761-2.57,0.209-3.984c1.971-1.415,2.17-5.141,3.16-3.084
	c0.993,2.056,0.993,5.141,3.172,6.425c2.18,1.286-0.772,2.106,0,3.472c0.772,1.365,5.049,4.15,1.633,6.766
	c-3.416,2.617-2.425,8.379-0.047,9.355c2.379,0.973,4.889,3.159,1.353,4.316c-3.531,1.157-2.542,2.827-1.353,3.599
	c1.19,0.771-1.783,1.8-5.55,2.186S388.488,143.261,388.488,143.261z"/>
<path fill="#97BF0D" d="M289.152,110.688c0,0-9.119-1.927-6.343-3.856c2.774-1.928,5.946-5.526,5.153-6.684
	c-0.793-1.157-3.767-3.488-0.793-4.058c2.972-0.568,4.954-2.625,4.162-3.782c-0.792-1.158-2.028-2.186,0.175-3.985
	c2.203-1.8,6.365-3.213,5.177-4.498c-1.189-1.286-1.761-2.571,0.209-3.984c1.971-1.415,2.17-5.143,3.161-3.086
	c0.99,2.057,0.99,5.141,3.171,6.425c2.181,1.286-0.773,2.106,0,3.472c0.772,1.366,5.049,4.15,1.634,6.766
	c-3.417,2.617-2.426,8.379-0.048,9.355c2.377,0.973,4.888,3.159,1.353,4.316c-3.533,1.157-2.542,2.827-1.353,3.599
	c1.189,0.771-1.783,1.799-5.55,2.185C295.494,113.259,289.152,110.688,289.152,110.688z"/>
<path fill="#97BF0D" d="M201.678,81.621c0,0-2.879-0.61-2.004-1.219c0.876-0.608,1.879-1.746,1.628-2.112
	c-0.251-0.364-1.189-1.102-0.251-1.282c0.939-0.18,1.566-0.828,1.315-1.194c-0.25-0.365-0.641-0.69,0.056-1.259
	c0.696-0.567,2.011-1.015,1.636-1.421c-0.376-0.406-0.557-0.813,0.065-1.259c0.623-0.446,0.687-1.625,1-0.974
	c0.313,0.649,0.313,1.625,1.002,2.03c0.688,0.406-0.245,0.666,0,1.096c0.243,0.432,1.594,1.312,0.515,2.138
	c-1.08,0.827-0.767,2.647-0.016,2.955c0.752,0.308,1.545,0.999,0.429,1.363c-1.117,0.366-0.804,0.895-0.429,1.138
	c0.376,0.244-0.563,0.569-1.753,0.69C203.682,82.433,201.678,81.621,201.678,81.621z"/>
<path fill="#97BF0D" d="M257.833,87.142c0,0-2.881-0.609-2.005-1.218c0.877-0.61,1.88-1.747,1.628-2.113
	c-0.25-0.364-1.188-1.101-0.25-1.28c0.939-0.18,1.565-0.83,1.315-1.194c-0.25-0.366-0.642-0.691,0.055-1.26
	c0.695-0.568,2.012-1.016,1.636-1.422c-0.376-0.406-0.557-0.812,0.066-1.258c0.622-0.446,0.686-1.625,0.999-0.976
	c0.313,0.649,0.313,1.625,1.002,2.031c0.688,0.406-0.245,0.666,0,1.098c0.243,0.43,1.594,1.31,0.516,2.136
	c-1.08,0.827-0.768,2.647-0.015,2.956c0.752,0.308,1.544,0.998,0.427,1.363c-1.116,0.366-0.804,0.894-0.427,1.137
	c0.375,0.244-0.564,0.568-1.755,0.69C259.835,87.955,257.833,87.142,257.833,87.142z"/>
<path fill="#97BF0D" d="M234.203,83.665c0,0-2.88-0.609-2.003-1.218c0.876-0.609,1.879-1.746,1.628-2.112
	c-0.25-0.366-1.19-1.102-0.25-1.282c0.938-0.181,1.564-0.829,1.315-1.195c-0.251-0.365-0.642-0.69,0.055-1.259
	c0.696-0.567,2.012-1.015,1.635-1.421c-0.375-0.406-0.556-0.813,0.067-1.259c0.622-0.447,0.685-1.625,0.998-0.976
	c0.313,0.65,0.313,1.625,1.002,2.03c0.689,0.406-0.245,0.667,0,1.097c0.243,0.432,1.595,1.312,0.516,2.138
	c-1.08,0.828-0.768,2.648-0.016,2.956c0.752,0.308,1.545,0.999,0.428,1.364c-1.116,0.366-0.803,0.893-0.428,1.137
	c0.376,0.245-0.563,0.568-1.754,0.689C236.208,84.477,234.203,83.665,234.203,83.665z"/>
<path fill="#97BF0D" d="M177.108,80.188c0,0-2.88-0.609-2.003-1.219c0.875-0.609,1.879-1.747,1.627-2.112
	c-0.25-0.366-1.19-1.103-0.25-1.282c0.939-0.18,1.565-0.83,1.315-1.194c-0.251-0.366-0.642-0.692,0.055-1.259
	c0.696-0.569,2.012-1.016,1.636-1.421c-0.376-0.406-0.556-0.813,0.066-1.259c0.623-0.446,0.685-1.625,0.999-0.975
	c0.313,0.649,0.313,1.624,1.002,2.029c0.688,0.406-0.245,0.667,0,1.098c0.243,0.432,1.595,1.311,0.515,2.138
	c-1.08,0.826-0.767,2.647-0.015,2.954c0.752,0.309,1.545,0.998,0.428,1.364c-1.117,0.365-0.803,0.893-0.428,1.138
	c0.376,0.243-0.563,0.567-1.753,0.69C179.112,80.999,177.108,80.188,177.108,80.188z"/>
<path fill="#97BF0D" d="M156.403,80.184c0,0-2.037-0.431-1.418-0.862c0.621-0.431,1.331-1.236,1.153-1.495
	c-0.179-0.258-0.842-0.779-0.179-0.906c0.666-0.128,1.109-0.587,0.931-0.845c-0.177-0.259-0.454-0.489,0.039-0.89
	c0.494-0.403,1.424-0.719,1.159-1.007c-0.266-0.286-0.394-0.574,0.047-0.89c0.44-0.315,0.485-1.149,0.706-0.69
	c0.222,0.46,0.222,1.149,0.71,1.437c0.487,0.288-0.173,0.471,0,0.776c0.172,0.305,1.127,0.928,0.365,1.513
	c-0.765,0.584-0.542,1.873-0.011,2.09c0.532,0.218,1.093,0.707,0.303,0.965c-0.79,0.258-0.569,0.632-0.303,0.804
	c0.266,0.173-0.398,0.402-1.241,0.488C157.821,80.758,156.403,80.184,156.403,80.184z"/>
<path fill="#008A2E" d="M459.796,178.815c0,0,13.864,2.159,16.638,0c2.774-2.157-9.429-6.853-6.1-6.124
	c3.326,0.731,2.772,5.046,8.874,3.967c6.1-1.079-7.765-2.517-4.992-7.912c2.771-5.394,3.689,2.518,6.558,0
	c2.871-2.518-8.776-5.754-6.558-8.632c2.218-2.876,7.379,2.878,7.017,0c-0.361-2.876-12.737-2.157-10.71-9.35
	c2.03-7.193-5.734-10.07-7.398-3.237c-1.663,6.833,1.108,10.789-3.328,10.07s-7.763,4.987-2.219,4.111
	c5.547-0.875,10.538,3.082,4.992,3.082s-10.247,0-7.896,2.156c2.351,2.159,5.679,7.894,1.241,5.744
	c-4.437-2.146-10.536,0.731-6.102,2.888C454.25,177.737,459.796,178.815,459.796,178.815z"/>
<path fill="#008A2E" d="M369.902,136.587c0,0,9.052,1.41,10.863,0c1.812-1.409-6.155-4.476-3.983-3.999
	c2.172,0.476,1.81,3.294,5.795,2.59c3.982-0.705-5.071-1.644-3.26-5.167c1.811-3.523,2.408,1.645,4.282,0
	c1.874-1.643-5.731-3.757-4.282-5.636c1.448-1.88,4.819,1.879,4.581,0c-0.235-1.88-8.317-1.409-6.993-6.107
	c1.326-4.696-3.745-6.576-4.833-2.113c-1.086,4.461,0.726,7.046-2.17,6.576c-2.899-0.47-5.072,3.257-1.45,2.686
	c3.62-0.573,6.88,2.012,3.26,2.012c-3.622,0-6.692,0-5.157,1.408c1.535,1.409,3.707,5.154,0.812,3.751
	c-2.897-1.403-6.882,0.476-3.983,1.885C366.28,135.883,369.902,136.587,369.902,136.587z"/>
<path fill="#0C4223" d="M475.298,186.14c0,0,8.247,2.909,16.098,2.125c7.85-0.784,10.512-4.55,8.819-6.903
	c-1.694-2.353-10.537-3.607-5.754-4.548c4.784-0.941,5.754-0.941,3.092-3.923c-2.662-2.979-4.742-3.353-2.354-4.391
	c2.39-1.041-1.759-2.552-2.242-4.021c-0.484-1.47-5.807-3.605-3.628-5.91c2.177-2.306-2.9-3.875-1.33-6.228
	c1.571-2.354,0-6.432,0-6.432s-3.051,11.549-7.404,11.392c-4.354-0.157-2.638,1.158-0.944,3.197c1.694,2.04,3.63,4.039,0,3.98
	c-3.629-0.058-8.222,2.451-5.563,3.55c2.66,1.099,8.709,5.333,4.113,4.706c-4.598-0.627-6.424,3.451-4.904,4.236
	c1.517,0.783,5.387,2.353,1.758,2.824c-3.628,0.47-11.129,2.822-7.015,4.392C472.153,185.756,475.298,186.14,475.298,186.14z"/>
<path fill="#0C4223" d="M581.08,230.322c0,0,8.25,2.908,16.098,2.124c7.852-0.785,10.514-4.55,8.82-6.902
	c-1.695-2.354-10.539-3.608-5.754-4.55c4.785-0.94,5.754-0.94,3.094-3.922c-2.662-2.979-4.746-3.354-2.354-4.393
	c2.389-1.039-1.76-2.549-2.244-4.02c-0.486-1.47-5.805-3.605-3.629-5.91c2.178-2.306-2.9-3.875-1.326-6.228
	c1.566-2.354,0-6.433,0-6.433s-3.051,11.55-7.406,11.393c-4.355-0.158-2.639,1.157-0.943,3.197c1.691,2.039,3.627,4.04,0,3.98
	c-3.629-0.059-8.225,2.451-5.564,3.55c2.66,1.098,8.709,5.332,4.111,4.706c-4.598-0.628-6.42,3.45-4.904,4.236
	c1.518,0.783,5.391,2.354,1.76,2.822c-3.627,0.472-11.127,2.825-7.016,4.392C577.936,229.937,581.08,230.322,581.08,230.322z"/>
<path fill="#97BF0D" d="M520.941,206.217c0,0,13.865,2.157,16.639,0c2.773-2.158-9.428-6.853-6.1-6.123
	c3.326,0.729,2.771,5.044,8.873,3.965c6.1-1.078-7.764-2.517-4.992-7.912c2.771-5.395,3.689,2.518,6.559,0
	c2.869-2.517-8.777-5.754-6.559-8.632c2.219-2.876,7.379,2.878,7.018,0c-0.361-2.876-12.74-2.157-10.711-9.35
	c2.029-7.193-5.736-10.07-7.398-3.237c-1.664,6.833,1.109,10.789-3.328,10.07c-4.436-0.72-7.764,4.986-2.219,4.112
	c5.547-0.876,10.537,3.08,4.992,3.08s-10.246,0-7.896,2.158c2.352,2.157,5.68,7.892,1.242,5.745
	c-4.438-2.149-10.539,0.729-6.102,2.887C515.396,205.138,520.941,206.217,520.941,206.217z"/>
<path fill="#00632E" d="M504.453,196.63c0,0,13.863,2.158,16.635,0c2.775-2.158-9.428-6.853-6.1-6.124
	c3.328,0.73,2.773,5.045,8.875,3.966c6.102-1.078-7.766-2.517-4.992-7.912c2.773-5.395,3.689,2.518,6.559,0
	c2.869-2.517-8.777-5.754-6.559-8.632c2.217-2.876,7.379,2.878,7.016,0c-0.361-2.876-12.736-2.156-10.709-9.35
	c2.029-7.193-5.734-10.069-7.398-3.237c-1.664,6.833,1.109,10.79-3.326,10.07c-4.439-0.719-7.765,4.987-2.221,4.112
	c5.547-0.876,10.537,3.08,4.992,3.08c-5.547,0-10.248,0-7.897,2.158c2.35,2.158,5.678,7.893,1.241,5.744
	c-4.436-2.147-10.536,0.73-6.1,2.888C498.905,195.551,504.453,196.63,504.453,196.63z"/>
<path fill="#41A62A" d="M466.154,202.328c0,0,13.866,2.158,16.638,0c2.772-2.157-9.427-6.853-6.101-6.124
	c3.329,0.729,2.773,5.044,8.873,3.967c6.102-1.079-7.764-2.518-4.99-7.913c2.772-5.395,3.689,2.518,6.559,0
	s-8.776-5.754-6.559-8.632c2.218-2.876,7.379,2.878,7.018,0c-0.362-2.876-12.739-2.157-10.71-9.35
	c2.029-7.194-5.736-10.07-7.399-3.237c-1.665,6.833,1.109,10.79-3.328,10.07c-4.437-0.719-7.765,4.986-2.218,4.112
	c5.546-0.876,10.536,3.08,4.99,3.08s-10.246,0-7.895,2.158c2.349,2.157,5.676,7.893,1.241,5.744
	c-4.438-2.148-10.538,0.729-6.102,2.888C460.609,201.248,466.154,202.328,466.154,202.328z"/>
<path fill="#0C4223" d="M419.824,177.265c0,0,8.249,2.909,16.099,2.124c7.851-0.785,10.513-4.55,8.818-6.902
	c-1.694-2.354-10.536-3.607-5.753-4.55c4.785-0.94,5.753-0.94,3.091-3.922c-2.658-2.979-4.741-3.354-2.351-4.392
	c2.389-1.039-1.76-2.55-2.245-4.021c-0.483-1.47-5.806-3.604-3.628-5.91c2.179-2.306-2.898-3.875-1.328-6.228
	c1.569-2.354,0-6.432,0-6.432s-3.051,11.55-7.405,11.392c-4.354-0.157-2.639,1.157-0.944,3.197c1.695,2.04,3.629,4.04,0,3.98
	c-3.628-0.058-8.223,2.452-5.563,3.55c2.662,1.099,8.709,5.334,4.113,4.707c-4.596-0.629-6.423,3.449-4.904,4.235
	c1.518,0.784,5.388,2.354,1.759,2.823c-3.628,0.472-11.127,2.824-7.015,4.392C416.678,176.879,419.824,177.265,419.824,177.265z"/>
<path fill="#0C4223" d="M273.286,108.802c0,0,6.2,2.189,12.102,1.596c5.901-0.59,7.902-3.419,6.629-5.187
	c-1.273-1.769-7.921-2.711-4.324-3.419c3.597-0.707,4.324-0.707,2.324-2.948c-2.001-2.241-3.566-2.521-1.77-3.301
	c1.797-0.781-1.321-1.917-1.685-3.022c-0.364-1.104-4.366-2.71-2.729-4.443c1.636-1.733-2.181-2.913-0.999-4.682
	c1.18-1.769,0-4.834,0-4.834s-2.293,8.682-5.567,8.564c-3.272-0.118-1.981,0.869-0.707,2.402c1.271,1.534,2.728,3.037,0,2.992
	c-2.729-0.043-6.182,1.843-4.183,2.669c1.999,0.825,6.546,4.008,3.09,3.537c-3.454-0.471-4.827,2.594-3.686,3.184
	c1.14,0.59,4.05,1.77,1.322,2.122c-2.728,0.355-8.365,2.124-5.273,3.301C270.921,108.514,273.286,108.802,273.286,108.802z"/>
<path fill="#0C4223" d="M208.19,81.527c0,0,2.174,0.794,4.263,0.605c2.091-0.189,2.821-1.182,2.385-1.812
	c-0.436-0.629-2.777-0.984-1.5-1.222c1.277-0.239,1.533-0.236,0.844-1.035c-0.688-0.798-1.241-0.903-0.6-1.172
	c0.643-0.27-0.451-0.683-0.57-1.075c-0.12-0.391-1.521-0.973-0.928-1.579c0.593-0.607-0.748-1.037-0.316-1.658
	s0.04-1.708,0.04-1.708s-0.881,3.061-2.038,3.007c-1.156-0.053-0.708,0.3-0.269,0.846c0.437,0.547,0.939,1.083-0.025,1.058
	s-2.199,0.629-1.498,0.929c0.699,0.299,2.281,1.438,1.063,1.261c-1.218-0.179-1.729,0.9-1.33,1.113
	c0.398,0.212,1.418,0.638,0.45,0.755c-0.967,0.115-2.973,0.721-1.891,1.147C207.356,81.417,208.19,81.527,208.19,81.527z"/>
<path fill="#0C4223" d="M251.024,85.715c0,0,2.175,0.795,4.264,0.605c2.091-0.189,2.82-1.182,2.385-1.812
	c-0.436-0.63-2.777-0.985-1.499-1.223c1.276-0.238,1.533-0.236,0.845-1.035c-0.689-0.799-1.241-0.903-0.6-1.173
	c0.642-0.269-0.451-0.682-0.57-1.073c-0.121-0.391-1.521-0.973-0.929-1.58s-0.747-1.036-0.316-1.659
	c0.432-0.621,0.04-1.708,0.04-1.708s-0.881,3.061-2.037,3.009c-1.156-0.053-0.708,0.3-0.27,0.846
	c0.438,0.547,0.939,1.083-0.024,1.057c-0.964-0.024-2.199,0.63-1.498,0.93c0.699,0.298,2.28,1.438,1.063,1.261
	c-1.218-0.18-1.729,0.899-1.33,1.113c0.398,0.211,1.418,0.638,0.45,0.753c-0.967,0.115-2.973,0.722-1.891,1.149
	C250.19,85.605,251.024,85.715,251.024,85.715z"/>
<path fill="#0C4223" d="M221.87,82.134c0,0,2.175,0.794,4.264,0.605c2.09-0.189,2.82-1.182,2.385-1.812
	c-0.435-0.629-2.777-0.984-1.5-1.222c1.276-0.239,1.533-0.236,0.844-1.035c-0.688-0.798-1.24-0.903-0.599-1.172
	c0.641-0.27-0.451-0.683-0.57-1.075c-0.121-0.391-1.521-0.972-0.928-1.579c0.592-0.606-0.748-1.036-0.317-1.658
	c0.433-0.622,0.04-1.708,0.04-1.708s-0.88,3.061-2.037,3.007c-1.156-0.053-0.708,0.3-0.269,0.846
	c0.437,0.547,0.94,1.083-0.024,1.058s-2.199,0.629-1.5,0.929c0.699,0.299,2.281,1.438,1.063,1.261
	c-1.218-0.179-1.727,0.9-1.328,1.113c0.397,0.211,1.417,0.638,0.45,0.754c-0.968,0.116-2.974,0.721-1.892,1.148
	C221.036,82.023,221.87,82.134,221.87,82.134z"/>
<path fill="#0C4223" d="M170.107,80.07c0,0,2.174,0.795,4.264,0.606c2.09-0.189,2.821-1.183,2.385-1.812
	c-0.435-0.629-2.777-0.984-1.5-1.223c1.277-0.238,1.534-0.235,0.845-1.034c-0.688-0.798-1.24-0.903-0.6-1.172
	c0.641-0.27-0.452-0.683-0.571-1.075c-0.121-0.391-1.521-0.973-0.928-1.58c0.592-0.607-0.748-1.036-0.316-1.658
	c0.433-0.622,0.04-1.708,0.04-1.708s-0.88,3.061-2.038,3.008c-1.155-0.053-0.708,0.301-0.268,0.846
	c0.437,0.547,0.939,1.083-0.025,1.059c-0.964-0.025-2.199,0.629-1.5,0.929c0.699,0.298,2.281,1.438,1.064,1.261
	c-1.218-0.179-1.728,0.9-1.329,1.113c0.398,0.212,1.417,0.638,0.45,0.753c-0.967,0.116-2.973,0.722-1.892,1.149
	C169.273,79.96,170.107,80.07,170.107,80.07z"/>
<path fill="#0C4223" d="M185.268,80.07c0,0,2.173,0.795,4.262,0.606c2.091-0.189,2.821-1.183,2.386-1.812s-2.777-0.984-1.5-1.223
	c1.277-0.238,1.534-0.235,0.845-1.034c-0.689-0.798-1.241-0.903-0.599-1.172c0.641-0.27-0.452-0.683-0.571-1.075
	c-0.121-0.391-1.521-0.973-0.928-1.58c0.593-0.607-0.748-1.036-0.316-1.658c0.432-0.622,0.04-1.708,0.04-1.708
	s-0.88,3.061-2.038,3.008c-1.155-0.053-0.708,0.301-0.269,0.846c0.438,0.547,0.939,1.083-0.024,1.059
	c-0.964-0.025-2.199,0.629-1.499,0.929c0.7,0.298,2.282,1.438,1.064,1.261c-1.218-0.179-1.729,0.9-1.33,1.113
	c0.398,0.212,1.418,0.638,0.45,0.753c-0.967,0.116-2.973,0.722-1.891,1.149C184.432,79.96,185.268,80.07,185.268,80.07z"/>
<path fill="#0C4223" d="M533.922,222.273c0,0,8.248,2.908,16.098,2.124c7.852-0.785,10.516-4.549,8.82-6.902
	c-1.693-2.354-10.537-3.607-5.754-4.55c4.785-0.941,5.754-0.941,3.094-3.922c-2.662-2.979-4.744-3.354-2.354-4.392
	c2.387-1.04-1.758-2.55-2.244-4.021c-0.484-1.47-5.805-3.604-3.629-5.909c2.178-2.308-2.9-3.875-1.328-6.229
	c1.57-2.354,0-6.432,0-6.432s-3.051,11.549-7.406,11.392c-4.352-0.156-2.637,1.157-0.941,3.197c1.693,2.04,3.627,4.04,0,3.98
	c-3.631-0.058-8.225,2.451-5.564,3.551c2.66,1.098,8.709,5.333,4.111,4.706c-4.596-0.629-6.422,3.449-4.902,4.235
	c1.518,0.784,5.387,2.354,1.76,2.824c-3.631,0.47-11.131,2.823-7.018,4.391C530.777,221.888,533.922,222.273,533.922,222.273z"/>
<path fill="#00632E" d="M73.64,251.688c0,0-17.008-3.597-11.832-7.193c5.177-3.597,11.093-10.311,9.614-12.469
	c-1.48-2.157-7.026-6.508-1.48-7.569c5.546-1.063,9.243-4.896,7.765-7.055s-3.783-4.076,0.328-7.434
	c4.109-3.355,11.874-5.993,9.655-8.391c-2.218-2.397-3.285-4.796,0.392-7.434c3.676-2.637,4.045-9.591,5.895-5.754
	c1.849,3.836,1.848,9.59,5.916,11.987s-1.442,3.927,0,6.473c1.441,2.549,9.419,7.743,3.045,12.624
	c-6.374,4.88-4.524,15.63-0.087,17.448c4.437,1.817,9.117,5.894,2.524,8.051c-6.592,2.159-4.743,5.276-2.524,6.715
	c2.217,1.438-3.328,3.355-10.353,4.075C85.471,256.482,73.64,251.688,73.64,251.688z"/>
<path fill="#00632E" d="M262.875,88.148c0,0-4.201-0.888-2.922-1.776c1.279-0.889,2.739-2.547,2.375-3.08
	c-0.366-0.532-1.736-1.608-0.366-1.87c1.37-0.262,2.281-1.21,1.918-1.742c-0.366-0.533-0.935-1.007,0.081-1.836
	c1.014-0.829,2.932-1.479,2.385-2.073c-0.549-0.592-0.812-1.184,0.097-1.835c0.907-0.651,0.999-2.37,1.455-1.422
	c0.457,0.948,0.457,2.369,1.461,2.961c1.005,0.592-0.355,0.97,0,1.598c0.356,0.629,2.327,1.913,0.753,3.117
	c-1.574,1.207-1.118,3.862-0.021,4.311c1.094,0.448,2.25,1.455,0.622,1.988c-1.628,0.534-1.171,1.304-0.622,1.658
	c0.547,0.355-0.823,0.83-2.558,1.006C265.797,89.333,262.875,88.148,262.875,88.148z"/>
<path fill="#00632E" d="M215.602,82.373c0,0-3.307-0.698-2.3-1.397c1.006-0.7,2.156-2.004,1.869-2.423
	c-0.288-0.42-1.366-1.265-0.288-1.472c1.078-0.205,1.796-0.952,1.51-1.37c-0.289-0.419-0.736-0.792,0.063-1.445
	c0.798-0.652,2.308-1.165,1.877-1.631c-0.432-0.465-0.64-0.931,0.075-1.443c0.714-0.512,0.787-1.865,1.146-1.118
	c0.359,0.745,0.359,1.864,1.15,2.329c0.791,0.466-0.281,0.765,0,1.259c0.28,0.495,1.831,1.505,0.591,2.453
	c-1.24,0.948-0.879,3.037-0.016,3.391c0.861,0.353,1.771,1.145,0.489,1.564c-1.28,0.419-0.921,1.026-0.489,1.304
	c0.431,0.28-0.647,0.653-2.013,0.793C217.9,83.305,215.602,82.373,215.602,82.373z"/>
<path fill="#00632E" d="M135.799,78.695c0,0-1.771-0.375-1.232-0.748c0.539-0.375,1.154-1.074,1-1.299
	c-0.153-0.226-0.73-0.678-0.153-0.788c0.578-0.11,0.962-0.51,0.809-0.735c-0.155-0.225-0.394-0.424,0.034-0.774
	c0.428-0.349,1.237-0.625,1.006-0.874s-0.343-0.5,0.041-0.773c0.382-0.274,0.422-0.999,0.613-0.599
	c0.193,0.4,0.193,0.999,0.616,1.247c0.424,0.251-0.15,0.41,0,0.674c0.151,0.266,0.98,0.807,0.316,1.314
	c-0.663,0.508-0.47,1.627-0.009,1.818c0.461,0.189,0.95,0.614,0.263,0.838s-0.493,0.548-0.263,0.698
	c0.232,0.15-0.345,0.35-1.077,0.425C137.031,79.194,135.799,78.695,135.799,78.695z"/>
<path fill="#97BF0D" d="M140.778,78.695c0,0-1.772-0.375-1.233-0.748c0.539-0.375,1.155-1.074,1-1.299
	c-0.154-0.226-0.731-0.678-0.154-0.788c0.578-0.11,0.962-0.51,0.809-0.735c-0.155-0.225-0.395-0.424,0.033-0.774
	c0.429-0.349,1.236-0.625,1.005-0.874c-0.23-0.249-0.342-0.5,0.042-0.773c0.381-0.274,0.421-0.999,0.612-0.599
	c0.193,0.4,0.193,0.999,0.616,1.247c0.424,0.251-0.151,0.41,0,0.674c0.151,0.266,0.98,0.807,0.317,1.314
	c-0.664,0.508-0.471,1.627-0.009,1.818c0.461,0.189,0.949,0.614,0.263,0.838c-0.687,0.225-0.494,0.548-0.263,0.698
	c0.232,0.15-0.346,0.35-1.078,0.425C142.01,79.194,140.778,78.695,140.778,78.695z"/>
<path fill="#97BF0D" d="M26.438,241.386c0,0-9.118-1.929-6.343-3.858c2.775-1.926,5.947-5.526,5.154-6.684
	c-0.793-1.156-3.766-3.488-0.793-4.057c2.972-0.569,4.954-2.627,4.161-3.782c-0.792-1.158-2.028-2.187,0.176-3.985
	c2.203-1.8,6.366-3.213,5.177-4.499c-1.189-1.285-1.762-2.571,0.21-3.983c1.97-1.415,2.167-5.142,3.159-3.086
	c0.992,2.057,0.992,5.141,3.173,6.427c2.179,1.285-0.775,2.105,0,3.472c0.771,1.365,5.048,4.149,1.632,6.765
	c-3.417,2.617-2.425,8.381-0.047,9.354c2.377,0.975,4.887,3.16,1.353,4.316c-3.533,1.158-2.542,2.828-1.353,3.601
	c1.189,0.771-1.784,1.798-5.551,2.184C32.78,243.955,26.438,241.386,26.438,241.386z"/>
<path fill="#00632E" d="M123.924,260.56c0,0-10.722-3.118-3.697-8.394c7.023-5.273,8.503-4.314,5.546-7.671
	c-2.959-3.356-5.384-3.118-3.247-5.275c2.137-2.157-0.288-4.076,0-6.952c0.287-2.878,5.833,0.001,6.943-2.638
	c1.109-2.638-6.083-1.679-5.814-3.117s6.046-0.958,5.93-4.075c-0.116-3.118-4.182-3.119-1.595-5.517
	c2.588-2.396,4.808-2.157,5.546-5.034c0.738-2.877,0,6.474,3.327,5.754c3.328-0.72-1.237,0.239,2.524,3.598
	c3.761,3.356-1.785,3.835,3.761,5.754c5.546,1.919,7.764,1.438,7.764,1.438s-8.133,2.396-5.176,2.878
	c2.958,0.479-3.448,4.713,2.219,4.639c5.666-0.074-9.796,2.561-0.092,6.633c9.705,4.072,7.432,1.675,8.014,5.991
	c0.581,4.315-4.65,7.67,0,8.631c4.649,0.959,6.533,6.234,0.044,6.713c-6.488,0.48-14.622,1.199-18.689,0
	C133.166,262.718,123.924,260.56,123.924,260.56z"/>
<path fill="#00632E" d="M364.068,189.919c0,0-6.201-1.802-2.137-4.853c4.059-3.05,4.918-2.495,3.207-4.436
	c-1.712-1.941-3.114-1.804-1.879-3.05c1.237-1.249-0.166-2.356,0-4.02c0.167-1.665,3.372,0,4.014-1.526s-3.515-0.971-3.361-1.803
	c0.156-0.831,3.496-0.553,3.432-2.355c-0.07-1.803-2.42-1.804-0.924-3.189c1.495-1.387,2.78-1.249,3.207-2.912
	c0.43-1.664,0,3.744,1.924,3.328s-0.716,0.139,1.46,2.08c2.174,1.94-1.031,2.217,2.174,3.325c3.207,1.11,4.49,0.833,4.49,0.833
	s-4.702,1.386-2.995,1.663c1.712,0.278-1.992,2.727,1.285,2.684c3.275-0.043-5.666,1.48-0.054,3.835
	c5.611,2.355,4.299,0.969,4.634,3.463c0.336,2.496-2.688,4.438,0,4.992c2.688,0.554,3.778,3.605,0.026,3.882
	c-3.75,0.277-8.457,0.692-10.807,0C369.412,191.167,364.068,189.919,364.068,189.919z"/>
<path fill="#00632E" d="M273.727,257.734c0,0-8.693-2.529-2.998-6.805c5.696-4.277,6.896-3.5,4.496-6.221
	c-2.398-2.722-4.364-2.528-2.632-4.279c1.733-1.748-0.233-3.304,0-5.635c0.233-2.335,4.731,0,5.63-2.139
	c0.899-2.14-4.932-1.361-4.714-2.529c0.218-1.165,4.901-0.777,4.808-3.304c-0.094-2.528-3.392-2.529-1.292-4.472
	c2.098-1.945,3.897-1.75,4.496-4.082c0.6-2.334,0,5.247,2.699,4.665c2.697-0.583-1.004,0.194,2.046,2.917
	c3.049,2.723-1.447,3.109,3.049,4.665c4.498,1.557,6.296,1.166,6.296,1.166s-6.594,1.944-4.197,2.333
	c2.399,0.39-2.795,3.822,1.8,3.763c4.594-0.061-7.943,2.075-0.074,5.378c7.867,3.303,6.025,1.358,6.497,4.856
	c0.472,3.5-3.771,6.221,0,6.999c3.77,0.777,5.299,5.056,0.037,5.444c-5.261,0.389-11.856,0.972-15.155,0
	C281.222,259.485,273.727,257.734,273.727,257.734z"/>
<path fill="#008A2E" d="M150.913,259.601c0,0,13.865,2.157,16.638,0c2.772-2.158-9.428-6.854-6.101-6.125
	c3.328,0.729,2.773,5.045,8.873,3.967c6.102-1.079-7.763-2.518-4.991-7.912c2.773-5.396,3.689,2.517,6.559,0
	c2.87-2.519-8.777-5.755-6.559-8.632c2.219-2.877,7.378,2.877,7.017,0c-0.361-2.877-12.738-2.158-10.709-9.351
	c2.029-7.193-5.736-10.07-7.399-3.237c-1.664,6.833,1.109,10.79-3.328,10.07c-4.437-0.719-7.764,4.986-2.218,4.112
	c5.546-0.876,10.538,3.08,4.992,3.08c-5.546,0-10.248,0-7.897,2.158c2.351,2.158,5.678,7.894,1.241,5.744
	c-4.437-2.147-10.537,0.729-6.1,2.888C145.367,258.521,150.913,259.601,150.913,259.601z"/>
<path fill="#00632E" d="M384.296,233.41c0,0,13.863,2.158,16.638,0c2.773-2.158-9.428-6.854-6.102-6.123
	c3.327,0.729,2.773,5.044,8.875,3.965c6.101-1.078-7.766-2.516-4.991-7.911c2.771-5.395,3.688,2.518,6.558,0
	c2.871-2.518-8.777-5.754-6.558-8.632c2.218-2.876,7.379,2.878,7.016,0c-0.361-2.876-12.738-2.157-10.709-9.352
	c2.028-7.192-5.736-10.068-7.399-3.235s1.108,10.788-3.327,10.07c-4.438-0.72-7.765,4.986-2.219,4.112
	c5.546-0.877,10.538,3.08,4.99,3.08c-5.546,0-10.246,0-7.895,2.157c2.349,2.158,5.678,7.893,1.241,5.745
	c-4.438-2.148-10.539,0.729-6.102,2.887C378.75,232.331,384.296,233.41,384.296,233.41z"/>
<path fill="#00632E" d="M302.955,120.824c0,0,13.865,2.158,16.638,0c2.773-2.157-9.428-6.853-6.101-6.124
	c3.328,0.729,2.773,5.045,8.874,3.966c6.101-1.08-7.765-2.519-4.991-7.913c2.772-5.395,3.689,2.518,6.558,0
	c2.87-2.518-8.776-5.754-6.558-8.631c2.218-2.878,7.379,2.876,7.017,0c-0.362-2.878-12.739-2.159-10.71-9.351
	c2.029-7.194-5.735-10.071-7.399-3.237c-1.663,6.834,1.109,10.789-3.327,10.07s-7.765,4.988-2.219,4.112
	c5.546-0.875,10.537,3.081,4.992,3.081c-5.546,0-10.247,0-7.897,2.158c2.352,2.158,5.679,7.892,1.241,5.745
	c-4.436-2.149-10.537,0.729-6.1,2.886C297.409,119.745,302.955,120.824,302.955,120.824z"/>
<path fill="#00632E" d="M482.645,224.06c0,0,13.864,2.158,16.638,0c2.772-2.158-9.429-6.852-6.102-6.123
	c3.328,0.729,2.774,5.045,8.874,3.965c6.102-1.078-7.764-2.517-4.99-7.912c2.771-5.395,3.688,2.518,6.558,0
	c2.869-2.517-8.777-5.754-6.558-8.632c2.218-2.876,7.378,2.878,7.017,0c-0.361-2.876-12.739-2.156-10.711-9.35
	c2.03-7.193-5.734-10.07-7.398-3.237s1.109,10.79-3.327,10.07c-4.437-0.719-7.765,4.987-2.219,4.112s10.537,3.08,4.99,3.08
	c-5.545,0-10.247,0-7.895,2.159c2.35,2.156,5.677,7.892,1.24,5.744c-4.438-2.149-10.537,0.729-6.101,2.887
	C477.097,222.981,482.645,224.06,482.645,224.06z"/>
<path fill="#00632E" d="M544.023,238.46c0,0,13.867,2.158,16.641,0s-9.43-6.854-6.102-6.124c3.328,0.729,2.773,5.044,8.875,3.966
	c6.1-1.079-7.764-2.518-4.992-7.912c2.773-5.395,3.688,2.518,6.559,0c2.869-2.519-8.777-5.754-6.559-8.632
	c2.219-2.877,7.377,2.878,7.016,0c-0.359-2.877-12.74-2.157-10.709-9.351c2.029-7.193-5.736-10.07-7.398-3.237
	c-1.664,6.834,1.107,10.79-3.33,10.07c-4.436-0.719-7.762,4.987-2.217,4.112c5.547-0.875,10.537,3.08,4.99,3.08
	c-5.545,0-10.246,0-7.896,2.159c2.352,2.157,5.68,7.893,1.242,5.744s-10.539,0.729-6.1,2.887
	C538.479,237.38,544.023,238.46,544.023,238.46z"/>
<path fill="#009036" d="M579.729,253.58c0,0,13.865,2.157,16.637,0c2.773-2.157-9.43-6.853-6.1-6.124
	c3.328,0.729,2.771,5.046,8.873,3.967c6.1-1.08-7.764-2.519-4.992-7.912c2.773-5.396,3.688,2.517,6.559,0
	c2.871-2.518-8.775-5.756-6.559-8.632c2.219-2.878,7.379,2.876,7.016,0c-0.359-2.878-12.738-2.158-10.709-9.351
	c2.031-7.192-5.734-10.07-7.398-3.237c-1.662,6.833,1.109,10.789-3.326,10.07c-4.438-0.72-7.764,4.987-2.219,4.111
	c5.545-0.874,10.537,3.082,4.992,3.082c-5.547,0-10.248,0-7.9,2.157c2.354,2.158,5.682,7.892,1.244,5.744
	c-4.436-2.147-10.537,0.729-6.102,2.887C574.184,252.502,579.729,253.58,579.729,253.58z"/>
<path fill="#97BF0D" d="M348.063,186.896c0,0,13.863,2.157,16.637,0c2.772-2.159-9.427-6.854-6.101-6.124
	c3.327,0.729,2.773,5.044,8.873,3.965c6.102-1.078-7.765-2.517-4.99-7.911c2.772-5.395,3.689,2.518,6.559,0
	c2.869-2.519-8.777-5.754-6.559-8.632c2.218-2.877,7.379,2.878,7.017,0c-0.363-2.877-12.738-2.158-10.709-9.351
	c2.029-7.193-5.736-10.07-7.4-3.237c-1.663,6.834,1.109,10.789-3.326,10.07c-4.438-0.72-7.766,4.987-2.22,4.112
	c5.546-0.876,10.537,3.08,4.991,3.08s-10.246,0-7.896,2.158c2.351,2.158,5.679,7.893,1.242,5.745
	c-4.438-2.148-10.537,0.729-6.102,2.887C342.516,185.816,348.063,186.896,348.063,186.896z"/>
<path fill="#97BF0D" d="M393.909,178.563c0,0,13.865,2.157,16.64,0c2.771-2.158-9.429-6.853-6.102-6.123
	c3.327,0.729,2.772,5.045,8.872,3.965c6.102-1.078-7.763-2.517-4.99-7.911c2.773-5.396,3.689,2.517,6.56,0
	c2.869-2.518-8.778-5.755-6.56-8.632c2.22-2.877,7.379,2.877,7.017,0s-12.739-2.158-10.709-9.351c2.028-7.192-5.737-10.07-7.4-3.237
	s1.109,10.789-3.327,10.07c-4.436-0.72-7.765,4.986-2.217,4.112c5.544-0.876,10.537,3.08,4.99,3.08c-5.545,0-10.247,0-7.896,2.158
	c2.352,2.158,5.679,7.892,1.241,5.745c-4.437-2.149-10.538,0.729-6.1,2.887C388.363,177.485,393.909,178.563,393.909,178.563z"/>
<path fill="#008A2E" d="M93.235,253.476c0,0,12.606,4.444,24.604,3.247c11.999-1.198,16.067-6.952,13.478-10.549
	s-16.104-5.517-8.792-6.954c7.312-1.438,8.792-1.438,4.724-5.993c-4.066-4.557-7.25-5.126-3.596-6.714
	c3.653-1.588-2.688-3.896-3.428-6.143c-0.74-2.248-8.875-5.512-5.546-9.035c3.328-3.523-4.432-5.922-2.031-9.519s0-9.829,0-9.829
	s-4.662,17.652-11.317,17.412c-6.655-0.241-4.03,1.768-1.441,4.885c2.588,3.118,5.546,6.176,0,6.086
	c-5.546-0.091-12.569,3.744-8.503,5.424c4.066,1.679,13.309,8.152,6.285,7.192c-7.025-0.96-9.816,5.275-7.496,6.474
	c2.32,1.197,8.235,3.597,2.689,4.315c-5.546,0.72-17.008,4.317-10.723,6.714C88.429,252.887,93.235,253.476,93.235,253.476z"/>
<path fill="#008A2E" d="M402.893,194.248c0,0,8.248,2.91,16.098,2.126c7.852-0.785,10.513-4.55,8.818-6.902
	c-1.693-2.354-10.536-3.609-5.753-4.55c4.786-0.941,5.753-0.941,3.092-3.922s-4.742-3.354-2.351-4.392
	c2.389-1.04-1.76-2.55-2.244-4.021c-0.485-1.469-5.808-3.605-3.629-5.91c2.176-2.306-2.898-3.874-1.33-6.227
	c1.571-2.354,0-6.433,0-6.433s-3.05,11.55-7.404,11.392c-4.354-0.156-2.637,1.158-0.944,3.198c1.694,2.039,3.63,4.038,0,3.979
	c-3.628-0.058-8.222,2.451-5.563,3.551c2.661,1.098,8.709,5.332,4.113,4.706c-4.597-0.628-6.423,3.45-4.903,4.236
	c1.517,0.782,5.388,2.353,1.758,2.823c-3.628,0.47-11.128,2.823-7.015,4.392C399.748,193.864,402.893,194.248,402.893,194.248z"/>
<path fill="#0C4223" d="M444.102,206.247c0,0,8.247,2.909,16.098,2.124c7.852-0.782,10.513-4.549,8.819-6.902
	c-1.694-2.352-10.536-3.607-5.754-4.548c4.786-0.941,5.754-0.941,3.092-3.923c-2.66-2.979-4.742-3.353-2.351-4.392
	c2.387-1.039-1.76-2.55-2.244-4.021c-0.485-1.469-5.807-3.604-3.629-5.91c2.177-2.305-2.898-3.875-1.33-6.228
	c1.571-2.353,0-6.432,0-6.432s-3.05,11.549-7.404,11.393c-4.354-0.158-2.638,1.157-0.944,3.197c1.694,2.04,3.63,4.039,0,3.979
	c-3.628-0.058-8.222,2.452-5.563,3.55c2.661,1.1,8.709,5.333,4.114,4.706c-4.598-0.627-6.423,3.451-4.904,4.235
	c1.517,0.784,5.386,2.354,1.758,2.825c-3.628,0.471-11.128,2.823-7.015,4.392C440.957,205.861,444.102,206.247,444.102,206.247z"/>
<path fill="#008A2E" d="M500.501,235.289c0,0,8.249,2.909,16.098,2.124c7.852-0.784,10.512-4.549,8.818-6.902
	c-1.693-2.353-10.537-3.607-5.752-4.549s5.752-0.941,3.09-3.923c-2.658-2.979-4.742-3.354-2.352-4.392
	c2.391-1.039-1.758-2.549-2.244-4.021c-0.484-1.47-5.805-3.604-3.627-5.909s-2.898-3.875-1.33-6.229c1.572-2.353,0-6.432,0-6.432
	s-3.051,11.55-7.402,11.394c-4.357-0.158-2.641,1.156-0.947,3.196c1.697,2.04,3.631,4.039,0,3.979
	c-3.627-0.057-8.223,2.453-5.562,3.551c2.662,1.099,8.708,5.333,4.113,4.706c-4.595-0.629-6.421,3.449-4.904,4.235
	c1.517,0.784,5.388,2.354,1.758,2.824c-3.628,0.471-11.128,2.824-7.015,4.391C497.356,234.903,500.501,235.289,500.501,235.289z"/>
<path fill="#009036" d="M312.892,173.935c0,0,4.851,1.711,9.467,1.249c4.617-0.461,6.183-2.675,5.187-4.059
	c-0.996-1.385-6.196-2.121-3.383-2.675s3.383-0.554,1.816-2.307c-1.564-1.752-2.788-1.971-1.382-2.583
	c1.404-0.61-1.034-1.498-1.319-2.364c-0.285-0.864-3.414-2.12-2.135-3.476c1.28-1.355-1.704-2.278-0.781-3.662
	c0.923-1.383,0-3.782,0-3.782s-1.794,6.792-4.355,6.7c-2.56-0.093-1.551,0.681-0.554,1.879c0.996,1.2,2.134,2.377,0,2.341
	c-2.134-0.033-4.836,1.441-3.271,2.088s5.12,3.136,2.417,2.769c-2.702-0.37-3.775,2.027-2.883,2.49
	c0.893,0.461,3.168,1.384,1.035,1.66c-2.135,0.277-6.545,1.66-4.127,2.583C311.043,173.708,312.892,173.935,312.892,173.935z"/>
<path fill="#009036" d="M290.117,121.666c0,0,4.851,1.711,9.468,1.249c4.615-0.461,6.181-2.675,5.186-4.059
	c-0.996-1.384-6.197-2.121-3.383-2.674c2.813-0.554,3.383-0.554,1.817-2.308c-1.565-1.751-2.789-1.97-1.383-2.582
	c1.404-0.611-1.034-1.499-1.319-2.365c-0.284-0.864-3.414-2.12-2.134-3.476s-1.705-2.279-0.782-3.662c0.924-1.384,0-3.782,0-3.782
	s-1.794,6.791-4.354,6.699c-2.561-0.093-1.551,0.681-0.555,1.88c0.996,1.199,2.134,2.375,0,2.34
	c-2.134-0.034-4.836,1.441-3.271,2.087c1.563,0.646,5.119,3.136,2.417,2.769c-2.702-0.37-3.776,2.028-2.884,2.49
	c0.893,0.461,3.169,1.384,1.035,1.661c-2.135,0.277-6.545,1.66-4.126,2.582C288.267,121.44,290.117,121.666,290.117,121.666z"/>
<path fill="#009036" d="M238.354,93.202c0,0,4.851,1.711,9.468,1.249c4.616-0.461,6.182-2.674,5.186-4.059s-6.197-2.121-3.383-2.675
	c2.813-0.553,3.383-0.553,1.817-2.307c-1.565-1.751-2.789-1.97-1.383-2.582c1.405-0.611-1.034-1.498-1.319-2.365
	c-0.284-0.864-3.414-2.119-2.134-3.476c1.28-1.355-1.705-2.278-0.782-3.662c0.924-1.384,0-3.783,0-3.783s-1.793,6.791-4.354,6.701
	c-2.561-0.093-1.551,0.68-0.555,1.88c0.996,1.2,2.135,2.375,0,2.339c-2.134-0.033-4.835,1.441-3.271,2.088
	c1.564,0.646,5.121,3.136,2.418,2.768c-2.702-0.37-3.775,2.029-2.883,2.491c0.892,0.461,3.168,1.383,1.034,1.661
	c-2.135,0.275-6.545,1.66-4.126,2.582C236.504,92.976,238.354,93.202,238.354,93.202z"/>
<path fill="#009036" d="M192.785,80.106c0,0,2.182,0.771,4.26,0.562c2.077-0.207,2.782-1.204,2.334-1.826
	c-0.449-0.622-2.79-0.955-1.523-1.204c1.266-0.249,1.523-0.249,0.818-1.038c-0.704-0.789-1.254-0.887-0.622-1.162
	c0.632-0.275-0.465-0.675-0.593-1.064c-0.128-0.389-1.537-0.954-0.96-1.564c0.576-0.608-0.767-1.025-0.352-1.647
	c0.416-0.624,0-1.703,0-1.703s-0.807,3.056-1.959,3.015c-1.153-0.041-0.697,0.306-0.25,0.845c0.448,0.541,0.96,1.07,0,1.054
	c-0.961-0.016-2.176,0.648-1.472,0.939c0.704,0.29,2.304,1.411,1.087,1.246c-1.217-0.167-1.699,0.912-1.298,1.121
	c0.402,0.207,1.427,0.622,0.465,0.747c-0.959,0.125-2.945,0.747-1.856,1.163C191.953,80.005,192.785,80.106,192.785,80.106z"/>
<path fill="#009036" d="M227.143,82.978c0,0,2.182,0.77,4.259,0.563c2.078-0.208,2.782-1.204,2.334-1.826
	c-0.448-0.623-2.789-0.956-1.523-1.205c1.267-0.249,1.523-0.249,0.819-1.038c-0.705-0.789-1.254-0.887-0.623-1.163
	c0.632-0.273-0.466-0.674-0.593-1.063c-0.129-0.389-1.538-0.954-0.961-1.564s-0.767-1.026-0.352-1.648c0.416-0.623,0-1.703,0-1.703
	s-0.807,3.057-1.959,3.016c-1.152-0.042-0.698,0.306-0.249,0.846c0.448,0.54,0.959,1.068,0,1.053
	c-0.961-0.016-2.176,0.648-1.473,0.939c0.705,0.292,2.304,1.411,1.088,1.245c-1.217-0.166-1.699,0.915-1.298,1.121
	c0.401,0.207,1.426,0.623,0.466,0.748c-0.959,0.125-2.945,0.747-1.856,1.162C226.31,82.877,227.143,82.978,227.143,82.978z"/>
<path fill="#009036" d="M161.155,80.106c0,0,2.183,0.771,4.26,0.562c2.078-0.207,2.782-1.204,2.334-1.826
	c-0.449-0.622-2.789-0.955-1.523-1.204c1.267-0.249,1.523-0.249,0.818-1.038c-0.704-0.789-1.254-0.887-0.621-1.162
	c0.631-0.275-0.466-0.675-0.594-1.064c-0.129-0.389-1.537-0.954-0.96-1.564c0.576-0.608-0.767-1.025-0.352-1.647
	c0.416-0.624,0-1.703,0-1.703s-0.807,3.056-1.959,3.015c-1.153-0.041-0.697,0.306-0.25,0.845c0.449,0.541,0.96,1.07,0,1.054
	s-2.176,0.648-1.473,0.939c0.705,0.29,2.305,1.411,1.088,1.246c-1.216-0.167-1.699,0.912-1.297,1.121
	c0.401,0.207,1.426,0.622,0.466,0.747s-2.946,0.747-1.856,1.163C160.323,80.005,161.155,80.106,161.155,80.106z"/>
<path fill="#009036" d="M150.998,80.227c0,0,1.656,0.585,3.233,0.426c1.578-0.156,2.112-0.913,1.773-1.386
	c-0.341-0.473-2.118-0.725-1.157-0.914c0.962-0.189,1.157-0.189,0.621-0.788c-0.534-0.599-0.952-0.673-0.471-0.883
	c0.479-0.208-0.354-0.512-0.451-0.807c-0.098-0.296-1.167-0.724-0.729-1.187c0.438-0.463-0.582-0.778-0.267-1.251
	c0.316-0.473,0-1.292,0-1.292s-0.612,2.321-1.487,2.289c-0.876-0.031-0.531,0.233-0.19,0.643c0.34,0.411,0.729,0.811,0,0.8
	c-0.729-0.012-1.653,0.493-1.117,0.713c0.534,0.219,1.748,1.071,0.825,0.945c-0.924-0.126-1.29,0.693-0.985,0.851
	c0.306,0.158,1.083,0.473,0.354,0.567c-0.729,0.095-2.237,0.567-1.41,0.883C150.365,80.15,150.998,80.227,150.998,80.227z"/>
<path fill="#0C4223" d="M145.142,78.188c0,0,1.349,0.476,2.633,0.348c1.284-0.128,1.72-0.745,1.443-1.129
	c-0.278-0.384-1.724-0.591-0.941-0.745s0.941-0.154,0.506-0.64c-0.436-0.489-0.775-0.55-0.385-0.719
	c0.391-0.17-0.289-0.418-0.367-0.658c-0.079-0.241-0.95-0.589-0.594-0.966c0.357-0.377-0.474-0.634-0.218-1.019
	c0.258-0.385,0-1.053,0-1.053s-0.499,1.89-1.211,1.863c-0.712-0.024-0.431,0.19-0.153,0.524c0.277,0.333,0.593,0.66,0,0.65
	c-0.594-0.01-1.346,0.401-0.91,0.581c0.436,0.179,1.424,0.872,0.672,0.769c-0.752-0.102-1.05,0.565-0.802,0.694
	c0.248,0.127,0.881,0.384,0.289,0.461c-0.594,0.078-1.821,0.462-1.149,0.718C144.627,78.125,145.142,78.188,145.142,78.188z"/>
<path fill="#0C4223" d="M344.879,136.581c0,0,4.851,1.711,9.467,1.249c4.617-0.461,6.183-2.674,5.186-4.059
	c-0.995-1.383-6.194-2.121-3.382-2.674c2.813-0.554,3.382-0.554,1.818-2.306c-1.565-1.753-2.789-1.971-1.383-2.583
	c1.403-0.611-1.035-1.499-1.32-2.365c-0.285-0.864-3.413-2.119-2.134-3.476c1.28-1.355-1.705-2.279-0.782-3.662
	c0.924-1.384,0-3.782,0-3.782s-1.794,6.79-4.354,6.7c-2.561-0.093-1.551,0.68-0.554,1.879c0.996,1.2,2.133,2.375,0,2.34
	c-2.135-0.033-4.837,1.442-3.272,2.088c1.564,0.646,5.12,3.135,2.418,2.768c-2.702-0.369-3.775,2.029-2.884,2.49
	c0.893,0.461,3.169,1.384,1.035,1.661s-6.545,1.66-4.126,2.582C343.031,136.355,344.879,136.581,344.879,136.581z"/>
<path fill="#0C4223" d="M322.848,97.514c0,0,4.852,1.711,9.467,1.249c4.617-0.46,6.183-2.674,5.187-4.059
	c-0.996-1.383-6.196-2.121-3.382-2.675c2.813-0.553,3.382-0.553,1.817-2.306c-1.565-1.753-2.789-1.971-1.383-2.583
	c1.404-0.611-1.035-1.499-1.319-2.364c-0.285-0.863-3.415-2.12-2.135-3.476c1.28-1.355-1.705-2.277-0.781-3.662
	c0.924-1.384,0-3.782,0-3.782s-1.795,6.792-4.355,6.699c-2.561-0.092-1.551,0.681-0.554,1.879c0.996,1.201,2.133,2.377,0,2.341
	c-2.135-0.033-4.836,1.442-3.271,2.088c1.563,0.646,5.119,3.135,2.418,2.767c-2.703-0.369-3.776,2.029-2.885,2.491
	c0.894,0.461,3.169,1.384,1.035,1.661c-2.133,0.277-6.545,1.66-4.126,2.582C321,97.289,322.848,97.514,322.848,97.514z"/>
<path fill="#00632E" d="M367.788,110.008c0,0,4.851,1.71,9.467,1.249c4.616-0.461,6.182-2.675,5.186-4.059s-6.196-2.121-3.382-2.675
	c2.813-0.553,3.382-0.553,1.816-2.307c-1.563-1.752-2.789-1.971-1.383-2.582c1.405-0.61-1.034-1.499-1.319-2.364
	c-0.285-0.864-3.413-2.12-2.133-3.476c1.28-1.356-1.706-2.279-0.782-3.663c0.924-1.383,0-3.781,0-3.781s-1.795,6.791-4.356,6.699
	c-2.559-0.092-1.549,0.681-0.552,1.88c0.995,1.2,2.133,2.376,0,2.341c-2.135-0.033-4.837,1.441-3.273,2.087
	c1.564,0.646,5.121,3.136,2.418,2.768c-2.702-0.37-3.775,2.029-2.884,2.491c0.893,0.461,3.169,1.383,1.035,1.66
	c-2.133,0.277-6.545,1.661-4.125,2.582C365.937,109.781,367.788,110.008,367.788,110.008z"/>
<path fill="#97BF0D" d="M336.968,100.588c0,0,3.936,1.389,7.683,1.014c3.747-0.374,5.018-2.17,4.21-3.293
	c-0.809-1.123-5.029-1.722-2.745-2.171c2.282-0.449,2.745-0.449,1.475-1.872c-1.27-1.421-2.264-1.6-1.123-2.096
	c1.141-0.495-0.839-1.216-1.069-1.919c-0.232-0.7-2.773-1.721-1.733-2.82c1.04-1.101-1.383-1.851-0.634-2.974s0-3.069,0-3.069
	s-1.456,5.511-3.534,5.438c-2.078-0.075-1.259,0.551-0.45,1.525c0.809,0.974,1.731,1.928,0,1.899
	c-1.731-0.027-3.925,1.169-2.654,1.694c1.27,0.525,4.155,2.545,1.961,2.247c-2.193-0.299-3.063,1.646-2.34,2.021
	c0.724,0.375,2.571,1.123,0.84,1.349c-1.731,0.225-5.312,1.348-3.349,2.095C335.467,100.405,336.968,100.588,336.968,100.588z"/>
<path fill="#00632E" d="M355.776,103.592c0,0,3.936,1.389,7.683,1.014c3.748-0.374,5.018-2.17,4.21-3.293
	c-0.809-1.123-5.028-1.722-2.745-2.171c2.283-0.449,2.745-0.449,1.475-1.872c-1.271-1.422-2.265-1.6-1.123-2.096
	c1.141-0.497-0.839-1.217-1.069-1.919c-0.232-0.702-2.773-1.721-1.732-2.822c1.038-1.099-1.385-1.849-0.635-2.972
	c0.749-1.123,0-3.069,0-3.069s-1.456,5.511-3.534,5.437c-2.079-0.075-1.259,0.552-0.45,1.526c0.809,0.973,1.73,1.927,0,1.899
	s-3.925,1.169-2.654,1.694c1.269,0.524,4.154,2.545,1.961,2.247c-2.192-0.301-3.063,1.645-2.34,2.02
	c0.724,0.375,2.571,1.124,0.841,1.348c-1.733,0.226-5.313,1.348-3.351,2.096C354.276,103.409,355.776,103.592,355.776,103.592z"/>
<path fill="#008A2E" d="M345.048,103.592c0,0,3.938,1.388,7.684,1.013c3.746-0.374,5.017-2.17,4.21-3.293
	c-0.81-1.123-5.03-1.722-2.745-2.171c2.281-0.448,2.745-0.448,1.474-1.872c-1.27-1.422-2.263-1.6-1.123-2.096
	c1.141-0.496-0.839-1.217-1.07-1.919c-0.23-0.702-2.771-1.721-1.73-2.821c1.038-1.1-1.385-1.85-0.636-2.973
	c0.75-1.124,0-3.069,0-3.069s-1.456,5.512-3.533,5.437c-2.078-0.075-1.26,0.552-0.45,1.526c0.808,0.973,1.731,1.928,0,1.899
	c-1.731-0.027-3.925,1.169-2.655,1.694c1.27,0.524,4.155,2.545,1.961,2.247c-2.192-0.3-3.063,1.646-2.339,2.02
	c0.724,0.375,2.571,1.125,0.84,1.349c-1.732,0.225-5.313,1.347-3.35,2.096C343.548,103.408,345.048,103.592,345.048,103.592z"/>
<path fill="#008A2E" d="M326.894,190.377c0,0,5.877,2.074,11.472,1.515c5.593-0.56,7.49-3.24,6.283-4.918
	c-1.206-1.679-7.509-2.571-4.099-3.242c3.408-0.671,4.099-0.671,2.202-2.795c-1.896-2.124-3.38-2.39-1.677-3.13
	s-1.254-1.817-1.598-2.864c-0.346-1.049-4.137-2.57-2.586-4.213c1.551-1.642-2.066-2.76-0.946-4.438c1.119-1.676,0-4.583,0-4.583
	s-2.175,8.23-5.277,8.119c-3.104-0.111-1.878,0.824-0.672,2.276c1.207,1.455,2.586,2.879,0,2.838
	c-2.586-0.043-5.86,1.746-3.965,2.527c1.896,0.785,6.206,3.802,2.931,3.355c-3.274-0.447-4.577,2.459-3.494,3.018
	c1.081,0.56,3.839,1.676,1.253,2.013c-2.586,0.335-7.93,2.012-4.999,3.129C324.654,190.104,326.894,190.377,326.894,190.377z"/>
<path fill="#41A62A" d="M49.238,245.214c0,0-13.679-1.095-8.873-7.26c4.806-6.167,12.57-7.365,7.024-10.243
	c-5.546-2.877-4.297-6.235,1.918-8.631c6.215-2.396-4.137-4.222,1.41-7.745c5.545-3.523,9.981-5.2,3.697-8.318
	c-6.285-3.117-4.806-5.276-0.739-8.393c4.066-3.116,12.2-12.467,11.83-8.392c-0.369,4.075-4.043,7.672,0.012,10.789
	c4.056,3.118-4.488,6.396,5.535,8.632c10.022,2.235,9.074,6.87,4.722,7.391c-4.353,0.521-10.638,4.261-3.982,8.506
	c6.654,4.244,9.089,8.607,4.436,10.237c-4.653,1.632-7.394,8.704-1.479,10.706s1.109,5.118-2.958,4.879
	C67.724,247.133,49.238,245.214,49.238,245.214z"/>
<g>
	<path fill="#B07F48" d="M394.435,270.63c0,0,20.424-13.908,16.933-20.621c-3.49-6.713-1.687-11.618,0-15.64
		c1.685-4.021-1.84-10.731,16.93-5.458c18.769,5.273,42.432,18.054,47.607,13.582c5.178-4.472,1.43-16.217,22.596-16.374
		c21.166-0.157,44.699,17.657,60.228,18.616c15.525,0.958,23.662,9.488,26.619,16.252c2.957,6.766,14.049,17.296,14.049,17.296
		H384.991L394.435,270.63z"/>
	<path fill="#915E36" d="M494.023,226.118c0,0-12.201-1.154-9.982,13.287c2.218,14.44-1.378,17.936,4.856,21.582
		c6.235,3.647,34.896-7.639,27.679,1.249c-7.215,8.89-10.352,10.07-10.352,10.07s27.498-11.603,20.033,1.151
		c-7.463,12.756,43.563,4.125,55.762,4.843c12.201,0.72,12.201,0.72,12.201,0.72l5.176-0.737c0,0-13.814-28.015-28.969-31.011
		c-15.156-2.997-33.449-8.403-44.521-14.314C511.029,225.02,494.023,226.118,494.023,226.118z"/>
	<path fill="#41281B" d="M415.365,236.582c0,0-2.313,6.714,3.234,3.837c5.544-2.877,6.285-3.837,6.285-3.837
		s-2.046,4.315,3.413,6.234c5.46,1.919,7.678,3.838,7.309,8.393s-7.309,3.596-7.309-2.397c0-5.995-0.456-8.872-7.111-5.995
		s-10.766,1.679-9.818-1.199C412.312,238.74,415.365,236.582,415.365,236.582z"/>
	<path fill="#41281B" d="M431.168,260.987c0,0,9.242-7.141,20.336-5.463c11.092,1.678,18.486,7.882,24.032-0.256
		c5.546-8.136,1.854-18.539,5.468-22.259c3.617-3.719,11.65-8.129,11.041,0c-0.611,8.129,7.892-0.023,6.044,7.889
		c-1.848,7.913-5.176,3.598-2.218,5.994s-8.098,3.835-3.679,8.871c4.419,5.034-3.733,7.417-12.219,5.224
		c-8.486-2.192-13.047-4.409-15.214,0.817c-2.164,5.229-12.517,2.109-18.063,4.747c-5.547,2.64-6.576,0.292-11.054-2.637
		C431.168,260.987,431.168,260.987,431.168,260.987z"/>
	<path fill="#41281B" d="M398.875,270.63c0,0,8.589-2.638,12.493,0c3.903,2.637,5.752-3.118,7.602-4.796
		c1.848-1.679-6.657,2.156-8.874,0c-2.218-2.159-3.695-1.709-7.025-0.438C399.74,266.665,398.875,270.63,398.875,270.63z"/>
	<path fill="#41281B" d="M506.225,272.307c0,0,24.031-9.589,21.443-2.638c-2.588,6.953-2.588,6.953-2.588,6.953h9.242
		c0,0-5.545-5.514-1.848-10.548c3.697-5.036,4.438-10.352,4.807-12.01s-2.955,7.213-8.873,8.892
		c-5.916,1.679-22.184,7.359-22.184,8.355C506.225,272.307,506.225,272.307,506.225,272.307z"/>
</g>
<path fill="#B07F48" d="M622.4,278.283c0,0,8.918-19.015,4.461-24.423c-4.461-5.409-21.742-14.269-19.512-16.313
	c2.23-2.045,1.275-3.482-0.199-6.72c-1.475-3.236-1.477-21.578,10.51-28.771c11.984-7.192,6.412-9.682,20.346-6.999
	c13.938,2.685,13.938,2.685,13.938,2.685s40.691-24.457,50.166-21.939c9.479,2.518,18.396,7.192,18.396,7.192
	s7.244-21.578,16.721-26.612c9.479-5.036,11.15-10.07,21.742-7.193c10.59,2.877,52.953,25.174,55.74,28.412
	c2.787,3.237,2.787,3.237,2.787,3.237s26.199,4.674,44.596,11.867c18.395,7.193,22.852,12.947,40.689,17.982
	s41.248,27.333,42.92,33.087c1.674,5.755,7.719-2.612,31.775,14.386c25.041,17.695,23.035,17.623,23.035,17.623v2.499H622.4z"/>
<path fill="#3E3D40" d="M977.26,272.906c0,0-4.438-7.552-12.756-10.789c-8.318-3.236-19.965-9.916-19.965-9.916
	s-1.664,1.284,4.438,8.119c6.1,6.832,6.1,6.832,6.1,6.832s2.219,3.597,10.537,5.754c8.318,2.158,11.646,1.799,11.646,1.799V272.906z
	"/>
<path fill="#3E3D40" d="M932.893,263.463c0,0,7.348-1.891,11.438,0c4.092,1.892,6.863,1.777,6.863,1.777s-0.982,1.216-7.424-5.81"/>
<path fill="#41281B" d="M932.893,250.609c-3.883-4.676-10.537-10.298-21.074-13.062c-10.539-2.763-14.42-6.72-21.629-8.158
	c-7.211-1.438-16.084-6.474-19.412,0c-3.326,6.473,1.664,4.687,3.328,8.996c1.664,4.312,16.084,1.434,16.084,6.469
	s8.318-7.553,23.291,1.438c14.977,8.991,22.74,9.374,19.412,13.138C929.564,263.196,932.893,250.609,932.893,250.609z"/>
<path fill="#915E36" d="M798.125,189.11c0,0,4.438,7.552,15.529,9.71c11.092,2.157,21.074,6.833,21.074,6.833
	s9.984-0.359,13.865,4.315c3.883,4.677,3.883,5.114,11.646,6.334c7.766,1.219,24.957-1.657,33.277,2.657
	c8.318,4.316,24.953,15.597,31.611,18.588c6.654,2.991,16.914,5.603,16.914,5.603s-22.461-21.953-35.217-26.848
	c-12.756-4.896-38.82,2.157-45.477-2.987c-6.654-5.145-12.201-9.46-17.746-9.819c-5.547-0.36-17.748-2.159-21.631-5.754
	c-3.881-3.598-15.527-2.519-16.637-5.036S798.125,189.11,798.125,189.11z"/>
<path fill="#673B15" d="M790.363,200.618c0,0,13.863,7.193,14.418,11.149s-3.883,0.359-7.209,0
	c-3.328-0.36,8.316,2.612,16.082,4.363c7.764,1.75,4.992,10.023,0,6.785c-4.99-3.237-17.748-6.785-17.748-6.785
	s0,6.971,12.203,9.936c12.199,2.964,10.385,7.999,10.385,7.999s15.127-5.035,24.553,0c9.43,5.035,1.578-3.868-12.201-10.07
	c-13.777-6.203-3.326-7.507,3.883-5.912c7.211,1.596-5.857-0.703-15.961-4.768c-10.104-4.065-10.658-8.021-10.658-9.819
	c0-1.8-10.803-2.996-9.984-0.36C798.945,205.771,790.363,200.618,790.363,200.618z"/>
<path fill="#41281B" d="M756.902,228.67c0,0,7.395,6.321,11.832,6.877c4.438,0.557,10.352,2.423,14.049,7.604
	c3.699,5.181,18.486,7.165,21.814,9.051c3.326,1.885,3.326,0,3.326,0s-1.85-4.83-9.799-5.789c-7.947-0.957-9.793-1.197-10.533-4.555
	c-0.742-3.356-14.42-9.111-18.119-9.59c-3.697-0.48,2.979-4.694,5.547-0.959c2.566,3.732,7.391,5.273,15.344,5.993
	c7.947,0.72,4.992,5.463,9.428,5.849c4.438,0.385,2.59,4.222,9.982,5.661c7.395,1.438,7.395,1.438,7.395,1.438
	s-10.354-5.276-11.092-8.153s-8.508-0.72-7.951-4.315c0.559-3.597-10.168-3.116-14.232-4.795c-4.066-1.678-9.98-6.232-14.049-5.755
	C765.775,227.711,756.902,228.67,756.902,228.67z"/>
<path fill="#915E36" d="M794.984,253.28c0,0,14.789,12.313,16.268,17.588s2.961,7.415,2.961,7.415s1.107-7.111,8.871-3.557
	c7.766,3.557,11.461,3.557,11.461,3.557s-13.311-5.257-17.377-9.332c-4.064-4.076,0.371-4.759-5.545-6.576
	C805.705,260.56,794.984,253.28,794.984,253.28z"/>
<path fill="#41281B" d="M665.58,204.694c0,0,0.367,4.796-1.85,5.274c-2.219,0.479,8.135,0.46,8.504,3.347
	s12.203,11.279,12.203,11.279s-0.373-5.034,8.131-3.597c8.506,1.439,27.361,3.597,27.361,3.597s-4.438-4.871-2.959-6.512
	c1.479-1.64-19.965-11.71-22.184-8.114c-2.219,3.597-5.916,11.029-9.984,4.677C680.738,208.29,665.58,204.694,665.58,204.694z"/>
<path fill="#41281B" d="M723.258,232.508c0,0,4.805,10.069,13.678,12.228c8.873,2.157,16.639,6.714,17.01,11.508
	c0.369,4.795,0,6.132,0,6.132s5.916-6.742,8.135-2.242c2.217,4.502,4.066,5.648,4.066,5.648s-2.59-7.238,2.219-6.351
	c4.807,0.89,4.807,0.89,4.807,0.89s-3.33-4.489-5.178-8.119s-10.352,0.395-19.781-9.051
	C738.785,233.706,723.258,232.508,723.258,232.508z"/>
<path fill="#41281B" d="M699.965,265.781l9.24,12.502h7.766c0,0-5.916-2.208-4.438-6.25c1.482-4.043,8.877,0.319,10.725,2.693
	c1.85,2.376-7.764-8.892-8.875-13.447c-1.109-4.557-0.738,15.806-7.023,8.502C701.074,262.477,699.965,265.781,699.965,265.781z"/>
<path fill="#41281B" d="M652.639,213.315c0,0-2.588,4.325,2.588,5.765c5.176,1.438,15.898,9.828,12.201,11.509
	c-3.697,1.679-3.697,1.679-3.697,1.679s7.766-0.48,11.832,5.754c4.066,6.233,8.504,6.714,8.504,6.714s-8.137-6.953-7.027-12.228
	c1.111-5.276,11.094-3.483,11.094-3.483s-16.268,4.43-16.268,0s-11.096-11.767-13.684-12.894
	C655.598,215.005,652.639,213.315,652.639,213.315z"/>
<path fill="#41281B" d="M678.889,198.461c0,0,17.035-1.328,27.49,1.672c2.119,0.607,3.967,1.394,5.348,2.403
	c8.203,5.994,17.445,11.008,25.209,10.779c7.764-0.229,11.465,2.167,15.162,1.33c3.693-0.84,3.326,1.057,8.502-1.33
	c5.176-2.386,7.027-6.818,7.027-6.818s-2.959,7.787-19.414,4.191c-16.451-3.597-17.564,1.2-20.15-2.637s-14.789-9.112-19.223-11.03
	C704.4,195.104,678.889,198.461,678.889,198.461z"/>
<path fill="#00632E" d="M799.42,232.508c0,0,36.605,0.806,42.15,3.039c5.547,2.234,18.795-4.148,26.25,0
	c7.455,4.149,23.297,8.229,24.035,11.825s21.271-4.691,27.459,2.21c6.184,6.9,13.211,10.312,20.234,13.881
	c7.023,3.57,30.688,14.82,30.688,14.82s-33.271-1.391-48.434-8.839c-15.16-7.446-42.152-15.359-60.637-12.962
	c-18.486,2.398-38.951-5.805-42.398-13.332S799.42,232.508,799.42,232.508z"/>
<path fill="#41A62A" d="M417.508,216.575c0,0,8.247,2.909,16.097,2.124c7.852-0.785,10.513-4.549,8.82-6.902
	c-1.694-2.354-10.536-3.607-5.752-4.55c4.783-0.94,5.752-0.94,3.09-3.922c-2.66-2.98-4.741-3.354-2.352-4.392
	c2.389-1.039-1.76-2.549-2.242-4.021c-0.485-1.47-5.808-3.604-3.63-5.91c2.177-2.306-2.899-3.874-1.33-6.228
	c1.571-2.354,0-6.432,0-6.432s-3.051,11.55-7.403,11.392c-4.354-0.156-2.637,1.157-0.944,3.198c1.694,2.04,3.629,4.039,0,3.979
	c-3.63-0.058-8.223,2.451-5.563,3.551c2.659,1.099,8.708,5.333,4.112,4.706c-4.597-0.629-6.423,3.449-4.904,4.235
	c1.518,0.784,5.387,2.354,1.76,2.824c-3.629,0.471-11.129,2.824-7.018,4.391C414.363,216.189,417.508,216.575,417.508,216.575z"/>
<path fill="#41A62A" d="M966.02,247.766c0,0,5.82,2.054,11.357,1.499c5.541-0.552,7.42-3.209,6.223-4.869
	c-1.195-1.661-7.434-2.546-4.059-3.211c3.377-0.664,4.059-0.664,2.184-2.767c-1.881-2.104-3.348-2.366-1.66-3.1
	c1.684-0.733-1.242-1.798-1.584-2.836c-0.342-1.037-4.098-2.545-2.561-4.172c1.537-1.625-2.045-2.733-0.938-4.393
	c1.107-1.661,0-4.539,0-4.539s-2.152,8.149-5.225,8.038c-3.07-0.111-1.861,0.817-0.666,2.256c1.195,1.44,2.559,2.852,0,2.81
	c-2.561-0.04-5.803,1.729-3.926,2.504c1.877,0.776,6.145,3.762,2.902,3.321c-3.242-0.443-4.533,2.435-3.461,2.989
	c1.068,0.553,3.803,1.659,1.24,1.991c-2.559,0.333-7.852,1.993-4.947,3.1C963.799,247.494,966.02,247.766,966.02,247.766z"/>
<path fill="#0C4223" d="M978.424,249.577c0,0,6.268,2.21,12.23,1.615c5.965-0.597,7.986-3.456,6.699-5.245
	c-1.285-1.787-8.006-2.74-4.371-3.456c3.637-0.716,4.371-0.714,2.35-2.979s-3.605-2.548-1.787-3.337
	c1.814-0.788-1.336-1.937-1.703-3.053c-0.369-1.118-4.414-2.74-2.758-4.492c1.654-1.75-2.201-2.941-1.01-4.729
	c1.191-1.789,0-4.886,0-4.886s-2.318,8.774-5.625,8.653c-3.309-0.118-2.002,0.88-0.715,2.43c1.285,1.549,2.754,3.069,0,3.024
	c-2.758-0.045-6.25,1.861-4.229,2.695c2.021,0.835,6.615,4.052,3.125,3.575c-3.492-0.476-4.881,2.622-3.729,3.218
	c1.154,0.596,4.094,1.788,1.338,2.145c-2.756,0.358-8.455,2.147-5.33,3.338C976.035,249.283,978.424,249.577,978.424,249.577z"/>
<path fill="#0C4223" d="M950.93,237.995c0,0,5.822,2.053,11.359,1.499c5.541-0.553,7.418-3.209,6.223-4.869
	c-1.195-1.661-7.434-2.546-4.059-3.211c3.377-0.664,4.059-0.664,2.182-2.767c-1.877-2.104-3.348-2.367-1.662-3.1
	c1.688-0.733-1.24-1.799-1.582-2.837c-0.342-1.037-4.098-2.544-2.559-4.171c1.533-1.625-2.049-2.733-0.938-4.393
	c1.105-1.661,0-4.54,0-4.54s-2.154,8.15-5.225,8.039c-3.074-0.111-1.863,0.815-0.668,2.256c1.197,1.438,2.563,2.852,0,2.809
	c-2.561-0.041-5.801,1.729-3.926,2.505c1.879,0.776,6.146,3.762,2.9,3.321c-3.242-0.444-4.529,2.435-3.459,2.988
	s3.805,1.66,1.242,1.991c-2.559,0.334-7.852,1.994-4.951,3.101C948.711,237.724,950.93,237.995,950.93,237.995z"/>
</svg>
