<?xml version="1.0" encoding="utf-8"?>
<!-- Generator: Adobe Illustrator 14.0.0, SVG Export Plug-In . SVG Version: 6.00 Build 43363)  -->
<!DOCTYPE svg PUBLIC "-//W3C//DTD SVG 1.1//EN" "http://www.w3.org/Graphics/SVG/1.1/DTD/svg11.dtd">
<svg version="1.1" id="Capa_1" xmlns="http://www.w3.org/2000/svg" xmlns:xlink="http://www.w3.org/1999/xlink" x="0px" y="0px"
	 width="651.969px" height="212.599px" viewBox="0 0 651.969 212.599" enable-background="new 0 0 651.969 212.599"
	 xml:space="preserve">
<rect fill="#A2D7DA" width="652.515" height="212.878"/>
<g>
	<path fill="#F29400" d="M477.308,45.853c0,13.733-11.137,24.864-24.862,24.864c-13.735,0-24.869-11.131-24.869-24.864
		c0-13.733,11.134-24.864,24.869-24.864C466.171,20.989,477.308,32.12,477.308,45.853"/>
	<path fill="#F8B334" d="M471.312,47.385c0,11.426-9.264,20.693-20.694,20.693c-11.422,0-20.686-9.267-20.686-20.693
		c0-11.427,9.264-20.691,20.686-20.691C462.048,26.694,471.312,35.958,471.312,47.385"/>
	<path fill="#FCEA0D" d="M467.026,49.167c0,9.183-7.441,16.625-16.627,16.625c-9.181,0-16.628-7.443-16.628-16.625
		c0-9.184,7.447-16.625,16.628-16.625C459.585,32.542,467.026,39.983,467.026,49.167"/>
</g>
<path fill="#5F4C3F" d="M446.884,114.667c0,0,76.507-22.32,155.266,18.439c43.197,22.355,50.273,22.027,50.273,22.027l0.053,58.932
	L434.489,208.7L446.884,114.667z"/>
<path fill="#CBBB9D" d="M-3.185,20.793c0,0,30.719,6.031,77.249,6.023C120.596,26.81-5.77,5.731,104.192,38.06
	c109.965,32.329,320.185,110.074,336.15,128.457c15.966,18.382,69.691,47.55,69.691,47.55H0.123L-3.185,20.793z"/>
<path fill="#97BF0D" d="M638.893,167.636c0,0-6.618-1.387-4.605-2.775c2.017-1.387,4.319-3.975,3.745-4.809
	c-0.575-0.832-2.738-2.51-0.575-2.92c2.157-0.41,3.596-1.889,3.018-2.721c-0.573-0.834-1.472-1.572,0.128-2.869
	c1.599-1.293,4.621-2.311,3.757-3.236c-0.861-0.924-1.277-1.85,0.155-2.865c1.431-1.02,1.57-3.701,2.29-2.221
	c0.723,1.48,0.723,3.699,2.303,4.625c1.583,0.924-0.559,1.514,0,2.498c0.56,0.98,3.664,2.984,1.187,4.867
	c-2.479,1.885-1.761,6.029-0.034,6.73c1.725,0.703,3.546,2.275,0.982,3.107c-2.564,0.832-1.847,2.033-0.982,2.588
	c0.865,0.555-1.299,1.295-4.029,1.57C643.498,169.485,638.893,167.636,638.893,167.636z"/>
<path fill="#00632E" d="M383.903,126.759c0,0,5.692,1.99,11.108,1.453c5.418-0.535,7.259-3.111,6.088-4.723
	c-1.169-1.607-7.271-2.467-3.97-3.109c3.3-0.646,3.97-0.646,2.135-2.684c-1.838-2.041-3.275-2.297-1.627-3.008
	c1.652-0.711-1.212-1.744-1.547-2.75c-0.334-1.006-4.006-2.467-2.505-4.045c1.503-1.578-2.002-2.65-0.916-4.261
	c1.085-1.607,0-4.398,0-4.398s-2.107,7.9-5.113,7.792c-3.005-0.106-1.82,0.793-0.65,2.188c1.172,1.396,2.506,2.766,0,2.725
	c-2.501-0.041-5.676,1.678-3.84,2.428c1.837,0.754,6.012,3.65,2.84,3.221c-3.171-0.43-4.433,2.361-3.386,2.896
	c1.048,0.539,3.722,1.611,1.213,1.934c-2.503,0.322-7.68,1.934-4.84,3.006C381.729,126.495,383.903,126.759,383.903,126.759z"/>
<path fill="#008A2E" d="M533.115,114.14c0,0,10.064,1.553,12.075,0c2.014-1.553-6.844-4.932-4.427-4.406
	c2.416,0.523,2.011,3.631,6.44,2.854c4.429-0.775-5.636-1.811-3.625-5.693c2.014-3.881,2.683,1.812,4.764,0
	c2.083-1.813-6.37-4.141-4.764-6.21c1.611-2.071,5.355,2.07,5.096,0c-0.262-2.071-9.246-1.553-7.773-6.729
	c1.471-5.176-4.165-7.246-5.37-2.328c-1.209,4.916,0.802,7.762-2.416,7.245c-3.223-0.519-5.637,3.588-1.611,2.959
	c4.027-0.63,7.647,2.215,3.622,2.215c-4.023,0-7.438,0-5.729,1.553c1.705,1.554,4.12,5.679,0.899,4.134
	c-3.222-1.545-7.65,0.523-4.43,2.078C529.087,113.364,533.115,114.14,533.115,114.14z"/>
<path fill="#0C4223" d="M504.098,113.022c0,0,5.987,2.092,11.687,1.529c5.698-0.564,7.633-3.273,6.403-4.967
	c-1.229-1.691-7.649-2.595-4.176-3.273c3.471-0.679,4.176-0.679,2.241-2.822c-1.931-2.144-3.437-2.414-1.708-3.16
	c1.737-0.748-1.275-1.835-1.625-2.892c-0.355-1.058-4.213-2.595-2.636-4.254c1.583-1.66-2.104-2.788-0.964-4.481
	c1.141-1.694,0-4.628,0-4.628s-2.216,8.312-5.376,8.199s-1.916,0.833-0.687,2.3c1.233,1.466,2.638,2.905,0,2.865
	c-2.632-0.043-5.967,1.762-4.036,2.553c1.933,0.791,6.321,3.837,2.985,3.386c-3.335-0.45-4.663,2.482-3.559,3.05
	c1.1,0.563,3.91,1.692,1.276,2.032c-2.636,0.336-8.081,2.031-5.094,3.158C501.816,112.747,504.098,113.022,504.098,113.022z"/>
<path fill="#008A2E" d="M512.022,118.724c0,0,10.063,1.553,12.077,0c2.012-1.555-6.842-4.932-4.43-4.408
	c2.416,0.527,2.014,3.631,6.441,2.854c4.431-0.775-5.632-1.809-3.621-5.691c2.014-3.883,2.678,1.811,4.759,0
	c2.084-1.811-6.368-4.141-4.759-6.21c1.609-2.071,5.356,2.069,5.09,0c-0.26-2.071-9.243-1.555-7.773-6.729
	c1.477-5.176-4.16-7.246-5.366-2.329c-1.211,4.917,0.801,7.764-2.418,7.247c-3.222-0.519-5.637,3.589-1.609,2.958
	s7.648,2.216,3.624,2.216c-4.028,0-7.441,0-5.733,1.553c1.705,1.553,4.122,5.68,0.899,4.133c-3.221-1.545-7.647,0.527-4.429,2.078
	C507.996,117.946,512.022,118.724,512.022,118.724z"/>
<path fill="#97BF0D" d="M526.117,126.653c0,0-6.623-1.387-4.604-2.773c2.011-1.389,4.314-3.979,3.74-4.813
	c-0.579-0.83-2.736-2.508-0.579-2.916c2.158-0.41,3.599-1.893,3.025-2.725c-0.578-0.832-1.474-1.572,0.122-2.867
	c1.602-1.295,4.626-2.311,3.762-3.236c-0.862-0.926-1.277-1.85,0.153-2.866c1.427-1.02,1.571-3.701,2.291-2.221
	c0.725,1.48,0.725,3.698,2.303,4.623c1.582,0.924-0.563,1.518,0,2.497c0.562,0.984,3.663,2.99,1.186,4.871
	c-2.481,1.881-1.761,6.029-0.034,6.73c1.729,0.701,3.548,2.273,0.981,3.105c-2.563,0.834-1.847,2.035-0.981,2.59
	c0.862,0.557-1.295,1.295-4.028,1.572C530.722,128.503,526.117,126.653,526.117,126.653z"/>
<path fill="#41A62A" d="M585.293,131.144c0,0,5.99,2.094,11.688,1.527c5.7-0.561,7.632-3.273,6.4-4.965
	c-1.23-1.695-7.648-2.598-4.176-3.273c3.476-0.678,4.176-0.678,2.247-2.822c-1.933-2.145-3.445-2.412-1.708-3.16
	c1.731-0.748-1.276-1.834-1.631-2.893c-0.352-1.059-4.211-2.594-2.632-4.252c1.58-1.66-2.107-2.787-0.968-4.482
	c1.142-1.693,0-4.627,0-4.627s-2.212,8.308-5.373,8.197c-3.16-0.113-1.915,0.832-0.685,2.299c1.23,1.469,2.636,2.908,0,2.865
	c-2.635-0.041-5.972,1.762-4.04,2.555c1.931,0.789,6.32,3.838,2.987,3.385c-3.337-0.451-4.664,2.484-3.562,3.049
	c1.104,0.563,3.913,1.693,1.277,2.031c-2.635,0.34-8.079,2.033-5.093,3.16C583.015,130.866,585.293,131.144,585.293,131.144z"/>
<path fill="#97BF0D" d="M624.988,137.12c0,0-6.619-1.387-4.605-2.775c2.015-1.387,4.315-3.977,3.741-4.811
	c-0.575-0.832-2.735-2.51-0.575-2.918c2.16-0.41,3.595-1.889,3.02-2.721c-0.572-0.834-1.474-1.574,0.129-2.867
	c1.598-1.297,4.62-2.314,3.757-3.238s-1.28-1.85,0.151-2.867c1.433-1.018,1.576-3.699,2.295-2.219
	c0.718,1.479,0.718,3.697,2.301,4.623c1.585,0.924-0.56,1.514,0,2.498c0.56,0.98,3.665,2.984,1.185,4.867
	c-2.48,1.885-1.759,6.031-0.032,6.734c1.727,0.699,3.549,2.271,0.983,3.104s-1.846,2.035-0.983,2.59
	c0.863,0.553-1.295,1.293-4.029,1.572C629.591,138.968,624.988,137.12,624.988,137.12z"/>
<path fill="#008A2E" d="M632.189,145.862c0,0,6.443,2.254,12.581,1.646c6.134-0.607,8.213-3.523,6.89-5.346
	c-1.322-1.824-8.233-2.795-4.496-3.525c3.74-0.73,4.496-0.729,2.416-3.039c-2.078-2.309-3.704-2.598-1.838-3.402
	c1.87-0.805-1.376-1.975-1.751-3.115c-0.379-1.139-4.543-2.791-2.839-4.576c1.701-1.787-2.264-3.002-1.038-4.826
	c1.228-1.822,0-4.982,0-4.982s-2.385,8.949-5.787,8.824c-3.402-0.119-2.06,0.896-0.735,2.477c1.322,1.582,2.833,3.133,0,3.084
	c-2.836-0.043-6.428,1.9-4.35,2.75c2.078,0.854,6.805,4.135,3.214,3.646c-3.593-0.486-5.022,2.674-3.836,3.281
	c1.188,0.609,4.213,1.824,1.378,2.188c-2.834,0.365-8.698,2.189-5.482,3.402C629.731,145.565,632.189,145.862,632.189,145.862z"/>
<path fill="#0C4223" d="M603.904,134.054c0,0,5.988,2.092,11.683,1.525c5.701-0.563,7.631-3.271,6.405-4.965
	c-1.232-1.693-7.649-2.596-4.178-3.273c3.474-0.678,4.178-0.678,2.246-2.822c-1.933-2.143-3.444-2.414-1.707-3.162
	c1.729-0.746-1.277-1.832-1.63-2.891s-4.214-2.594-2.635-4.252c1.581-1.66-2.106-2.789-0.966-4.48c1.142-1.695,0-4.628,0-4.628
	s-2.213,8.308-5.374,8.195c-3.16-0.113-1.915,0.834-0.685,2.303s2.635,2.906,0,2.863c-2.635-0.041-5.968,1.762-4.039,2.553
	c1.932,0.793,6.324,3.84,2.984,3.389c-3.336-0.453-4.659,2.482-3.559,3.047c1.1,0.564,3.911,1.693,1.277,2.031
	c-2.632,0.34-8.077,2.031-5.092,3.16C601.619,133.774,603.904,134.054,603.904,134.054z"/>
<path fill="#00632E" d="M571.015,133.38c0,0,5.693,1.99,11.113,1.455c5.418-0.537,7.254-3.113,6.088-4.721
	c-1.171-1.611-7.273-2.471-3.975-3.115c3.305-0.645,3.975-0.643,2.138-2.684c-1.84-2.039-3.277-2.295-1.625-3.006
	c1.646-0.709-1.215-1.742-1.549-2.75c-0.337-1.006-4.008-2.465-2.505-4.045c1.504-1.574-2.003-2.65-0.917-4.26
	c1.084-1.607,0-4.399,0-4.399s-2.107,7.899-5.112,7.795c-3.006-0.109-1.819,0.791-0.647,2.188c1.165,1.393,2.503,2.764,0,2.721
	c-2.506-0.039-5.679,1.678-3.841,2.428c1.837,0.754,6.012,3.652,2.836,3.223c-3.17-0.43-4.431,2.361-3.384,2.898
	c1.046,0.535,3.719,1.609,1.213,1.93c-2.503,0.322-7.68,1.932-4.84,3.008C568.844,133.118,571.015,133.38,571.015,133.38z"/>
<path fill="#008A2E" d="M609.12,147.419c0,0,10.062,1.551,12.073,0c2.015-1.553-6.842-4.932-4.426-4.408
	c2.414,0.525,2.014,3.631,6.44,2.855c4.429-0.777-5.636-1.813-3.624-5.693c2.015-3.883,2.678,1.811,4.76,0
	c2.085-1.813-6.371-4.143-4.76-6.211c1.609-2.072,5.355,2.068,5.094,0c-0.262-2.072-9.248-1.555-7.774-6.729
	c1.473-5.176-4.162-7.246-5.371-2.33c-1.209,4.918,0.808,7.764-2.412,7.246c-3.223-0.52-5.637,3.59-1.612,2.959
	s7.647,2.217,3.623,2.217c-4.025,0-7.439,0-5.731,1.553c1.706,1.553,4.119,5.68,0.901,4.133c-3.221-1.547-7.648,0.525-4.431,2.078
	C605.091,146.642,609.12,147.419,609.12,147.419z"/>
<path fill="#0C4223" d="M620.368,152.687c0,0,5.988,2.096,11.685,1.529c5.699-0.564,7.633-3.273,6.404-4.967
	c-1.23-1.691-7.647-2.596-4.177-3.271c3.472-0.68,4.177-0.68,2.246-2.822c-1.934-2.145-3.444-2.414-1.71-3.162
	c1.735-0.748-1.274-1.834-1.628-2.891c-0.352-1.059-4.215-2.596-2.637-4.256c1.581-1.656-2.103-2.787-0.961-4.48
	c1.139-1.691,0-4.627,0-4.627s-2.214,8.311-5.374,8.197s-1.919,0.832-0.688,2.301c1.23,1.467,2.634,2.904,0,2.865
	c-2.633-0.043-5.967,1.762-4.039,2.553c1.933,0.791,6.323,3.836,2.986,3.385c-3.336-0.451-4.661,2.482-3.561,3.051
	c1.104,0.563,3.915,1.691,1.278,2.031c-2.632,0.336-8.077,2.031-5.094,3.16C618.088,152.409,620.368,152.687,620.368,152.687z"/>
<path fill="#0C4223" d="M580.102,146.3c0,0,5.989,2.096,11.685,1.529c5.7-0.564,7.632-3.275,6.405-4.967
	c-1.229-1.691-7.651-2.596-4.179-3.271c3.474-0.68,4.179-0.68,2.245-2.824c-1.932-2.145-3.441-2.41-1.708-3.158
	c1.734-0.75-1.276-1.836-1.628-2.895c-0.353-1.055-4.213-2.594-2.634-4.252c1.58-1.66-2.104-2.789-0.964-4.482
	c1.138-1.691,0-4.627,0-4.627s-2.217,8.311-5.375,8.197c-3.16-0.113-1.918,0.832-0.688,2.301c1.231,1.467,2.637,2.906,0,2.863
	c-2.631-0.041-5.969,1.764-4.038,2.555c1.932,0.791,6.323,3.838,2.984,3.387c-3.335-0.451-4.659,2.482-3.56,3.047
	c1.104,0.564,3.913,1.695,1.281,2.031c-2.637,0.342-8.082,2.033-5.098,3.162C577.821,146.024,580.102,146.3,580.102,146.3z"/>
<path fill="#41A62A" d="M495.56,113.759c0,0,5.987,2.094,11.685,1.529c5.698-0.564,7.631-3.273,6.402-4.967
	c-1.229-1.695-7.647-2.598-4.177-3.275c3.473-0.676,4.177-0.676,2.245-2.822c-1.932-2.143-3.443-2.412-1.707-3.159
	c1.733-0.747-1.276-1.835-1.63-2.894c-0.351-1.056-4.213-2.592-2.632-4.251c1.579-1.66-2.108-2.788-0.967-4.482
	c1.141-1.694,0-4.627,0-4.627s-2.214,8.311-5.373,8.195c-3.163-0.112-1.916,0.834-0.686,2.301c1.228,1.469,2.632,2.908,0,2.864
	c-2.637-0.042-5.968,1.765-4.039,2.555c1.931,0.791,6.319,3.837,2.984,3.387c-3.336-0.452-4.662,2.482-3.56,3.046
	c1.099,0.564,3.911,1.695,1.277,2.033c-2.631,0.338-8.077,2.033-5.091,3.16C493.274,113.483,495.56,113.759,495.56,113.759z"/>
<path fill="#00632E" d="M559.905,129.538c0,0,10.064,1.553,12.078,0c2.01-1.551-6.845-4.932-4.431-4.406
	c2.417,0.525,2.015,3.631,6.44,2.855c4.432-0.777-5.635-1.813-3.621-5.695c2.014-3.881,2.679,1.811,4.76,0
	c2.083-1.811-6.37-4.141-4.76-6.211c1.611-2.07,5.357,2.07,5.094,0s-9.247-1.553-7.776-6.729c1.474-5.174-4.16-7.246-5.367-2.328
	c-1.21,4.916,0.805,7.763-2.417,7.246c-3.223-0.518-5.636,3.588-1.61,2.959c4.027-0.629,7.648,2.215,3.625,2.215
	c-4.029,0-7.438,0-5.732,1.553c1.703,1.555,4.121,5.68,0.901,4.135c-3.222-1.545-7.648,0.525-4.428,2.078
	S559.905,129.538,559.905,129.538z"/>
<path fill="#00632E" d="M622.256,157.663c0,0,10.066,1.553,12.079,0c2.012-1.555-6.843-4.932-4.43-4.404
	c2.417,0.523,2.013,3.627,6.441,2.85c4.429-0.775-5.637-1.809-3.624-5.691c2.014-3.883,2.674,1.811,4.761,0
	c2.082-1.813-6.37-4.141-4.761-6.211c1.612-2.07,5.357,2.07,5.093,0c-0.262-2.07-9.246-1.551-7.774-6.727
	c1.475-5.178-4.163-7.246-5.368-2.33c-1.209,4.916,0.805,7.762-2.417,7.246c-3.219-0.518-5.636,3.588-1.612,2.957
	c4.029-0.627,7.651,2.219,3.627,2.219s-7.44,0-5.735,1.553c1.711,1.551,4.123,5.676,0.901,4.135
	c-3.219-1.547-7.647,0.523-4.426,2.074C618.229,156.886,622.256,157.663,622.256,157.663z"/>
<path fill="#97BF0D" d="M373.75,128.136c0,0-6.621-1.387-4.605-2.773c2.017-1.389,4.317-3.977,3.738-4.811
	c-0.574-0.832-2.731-2.51-0.574-2.918c2.158-0.41,3.599-1.891,3.021-2.723c-0.572-0.832-1.472-1.574,0.129-2.869
	c1.6-1.293,4.621-2.309,3.758-3.236c-0.866-0.924-1.279-1.849,0.152-2.866c1.431-1.019,1.575-3.698,2.293-2.221
	c0.72,1.48,0.72,3.698,2.303,4.624c1.583,0.926-0.563,1.518,0,2.5c0.561,0.982,3.665,2.986,1.186,4.867
	c-2.479,1.883-1.762,6.027-0.035,6.73c1.726,0.701,3.547,2.273,0.984,3.107c-2.567,0.83-1.848,2.033-0.984,2.588
	c0.862,0.557-1.294,1.295-4.029,1.572C378.35,129.987,373.75,128.136,373.75,128.136z"/>
<path fill="#00632E" d="M535.25,119.733c0,0-6.617-1.385-4.604-2.773c2.017-1.387,4.317-3.975,3.741-4.811
	c-0.574-0.83-2.734-2.508-0.574-2.92c2.156-0.408,3.593-1.888,3.02-2.72s-1.473-1.572,0.129-2.867
	c1.599-1.295,4.62-2.312,3.756-3.236c-0.862-0.926-1.275-1.849,0.152-2.867c1.432-1.018,1.573-3.7,2.295-2.222
	c0.719,1.481,0.719,3.7,2.3,4.625c1.585,0.923-0.561,1.515,0,2.497c0.562,0.984,3.666,2.989,1.186,4.868
	c-2.479,1.883-1.763,6.03-0.033,6.733c1.727,0.699,3.548,2.273,0.983,3.105c-2.567,0.832-1.847,2.033-0.983,2.588
	c0.865,0.557-1.297,1.297-4.029,1.572C539.854,121.585,535.25,119.733,535.25,119.733z"/>
<path fill="#0C4223" d="M464.608,111.259c0,0,3.523,1.232,6.875,0.9s4.486-1.926,3.764-2.92c-0.725-0.996-4.499-1.527-2.451-1.925
	c2.039-0.398,2.451-0.398,1.315-1.66c-1.135-1.26-2.024-1.417-1.002-1.857c1.017-0.439-0.753-1.079-0.958-1.701
	c-0.207-0.622-2.481-1.526-1.55-2.501c0.927-0.976-1.239-1.64-0.569-2.636c0.674-0.996,0-2.721,0-2.721s-1.301,4.886-3.16,4.821
	c-1.858-0.068-1.123,0.488-0.402,1.352c0.723,0.862,1.548,1.71,0,1.685c-1.549-0.024-3.51,1.036-2.375,1.502
	c1.137,0.465,3.714,2.258,1.754,1.992c-1.957-0.268-2.739,1.46-2.094,1.792c0.649,0.331,2.302,0.997,0.753,1.194
	c-1.549,0.199-4.751,1.195-2.997,1.859C463.269,111.099,464.608,111.259,464.608,111.259z"/>
<path fill="#008A2E" d="M588.024,152.001c0,0,10.064,1.553,12.077,0c2.016-1.553-6.842-4.932-4.426-4.408
	c2.413,0.527,2.013,3.631,6.441,2.855c4.425-0.777-5.636-1.811-3.626-5.693c2.014-3.881,2.679,1.811,4.762,0
	s-6.371-4.141-4.762-6.211c1.61-2.07,5.357,2.07,5.094,0c-0.262-2.07-9.247-1.551-7.773-6.727c1.473-5.178-4.163-7.248-5.37-2.332
	c-1.209,4.918,0.805,7.764-2.417,7.248c-3.219-0.518-5.636,3.588-1.607,2.957c4.024-0.629,7.647,2.219,3.622,2.219
	c-4.026,0-7.441,0-5.73,1.553c1.704,1.553,4.118,5.68,0.895,4.131c-3.219-1.545-7.647,0.527-4.426,2.078
	C583.996,151.224,588.024,152.001,588.024,152.001z"/>
<path fill="#008A2E" d="M542.453,128.479c0,0,6.441,2.254,12.58,1.645c6.137-0.605,8.213-3.523,6.891-5.348
	c-1.322-1.82-8.234-2.795-4.493-3.525c3.739-0.727,4.493-0.727,2.412-3.037c-2.077-2.309-3.706-2.596-1.838-3.402
	c1.868-0.805-1.375-1.975-1.752-3.113c-0.376-1.139-4.54-2.793-2.838-4.58c1.702-1.787-2.263-3.002-1.037-4.824
	c1.228-1.823,0-4.983,0-4.983s-2.382,8.948-5.787,8.826c-3.403-0.121-2.062,0.897-0.736,2.475c1.323,1.58,2.836,3.131,0,3.086
	c-2.835-0.047-6.429,1.896-4.349,2.748c2.079,0.852,6.808,4.133,3.213,3.646c-3.593-0.484-5.018,2.674-3.832,3.281
	s4.21,1.824,1.374,2.189c-2.835,0.363-8.697,2.186-5.482,3.402C539.991,128.181,542.453,128.479,542.453,128.479z"/>
<path fill="#0C4223" d="M514.167,116.667c0,0,5.988,2.094,11.684,1.529c5.7-0.564,7.634-3.275,6.403-4.967
	c-1.229-1.693-7.649-2.598-4.175-3.275c3.472-0.676,4.175-0.676,2.244-2.821c-1.932-2.144-3.443-2.412-1.709-3.158
	c1.735-0.749-1.275-1.835-1.629-2.895c-0.351-1.057-4.214-2.593-2.634-4.25c1.582-1.661-2.107-2.791-0.961-4.483
	c1.136-1.694,0-4.627,0-4.627s-2.218,8.31-5.377,8.196c-3.161-0.114-1.915,0.833-0.688,2.3c1.229,1.469,2.635,2.907,0,2.864
	c-2.634-0.042-5.968,1.765-4.037,2.555c1.932,0.79,6.32,3.838,2.986,3.386c-3.339-0.45-4.662,2.482-3.563,3.048
	c1.104,0.563,3.913,1.693,1.278,2.031c-2.633,0.34-8.077,2.031-5.093,3.16S514.167,116.667,514.167,116.667z"/>
<path fill="#00632E" d="M481.279,115.995c0,0,5.693,1.992,11.111,1.453c5.418-0.535,7.256-3.113,6.085-4.719
	c-1.168-1.611-7.272-2.473-3.967-3.115c3.3-0.645,3.967-0.643,2.13-2.683c-1.836-2.041-3.271-2.294-1.623-3.004
	c1.648-0.713-1.212-1.744-1.548-2.751c-0.334-1.005-4.008-2.467-2.504-4.044c1.505-1.577-2.001-2.652-0.919-4.262
	c1.087-1.608,0-4.399,0-4.399s-2.102,7.903-5.11,7.795c-3.004-0.107-1.82,0.791-0.651,2.188c1.172,1.394,2.507,2.763,0,2.723
	c-2.502-0.042-5.676,1.677-3.839,2.427c1.837,0.753,6.008,3.65,2.839,3.221c-3.172-0.428-4.436,2.363-3.386,2.898
	c1.048,0.535,3.719,1.611,1.214,1.934c-2.505,0.318-7.681,1.932-4.842,3.004C479.106,115.731,481.279,115.995,481.279,115.995z"/>
<path fill="#97BF0D" d="M506.698,122.161c0,0-6.618-1.385-4.607-2.773c2.017-1.385,4.317-3.977,3.743-4.811
	c-0.575-0.83-2.735-2.508-0.575-2.918c2.156-0.408,3.594-1.889,3.02-2.723c-0.575-0.832-1.474-1.572,0.126-2.867
	s4.623-2.311,3.76-3.236c-0.862-0.926-1.281-1.849,0.151-2.867c1.432-1.018,1.576-3.7,2.292-2.219
	c0.721,1.479,0.721,3.699,2.302,4.624c1.586,0.924-0.559,1.515,0,2.497c0.563,0.983,3.667,2.987,1.187,4.868
	c-2.478,1.885-1.76,6.031-0.034,6.732c1.727,0.701,3.55,2.275,0.984,3.105c-2.566,0.834-1.845,2.035-0.984,2.588
	c0.867,0.559-1.295,1.297-4.028,1.574C511.302,124.013,506.698,122.161,506.698,122.161z"/>
<path fill="#008A2E" d="M519.383,130.032c0,0,10.063,1.551,12.076,0c2.012-1.553-6.843-4.93-4.427-4.406
	c2.414,0.525,2.01,3.631,6.438,2.854s-5.635-1.813-3.624-5.693c2.015-3.881,2.679,1.813,4.761,0
	c2.084-1.811-6.368-4.139-4.761-6.211c1.612-2.07,5.357,2.072,5.095,0c-0.262-2.07-9.245-1.551-7.774-6.729
	c1.473-5.175-4.164-7.246-5.37-2.328c-1.207,4.917,0.804,7.761-2.414,7.246c-3.223-0.516-5.638,3.59-1.611,2.959
	c4.025-0.631,7.646,2.217,3.622,2.217s-7.438,0-5.73,1.553c1.706,1.553,4.118,5.678,0.899,4.133
	c-3.222-1.543-7.648,0.525-4.429,2.076C515.354,129.257,519.383,130.032,519.383,130.032z"/>
<path fill="#0C4223" d="M530.631,135.302c0,0,5.989,2.094,11.688,1.527c5.698-0.561,7.632-3.271,6.401-4.965
	s-7.651-2.596-4.176-3.273c3.473-0.678,4.176-0.678,2.244-2.822c-1.934-2.145-3.444-2.414-1.71-3.16
	c1.735-0.748-1.276-1.834-1.628-2.893c-0.353-1.059-4.215-2.594-2.635-4.254c1.584-1.656-2.104-2.787-0.962-4.479
	c1.14-1.695,0-4.63,0-4.63s-2.216,8.312-5.374,8.199c-3.162-0.115-1.916,0.83-0.685,2.299c1.227,1.469,2.631,2.908,0,2.865
	c-2.637-0.041-5.974,1.764-4.039,2.553c1.932,0.793,6.32,3.838,2.983,3.389c-3.339-0.453-4.661,2.484-3.563,3.047
	c1.104,0.564,3.916,1.695,1.28,2.031c-2.636,0.342-8.079,2.033-5.094,3.162C528.352,135.024,530.631,135.302,530.631,135.302z"/>
<path fill="#97BF0D" d="M563.766,149.749c0,0,10.063,1.553,12.077,0c2.012-1.553-6.846-4.934-4.429-4.408
	c2.415,0.527,2.013,3.631,6.44,2.855c4.43-0.777-5.635-1.813-3.623-5.693c2.016-3.881,2.679,1.813,4.761,0
	c2.084-1.813-6.371-4.141-4.761-6.211c1.611-2.07,5.356,2.07,5.091,0c-0.259-2.07-9.243-1.555-7.769-6.729
	c1.471-5.176-4.165-7.246-5.373-2.328c-1.207,4.916,0.805,7.762-2.415,7.246c-3.222-0.518-5.636,3.588-1.608,2.959
	c4.023-0.631,7.649,2.215,3.621,2.215c-4.024,0-7.438,0-5.732,1.553c1.708,1.553,4.122,5.68,0.901,4.133
	c-3.22-1.543-7.648,0.527-4.427,2.078C559.743,148.972,563.766,149.749,563.766,149.749z"/>
<path fill="#00632E" d="M551.794,142.851c0,0,10.066,1.551,12.079,0c2.012-1.553-6.846-4.932-4.429-4.408
	c2.416,0.525,2.012,3.633,6.44,2.855c4.43-0.777-5.635-1.813-3.622-5.695c2.014-3.881,2.678,1.813,4.762,0
	c2.08-1.811-6.372-4.139-4.762-6.209s5.355,2.07,5.09,0c-0.26-2.07-9.246-1.553-7.771-6.729c1.474-5.176-4.165-7.246-5.369-2.33
	c-1.208,4.918,0.802,7.764-2.419,7.248c-3.22-0.516-5.637,3.588-1.606,2.959c4.025-0.631,7.647,2.215,3.622,2.215
	c-4.024,0-7.438,0-5.733,1.553c1.709,1.555,4.123,5.68,0.9,4.133c-3.219-1.543-7.647,0.525-4.426,2.078
	C547.771,142.075,551.794,142.851,551.794,142.851z"/>
<path fill="#41A62A" d="M523.997,146.952c0,0,10.063,1.551,12.078,0c2.011-1.555-6.845-4.934-4.431-4.408
	c2.416,0.525,2.013,3.631,6.441,2.854c4.43-0.775-5.636-1.811-3.623-5.691c2.012-3.883,2.677,1.811,4.761,0
	c2.083-1.813-6.369-4.143-4.761-6.213c1.612-2.07,5.354,2.07,5.092,0c-0.26-2.07-9.248-1.553-7.773-6.727
	c1.474-5.176-4.162-7.248-5.367-2.328c-1.207,4.916,0.803,7.762-2.417,7.244c-3.222-0.518-5.637,3.59-1.611,2.959
	c4.028-0.631,7.647,2.215,3.625,2.215c-4.024,0-7.44,0-5.735,1.555c1.711,1.553,4.123,5.678,0.902,4.133
	c-3.222-1.547-7.648,0.525-4.429,2.078C519.97,146.175,523.997,146.952,523.997,146.952z"/>
<path fill="#0C4223" d="M490.367,128.915c0,0,5.984,2.094,11.682,1.529c5.702-0.564,7.634-3.273,6.405-4.967
	c-1.229-1.691-7.648-2.596-4.178-3.271c3.475-0.68,4.178-0.68,2.244-2.822c-1.933-2.146-3.442-2.414-1.706-3.162
	c1.731-0.748-1.279-1.836-1.628-2.891c-0.354-1.059-4.215-2.596-2.636-4.254c1.58-1.66-2.105-2.789-0.964-4.482
	c1.139-1.691,0-4.629,0-4.629s-2.214,8.312-5.375,8.199c-3.159-0.113-1.917,0.832-0.687,2.301c1.231,1.469,2.633,2.906,0,2.865
	c-2.631-0.045-5.968,1.762-4.036,2.553c1.933,0.791,6.319,3.836,2.983,3.387c-3.336-0.451-4.662,2.482-3.561,3.047
	c1.103,0.564,3.912,1.693,1.278,2.033c-2.634,0.338-8.079,2.031-5.092,3.158C488.08,128.64,490.367,128.915,490.367,128.915z"/>
<path fill="#0C4223" d="M573.186,161.302c0,0,5.989,2.094,11.688,1.527c5.697-0.564,7.632-3.273,6.4-4.965
	c-1.23-1.693-7.649-2.596-4.175-3.273c3.472-0.678,4.175-0.678,2.246-2.822c-1.934-2.145-3.445-2.412-1.711-3.16
	c1.735-0.748-1.275-1.834-1.629-2.895c-0.349-1.055-4.214-2.592-2.632-4.252c1.58-1.658-2.104-2.789-0.966-4.48
	c1.143-1.691,0-4.629,0-4.629s-2.215,8.313-5.374,8.199c-3.162-0.113-1.915,0.832-0.685,2.299c1.227,1.469,2.636,2.908,0,2.863
	c-2.634-0.039-5.973,1.766-4.039,2.557c1.931,0.791,6.318,3.836,2.985,3.387c-3.337-0.453-4.661,2.48-3.561,3.047
	c1.103,0.564,3.91,1.693,1.278,2.031c-2.638,0.34-8.079,2.033-5.093,3.16C570.906,161.026,573.186,161.302,573.186,161.302z"/>
<path fill="#97BF0D" d="M471.558,129.853c0,0,10.062,1.551,12.074,0c2.015-1.555-6.843-4.934-4.426-4.408
	c2.413,0.525,2.012,3.631,6.44,2.854s-5.637-1.811-3.624-5.693c2.013-3.881,2.677,1.813,4.761,0s-6.372-4.141-4.761-6.211
	c1.609-2.07,5.355,2.07,5.094,0c-0.263-2.07-9.249-1.551-7.775-6.727c1.473-5.177-4.162-7.248-5.37-2.331
	c-1.209,4.917,0.807,7.762-2.413,7.247c-3.224-0.518-5.637,3.588-1.614,2.957c4.027-0.627,7.65,2.219,3.626,2.219
	c-4.028,0-7.438,0-5.735,1.551c1.707,1.553,4.125,5.682,0.903,4.135c-3.219-1.545-7.649,0.525-4.43,2.076
	C467.53,129.075,471.558,129.853,471.558,129.853z"/>
<path fill="#008A2E" d="M478.075,141.138c0,0,5.988,2.092,11.685,1.527c5.699-0.563,7.631-3.273,6.402-4.967
	c-1.23-1.691-7.647-2.596-4.175-3.271c3.472-0.678,4.175-0.678,2.244-2.822c-1.933-2.145-3.443-2.414-1.709-3.162
	c1.735-0.746-1.275-1.834-1.628-2.891c-0.352-1.057-4.215-2.594-2.635-4.254c1.582-1.66-2.105-2.787-0.964-4.482
	c1.14-1.693,0-4.627,0-4.627s-2.214,8.311-5.374,8.197s-1.917,0.834-0.686,2.303c1.229,1.465,2.633,2.904,0,2.863
	c-2.635-0.041-5.968,1.762-4.038,2.555c1.932,0.789,6.321,3.838,2.981,3.385c-3.334-0.451-4.658,2.484-3.557,3.047
	c1.104,0.564,3.909,1.695,1.276,2.031c-2.631,0.34-8.077,2.033-5.094,3.162C475.791,140.86,478.075,141.138,478.075,141.138z"/>
<path fill="#0C4223" d="M507.99,149.771c0,0,5.987,2.096,11.683,1.529c5.7-0.564,7.631-3.273,6.401-4.967
	c-1.227-1.693-7.647-2.596-4.176-3.273c3.475-0.678,4.176-0.678,2.246-2.822c-1.933-2.143-3.444-2.412-1.707-3.16
	c1.731-0.748-1.277-1.834-1.63-2.893s-4.213-2.592-2.632-4.252c1.578-1.66-2.106-2.789-0.967-4.48c1.14-1.695,0-4.629,0-4.629
	s-2.215,8.309-5.375,8.197c-3.16-0.113-1.916,0.832-0.685,2.301c1.23,1.467,2.632,2.904,0,2.863
	c-2.636-0.041-5.969,1.764-4.037,2.555c1.929,0.791,6.322,3.838,2.982,3.385c-3.336-0.451-4.659,2.484-3.56,3.049
	c1.102,0.564,3.913,1.693,1.276,2.031c-2.631,0.338-8.076,2.033-5.09,3.16C505.705,149.493,507.99,149.771,507.99,149.771z"/>
<path fill="#41A62A" d="M488.684,157.2c0,0,5.989,2.096,11.688,1.529c5.696-0.563,7.628-3.273,6.399-4.965
	c-1.229-1.693-7.648-2.596-4.176-3.275c3.473-0.676,4.176-0.676,2.244-2.822c-1.931-2.145-3.442-2.412-1.708-3.16
	c1.735-0.746-1.276-1.832-1.628-2.891c-0.351-1.059-4.214-2.596-2.632-4.256c1.578-1.656-2.108-2.785-0.969-4.479
	c1.143-1.691,0-4.631,0-4.631s-2.214,8.313-5.372,8.199c-3.164-0.113-1.917,0.832-0.686,2.301c1.229,1.467,2.637,2.908,0,2.865
	c-2.635-0.043-5.969,1.764-4.04,2.553c1.933,0.791,6.321,3.838,2.984,3.389c-3.334-0.453-4.659,2.482-3.558,3.047
	c1.103,0.564,3.909,1.691,1.277,2.029c-2.633,0.34-8.078,2.035-5.095,3.162C486.401,156.925,488.684,157.2,488.684,157.2z"/>
<path fill="#41A62A" d="M175.755,67.045c0,0,8.488,2.966,16.562,2.166c8.078-0.799,10.815-4.639,9.073-7.038
	c-1.743-2.4-10.841-3.679-5.92-4.64c4.925-0.959,5.92-0.959,3.183-4c-2.739-3.039-4.88-3.419-2.42-4.478
	c2.456-1.06-1.81-2.6-2.309-4.1c-0.5-1.499-5.973-3.676-3.734-6.027c2.239-2.351-2.983-3.952-1.366-6.35c1.613-2.401,0-6.56,0-6.56
	s-3.138,11.778-7.618,11.617c-4.478-0.16-2.713,1.181-0.972,3.262c1.744,2.08,3.735,4.118,0,4.059
	c-3.731-0.059-8.459,2.5-5.722,3.62c2.737,1.121,8.959,5.439,4.229,4.8c-4.729-0.641-6.607,3.518-5.045,4.319
	c1.563,0.8,5.544,2.399,1.811,2.879c-3.733,0.479-11.449,2.88-7.218,4.479C172.521,66.652,175.755,67.045,175.755,67.045z"/>
<path fill="#97BF0D" d="M232.008,75.514c0,0-9.379-1.965-6.528-3.932c2.859-1.966,6.121-5.636,5.305-6.817
	c-0.816-1.179-3.875-3.557-0.816-4.137c3.059-0.581,5.095-2.678,4.278-3.856c-0.812-1.181-2.083-2.23,0.184-4.065
	c2.264-1.835,6.548-3.276,5.324-4.587c-1.222-1.311-1.81-2.622,0.216-4.063c2.029-1.443,2.232-5.245,3.25-3.147
	c1.02,2.098,1.02,5.243,3.263,6.554c2.242,1.311-0.793,2.146,0,3.541c0.795,1.392,5.193,4.23,1.681,6.898
	c-3.516,2.67-2.499,8.547-0.05,9.541c2.446,0.992,5.027,3.222,1.392,4.401c-3.635,1.18-2.613,2.884-1.392,3.67
	c1.223,0.787-1.834,1.835-5.71,2.228C238.533,78.136,232.008,75.514,232.008,75.514z"/>
<path fill="#0C4223" d="M242.213,87.907c0,0,9.134,3.193,17.831,2.332c8.695-0.861,11.642-4.994,9.768-7.58
	c-1.876-2.583-11.671-3.96-6.371-4.995c5.299-1.033,6.371-1.032,3.422-4.305c-2.946-3.272-5.252-3.682-2.604-4.822
	c2.647-1.14-1.951-2.8-2.485-4.415c-0.534-1.613-6.433-3.958-4.021-6.489c2.413-2.532-3.21-4.254-1.471-6.838
	c1.741-2.583,0-7.062,0-7.062s-3.38,12.682-8.202,12.508c-4.824-0.172-2.92,1.271-1.042,3.51c1.873,2.239,4.017,4.436,0,4.371
	c-4.022-0.064-9.113,2.69-6.166,3.897c2.948,1.207,9.645,5.857,4.555,5.167c-5.09-0.689-7.115,3.789-5.433,4.649
	c1.683,0.862,5.969,2.584,1.949,3.101c-4.019,0.518-12.325,3.103-7.77,4.824C238.729,87.483,242.213,87.907,242.213,87.907z"/>
<path fill="#0C4223" d="M271.047,108.583c0,0,9.135,3.193,17.831,2.334c8.695-0.863,11.641-4.996,9.769-7.581
	c-1.875-2.583-11.672-3.961-6.373-4.997c5.299-1.032,6.373-1.03,3.423-4.305c-2.947-3.271-5.251-3.68-2.602-4.822
	c2.647-1.14-1.955-2.798-2.489-4.413c-0.533-1.615-6.432-3.959-4.02-6.49c2.413-2.532-3.208-4.254-1.472-6.838
	c1.744-2.583,0-7.062,0-7.062s-3.377,12.683-8.2,12.509c-4.824-0.172-2.92,1.271-1.043,3.51c1.874,2.239,4.019,4.435,0,4.371
	c-4.022-0.066-9.112,2.69-6.163,3.896c2.946,1.207,9.643,5.857,4.552,5.168c-5.089-0.689-7.113,3.79-5.43,4.651
	c1.68,0.86,5.968,2.583,1.949,3.1c-4.02,0.518-12.328,3.101-7.772,4.823C267.563,108.157,271.047,108.583,271.047,108.583z"/>
<path fill="#0C4223" d="M380.368,137.356c0,0,9.134,3.195,17.826,2.334c8.695-0.863,11.644-4.994,9.772-7.578
	c-1.877-2.584-11.675-3.963-6.375-4.996c5.298-1.035,6.375-1.031,3.421-4.307c-2.944-3.271-5.247-3.682-2.602-4.822
	c2.648-1.139-1.951-2.799-2.487-4.414c-0.535-1.615-6.431-3.957-4.02-6.49c2.411-2.529-3.207-4.252-1.47-6.837
	c1.743-2.583,0-7.062,0-7.062s-3.379,12.682-8.199,12.508c-4.825-0.172-2.921,1.271-1.045,3.511c1.872,2.238,4.017,4.436,0,4.369
	c-4.021-0.063-9.111,2.689-6.165,3.898c2.947,1.205,9.647,5.855,4.557,5.168c-5.092-0.689-7.114,3.789-5.435,4.65
	c1.681,0.859,5.97,2.582,1.948,3.1c-4.017,0.518-12.324,3.102-7.77,4.822C376.882,136.933,380.368,137.356,380.368,137.356z"/>
<path fill="#008A2E" d="M390.146,142.091c0,0,9.135,3.191,17.826,2.332c8.697-0.861,11.643-4.994,9.771-7.58
	c-1.877-2.582-11.675-3.961-6.374-4.994c5.3-1.033,6.374-1.031,3.423-4.305c-2.946-3.271-5.25-3.68-2.604-4.822
	c2.649-1.141-1.952-2.799-2.487-4.412c-0.536-1.615-6.43-3.961-4.019-6.492c2.409-2.531-3.208-4.253-1.471-6.836
	c1.739-2.584,0-7.063,0-7.063s-3.379,12.683-8.201,12.509c-4.823-0.172-2.92,1.271-1.043,3.51c1.872,2.24,4.017,4.436,0,4.373
	c-4.021-0.064-9.111,2.688-6.166,3.896c2.948,1.205,9.647,5.854,4.558,5.168c-5.09-0.689-7.114,3.787-5.433,4.648
	c1.68,0.859,5.969,2.584,1.946,3.1c-4.017,0.518-12.325,3.104-7.768,4.824C386.659,141.667,390.146,142.091,390.146,142.091z"/>
<path fill="#0C4223" d="M202.127,71.166c0,0,8.487,2.968,16.562,2.167c8.076-0.8,10.815-4.64,9.072-7.04
	c-1.743-2.399-10.84-3.679-5.918-4.639c4.922-0.96,5.918-0.96,3.182-4c-2.74-3.039-4.882-3.42-2.421-4.479
	c2.457-1.06-1.81-2.6-2.308-4.101c-0.499-1.498-5.974-3.676-3.734-6.027c2.243-2.351-2.984-3.95-1.366-6.35
	c1.614-2.399,0-6.559,0-6.559s-3.138,11.778-7.617,11.617c-4.478-0.161-2.715,1.181-0.972,3.262c1.743,2.079,3.734,4.118,0,4.057
	c-3.732-0.058-8.459,2.5-5.724,3.621c2.737,1.121,8.96,5.438,4.231,4.799c-4.73-0.64-6.607,3.52-5.047,4.319
	c1.564,0.799,5.547,2.399,1.811,2.879c-3.73,0.48-11.446,2.88-7.215,4.479C198.891,70.774,202.127,71.166,202.127,71.166z"/>
<path fill="#00632E" d="M155.517,70.216c0,0,8.068,2.82,15.746,2.059c7.681-0.76,10.285-4.412,8.628-6.691
	c-1.656-2.281-10.307-3.5-5.626-4.413c4.679-0.912,5.626-0.911,3.024-3.802c-2.604-2.891-4.642-3.252-2.301-4.259
	c2.337-1.007-1.722-2.472-2.195-3.898c-0.475-1.425-5.68-3.496-3.552-5.733c2.132-2.235-2.834-3.756-1.298-6.039
	c1.535-2.28,0-6.236,0-6.236s-2.985,11.199-7.244,11.047c-4.26-0.152-2.579,1.121-0.923,3.1c1.657,1.977,3.55,3.917,0,3.86
	c-3.548-0.059-8.043,2.376-5.443,3.44c2.603,1.066,8.52,5.173,4.023,4.564c-4.496-0.608-6.281,3.347-4.797,4.106
	c1.485,0.761,5.271,2.283,1.721,2.739c-3.549,0.456-10.884,2.738-6.862,4.259C152.44,69.841,155.517,70.216,155.517,70.216z"/>
<path fill="#008A2E" d="M209.517,90.108c0,0,14.263,2.202,17.117,0c2.852-2.2-9.698-6.988-6.276-6.244
	c3.423,0.743,2.851,5.145,9.128,4.044c6.277-1.1-7.988-2.566-5.136-8.067c2.854-5.501,3.797,2.566,6.749,0
	c2.952-2.568-9.029-5.868-6.749-8.802c2.284-2.934,7.592,2.934,7.221,0c-0.374-2.934-13.105-2.201-11.018-9.537
	c2.086-7.334-5.901-10.268-7.612-3.3c-1.712,6.969,1.141,11.003-3.423,10.27c-4.565-0.733-7.987,5.085-2.282,4.193
	c5.706-0.893,10.84,3.141,5.135,3.141c-5.707,0-10.541,0-8.123,2.201c2.416,2.201,5.839,8.049,1.276,5.858
	c-4.563-2.19-10.84,0.743-6.275,2.944C203.813,89.008,209.517,90.108,209.517,90.108z"/>
<path fill="#0C4223" d="M168.395,88.526c0,0,8.486,2.967,16.559,2.166c8.079-0.8,10.817-4.64,9.077-7.038
	c-1.743-2.401-10.84-3.68-5.918-4.64c4.919-0.96,5.918-0.96,3.179-4c-2.739-3.039-4.88-3.42-2.42-4.479
	c2.458-1.061-1.812-2.601-2.307-4.1c-0.5-1.499-5.974-3.676-3.736-6.028c2.243-2.351-2.981-3.951-1.365-6.35
	c1.616-2.4,0-6.559,0-6.559s-3.138,11.778-7.618,11.618c-4.481-0.161-2.714,1.18-0.969,3.261c1.743,2.08,3.731,4.119,0,4.059
	c-3.735-0.06-8.462,2.499-5.724,3.62c2.736,1.12,8.958,5.438,4.229,4.799c-4.728-0.64-6.606,3.519-5.045,4.319
	c1.563,0.8,5.545,2.4,1.812,2.879c-3.733,0.48-11.449,2.88-7.218,4.479C165.16,88.133,168.395,88.526,168.395,88.526z"/>
<path fill="#008A2E" d="M179.623,96.604c0,0,14.264,2.2,17.118,0c2.853-2.201-9.7-6.989-6.276-6.244
	c3.422,0.744,2.853,5.143,9.129,4.043c6.274-1.1-7.988-2.567-5.137-8.068c2.854-5.502,3.794,2.567,6.748,0
	c2.952-2.567-9.029-5.869-6.748-8.802c2.284-2.935,7.591,2.933,7.218,0c-0.37-2.935-13.106-2.202-11.017-9.536
	c2.088-7.335-5.899-10.269-7.61-3.3c-1.712,6.968,1.14,11.001-3.425,10.268c-4.564-0.733-7.986,5.086-2.281,4.193
	c5.706-0.892,10.84,3.143,5.135,3.143c-5.706,0-10.543,0-8.125,2.2c2.418,2.2,5.842,8.048,1.277,5.858
	c-4.564-2.191-10.841,0.744-6.275,2.943C173.917,95.503,179.623,96.604,179.623,96.604z"/>
<path fill="#97BF0D" d="M199.6,107.843c0,0-9.383-1.964-6.526-3.932c2.853-1.966,6.114-5.635,5.3-6.816
	c-0.816-1.179-3.875-3.557-0.816-4.138c3.057-0.58,5.099-2.678,4.283-3.856c-0.813-1.181-2.084-2.229,0.18-4.064
	c2.269-1.834,6.549-3.276,5.328-4.586c-1.225-1.312-1.814-2.623,0.214-4.065c2.025-1.442,2.231-5.243,3.253-3.145
	c1.017,2.097,1.017,5.242,3.261,6.553c2.242,1.31-0.797,2.146,0,3.539c0.795,1.393,5.193,4.233,1.679,6.9
	c-3.514,2.669-2.496,8.545-0.047,9.539c2.446,0.994,5.027,3.222,1.392,4.402c-3.636,1.182-2.617,2.883-1.392,3.669
	c1.222,0.787-1.835,1.836-5.709,2.229C206.124,110.466,199.6,107.843,199.6,107.843z"/>
<path fill="#41A62A" d="M283.471,114.206c0,0,8.485,2.969,16.561,2.168c8.077-0.801,10.814-4.639,9.072-7.039
	c-1.742-2.399-10.839-3.679-5.918-4.639c4.923-0.96,5.918-0.96,3.181-4c-2.739-3.039-4.879-3.419-2.421-4.479
	c2.457-1.06-1.808-2.6-2.308-4.1c-0.498-1.499-5.974-3.675-3.732-6.027c2.24-2.351-2.983-3.951-1.367-6.351
	c1.614-2.4,0-6.559,0-6.559s-3.138,11.778-7.616,11.618c-4.48-0.161-2.717,1.181-0.974,3.262c1.744,2.079,3.735,4.119,0,4.058
	c-3.731-0.059-8.46,2.501-5.723,3.62c2.736,1.12,8.961,5.438,4.23,4.8c-4.727-0.641-6.607,3.519-5.045,4.319
	c1.562,0.8,5.544,2.401,1.81,2.879c-3.733,0.48-11.45,2.881-7.216,4.479C280.234,113.815,283.471,114.206,283.471,114.206z"/>
<path fill="#97BF0D" d="M339.722,122.677c0,0-9.38-1.965-6.525-3.932c2.857-1.967,6.12-5.637,5.305-6.816s-3.876-3.559-0.815-4.139
	c3.057-0.58,5.095-2.677,4.278-3.856c-0.813-1.181-2.085-2.229,0.182-4.064c2.265-1.835,6.549-3.276,5.325-4.587
	c-1.225-1.311-1.813-2.622,0.218-4.063c2.025-1.442,2.228-5.244,3.248-3.146s1.021,5.242,3.262,6.554c2.243,1.31-0.792,2.146,0,3.54
	c0.797,1.393,5.198,4.231,1.682,6.899c-3.516,2.669-2.494,8.544-0.051,9.541c2.448,0.992,5.03,3.221,1.395,4.4
	c-3.635,1.182-2.615,2.885-1.395,3.67c1.228,0.785-1.833,1.836-5.71,2.229C346.246,125.3,339.722,122.677,339.722,122.677z"/>
<path fill="#008A2E" d="M349.929,135.069c0,0,9.133,3.193,17.829,2.332c8.697-0.859,11.644-4.994,9.77-7.58
	c-1.878-2.582-11.672-3.961-6.373-4.994c5.301-1.033,6.373-1.031,3.423-4.305c-2.946-3.271-5.252-3.682-2.604-4.822
	s-1.951-2.799-2.484-4.414c-0.536-1.613-6.432-3.958-4.023-6.49c2.415-2.532-3.206-4.254-1.471-6.837c1.743-2.583,0-7.062,0-7.062
	s-3.375,12.681-8.2,12.508c-4.821-0.173-2.919,1.271-1.042,3.51c1.874,2.238,4.019,4.435,0,4.371
	c-4.019-0.063-9.109,2.689-6.165,3.898c2.946,1.205,9.647,5.854,4.556,5.166c-5.088-0.688-7.112,3.789-5.434,4.65
	c1.683,0.859,5.969,2.584,1.95,3.098c-4.017,0.52-12.327,3.105-7.77,4.826C346.444,134.646,349.929,135.069,349.929,135.069z"/>
<path fill="#0C4223" d="M309.842,118.329c0,0,8.487,2.967,16.562,2.166c8.076-0.801,10.815-4.639,9.072-7.037
	c-1.744-2.4-10.84-3.682-5.92-4.641c4.924-0.959,5.92-0.959,3.183-4c-2.736-3.036-4.879-3.418-2.418-4.478
	c2.454-1.061-1.811-2.601-2.31-4.1c-0.5-1.499-5.975-3.676-3.732-6.028c2.238-2.35-2.986-3.951-1.369-6.35
	c1.615-2.4,0-6.559,0-6.559s-3.137,11.778-7.616,11.618c-4.48-0.161-2.716,1.18-0.972,3.26c1.743,2.08,3.732,4.118,0,4.059
	c-3.732-0.059-8.46,2.5-5.724,3.62c2.738,1.121,8.959,5.439,4.23,4.798c-4.729-0.639-6.606,3.519-5.045,4.322
	c1.562,0.797,5.543,2.398,1.808,2.879c-3.729,0.48-11.445,2.879-7.215,4.479C306.605,117.938,309.842,118.329,309.842,118.329z"/>
<path fill="#00632E" d="M263.233,117.378c0,0,8.068,2.822,15.747,2.061c7.68-0.762,10.282-4.412,8.627-6.691
	c-1.659-2.283-10.31-3.5-5.627-4.414c4.681-0.912,5.627-0.91,3.023-3.802c-2.604-2.891-4.643-3.252-2.303-4.259
	c2.339-1.008-1.719-2.471-2.193-3.899c-0.473-1.425-5.679-3.495-3.55-5.73c2.13-2.236-2.834-3.757-1.299-6.04
	c1.537-2.281,0-6.235,0-6.235s-2.983,11.198-7.244,11.047c-4.258-0.152-2.579,1.121-0.922,3.101c1.658,1.976,3.549,3.917,0,3.858
	c-3.549-0.057-8.043,2.377-5.441,3.442c2.601,1.065,8.518,5.172,4.022,4.563c-4.497-0.608-6.283,3.347-4.797,4.107
	c1.484,0.762,5.271,2.283,1.72,2.74c-3.548,0.455-10.885,2.736-6.862,4.258C260.156,117.003,263.233,117.378,263.233,117.378z"/>
<path fill="#008A2E" d="M304.499,134.675c0,0,14.265,2.199,17.118,0c2.854-2.201-9.699-6.988-6.275-6.246
	c3.423,0.742,2.852,5.145,9.129,4.045c6.274-1.102-7.988-2.568-5.136-8.068c2.853-5.502,3.795,2.566,6.745,0
	c2.954-2.566-9.028-5.869-6.745-8.801c2.282-2.936,7.591,2.932,7.22,0c-0.373-2.936-13.105-2.203-11.02-9.538
	c2.086-7.335-5.898-10.27-7.612-3.301c-1.712,6.969,1.142,11.002-3.423,10.27c-4.562-0.734-7.986,5.086-2.281,4.193
	c5.704-0.893,10.841,3.141,5.134,3.141c-5.704,0-10.542,0-8.123,2.203c2.419,2.199,5.841,8.047,1.277,5.855
	c-4.565-2.189-10.841,0.742-6.277,2.943S304.499,134.675,304.499,134.675z"/>
<path fill="#0C4223" d="M324.049,144.739c0,0,8.487,2.967,16.562,2.166c8.077-0.799,10.815-4.637,9.073-7.039
	c-1.743-2.398-10.84-3.678-5.918-4.637c4.922-0.961,5.918-0.961,3.183-4.002c-2.74-3.037-4.882-3.418-2.42-4.477
	c2.454-1.061-1.812-2.602-2.311-4.1c-0.499-1.5-5.973-3.678-3.733-6.027c2.24-2.352-2.984-3.953-1.366-6.352
	c1.614-2.4,0-6.56,0-6.56s-3.137,11.779-7.617,11.619s-2.715,1.18-0.971,3.26c1.741,2.08,3.731,4.119,0,4.061
	c-3.733-0.061-8.462,2.498-5.726,3.619c2.74,1.119,8.961,5.438,4.231,4.799c-4.73-0.639-6.606,3.52-5.045,4.32
	c1.561,0.799,5.545,2.398,1.809,2.879c-3.731,0.48-11.446,2.881-7.217,4.479C320.814,144.349,324.049,144.739,324.049,144.739z"/>
<path fill="#0C4223" d="M276.108,135.688c0,0,8.487,2.967,16.562,2.166c8.077-0.799,10.815-4.639,9.074-7.039
	c-1.743-2.398-10.839-3.678-5.92-4.639c4.922-0.959,5.92-0.959,3.182-3.998c-2.74-3.039-4.878-3.42-2.421-4.48
	c2.458-1.059-1.809-2.6-2.307-4.1c-0.497-1.498-5.972-3.676-3.733-6.027c2.241-2.351-2.984-3.951-1.367-6.35
	c1.616-2.401,0-6.56,0-6.56s-3.138,11.779-7.617,11.617c-4.479-0.16-2.714,1.181-0.971,3.261c1.743,2.08,3.731,4.119,0,4.059
	c-3.735-0.059-8.461,2.5-5.724,3.619c2.736,1.121,8.959,5.439,4.229,4.801c-4.728-0.641-6.605,3.52-5.043,4.32
	c1.559,0.799,5.542,2.4,1.809,2.879c-3.734,0.48-11.45,2.881-7.218,4.479C272.875,135.296,276.108,135.688,276.108,135.688z"/>
<path fill="#41A62A" d="M156.292,89.569c0,0,8.484,2.967,16.559,2.166c8.077-0.799,10.815-4.639,9.074-7.038
	c-1.741-2.4-10.839-3.679-5.919-4.639c4.922-0.96,5.919-0.96,3.18-4c-2.736-3.04-4.877-3.42-2.419-4.479
	c2.458-1.06-1.811-2.6-2.306-4.1c-0.5-1.499-5.975-3.676-3.735-6.027c2.239-2.352-2.984-3.951-1.369-6.352
	c1.617-2.4,0-6.558,0-6.558s-3.138,11.777-7.616,11.616c-4.48-0.16-2.713,1.18-0.972,3.261c1.743,2.081,3.732,4.119,0,4.059
	c-3.732-0.06-8.458,2.5-5.723,3.62c2.736,1.121,8.959,5.438,4.229,4.8c-4.728-0.641-6.606,3.519-5.043,4.319
	c1.562,0.799,5.542,2.4,1.81,2.879c-3.732,0.48-11.449,2.881-7.218,4.479C153.056,89.176,156.292,89.569,156.292,89.569z"/>
<path fill="#00632E" d="M247.485,111.933c0,0,14.263,2.199,17.117,0c2.852-2.199-9.7-6.989-6.276-6.246
	c3.423,0.744,2.854,5.146,9.128,4.046c6.277-1.102-7.986-2.569-5.134-8.071c2.852-5.501,3.795,2.569,6.747,0
	c2.952-2.566-9.029-5.867-6.747-8.802c2.282-2.934,7.591,2.935,7.218,0c-0.372-2.934-13.104-2.2-11.02-9.536
	c2.09-7.334-5.898-10.269-7.61-3.3c-1.713,6.969,1.142,11.003-3.424,10.27c-4.563-0.734-7.987,5.086-2.282,4.192
	c5.706-0.893,10.84,3.143,5.136,3.143c-5.707,0-10.541,0-8.124,2.2c2.417,2.199,5.839,8.05,1.276,5.857
	c-4.563-2.189-10.839,0.744-6.275,2.945C241.781,110.833,247.485,111.933,247.485,111.933z"/>
<path fill="#00632E" d="M344.98,151.79c0,0,14.265,2.203,17.116,0c2.853-2.199-9.699-6.988-6.274-6.244
	c3.423,0.744,2.853,5.145,9.127,4.045c6.276-1.1-7.986-2.566-5.135-8.068c2.853-5.502,3.795,2.566,6.748,0
	c2.952-2.568-9.029-5.869-6.748-8.803c2.282-2.934,7.59,2.934,7.219,0c-0.372-2.934-13.107-2.199-11.017-9.537
	c2.087-7.334-5.901-10.268-7.612-3.299c-1.712,6.969,1.143,11.002-3.424,10.27c-4.563-0.734-7.986,5.086-2.281,4.191
	c5.705-0.893,10.84,3.143,5.135,3.143s-10.54,0-8.126,2.201c2.421,2.201,5.846,8.049,1.279,5.857
	c-4.564-2.189-10.84,0.744-6.276,2.945C339.276,150.69,344.98,151.79,344.98,151.79z"/>
<path fill="#97BF0D" d="M140.122,67.755c0,0-9.38-1.965-6.526-3.933c2.855-1.966,6.118-5.636,5.302-6.816
	c-0.815-1.18-3.874-3.558-0.815-4.138c3.057-0.579,5.096-2.677,4.282-3.856c-0.815-1.181-2.086-2.23,0.18-4.064
	c2.266-1.835,6.549-3.277,5.325-4.587c-1.225-1.312-1.812-2.622,0.216-4.063c2.028-1.442,2.231-5.244,3.25-3.146
	c1.021,2.097,1.021,5.242,3.264,6.553c2.243,1.31-0.796,2.147,0,3.54c0.795,1.392,5.195,4.232,1.679,6.899
	c-3.514,2.669-2.495,8.546-0.048,9.54c2.446,0.993,5.028,3.223,1.392,4.402c-3.634,1.18-2.617,2.883-1.392,3.669
	c1.224,0.787-1.834,1.835-5.708,2.228C146.646,70.377,140.122,67.755,140.122,67.755z"/>
<path fill="#00632E" d="M212.543,98.039c0,0-9.381-1.965-6.525-3.933c2.855-1.964,6.118-5.636,5.3-6.816
	c-0.815-1.18-3.874-3.558-0.815-4.138c3.059-0.58,5.098-2.678,4.284-3.856c-0.815-1.18-2.088-2.229,0.178-4.064
	c2.268-1.836,6.551-3.277,5.327-4.588c-1.225-1.311-1.813-2.622,0.214-4.063c2.027-1.442,2.233-5.244,3.251-3.146
	c1.021,2.098,1.021,5.243,3.263,6.554c2.244,1.311-0.795,2.146,0,3.54c0.794,1.392,5.194,4.232,1.678,6.899
	c-3.514,2.669-2.493,8.546-0.046,9.541c2.446,0.994,5.028,3.221,1.391,4.4c-3.634,1.182-2.615,2.885-1.391,3.671
	c1.224,0.785-1.836,1.834-5.711,2.228C219.067,100.661,212.543,98.039,212.543,98.039z"/>
<path fill="#0C4223" d="M130.874,72.974c0,0,4.99,1.745,9.737,1.274c4.75-0.471,6.361-2.728,5.337-4.139
	c-1.025-1.412-6.377-2.163-3.48-2.728c2.893-0.565,3.48-0.565,1.87-2.353c-1.61-1.786-2.869-2.009-1.425-2.633
	c1.448-0.624-1.061-1.528-1.356-2.412c-0.291-0.881-3.511-2.162-2.195-3.544c1.318-1.382-1.754-2.324-0.803-3.734
	c0.951-1.412,0-3.857,0-3.857s-1.847,6.925-4.481,6.832c-2.633-0.094-1.595,0.694-0.57,1.918c1.025,1.222,2.196,2.422,0,2.385
	c-2.193-0.034-4.974,1.47-3.364,2.13c1.61,0.659,5.267,3.197,2.486,2.822c-2.779-0.376-3.884,2.069-2.967,2.54
	c0.919,0.47,3.26,1.412,1.065,1.694c-2.194,0.281-6.731,1.692-4.245,2.632C128.972,72.744,130.874,72.974,130.874,72.974z"/>
<path fill="#41A62A" d="M106.976,56.439c0,0-9.38-1.966-6.526-3.934c2.856-1.965,6.118-5.635,5.302-6.816
	c-0.816-1.179-3.874-3.557-0.816-4.137c3.059-0.582,5.096-2.677,4.282-3.857c-0.815-1.181-2.086-2.229,0.181-4.065
	c2.266-1.834,6.548-3.276,5.325-4.587c-1.223-1.311-1.813-2.621,0.216-4.062c2.027-1.444,2.23-5.244,3.251-3.147
	c1.018,2.098,1.018,5.242,3.263,6.553c2.241,1.311-0.797,2.148,0,3.541c0.793,1.392,5.192,4.231,1.678,6.9
	c-3.514,2.668-2.495,8.545-0.048,9.54c2.446,0.993,5.028,3.222,1.393,4.401c-3.636,1.18-2.615,2.884-1.393,3.671
	c1.224,0.786-1.834,1.835-5.709,2.228C113.501,59.061,106.976,56.439,106.976,56.439z"/>
<path fill="#41A62A" d="M106.858,60.234c0,0,4.99,1.745,9.739,1.274s6.36-2.728,5.336-4.139c-1.026-1.411-6.375-2.164-3.482-2.728
	c2.895-0.565,3.482-0.565,1.871-2.351c-1.608-1.788-2.869-2.011-1.422-2.634c1.446-0.624-1.064-1.529-1.357-2.411
	c-0.293-0.881-3.511-2.162-2.195-3.544c1.317-1.384-1.754-2.324-0.805-3.736c0.952-1.411,0-3.856,0-3.856s-1.845,6.924-4.479,6.833
	c-2.633-0.095-1.595,0.693-0.57,1.916c1.025,1.224,2.196,2.423,0,2.387c-2.195-0.035-4.975,1.469-3.364,2.129
	c1.608,0.659,5.267,3.198,2.486,2.822c-2.78-0.377-3.884,2.068-2.967,2.54c0.919,0.47,3.26,1.411,1.065,1.694
	c-2.195,0.282-6.731,1.692-4.246,2.633C104.956,60.004,106.858,60.234,106.858,60.234z"/>
<path fill="#008A2E" d="M37.963,26.865c0,0,4.049,1.415,7.904,1.032c3.854-0.38,5.162-2.212,4.331-3.358s-5.174-1.756-2.823-2.214
	c2.347-0.458,2.823-0.458,1.517-1.909c-1.307-1.45-2.33-1.632-1.156-2.137c1.174-0.505-0.864-1.24-1.101-1.958
	c-0.238-0.713-2.852-1.754-1.782-2.875c1.068-1.122-1.423-1.887-0.653-3.033c0.771-1.144,0-3.128,0-3.128s-1.498,5.621-3.636,5.544
	c-2.137-0.077-1.296,0.563-0.463,1.556c0.832,0.993,1.78,1.966,0,1.936c-1.783-0.027-4.038,1.193-2.731,1.729
	c1.307,0.536,4.274,2.595,2.019,2.291c-2.257-0.307-3.153,1.679-2.408,2.06c0.745,0.382,2.646,1.146,0.864,1.375
	c-1.782,0.229-5.464,1.375-3.445,2.137C36.419,26.678,37.963,26.865,37.963,26.865z"/>
<path fill="#008A2E" d="M287.34,143.767c0,0,14.263,2.201,17.116,0c2.853-2.201-9.701-6.988-6.276-6.244
	c3.423,0.744,2.852,5.145,9.129,4.043c6.274-1.1-7.988-2.566-5.135-8.068c2.854-5.5,3.792,2.57,6.748,0
	c2.951-2.566-9.029-5.867-6.748-8.801c2.283-2.934,7.59,2.934,7.216,0c-0.371-2.934-13.104-2.201-11.017-9.535
	c2.088-7.336-5.899-10.271-7.61-3.303c-1.712,6.969,1.141,11.004-3.423,10.27c-4.567-0.732-7.99,5.086-2.285,4.193
	c5.708-0.893,10.842,3.143,5.137,3.143c-5.706,0-10.544,0-8.125,2.201c2.419,2.199,5.843,8.047,1.276,5.857
	c-4.563-2.191-10.838,0.744-6.273,2.943C281.632,142.667,287.34,143.767,287.34,143.767z"/>
<path fill="#97BF0D" d="M307.313,155.007c0,0-9.382-1.965-6.524-3.932c2.853-1.967,6.116-5.637,5.299-6.818
	c-0.814-1.18-3.874-3.557-0.814-4.139c3.058-0.578,5.1-2.676,4.284-3.855c-0.816-1.182-2.087-2.229,0.177-4.064
	c2.269-1.834,6.551-3.277,5.327-4.586c-1.225-1.311-1.812-2.623,0.215-4.064c2.027-1.443,2.233-5.242,3.253-3.145
	c1.019,2.096,1.019,5.242,3.263,6.553c2.242,1.309-0.798,2.146,0,3.539c0.792,1.393,5.192,4.232,1.677,6.9
	c-3.512,2.67-2.491,8.545-0.047,9.539c2.446,0.992,5.031,3.223,1.392,4.402c-3.635,1.178-2.617,2.883-1.392,3.67
	c1.224,0.785-1.836,1.834-5.708,2.229C313.837,157.628,307.313,155.007,307.313,155.007z"/>
<path fill="#008A2E" d="M222.749,110.433c0,0,9.134,3.191,17.83,2.33c8.697-0.861,11.644-4.994,9.768-7.578
	c-1.875-2.584-11.671-3.96-6.372-4.996c5.3-1.033,6.372-1.032,3.426-4.305c-2.95-3.272-5.253-3.681-2.606-4.821
	c2.648-1.141-1.949-2.8-2.484-4.415c-0.538-1.615-6.432-3.959-4.02-6.49c2.41-2.532-3.211-4.254-1.47-6.837
	c1.737-2.583,0-7.062,0-7.062s-3.379,12.681-8.206,12.508c-4.822-0.172-2.919,1.271-1.042,3.51c1.875,2.24,4.019,4.436,0,4.372
	c-4.02-0.064-9.11,2.69-6.163,3.896c2.946,1.206,9.645,5.857,4.555,5.169c-5.091-0.689-7.115,3.788-5.433,4.648
	c1.681,0.863,5.968,2.584,1.947,3.101c-4.017,0.518-12.324,3.103-7.77,4.826C219.265,110.007,222.749,110.433,222.749,110.433z"/>
<path fill="#0C4223" d="M188.582,88.526c0,0,8.486,2.967,16.562,2.166c8.076-0.8,10.814-4.64,9.072-7.038
	c-1.741-2.401-10.839-3.68-5.919-4.64c4.924-0.96,5.919-0.96,3.184-4c-2.74-3.039-4.881-3.42-2.422-4.479
	c2.458-1.061-1.81-2.601-2.307-4.1c-0.502-1.499-5.975-3.677-3.735-6.028c2.24-2.351-2.982-3.951-1.366-6.35
	c1.614-2.4,0-6.559,0-6.559s-3.137,11.778-7.617,11.618s-2.713,1.18-0.973,3.261c1.743,2.08,3.733,4.119,0,4.059
	c-3.732-0.06-8.458,2.499-5.723,3.62c2.736,1.12,8.959,5.438,4.231,4.799c-4.73-0.64-6.606,3.519-5.046,4.319
	c1.562,0.8,5.544,2.4,1.811,2.879c-3.731,0.48-11.447,2.879-7.216,4.479C185.345,88.133,188.582,88.526,188.582,88.526z"/>
<path fill="#41A62A" d="M295.162,171.587c0,0-8.428-0.67-5.47-4.432c2.964-3.768,7.746-4.5,4.329-6.258
	c-3.417-1.756-2.647-3.809,1.184-5.271c3.829-1.463-2.548-2.578,0.866-4.73c3.417-2.15,6.153-3.176,2.278-5.08
	c-3.872-1.904-2.96-3.221-0.455-5.125c2.505-1.902,7.517-7.615,7.292-5.125c-0.23,2.488-2.496,4.686,0.006,6.592
	c2.499,1.902-2.768,3.902,3.41,5.27c6.175,1.365,5.588,4.195,2.908,4.514c-2.682,0.318-6.554,2.602-2.454,5.195
	c4.102,2.592,5.601,5.256,2.732,6.252c-2.866,0.996-4.553,5.314-0.908,6.539c3.643,1.221,0.684,3.123-1.824,2.98
	C306.551,172.759,295.162,171.587,295.162,171.587z"/>
<path fill="#41A62A" d="M49.167,72.974c0,0,4.991,1.745,9.739,1.274c4.75-0.471,6.36-2.728,5.335-4.139
	c-1.025-1.412-6.375-2.163-3.478-2.728c2.893-0.565,3.478-0.565,1.869-2.353c-1.61-1.786-2.869-2.009-1.422-2.633
	c1.444-0.624-1.065-1.528-1.358-2.412c-0.293-0.881-3.513-2.162-2.196-3.544s-1.754-2.324-0.804-3.734c0.951-1.412,0-3.857,0-3.857
	s-1.846,6.925-4.48,6.832c-2.635-0.094-1.596,0.694-0.57,1.918c1.025,1.222,2.194,2.422,0,2.385c-2.196-0.034-4.975,1.47-3.366,2.13
	c1.608,0.659,5.267,3.197,2.488,2.822c-2.781-0.376-3.884,2.069-2.968,2.54c0.919,0.47,3.261,1.412,1.065,1.694
	c-2.194,0.281-6.733,1.692-4.245,2.632C47.267,72.744,49.167,72.974,49.167,72.974z"/>
<path fill="#00632E" d="M136.054,92.739c0,0,8.068,2.821,15.747,2.062c7.68-0.761,10.282-4.411,8.626-6.693
	c-1.656-2.282-10.305-3.5-5.626-4.413c4.68-0.913,5.626-0.911,3.022-3.803c-2.603-2.891-4.64-3.251-2.3-4.258
	c2.336-1.008-1.72-2.472-2.194-3.899c-0.474-1.425-5.681-3.496-3.55-5.732c2.131-2.235-2.836-3.757-1.299-6.04
	c1.536-2.28,0-6.235,0-6.235s-2.984,11.198-7.243,11.047c-4.259-0.152-2.581,1.122-0.922,3.1c1.658,1.978,3.549,3.917,0,3.859
	s-8.045,2.376-5.444,3.441c2.604,1.066,8.519,5.173,4.022,4.565c-4.496-0.609-6.282,3.346-4.795,4.105
	c1.482,0.76,5.269,2.282,1.721,2.739c-3.549,0.456-10.886,2.738-6.863,4.26C132.979,92.365,136.054,92.739,136.054,92.739z"/>
<path fill="#97BF0D" d="M172.076,101.48c0,0-9.38-1.967-6.525-3.934c2.854-1.964,6.116-5.635,5.301-6.816
	c-0.815-1.179-3.875-3.557-0.815-4.137c3.057-0.582,5.098-2.677,4.281-3.857c-0.813-1.18-2.086-2.229,0.183-4.065
	c2.265-1.834,6.547-3.276,5.323-4.587c-1.224-1.31-1.811-2.621,0.217-4.062c2.027-1.443,2.231-5.243,3.25-3.146
	c1.02,2.097,1.02,5.242,3.263,6.553c2.242,1.312-0.796,2.148,0,3.541c0.793,1.392,5.192,4.231,1.677,6.899
	c-3.512,2.668-2.495,8.546-0.045,9.54c2.445,0.993,5.027,3.222,1.391,4.401c-3.637,1.181-2.615,2.883-1.391,3.671
	c1.223,0.787-1.837,1.835-5.711,2.228S172.076,101.48,172.076,101.48z"/>
<path fill="#97BF0D" d="M116.694,76.375c0,0-9.379-1.965-6.527-3.933c2.856-1.966,6.12-5.636,5.303-6.816
	c-0.816-1.18-3.875-3.558-0.816-4.138c3.058-0.58,5.097-2.677,4.28-3.856c-0.813-1.181-2.085-2.229,0.182-4.064
	c2.266-1.835,6.549-3.277,5.325-4.588c-1.225-1.31-1.812-2.621,0.214-4.063c2.027-1.443,2.232-5.243,3.25-3.146
	c1.022,2.097,1.022,5.242,3.264,6.552c2.242,1.311-0.794,2.148,0,3.541c0.795,1.392,5.194,4.232,1.68,6.9
	c-3.514,2.669-2.494,8.545-0.048,9.54c2.448,0.993,5.029,3.222,1.392,4.401c-3.633,1.181-2.615,2.883-1.392,3.67
	c1.225,0.786-1.834,1.835-5.709,2.228C123.217,78.996,116.694,76.375,116.694,76.375z"/>
<path fill="#97BF0D" d="M14.502,43.156c0,0-9.38-1.964-6.525-3.932c2.854-1.966,6.118-5.636,5.302-6.816s-3.875-3.558-0.816-4.139
	c3.057-0.58,5.096-2.678,4.282-3.856c-0.815-1.181-2.087-2.229,0.18-4.064c2.266-1.835,6.548-3.277,5.326-4.587
	c-1.225-1.312-1.812-2.623,0.215-4.063c2.027-1.443,2.232-5.244,3.252-3.146c1.019,2.098,1.019,5.242,3.262,6.552
	c2.243,1.312-0.796,2.148,0,3.54c0.794,1.394,5.193,4.232,1.681,6.9c-3.516,2.67-2.496,8.545-0.05,9.54
	c2.446,0.993,5.029,3.222,1.392,4.401c-3.635,1.181-2.615,2.884-1.392,3.67c1.224,0.788-1.833,1.836-5.708,2.229
	C21.026,45.779,14.502,43.156,14.502,43.156z"/>
<path fill="#97BF0D" d="M83.127,45.138c0,0-2.962-0.622-2.062-1.244c0.901-0.62,1.933-1.779,1.675-2.153
	c-0.258-0.372-1.224-1.123-0.258-1.308c0.967-0.184,1.61-0.844,1.353-1.217c-0.258-0.373-0.66-0.705,0.057-1.285
	c0.716-0.579,2.069-1.035,1.683-1.449c-0.388-0.413-0.573-0.829,0.067-1.284c0.641-0.455,0.706-1.657,1.028-0.994
	c0.322,0.662,0.322,1.657,1.031,2.07c0.708,0.414-0.252,0.68,0,1.118c0.25,0.439,1.64,1.337,0.53,2.18
	c-1.111,0.843-0.789,2.7-0.016,3.013c0.773,0.314,1.59,1.019,0.441,1.39c-1.149,0.375-0.827,0.912-0.441,1.161
	c0.387,0.248-0.579,0.58-1.804,0.703C85.188,45.965,83.127,45.138,83.127,45.138z"/>
<path fill="#97BF0D" d="M140.896,50.768c0,0-2.964-0.621-2.063-1.242c0.902-0.622,1.934-1.781,1.675-2.155
	c-0.257-0.372-1.223-1.123-0.257-1.306c0.966-0.184,1.611-0.845,1.353-1.217c-0.257-0.375-0.66-0.706,0.057-1.286
	c0.715-0.579,2.069-1.035,1.682-1.45c-0.386-0.414-0.572-0.827,0.069-1.283c0.64-0.455,0.706-1.657,1.028-0.995
	c0.321,0.662,0.321,1.657,1.03,2.07c0.708,0.415-0.253,0.679,0,1.119c0.25,0.439,1.639,1.336,0.53,2.18
	c-1.111,0.843-0.79,2.699-0.015,3.014c0.773,0.313,1.589,1.018,0.439,1.391c-1.148,0.372-0.827,0.911-0.439,1.159
	c0.386,0.249-0.581,0.579-1.805,0.705C142.957,51.597,140.896,50.768,140.896,50.768z"/>
<path fill="#97BF0D" d="M116.587,47.222c0,0-2.963-0.621-2.061-1.242c0.902-0.622,1.934-1.781,1.675-2.154
	c-0.257-0.373-1.224-1.123-0.257-1.306c0.965-0.185,1.609-0.845,1.353-1.219c-0.258-0.373-0.661-0.705,0.056-1.284
	c0.716-0.579,2.071-1.035,1.682-1.449c-0.386-0.414-0.572-0.829,0.07-1.285c0.64-0.455,0.704-1.656,1.027-0.994
	c0.322,0.663,0.322,1.656,1.031,2.071c0.709,0.413-0.253,0.679,0,1.117c0.25,0.441,1.64,1.338,0.53,2.181
	c-1.112,0.843-0.79,2.7-0.016,3.014c0.774,0.313,1.59,1.019,0.439,1.39c-1.147,0.374-0.825,0.911-0.439,1.16
	c0.387,0.25-0.579,0.58-1.804,0.704C118.649,48.05,116.587,47.222,116.587,47.222z"/>
<path fill="#97BF0D" d="M57.851,43.676c0,0-2.963-0.621-2.061-1.242c0.901-0.622,1.933-1.781,1.674-2.154
	c-0.258-0.373-1.224-1.125-0.258-1.308c0.967-0.183,1.611-0.846,1.354-1.217c-0.258-0.374-0.659-0.706,0.057-1.285
	c0.716-0.58,2.069-1.036,1.683-1.45c-0.387-0.413-0.572-0.828,0.069-1.284c0.64-0.455,0.705-1.656,1.026-0.993
	c0.323,0.662,0.323,1.655,1.032,2.069c0.708,0.415-0.253,0.679,0,1.12c0.25,0.44,1.64,1.335,0.53,2.18
	c-1.111,0.843-0.789,2.7-0.016,3.013c0.773,0.314,1.589,1.018,0.44,1.39s-0.827,0.912-0.44,1.161
	c0.387,0.248-0.58,0.578-1.804,0.703C59.912,44.503,57.851,43.676,57.851,43.676z"/>
<path fill="#97BF0D" d="M36.551,43.671c0,0-2.096-0.438-1.459-0.878c0.64-0.439,1.369-1.261,1.187-1.524
	c-0.184-0.263-0.866-0.794-0.184-0.924c0.685-0.131,1.141-0.599,0.958-0.862c-0.182-0.265-0.467-0.498,0.04-0.908
	c0.508-0.412,1.465-0.733,1.192-1.027c-0.274-0.292-0.406-0.585,0.048-0.909c0.453-0.321,0.498-1.171,0.726-0.703
	c0.229,0.469,0.229,1.172,0.73,1.464c0.5,0.294-0.179,0.48,0,0.792c0.176,0.312,1.159,0.946,0.375,1.543
	c-0.788,0.596-0.559,1.91-0.012,2.132c0.548,0.222,1.125,0.721,0.312,0.985c-0.813,0.262-0.585,0.645-0.312,0.819
	c0.273,0.177-0.409,0.41-1.276,0.499C38.01,44.258,36.551,43.671,36.551,43.671z"/>
<path fill="#008A2E" d="M190.053,112.634c0,0,14.263,2.199,17.116,0c2.854-2.201-9.7-6.989-6.275-6.247
	c3.422,0.745,2.852,5.145,9.129,4.045c6.275-1.102-7.988-2.568-5.135-8.069c2.851-5.501,3.795,2.567,6.746,0
	c2.954-2.568-9.029-5.868-6.746-8.802c2.281-2.935,7.59,2.934,7.218,0c-0.372-2.935-13.104-2.201-11.019-9.536
	c2.088-7.335-5.898-10.269-7.61-3.301c-1.711,6.968,1.14,11.002-3.424,10.269c-4.564-0.733-7.986,5.086-2.282,4.193
	c5.707-0.892,10.84,3.143,5.135,3.143s-10.542,0-8.124,2.199c2.418,2.201,5.842,8.048,1.277,5.858
	c-4.564-2.189-10.839,0.745-6.277,2.944C184.347,111.532,190.053,112.634,190.053,112.634z"/>
<path fill="#008A2E" d="M97.574,69.568c0,0,9.312,1.438,11.176,0c1.863-1.437-6.333-4.564-4.098-4.077
	c2.234,0.485,1.862,3.36,5.961,2.641c4.098-0.719-5.216-1.676-3.353-5.269c1.862-3.592,2.477,1.677,4.405,0
	c1.928-1.676-5.896-3.832-4.405-5.748c1.489-1.917,4.957,1.917,4.712,0c-0.243-1.917-8.557-1.436-7.195-6.228
	c1.364-4.789-3.853-6.706-4.972-2.155c-1.117,4.55,0.747,7.185-2.232,6.706c-2.983-0.479-5.218,3.322-1.492,2.739
	c3.724-0.584,7.078,2.051,3.354,2.051c-3.726,0-6.885,0-5.306,1.437c1.58,1.437,3.814,5.257,0.835,3.826
	c-2.981-1.431-7.08,0.485-4.098,1.921C93.848,68.851,97.574,69.568,97.574,69.568z"/>
<path fill="#0C4223" d="M206,120.101c0,0,8.485,2.967,16.561,2.168c8.075-0.799,10.813-4.641,9.073-7.041
	c-1.743-2.398-10.84-3.678-5.919-4.639c4.922-0.959,5.919-0.959,3.181-3.999c-2.739-3.039-4.879-3.42-2.421-4.478
	c2.458-1.062-1.81-2.602-2.307-4.102c-0.498-1.498-5.974-3.677-3.732-6.026c2.239-2.352-2.983-3.952-1.368-6.351
	c1.616-2.4,0-6.559,0-6.559s-3.139,11.778-7.617,11.618c-4.48-0.161-2.714,1.181-0.972,3.259c1.743,2.081,3.734,4.12,0,4.06
	c-3.733-0.059-8.458,2.5-5.723,3.62c2.737,1.12,8.959,5.438,4.231,4.8c-4.729-0.641-6.608,3.519-5.045,4.32
	c1.56,0.799,5.542,2.4,1.808,2.879c-3.732,0.48-11.449,2.881-7.216,4.479C202.765,119.71,206,120.101,206,120.101z"/>
<path fill="#0C4223" d="M314.822,165.157c0,0,8.488,2.967,16.561,2.166c8.079-0.801,10.817-4.641,9.075-7.037
	c-1.744-2.402-10.843-3.682-5.921-4.641c4.925-0.961,5.921-0.961,3.184-4c-2.739-3.039-4.882-3.42-2.421-4.479
	c2.457-1.061-1.811-2.6-2.309-4.1c-0.5-1.5-5.973-3.678-3.733-6.027c2.239-2.352-2.984-3.953-1.365-6.352c1.613-2.4,0-6.561,0-6.561
	s-3.139,11.781-7.619,11.619c-4.479-0.16-2.713,1.18-0.97,3.26c1.74,2.082,3.73,4.121,0,4.061c-3.733-0.059-8.462,2.5-5.724,3.619
	c2.735,1.121,8.958,5.438,4.229,4.799c-4.729-0.639-6.604,3.52-5.045,4.32c1.561,0.799,5.546,2.4,1.812,2.881
	c-3.733,0.479-11.448,2.879-7.219,4.479C311.588,164.763,314.822,165.157,314.822,165.157z"/>
<path fill="#97BF0D" d="M252.956,140.575c0,0,14.264,2.201,17.116,0c2.854-2.201-9.699-6.988-6.275-6.244
	c3.423,0.744,2.853,5.143,9.129,4.043c6.274-1.1-7.988-2.566-5.137-8.068s3.796,2.566,6.747,0c2.951-2.566-9.029-5.867-6.747-8.803
	c2.282-2.932,7.591,2.936,7.22,0c-0.373-2.932-13.105-2.199-11.019-9.535c2.088-7.333-5.9-10.269-7.611-3.301
	c-1.711,6.969,1.141,11.004-3.423,10.27c-4.563-0.734-7.988,5.086-2.282,4.193c5.706-0.893,10.838,3.141,5.135,3.141
	c-5.705,0-10.542,0-8.124,2.203c2.419,2.199,5.842,8.047,1.277,5.857c-4.564-2.191-10.842,0.744-6.277,2.943
	C247.251,139.474,252.956,140.575,252.956,140.575z"/>
<path fill="#00632E" d="M235.993,130.8c0,0,14.262,2.199,17.114,0c2.854-2.201-9.698-6.988-6.275-6.246
	c3.423,0.744,2.852,5.145,9.129,4.045c6.277-1.102-7.988-2.568-5.136-8.068c2.854-5.502,3.796,2.566,6.748,0
	s-9.031-5.869-6.748-8.803c2.281-2.934,7.591,2.934,7.218,0c-0.372-2.934-13.103-2.199-11.016-9.536
	c2.086-7.335-5.901-10.27-7.612-3.301c-1.711,6.968,1.141,11.005-3.423,10.271c-4.566-0.732-7.987,5.084-2.284,4.191
	c5.707-0.891,10.841,3.145,5.137,3.145c-5.707,0-10.543,0-8.125,2.199c2.418,2.201,5.842,8.049,1.276,5.857
	c-4.563-2.189-10.838,0.744-6.274,2.943C230.285,129.698,235.993,130.8,235.993,130.8z"/>
<path fill="#41A62A" d="M196.593,136.61c0,0,14.265,2.199,17.116,0c2.853-2.201-9.697-6.988-6.276-6.246
	c3.425,0.744,2.854,5.145,9.128,4.045c6.277-1.1-7.987-2.566-5.133-8.068c2.852-5.502,3.795,2.566,6.747,0
	c2.951-2.568-9.029-5.869-6.747-8.803c2.281-2.932,7.59,2.934,7.219,0c-0.373-2.932-13.106-2.199-11.018-9.535
	c2.088-7.335-5.901-10.27-7.613-3.301c-1.712,6.969,1.142,11.004-3.423,10.27c-4.564-0.732-7.988,5.086-2.281,4.193
	c5.705-0.893,10.839,3.141,5.133,3.141c-5.705,0-10.54,0-8.121,2.201c2.417,2.199,5.838,8.047,1.276,5.857
	c-4.566-2.191-10.841,0.744-6.276,2.945C190.889,135.509,196.593,136.61,196.593,136.61z"/>
<path fill="#41A62A" d="M11.737,143.768c0,0,14.265,2.199,17.116,0c2.853-2.201-9.697-6.988-6.276-6.246
	c3.425,0.744,2.854,5.145,9.128,4.045c6.277-1.1-7.987-2.566-5.133-8.068c2.852-5.502,3.795,2.566,6.747,0
	c2.951-2.568-9.029-5.869-6.747-8.803c2.281-2.932,7.59,2.934,7.219,0c-0.373-2.932-13.106-2.199-11.018-9.535
	c2.088-7.335-5.901-10.27-7.613-3.302c-1.712,6.97,1.142,11.005-3.423,10.271c-4.564-0.732-7.988,5.086-2.281,4.193
	c5.705-0.893,10.839,3.141,5.133,3.141c-5.705,0-10.54,0-8.121,2.201c2.417,2.199,5.838,8.047,1.276,5.857
	c-4.566-2.191-10.841,0.744-6.276,2.945C6.033,142.666,11.737,143.768,11.737,143.768z"/>
<path fill="#0C4223" d="M148.931,111.05c0,0,8.487,2.967,16.562,2.166c8.077-0.799,10.815-4.639,9.072-7.039
	c-1.743-2.4-10.839-3.678-5.918-4.639c4.923-0.96,5.918-0.96,3.18-4c-2.735-3.038-4.877-3.42-2.418-4.479
	c2.458-1.058-1.811-2.599-2.309-4.099c-0.498-1.499-5.973-3.676-3.732-6.028c2.242-2.351-2.982-3.951-1.366-6.35
	c1.614-2.4,0-6.559,0-6.559s-3.139,11.778-7.619,11.618c-4.479-0.161-2.714,1.181-0.971,3.26c1.744,2.08,3.733,4.12,0,4.059
	c-3.732-0.06-8.459,2.5-5.723,3.62c2.738,1.121,8.959,5.439,4.231,4.801c-4.728-0.641-6.608,3.518-5.045,4.318
	c1.561,0.801,5.542,2.401,1.81,2.879c-3.733,0.481-11.447,2.881-7.216,4.48C145.695,110.657,148.931,111.05,148.931,111.05z"/>
<path fill="#0C4223" d="M-1.82,41.234c0,0,6.379,2.232,12.45,1.628c6.07-0.602,8.129-3.487,6.819-5.289
	c-1.31-1.805-8.149-2.766-4.448-3.488c3.699-0.721,4.448-0.721,2.39-3.006c-2.058-2.285-3.668-2.571-1.82-3.367
	c1.849-0.797-1.359-1.956-1.734-3.083c-0.374-1.126-4.491-2.764-2.806-4.53c1.683-1.768-2.244-2.97-1.028-4.774
	c1.213-1.804,0-4.93,0-4.93s-2.359,8.854-5.728,8.733c-3.367-0.121-2.038,0.886-0.727,2.45c1.307,1.565,2.806,3.096,0,3.051
	c-2.809-0.044-6.36,1.88-4.303,2.722c2.056,0.842,6.733,4.088,3.179,3.608c-3.554-0.481-4.966,2.645-3.792,3.248
	c1.172,0.601,4.166,1.804,1.36,2.164c-2.807,0.361-8.606,2.166-5.425,3.366C-4.252,40.94-1.82,41.234-1.82,41.234z"/>
<path fill="#0C4223" d="M89.827,45.042c0,0,2.236,0.81,4.386,0.617c2.15-0.193,2.901-1.205,2.454-1.847
	c-0.448-0.643-2.858-1.004-1.543-1.248c1.314-0.243,1.578-0.24,0.869-1.055c-0.708-0.813-1.276-0.92-0.617-1.195
	c0.661-0.274-0.463-0.696-0.586-1.096c-0.124-0.399-1.565-0.991-0.956-1.61c0.61-0.619-0.77-1.057-0.326-1.691
	c0.445-0.633,0.042-1.742,0.042-1.742s-0.905,3.121-2.096,3.067c-1.19-0.054-0.728,0.306-0.277,0.863
	c0.449,0.557,0.965,1.104-0.026,1.079s-2.262,0.642-1.541,0.947c0.719,0.306,2.346,1.467,1.094,1.287
	c-1.253-0.184-1.778,0.917-1.368,1.134c0.411,0.216,1.458,0.651,0.463,0.77c-0.994,0.118-3.058,0.735-1.945,1.17
	C88.969,44.93,89.827,45.042,89.827,45.042z"/>
<path fill="#0C4223" d="M133.892,49.313c0,0,2.237,0.811,4.387,0.618c2.15-0.193,2.901-1.206,2.453-1.848s-2.857-1.005-1.542-1.247
	c1.313-0.243,1.577-0.241,0.869-1.055c-0.709-0.815-1.277-0.922-0.617-1.197c0.66-0.274-0.465-0.695-0.586-1.095
	c-0.125-0.399-1.565-0.992-0.956-1.611c0.61-0.619-0.769-1.057-0.326-1.692c0.444-0.633,0.041-1.742,0.041-1.742
	s-0.905,3.121-2.095,3.069c-1.189-0.055-0.728,0.307-0.277,0.863c0.45,0.558,0.966,1.104-0.025,1.078
	c-0.992-0.024-2.263,0.643-1.542,0.949c0.72,0.304,2.346,1.466,1.094,1.286c-1.253-0.183-1.778,0.917-1.368,1.136
	c0.41,0.215,1.458,0.65,0.463,0.768c-0.995,0.118-3.058,0.736-1.945,1.171C133.034,49.201,133.892,49.313,133.892,49.313z"/>
<path fill="#0C4223" d="M103.899,45.661c0,0,2.238,0.81,4.387,0.617c2.15-0.193,2.901-1.206,2.453-1.848
	c-0.447-0.641-2.857-1.003-1.542-1.246c1.313-0.243,1.578-0.24,0.868-1.055c-0.708-0.813-1.276-0.92-0.616-1.195
	c0.659-0.276-0.465-0.697-0.587-1.096c-0.124-0.399-1.564-0.991-0.954-1.61c0.608-0.619-0.77-1.057-0.326-1.691
	c0.444-0.635,0.04-1.742,0.04-1.742s-0.905,3.121-2.095,3.067c-1.189-0.054-0.728,0.307-0.277,0.863
	c0.45,0.557,0.967,1.104-0.025,1.079c-0.992-0.025-2.262,0.642-1.542,0.947c0.719,0.306,2.347,1.467,1.095,1.286
	c-1.253-0.183-1.777,0.919-1.367,1.136c0.409,0.216,1.458,0.651,0.463,0.77c-0.996,0.118-3.059,0.736-1.946,1.17
	C103.042,45.548,103.899,45.661,103.899,45.661z"/>
<path fill="#0C4223" d="M50.648,43.557c0,0,2.237,0.811,4.386,0.617c2.151-0.193,2.902-1.206,2.454-1.847
	c-0.447-0.642-2.858-1.004-1.543-1.247c1.313-0.244,1.577-0.241,0.87-1.056c-0.708-0.813-1.276-0.92-0.616-1.194
	c0.659-0.276-0.465-0.697-0.588-1.097c-0.124-0.398-1.564-0.991-0.955-1.61c0.609-0.619-0.769-1.058-0.325-1.691
	c0.445-0.634,0.041-1.742,0.041-1.742s-0.906,3.122-2.096,3.067c-1.188-0.054-0.728,0.306-0.276,0.863
	c0.449,0.557,0.966,1.104-0.025,1.079c-0.992-0.024-2.263,0.643-1.542,0.948c0.719,0.305,2.346,1.467,1.095,1.286
	c-1.253-0.183-1.777,0.918-1.368,1.135c0.41,0.215,1.458,0.651,0.463,0.769c-0.994,0.118-3.059,0.736-1.946,1.171
	C49.79,43.443,50.648,43.557,50.648,43.557z"/>
<path fill="#0C4223" d="M66.245,43.557c0,0,2.236,0.811,4.384,0.617c2.151-0.193,2.903-1.206,2.455-1.847
	c-0.448-0.642-2.857-1.004-1.543-1.247c1.313-0.244,1.577-0.241,0.869-1.056c-0.709-0.813-1.277-0.92-0.616-1.194
	c0.659-0.276-0.465-0.697-0.587-1.097c-0.124-0.398-1.566-0.991-0.955-1.61c0.61-0.619-0.769-1.058-0.326-1.691
	c0.444-0.634,0.041-1.742,0.041-1.742s-0.905,3.122-2.096,3.067c-1.189-0.054-0.728,0.306-0.277,0.863
	c0.45,0.557,0.966,1.104-0.025,1.079c-0.992-0.024-2.262,0.643-1.542,0.948c0.72,0.305,2.347,1.467,1.095,1.286
	c-1.253-0.183-1.778,0.918-1.368,1.135c0.41,0.215,1.459,0.651,0.463,0.769c-0.994,0.118-3.058,0.736-1.945,1.171
	C65.385,43.443,66.245,43.557,66.245,43.557z"/>
<path fill="#0C4223" d="M266.31,156.948c0,0,8.484,2.967,16.559,2.166c8.079-0.799,10.819-4.637,9.076-7.037
	s-10.84-3.68-5.921-4.641c4.924-0.959,5.921-0.959,3.184-4c-2.739-3.039-4.881-3.418-2.421-4.477
	c2.456-1.061-1.809-2.602-2.309-4.102c-0.498-1.5-5.973-3.676-3.733-6.025c2.239-2.352-2.984-3.953-1.368-6.352
	c1.616-2.402,0-6.559,0-6.559s-3.139,11.777-7.618,11.617c-4.478-0.16-2.712,1.18-0.969,3.26c1.743,2.082,3.732,4.119,0,4.059
	c-3.734-0.059-8.46,2.5-5.724,3.621c2.737,1.121,8.958,5.438,4.229,4.799c-4.728-0.641-6.605,3.52-5.043,4.32
	c1.563,0.799,5.542,2.398,1.81,2.879c-3.734,0.479-11.449,2.881-7.219,4.479C263.074,156.556,266.31,156.948,266.31,156.948z"/>
<path fill="#00632E" d="M44.884,186.148c0,0-17.496-3.668-12.171-7.336c5.325-3.666,11.411-10.514,9.889-12.715
	c-1.522-2.201-7.228-6.635-1.522-7.719c5.707-1.084,9.509-4.996,7.988-7.195c-1.521-2.201-3.892-4.156,0.337-7.58
	c4.227-3.422,12.215-6.111,9.932-8.557c-2.281-2.443-3.378-4.891,0.403-7.58c3.782-2.689,4.162-9.781,6.064-5.869
	c1.902,3.912,1.901,9.781,6.086,12.227c4.184,2.443-1.484,4.004,0,6.6c1.482,2.6,9.69,7.896,3.132,12.873
	c-6.556,4.979-4.654,15.939-0.09,17.793c4.564,1.855,9.379,6.012,2.598,8.213c-6.782,2.199-4.88,5.377-2.598,6.846
	c2.281,1.467-3.422,3.422-10.649,4.156C57.056,191.037,44.884,186.148,44.884,186.148z"/>
<path fill="#00632E" d="M146.084,51.793c0,0-4.322-0.904-3.006-1.811c1.316-0.907,2.818-2.597,2.444-3.141
	c-0.377-0.542-1.787-1.64-0.377-1.907s2.347-1.233,1.973-1.776c-0.376-0.543-0.961-1.027,0.083-1.874
	c1.043-0.846,3.016-1.508,2.454-2.113c-0.565-0.604-0.835-1.208,0.099-1.871c0.933-0.665,1.028-2.417,1.497-1.45
	c0.47,0.967,0.47,2.416,1.503,3.02c1.034,0.603-0.366,0.989,0,1.63c0.367,0.641,2.394,1.95,0.774,3.178
	c-1.619,1.23-1.15,3.938-0.021,4.396c1.125,0.457,2.314,1.484,0.639,2.027c-1.674,0.544-1.204,1.329-0.639,1.69
	c0.563,0.364-0.848,0.847-2.632,1.027C149.09,53.002,146.084,51.793,146.084,51.793z"/>
<path fill="#00632E" d="M97.452,45.904c0,0-3.402-0.712-2.367-1.425c1.036-0.713,2.218-2.043,1.924-2.472
	c-0.297-0.428-1.406-1.29-0.297-1.501c1.109-0.209,1.848-0.97,1.553-1.396c-0.297-0.428-0.757-0.809,0.065-1.474
	c0.82-0.665,2.374-1.188,1.931-1.664c-0.445-0.474-0.658-0.95,0.077-1.472c0.734-0.522,0.81-1.902,1.178-1.141
	c0.37,0.76,0.37,1.901,1.184,2.375c0.813,0.476-0.289,0.779,0,1.284c0.288,0.504,1.883,1.535,0.608,2.501
	c-1.275,0.966-0.905,3.098-0.016,3.458c0.885,0.36,1.821,1.168,0.503,1.597c-1.318,0.427-0.948,1.046-0.503,1.33
	c0.443,0.286-0.666,0.666-2.071,0.809C99.815,46.854,97.452,45.904,97.452,45.904z"/>
<path fill="#00632E" d="M15.354,42.154c0,0-1.821-0.382-1.268-0.763c0.554-0.383,1.187-1.095,1.028-1.324
	c-0.158-0.23-0.751-0.69-0.158-0.803c0.595-0.113,0.989-0.52,0.833-0.75c-0.159-0.229-0.406-0.433,0.035-0.79
	c0.441-0.355,1.272-0.637,1.035-0.891c-0.237-0.253-0.353-0.509,0.042-0.789c0.393-0.28,0.434-1.019,0.631-0.61
	c0.198,0.407,0.198,1.019,0.633,1.271c0.436,0.255-0.154,0.418,0,0.687c0.156,0.272,1.008,0.823,0.326,1.34
	c-0.682,0.519-0.483,1.66-0.009,1.854c0.475,0.193,0.977,0.626,0.271,0.855c-0.706,0.229-0.506,0.56-0.271,0.712
	c0.239,0.153-0.355,0.357-1.107,0.433C16.622,42.664,15.354,42.154,15.354,42.154z"/>
<path fill="#97BF0D" d="M20.477,42.154c0,0-1.823-0.382-1.269-0.763c0.555-0.383,1.188-1.095,1.03-1.324
	c-0.159-0.23-0.752-0.69-0.159-0.803c0.595-0.113,0.989-0.52,0.832-0.75c-0.159-0.229-0.406-0.433,0.034-0.79
	c0.442-0.355,1.272-0.637,1.035-0.891c-0.237-0.253-0.352-0.509,0.043-0.789c0.393-0.28,0.433-1.019,0.63-0.61
	c0.198,0.407,0.198,1.019,0.634,1.271c0.436,0.255-0.155,0.418,0,0.687c0.156,0.272,1.009,0.823,0.326,1.34
	c-0.683,0.519-0.484,1.66-0.009,1.854c0.475,0.193,0.977,0.626,0.271,0.855c-0.707,0.229-0.508,0.56-0.271,0.712
	c0.239,0.153-0.356,0.357-1.109,0.433C21.744,42.664,20.477,42.154,20.477,42.154z"/>
<path fill="#97BF0D" d="M31.339,100.401c0,0-9.38-1.965-6.526-3.932c2.855-1.967,6.118-5.637,5.303-6.818
	c-0.816-1.18-3.874-3.557-0.816-4.137c3.058-0.58,5.097-2.678,4.282-3.855c-0.815-1.182-2.087-2.23,0.18-4.064
	c2.266-1.836,6.549-3.277,5.326-4.588c-1.224-1.313-1.813-2.623,0.216-4.063c2.026-1.443,2.23-5.244,3.25-3.146
	c1.02,2.098,1.02,5.242,3.264,6.553c2.242,1.311-0.797,2.148,0,3.539c0.793,1.393,5.192,4.232,1.679,6.9
	c-3.516,2.67-2.495,8.547-0.049,9.539c2.447,0.994,5.028,3.225,1.392,4.402c-3.635,1.18-2.615,2.885-1.392,3.67
	c1.224,0.787-1.835,1.834-5.71,2.229C37.864,103.024,31.339,100.401,31.339,100.401z"/>
<path fill="#00632E" d="M96.614,195.195c0,0-11.031-3.182-3.803-8.559c7.225-5.379,8.748-4.402,5.706-7.824
	c-3.044-3.422-5.539-3.18-3.34-5.379c2.199-2.201-0.296-4.156,0-7.09s6.001,0,7.143-2.691c1.141-2.689-6.259-1.711-5.981-3.178
	c0.277-1.467,6.221-0.977,6.101-4.156s-4.302-3.18-1.641-5.623c2.662-2.447,4.945-2.201,5.705-5.135c0.76-2.936,0,6.602,3.423,5.867
	c3.423-0.732-1.272,0.244,2.597,3.666c3.87,3.426-1.835,3.912,3.87,5.869c5.705,1.957,7.987,1.469,7.987,1.469
	s-8.367,2.443-5.325,2.932c3.042,0.49-3.546,4.809,2.283,4.734c5.829-0.078-10.079,2.609-0.095,6.762
	c9.984,4.154,7.646,1.709,8.245,6.109c0.598,4.402-4.783,7.824,0,8.803c4.783,0.979,6.721,6.357,0.046,6.846
	c-6.675,0.488-15.042,1.223-19.227,0C106.122,197.395,96.614,195.195,96.614,195.195z"/>
<path fill="#00632E" d="M91.572,123.954c0,0-6.379-1.836-2.198-4.947c4.175-3.109,5.059-2.545,3.298-4.523
	c-1.76-1.98-3.204-1.84-1.933-3.111c1.272-1.271-0.171-2.402,0-4.099c0.172-1.697,3.469,0,4.129-1.556
	c0.66-1.556-3.615-0.989-3.458-1.839c0.161-0.846,3.597-0.563,3.53-2.401c-0.073-1.839-2.49-1.839-0.951-3.252
	c1.538-1.414,2.86-1.273,3.299-2.969c0.442-1.697,0,3.818,1.979,3.394c1.979-0.424-0.736,0.141,1.502,2.121
	c2.236,1.979-1.061,2.26,2.236,3.392c3.3,1.133,4.62,0.85,4.62,0.85s-4.838,1.413-3.082,1.697c1.762,0.281-2.049,2.779,1.323,2.734
	c3.369-0.043-5.83,1.51-0.056,3.91c5.772,2.404,4.422,0.99,4.767,3.533c0.346,2.545-2.766,4.525,0,5.09
	c2.765,0.566,3.888,3.678,0.027,3.959c-3.857,0.283-8.7,0.707-11.117,0C97.07,125.229,91.572,123.954,91.572,123.954z"/>
<path fill="#00632E" d="M33.648,117.873c0,0-8.944-2.58-3.084-6.941c5.859-4.359,7.094-3.566,4.625-6.342
	c-2.467-2.777-4.489-2.578-2.707-4.363c1.783-1.783-0.24-3.369,0-5.748c0.24-2.381,4.867,0,5.792-2.18
	c0.925-2.182-5.073-1.389-4.85-2.58c0.225-1.189,5.042-0.791,4.947-3.367c-0.097-2.578-3.489-2.58-1.33-4.561
	c2.158-1.984,4.009-1.785,4.625-4.164s0,5.352,2.777,4.758c2.774-0.594-1.033,0.197,2.104,2.975c3.137,2.777-1.489,3.17,3.137,4.758
	c4.627,1.586,6.477,1.188,6.477,1.188s-6.783,1.984-4.318,2.381c2.468,0.396-2.875,3.898,1.851,3.836
	c4.726-0.061-8.171,2.115-0.076,5.484c8.093,3.367,6.198,1.385,6.684,4.953s-3.879,6.344,0,7.137
	c3.878,0.793,5.452,5.156,0.039,5.553c-5.412,0.396-12.198,0.99-15.591,0C41.359,119.658,33.648,117.873,33.648,117.873z"/>
<path fill="#008A2E" d="M124.379,194.217c0,0,14.264,2.199,17.117,0c2.851-2.199-9.7-6.988-6.277-6.246
	c3.424,0.744,2.853,5.146,9.128,4.047c6.277-1.102-7.986-2.568-5.134-8.07c2.853-5.502,3.795,2.568,6.747,0
	c2.953-2.568-9.029-5.869-6.747-8.801c2.283-2.936,7.591,2.932,7.218,0c-0.372-2.936-13.104-2.201-11.017-9.537
	c2.087-7.334-5.901-10.27-7.612-3.301c-1.712,6.969,1.141,11.002-3.423,10.27c-4.564-0.734-7.987,5.086-2.282,4.193
	c5.706-0.893,10.841,3.141,5.135,3.141c-5.706,0-10.542,0-8.124,2.201c2.418,2.201,5.841,8.049,1.277,5.857
	c-4.564-2.189-10.84,0.744-6.275,2.945C118.674,193.117,124.379,194.217,124.379,194.217z"/>
<path fill="#00632E" d="M112.383,168.306c0,0,14.261,2.203,17.115,0c2.854-2.199-9.699-6.988-6.277-6.244
	c3.423,0.744,2.854,5.145,9.131,4.045c6.276-1.1-7.989-2.568-5.135-8.066c2.852-5.504,3.795,2.564,6.747,0
	c2.954-2.57-9.03-5.871-6.747-8.805c2.282-2.934,7.592,2.934,7.218,0c-0.372-2.934-13.104-2.201-11.017-9.535
	c2.087-7.336-5.901-10.27-7.612-3.301c-1.71,6.969,1.141,11.002-3.422,10.268c-4.566-0.732-7.988,5.088-2.283,4.195
	c5.705-0.895,10.841,3.143,5.134,3.143c-5.705,0-10.541,0-8.122,2.199c2.417,2.199,5.841,8.049,1.276,5.857
	c-4.565-2.189-10.841,0.744-6.276,2.945C106.675,167.206,112.383,168.306,112.383,168.306z"/>
<path fill="#00632E" d="M28.702,53.494c0,0,14.264,2.2,17.116,0c2.854-2.2-9.699-6.988-6.276-6.245s2.854,5.145,9.129,4.045
	c6.275-1.102-7.988-2.568-5.135-8.07c2.852-5.501,3.795,2.568,6.746,0c2.953-2.567-9.028-5.868-6.746-8.801
	c2.281-2.935,7.59,2.934,7.218,0c-0.373-2.935-13.105-2.202-11.018-9.537c2.087-7.335-5.901-10.269-7.612-3.301
	c-1.711,6.969,1.141,11.002-3.423,10.27c-4.564-0.733-7.987,5.086-2.282,4.193c5.706-0.893,10.84,3.141,5.136,3.141
	c-5.705,0-10.541,0-8.125,2.201c2.419,2.2,5.842,8.048,1.277,5.858c-4.563-2.191-10.84,0.743-6.274,2.943
	C22.997,52.394,28.702,53.494,28.702,53.494z"/>
<path fill="#00632E" d="M213.558,158.771c0,0,14.263,2.201,17.116,0c2.853-2.199-9.7-6.988-6.277-6.244
	c3.424,0.744,2.854,5.145,9.13,4.045c6.277-1.102-7.988-2.566-5.134-8.068c2.852-5.502,3.793,2.566,6.747,0
	c2.952-2.568-9.029-5.867-6.747-8.803c2.282-2.934,7.592,2.936,7.219,0c-0.372-2.934-13.104-2.201-11.02-9.537
	c2.089-7.332-5.898-10.268-7.611-3.299c-1.712,6.967,1.141,11.002-3.423,10.27c-4.564-0.734-7.988,5.084-2.283,4.191
	c5.706-0.891,10.84,3.143,5.134,3.143c-5.705,0-10.542,0-8.122,2.199c2.417,2.201,5.84,8.049,1.276,5.859
	c-4.566-2.191-10.84,0.744-6.276,2.943C207.851,157.671,213.558,158.771,213.558,158.771z"/>
<path fill="#00632E" d="M276.702,173.456c0,0,14.265,2.201,17.118,0c2.854-2.201-9.699-6.988-6.275-6.244
	c3.422,0.742,2.853,5.143,9.13,4.043c6.275-1.1-7.988-2.566-5.137-8.068c2.854-5.5,3.793,2.566,6.747,0
	c2.952-2.566-9.029-5.867-6.747-8.803c2.282-2.934,7.59,2.936,7.217,0c-0.369-2.934-13.105-2.199-11.016-9.535
	c2.087-7.336-5.901-10.27-7.612-3.301c-1.711,6.969,1.14,11.004-3.425,10.27c-4.563-0.734-7.986,5.086-2.28,4.193
	c5.705-0.893,10.84,3.143,5.133,3.143c-5.705,0-10.542,0-8.123,2.199c2.418,2.199,5.842,8.049,1.277,5.859
	c-4.564-2.191-10.841,0.742-6.275,2.943C270.997,172.354,276.702,173.456,276.702,173.456z"/>
<path fill="#009036" d="M313.434,188.874c0,0,14.263,2.201,17.113,0c2.854-2.199-9.699-6.986-6.273-6.244
	c3.423,0.744,2.852,5.145,9.128,4.045c6.274-1.1-7.988-2.566-5.136-8.068c2.854-5.502,3.793,2.568,6.747,0
	c2.952-2.566-9.027-5.869-6.747-8.803c2.281-2.934,7.591,2.934,7.217,0c-0.37-2.934-13.104-2.199-11.017-9.535
	c2.089-7.336-5.898-10.27-7.611-3.301c-1.71,6.969,1.142,11.004-3.421,10.27c-4.566-0.734-7.988,5.086-2.284,4.191
	c5.705-0.891,10.842,3.145,5.136,3.145s-10.542,0-8.127,2.199c2.421,2.201,5.845,8.049,1.28,5.857
	c-4.564-2.189-10.84,0.744-6.277,2.945C307.729,187.774,313.434,188.874,313.434,188.874z"/>
<path fill="#97BF0D" d="M75.107,120.872c0,0,14.261,2.201,17.115,0c2.852-2.199-9.698-6.988-6.275-6.244
	c3.422,0.742,2.853,5.145,9.127,4.045c6.277-1.102-7.988-2.568-5.134-8.07c2.852-5.501,3.796,2.568,6.747,0
	c2.952-2.566-9.029-5.867-6.747-8.802c2.282-2.933,7.591,2.936,7.218,0c-0.374-2.933-13.104-2.2-11.017-9.534
	c2.087-7.336-5.901-10.27-7.613-3.302c-1.711,6.969,1.141,11.002-3.421,10.271c-4.565-0.733-7.989,5.084-2.284,4.193
	c5.706-0.893,10.841,3.143,5.135,3.143s-10.541,0-8.124,2.199c2.418,2.201,5.842,8.049,1.277,5.859
	c-4.565-2.191-10.84,0.742-6.276,2.943C69.401,119.772,75.107,120.872,75.107,120.872z"/>
<path fill="#97BF0D" d="M122.271,112.376c0,0,14.264,2.199,17.118,0c2.85-2.203-9.699-6.99-6.277-6.246
	c3.423,0.744,2.853,5.146,9.127,4.042c6.277-1.1-7.985-2.566-5.133-8.068c2.852-5.5,3.795,2.566,6.748,0
	c2.952-2.566-9.031-5.867-6.748-8.801c2.283-2.933,7.59,2.934,7.218,0c-0.373-2.933-13.105-2.2-11.017-9.536
	c2.086-7.334-5.902-10.27-7.613-3.301s1.142,11.004-3.423,10.271c-4.563-0.734-7.988,5.084-2.281,4.192
	c5.704-0.892,10.84,3.142,5.134,3.142c-5.705,0-10.542,0-8.125,2.201c2.419,2.2,5.843,8.049,1.278,5.858
	c-4.565-2.191-10.842,0.744-6.275,2.943C116.565,111.276,122.271,112.376,122.271,112.376z"/>
<path fill="#0C4223" d="M65.043,201.732c0,0,12.969,4.533,25.312,3.313c12.344-1.223,16.528-7.09,13.866-10.76
	c-2.663-3.666-16.567-5.623-9.044-7.09c7.522-1.469,9.044-1.465,4.86-6.111c-4.183-4.646-7.457-5.229-3.699-6.848
	s-2.765-3.973-3.526-6.266c-0.761-2.291-9.13-5.619-5.706-9.213c3.423-3.592-4.56-6.039-2.09-9.705c2.47-3.668,0-10.023,0-10.023
	s-4.796,18-11.643,17.756c-6.846-0.246-4.146,1.803-1.482,4.982c2.662,3.178,5.705,6.295,0,6.203
	c-5.706-0.092-12.931,3.82-8.748,5.533c4.183,1.711,13.692,8.313,6.465,7.334c-7.227-0.979-10.098,5.381-7.71,6.602
	c2.386,1.223,8.472,3.668,2.766,4.4c-5.706,0.734-17.498,4.404-11.031,6.848C60.099,201.133,65.043,201.732,65.043,201.732z"/>
<path fill="#008A2E" d="M131.514,128.37c0,0,8.485,2.967,16.56,2.166c8.078-0.799,10.815-4.639,9.072-7.037
	c-1.742-2.4-10.839-3.682-5.918-4.641c4.924-0.959,5.918-0.959,3.181-4c-2.738-3.037-4.879-3.418-2.418-4.477
	c2.458-1.061-1.81-2.602-2.308-4.101c-0.5-1.498-5.975-3.678-3.733-6.027c2.239-2.352-2.982-3.952-1.369-6.35
	c1.617-2.4,0-6.559,0-6.559s-3.137,11.778-7.617,11.617c-4.48-0.161-2.713,1.18-0.971,3.261c1.743,2.08,3.733,4.119,0,4.059
	c-3.733-0.059-8.459,2.5-5.724,3.621c2.738,1.119,8.959,5.438,4.232,4.799c-4.729-0.641-6.607,3.52-5.044,4.32
	c1.561,0.797,5.542,2.398,1.808,2.879c-3.732,0.479-11.448,2.879-7.216,4.479C128.278,127.979,131.514,128.37,131.514,128.37z"/>
<path fill="#0C4223" d="M173.907,140.606c0,0,8.484,2.967,16.561,2.166c8.077-0.799,10.815-4.639,9.072-7.037
	c-1.743-2.402-10.838-3.682-5.919-4.641c4.923-0.959,5.919-0.959,3.181-4c-2.737-3.037-4.878-3.418-2.418-4.479
	c2.455-1.061-1.811-2.6-2.309-4.1c-0.499-1.496-5.974-3.676-3.733-6.027c2.239-2.35-2.982-3.951-1.369-6.351
	c1.616-2.398,0-6.558,0-6.558s-3.137,11.778-7.617,11.618c-4.48-0.162-2.713,1.18-0.972,3.26c1.743,2.08,3.734,4.119,0,4.059
	c-3.732-0.059-8.458,2.5-5.723,3.619c2.738,1.121,8.959,5.439,4.232,4.801c-4.73-0.641-6.607,3.518-5.045,4.32
	c1.561,0.797,5.541,2.398,1.809,2.879c-3.733,0.48-11.448,2.879-7.216,4.479C170.671,140.214,173.907,140.606,173.907,140.606z"/>
<path fill="#008A2E" d="M231.928,170.222c0,0,8.485,2.967,16.561,2.168c8.077-0.799,10.814-4.639,9.072-7.039
	c-1.744-2.4-10.84-3.68-5.917-4.639c4.922-0.961,5.917-0.961,3.178-4c-2.735-3.039-4.877-3.42-2.419-4.479
	c2.458-1.061-1.809-2.602-2.308-4.102c-0.499-1.498-5.973-3.676-3.731-6.025c2.239-2.352-2.983-3.951-1.368-6.352
	c1.617-2.4,0-6.559,0-6.559s-3.139,11.777-7.617,11.617c-4.481-0.16-2.715,1.182-0.973,3.26c1.745,2.08,3.734,4.119,0,4.059
	c-3.733-0.059-8.46,2.5-5.722,3.621c2.737,1.119,8.959,5.438,4.23,4.799c-4.727-0.641-6.605,3.52-5.045,4.318
	c1.561,0.801,5.543,2.4,1.808,2.881c-3.731,0.48-11.447,2.879-7.215,4.479C228.692,169.829,231.928,170.222,231.928,170.222z"/>
<path fill="#009036" d="M87.082,89.752c0,0,4.99,1.746,9.74,1.274c4.75-0.47,6.359-2.728,5.335-4.139s-6.374-2.163-3.479-2.728
	c2.894-0.565,3.479-0.565,1.869-2.353c-1.61-1.787-2.868-2.01-1.422-2.633c1.445-0.623-1.063-1.529-1.357-2.412
	c-0.293-0.881-3.512-2.162-2.196-3.544c1.316-1.382-1.754-2.324-0.804-3.734c0.95-1.412,0-3.857,0-3.857s-1.846,6.925-4.481,6.833
	c-2.633-0.095-1.596,0.694-0.569,1.916c1.025,1.225,2.194,2.424,0,2.387c-2.195-0.033-4.975,1.471-3.366,2.128
	c1.61,0.66,5.268,3.198,2.487,2.825c-2.78-0.378-3.884,2.068-2.965,2.539c0.918,0.471,3.259,1.412,1.064,1.693
	c-2.196,0.283-6.733,1.694-4.246,2.634C85.18,89.522,87.082,89.752,87.082,89.752z"/>
<path fill="#009036" d="M15.495,54.352c0,0,4.99,1.745,9.74,1.273c4.748-0.47,6.358-2.727,5.334-4.139
	c-1.025-1.411-6.375-2.163-3.48-2.728c2.894-0.565,3.48-0.565,1.87-2.353c-1.611-1.786-2.87-2.009-1.423-2.633
	c1.445-0.623-1.063-1.528-1.356-2.411c-0.293-0.881-3.512-2.162-2.195-3.544s-1.754-2.324-0.805-3.734c0.95-1.412,0-3.856,0-3.856
	s-1.846,6.925-4.479,6.831c-2.635-0.094-1.596,0.695-0.571,1.918c1.025,1.223,2.195,2.422,0,2.386
	c-2.195-0.034-4.975,1.47-3.365,2.129c1.608,0.658,5.267,3.198,2.487,2.822c-2.78-0.376-3.886,2.068-2.967,2.54
	c0.919,0.47,3.261,1.412,1.065,1.694c-2.196,0.282-6.733,1.692-4.245,2.633C13.592,54.122,15.495,54.352,15.495,54.352z"/>
<path fill="#009036" d="M120.858,56.948c0,0,4.99,1.745,9.74,1.274c4.749-0.47,6.359-2.728,5.334-4.139
	c-1.025-1.412-6.375-2.163-3.48-2.728c2.895-0.565,3.48-0.565,1.87-2.353c-1.611-1.786-2.87-2.009-1.423-2.633
	c1.446-0.624-1.063-1.528-1.357-2.411c-0.292-0.882-3.513-2.162-2.196-3.545c1.318-1.382-1.754-2.324-0.804-3.734
	c0.95-1.412,0-3.858,0-3.858s-1.845,6.926-4.479,6.833c-2.634-0.094-1.596,0.694-0.571,1.917c1.025,1.224,2.197,2.422,0,2.386
	c-2.195-0.035-4.974,1.469-3.365,2.129c1.609,0.659,5.269,3.197,2.488,2.822c-2.78-0.377-3.885,2.069-2.966,2.54
	c0.917,0.47,3.259,1.411,1.064,1.694c-2.197,0.281-6.734,1.693-4.245,2.633C118.955,56.717,120.858,56.948,120.858,56.948z"/>
<path fill="#009036" d="M73.979,43.593c0,0,2.245,0.786,4.383,0.573c2.136-0.21,2.861-1.228,2.401-1.862
	c-0.462-0.635-2.871-0.973-1.567-1.228c1.302-0.254,1.567-0.254,0.841-1.058c-0.723-0.805-1.29-0.905-0.64-1.186
	c0.651-0.28-0.479-0.688-0.61-1.085c-0.132-0.396-1.582-0.973-0.988-1.595c0.593-0.622-0.789-1.046-0.362-1.68
	c0.427-0.635,0-1.736,0-1.736s-0.83,3.116-2.016,3.074s-0.718,0.313-0.256,0.862c0.46,0.552,0.987,1.091,0,1.075
	c-0.989-0.016-2.238,0.661-1.515,0.958c0.724,0.295,2.37,1.438,1.119,1.27c-1.252-0.17-1.748,0.931-1.336,1.143
	c0.414,0.211,1.469,0.634,0.479,0.762c-0.986,0.126-3.03,0.762-1.91,1.185S73.979,43.593,73.979,43.593z"/>
<path fill="#009036" d="M109.323,46.522c0,0,2.246,0.785,4.382,0.574c2.137-0.212,2.861-1.228,2.401-1.863
	c-0.461-0.635-2.869-0.974-1.567-1.228c1.303-0.254,1.567-0.254,0.843-1.059s-1.291-0.905-0.641-1.186
	c0.65-0.279-0.479-0.688-0.61-1.084c-0.133-0.397-1.582-0.974-0.989-1.596c0.593-0.622-0.789-1.045-0.362-1.681
	c0.428-0.634,0-1.736,0-1.736s-0.831,3.118-2.016,3.076c-1.185-0.042-0.719,0.312-0.256,0.863c0.46,0.55,0.986,1.089,0,1.074
	c-0.989-0.015-2.238,0.662-1.515,0.958c0.725,0.298,2.371,1.439,1.12,1.27c-1.252-0.169-1.749,0.933-1.336,1.143
	c0.413,0.212,1.468,0.635,0.479,0.763c-0.986,0.127-3.03,0.762-1.91,1.185C108.467,46.418,109.323,46.522,109.323,46.522z"/>
<path fill="#009036" d="M41.439,43.593c0,0,2.246,0.786,4.383,0.573c2.137-0.21,2.861-1.228,2.401-1.862
	c-0.462-0.635-2.869-0.973-1.567-1.228c1.303-0.254,1.567-0.254,0.841-1.058c-0.723-0.805-1.29-0.905-0.639-1.186
	c0.649-0.28-0.479-0.688-0.611-1.085c-0.133-0.396-1.582-0.973-0.988-1.595c0.593-0.622-0.789-1.046-0.362-1.68
	c0.427-0.635,0-1.736,0-1.736s-0.831,3.116-2.016,3.074c-1.187-0.042-0.717,0.313-0.257,0.862c0.461,0.552,0.987,1.091,0,1.075
	c-0.988-0.016-2.238,0.661-1.515,0.958c0.725,0.295,2.372,1.438,1.12,1.27c-1.251-0.17-1.748,0.931-1.334,1.143
	c0.413,0.211,1.467,0.634,0.479,0.762c-0.987,0.126-3.031,0.762-1.91,1.185C40.583,43.49,41.439,43.593,41.439,43.593z"/>
<path fill="#009036" d="M30.99,43.716c0,0,1.704,0.597,3.327,0.435c1.623-0.159,2.172-0.931,1.824-1.414
	c-0.352-0.482-2.18-0.739-1.191-0.932c0.99-0.193,1.191-0.193,0.639-0.804c-0.549-0.611-0.979-0.686-0.484-0.9
	c0.492-0.213-0.365-0.521-0.464-0.823c-0.101-0.301-1.2-0.738-0.75-1.21c0.451-0.472-0.599-0.793-0.274-1.276
	c0.325-0.482,0-1.318,0-1.318s-0.63,2.368-1.53,2.334c-0.901-0.032-0.546,0.237-0.195,0.656c0.35,0.418,0.75,0.827,0,0.815
	c-0.75-0.012-1.7,0.502-1.149,0.728c0.549,0.224,1.798,1.092,0.849,0.963c-0.95-0.128-1.327,0.708-1.013,0.868
	c0.314,0.161,1.114,0.482,0.363,0.578c-0.75,0.096-2.3,0.579-1.45,0.9S30.99,43.716,30.99,43.716z"/>
<path fill="#0C4223" d="M24.966,41.637c0,0,1.388,0.485,2.709,0.354c1.321-0.13,1.769-0.759,1.484-1.15
	c-0.286-0.392-1.773-0.604-0.968-0.76c0.806-0.157,0.968-0.157,0.52-0.653c-0.448-0.498-0.798-0.561-0.396-0.733
	c0.403-0.172-0.296-0.426-0.377-0.67c-0.082-0.246-0.978-0.601-0.611-0.986c0.367-0.385-0.487-0.646-0.224-1.039
	c0.265-0.393,0-1.073,0-1.073s-0.513,1.926-1.246,1.899c-0.732-0.025-0.443,0.194-0.157,0.535c0.285,0.339,0.61,0.672,0,0.663
	c-0.611-0.011-1.385,0.408-0.937,0.593c0.448,0.182,1.465,0.888,0.691,0.785c-0.774-0.104-1.08,0.575-0.825,0.707
	c0.255,0.129,0.908,0.392,0.297,0.47s-1.874,0.471-1.181,0.732C24.436,41.573,24.966,41.637,24.966,41.637z"/>
<path fill="#0C4223" d="M71.832,69.562c0,0,4.991,1.745,9.74,1.274c4.75-0.47,6.36-2.727,5.334-4.139
	c-1.024-1.411-6.373-2.164-3.479-2.728c2.895-0.564,3.479-0.564,1.871-2.352c-1.61-1.788-2.87-2.011-1.423-2.634
	c1.444-0.623-1.064-1.528-1.358-2.411c-0.294-0.881-3.512-2.161-2.196-3.544c1.317-1.382-1.753-2.323-0.804-3.734
	c0.95-1.411,0-3.857,0-3.857s-1.845,6.925-4.479,6.833c-2.634-0.095-1.595,0.693-0.57,1.917c1.024,1.224,2.193,2.423,0,2.386
	c-2.196-0.034-4.976,1.471-3.367,2.13c1.61,0.659,5.268,3.196,2.488,2.822c-2.78-0.376-3.884,2.068-2.967,2.539
	c0.918,0.47,3.26,1.412,1.065,1.694c-2.195,0.283-6.733,1.693-4.245,2.634C69.93,69.332,71.832,69.562,71.832,69.562z"/>
<path fill="#0C4223" d="M49.167,29.723c0,0,4.991,1.745,9.739,1.273c4.75-0.47,6.36-2.728,5.335-4.139
	c-1.025-1.411-6.375-2.163-3.478-2.728c2.893-0.564,3.478-0.564,1.869-2.352c-1.61-1.788-2.869-2.011-1.422-2.634
	c1.444-0.623-1.065-1.528-1.358-2.411c-0.293-0.88-3.513-2.162-2.196-3.544s-1.754-2.323-0.804-3.735c0.951-1.411,0-3.857,0-3.857
	s-1.846,6.926-4.48,6.832c-2.635-0.095-1.596,0.694-0.57,1.917c1.025,1.224,2.194,2.424,0,2.387
	c-2.196-0.034-4.975,1.471-3.366,2.13c1.608,0.658,5.267,3.196,2.488,2.822c-2.781-0.377-3.884,2.068-2.968,2.54
	c0.919,0.47,3.261,1.411,1.065,1.693c-2.194,0.283-6.733,1.692-4.245,2.633C47.267,29.493,49.167,29.723,49.167,29.723z"/>
<path fill="#00632E" d="M95.399,42.463c0,0,4.99,1.745,9.739,1.274c4.749-0.47,6.359-2.727,5.334-4.139
	c-1.025-1.411-6.374-2.162-3.479-2.727c2.893-0.565,3.479-0.565,1.869-2.353c-1.608-1.787-2.869-2.011-1.422-2.633
	c1.445-0.624-1.064-1.528-1.357-2.412c-0.293-0.881-3.512-2.162-2.194-3.545c1.317-1.382-1.755-2.323-0.805-3.735
	c0.951-1.411,0-3.856,0-3.856s-1.846,6.926-4.481,6.832c-2.633-0.095-1.594,0.694-0.568,1.917c1.024,1.223,2.194,2.423,0,2.387
	c-2.196-0.035-4.976,1.469-3.367,2.129c1.609,0.659,5.269,3.198,2.487,2.822c-2.78-0.377-3.884,2.07-2.966,2.541
	c0.918,0.471,3.26,1.411,1.064,1.693c-2.194,0.282-6.733,1.693-4.243,2.633C93.495,42.233,95.399,42.463,95.399,42.463z"/>
<path fill="#97BF0D" d="M63.693,32.857c0,0,4.049,1.417,7.904,1.034c3.854-0.381,5.162-2.213,4.331-3.358
	c-0.832-1.146-5.173-1.756-2.824-2.214c2.348-0.458,2.824-0.458,1.517-1.909c-1.306-1.45-2.329-1.631-1.156-2.137
	c1.173-0.506-0.863-1.241-1.1-1.958c-0.239-0.714-2.853-1.755-1.783-2.876c1.069-1.122-1.423-1.887-0.652-3.032
	c0.771-1.146,0-3.129,0-3.129s-1.497,5.619-3.636,5.544c-2.138-0.076-1.294,0.563-0.463,1.556c0.832,0.993,1.782,1.966,0,1.937
	c-1.781-0.028-4.038,1.192-2.73,1.728c1.306,0.535,4.274,2.596,2.017,2.291c-2.256-0.305-3.151,1.679-2.407,2.061
	c0.745,0.381,2.646,1.145,0.864,1.375C61.793,30,58.11,31.145,60.13,31.906C62.149,32.671,63.693,32.857,63.693,32.857z"/>
<path fill="#00632E" d="M83.042,35.92c0,0,4.048,1.417,7.903,1.034c3.855-0.38,5.161-2.213,4.331-3.358
	c-0.832-1.146-5.173-1.757-2.824-2.214c2.349-0.458,2.824-0.458,1.518-1.909c-1.308-1.451-2.331-1.631-1.155-2.137
	c1.173-0.506-0.863-1.241-1.101-1.958c-0.239-0.715-2.853-1.755-1.783-2.877c1.068-1.122-1.424-1.886-0.652-3.031
	c0.771-1.145,0-3.13,0-3.13s-1.499,5.62-3.637,5.545c-2.139-0.077-1.294,0.563-0.463,1.556c0.832,0.993,1.781,1.965,0,1.937
	c-1.779-0.028-4.038,1.193-2.73,1.728c1.305,0.535,4.274,2.595,2.018,2.291c-2.255-0.307-3.151,1.678-2.407,2.06
	c0.745,0.382,2.646,1.145,0.865,1.375c-1.783,0.23-5.465,1.375-3.447,2.137C81.499,35.733,83.042,35.92,83.042,35.92z"/>
<path fill="#008A2E" d="M72.005,35.92c0,0,4.051,1.417,7.905,1.034c3.854-0.381,5.161-2.214,4.331-3.359
	c-0.833-1.145-5.175-1.756-2.825-2.214c2.347-0.457,2.825-0.457,1.517-1.909c-1.306-1.449-2.328-1.631-1.155-2.137
	c1.173-0.505-0.863-1.241-1.102-1.957c-0.237-0.715-2.85-1.755-1.78-2.876c1.068-1.122-1.425-1.886-0.654-3.032
	c0.771-1.146,0-3.13,0-3.13s-1.498,5.621-3.635,5.544c-2.138-0.076-1.296,0.563-0.463,1.557c0.83,0.992,1.781,1.966,0,1.937
	c-1.782-0.028-4.038,1.193-2.732,1.728c1.307,0.534,4.275,2.595,2.018,2.29c-2.255-0.305-3.151,1.679-2.405,2.061
	c0.744,0.382,2.645,1.146,0.863,1.375c-1.782,0.229-5.465,1.375-3.446,2.137C70.462,35.732,72.005,35.92,72.005,35.92z"/>
<path fill="#008A2E" d="M178.524,166.802c0,0,6.046,2.115,11.802,1.545c5.754-0.57,7.706-3.305,6.464-5.018
	c-1.241-1.711-7.724-2.619-4.216-3.305c3.506-0.684,4.216-0.684,2.266-2.85c-1.95-2.166-3.477-2.436-1.726-3.191
	c1.752-0.754-1.29-1.854-1.643-2.922c-0.356-1.068-4.256-2.621-2.661-4.295c1.595-1.674-2.126-2.814-0.974-4.527
	c1.151-1.709,0-4.672,0-4.672s-2.237,8.393-5.429,8.279c-3.192-0.113-1.932,0.842-0.691,2.322c1.243,1.482,2.661,2.936,0,2.893
	c-2.66-0.043-6.028,1.779-4.078,2.578c1.951,0.801,6.384,3.877,3.014,3.422c-3.368-0.457-4.708,2.506-3.594,3.078
	c1.112,0.57,3.949,1.709,1.289,2.051c-2.661,0.344-8.157,2.053-5.143,3.191C176.219,166.522,178.524,166.802,178.524,166.802z"/>
<path fill="#97BF0D" d="M19.78,179.545c0,0-14.072-1.115-9.127-7.402c4.944-6.289,12.93-7.512,7.226-10.445
	c-5.706-2.934-4.42-6.357,1.974-8.803c6.395-2.443-4.255-4.305,1.45-7.898c5.705-3.592,10.269-5.303,3.804-8.482
	c-6.466-3.18-4.945-5.383-0.761-8.559c4.184-3.178,12.552-12.713,12.17-8.557c-0.379,4.154-4.159,7.822,0.012,11.002
	c4.172,3.18-4.617,6.523,5.694,8.803c10.311,2.279,9.335,7.004,4.858,7.537c-4.478,0.531-10.944,4.344-4.097,8.674
	c6.846,4.328,9.35,8.777,4.563,10.439c-4.786,1.666-7.606,8.875-1.521,10.918c6.086,2.041,1.141,5.221-3.042,4.975
	C38.798,181.502,19.78,179.545,19.78,179.545z"/>
<g>
	<path fill="#B07F48" d="M122.813,206.263c0,0,21.011-14.184,17.419-21.029c-3.59-6.844-1.734-11.848,0-15.949
		c1.733-4.1-1.893-10.943,17.417-5.566c19.308,5.379,43.652,18.412,48.976,13.852c5.327-4.561,1.471-16.537,23.245-16.699
		c21.775-0.158,45.983,18.008,61.96,18.984c15.972,0.979,24.342,9.678,27.384,16.574c3.042,6.9,14.452,17.637,14.452,17.637H113.096
		L122.813,206.263z"/>
	<path fill="#915E36" d="M225.263,160.87c0,0-12.552-1.176-10.269,13.549c2.281,14.729-1.418,18.291,4.996,22.01
		s35.898-7.789,28.474,1.273c-7.423,9.066-10.648,10.271-10.648,10.271s28.288-11.834,20.609,1.174
		c-7.678,13.008,44.814,4.205,57.364,4.938c12.553,0.734,12.553,0.734,12.553,0.734l5.323-0.754c0,0-14.211-28.568-29.8-31.621
		c-15.591-3.057-34.411-8.572-45.801-14.6C242.759,159.749,225.263,160.87,225.263,160.87z"/>
	<path fill="#41281B" d="M144.344,171.542c0,0-2.379,6.848,3.327,3.912c5.704-2.934,6.466-3.912,6.466-3.912
		s-2.105,4.398,3.511,6.357c5.617,1.955,7.899,3.914,7.519,8.559c-0.379,4.645-7.519,3.666-7.519-2.445
		c0-6.113-0.469-9.049-7.315-6.113c-6.847,2.934-11.075,1.711-10.101-1.223C141.204,173.743,144.344,171.542,144.344,171.542z"/>
	<path fill="#41281B" d="M160.602,196.429c0,0,9.508-7.281,20.921-5.57c11.41,1.711,19.018,8.037,24.723-0.262
		c5.706-8.297,1.907-18.906,5.625-22.697c3.721-3.793,11.986-8.291,11.359,0c-0.629,8.289,8.118-0.025,6.218,8.045
		c-1.901,8.068-5.325,3.666-2.283,6.111c3.043,2.443-8.33,3.912-3.784,9.047c4.545,5.133-3.841,7.563-12.57,5.326
		c-8.731-2.234-13.423-4.496-15.651,0.836c-2.227,5.33-12.877,2.15-18.582,4.84c-5.706,2.691-6.765,0.297-11.371-2.689
		C160.602,196.429,160.602,196.429,160.602,196.429z"/>
	<path fill="#41281B" d="M127.379,206.263c0,0,8.836-2.689,12.852,0c4.016,2.689,5.917-3.182,7.82-4.893
		c1.901-1.709-6.848,2.201-9.128,0c-2.282-2.201-3.801-1.74-7.227-0.447C128.27,202.22,127.379,206.263,127.379,206.263z"/>
	<path fill="#41281B" d="M237.816,207.974c0,0,24.722-9.781,22.058-2.689c-2.661,7.09-2.661,7.09-2.661,7.09h9.508
		c0,0-5.705-5.623-1.9-10.758c3.803-5.135,4.564-10.557,4.945-12.246c0.379-1.691-3.042,7.355-9.129,9.066
		c-6.086,1.711-22.821,7.506-22.821,8.52C237.816,207.974,237.816,207.974,237.816,207.974z"/>
</g>
<path fill="#B07F48" d="M352.014,214.065c0,0,6.195-14.641,3.098-18.805s-15.103-10.986-13.553-12.559
	c1.551-1.574,0.886-2.682-0.138-5.174c-1.024-2.492-1.026-16.615,7.3-22.154c8.326-5.537,4.454-7.455,14.135-5.389
	s9.681,2.066,9.681,2.066s28.267-18.832,34.848-16.893c6.585,1.938,12.781,5.537,12.781,5.537s5.032-16.613,11.614-20.49
	c6.584-3.877,7.747-7.754,15.104-5.539c7.355,2.215,36.783,19.385,38.72,21.877c1.938,2.494,1.938,2.494,1.938,2.494
	s18.198,3.598,30.978,9.137c12.779,5.537,15.875,9.969,28.267,13.846c12.39,3.877,28.653,21.045,29.814,25.477
	c1.162,4.43,5.362-2.012,22.072,11.076c17.396,13.625,16.002,13.568,16.002,13.568v1.924H352.014z"/>
<path fill="#3E3D40" d="M635.393,208.585c0,0-4.563-7.703-13.122-11.004c-8.558-3.301-20.54-10.113-20.54-10.113
	s-1.711,1.311,4.564,8.279s6.275,6.969,6.275,6.969s2.283,3.668,10.842,5.869c8.557,2.199,11.98,1.832,11.98,1.832V208.585z"/>
<path fill="#3E3D40" d="M589.75,198.954c0,0,7.56-1.928,11.768,0s7.06,1.813,7.06,1.813s-1.011,1.238-7.638-5.926"/>
<path fill="#41281B" d="M589.75,185.845c-3.994-4.768-10.84-10.5-21.681-13.318s-14.834-6.852-22.251-8.318
	c-7.419-1.469-16.546-6.604-19.969,0c-3.422,6.6,1.711,4.777,3.423,9.172c1.712,4.396,16.546,1.463,16.546,6.596
	c0,5.137,8.558-7.699,23.962,1.469c15.405,9.17,23.394,9.559,19.97,13.396C586.326,198.683,589.75,185.845,589.75,185.845z"/>
<path fill="#915E36" d="M451.107,123.13c0,0,4.565,7.703,15.976,9.902c11.411,2.199,21.681,6.969,21.681,6.969
	s10.271-0.367,14.262,4.4c3.995,4.768,3.995,5.215,11.983,6.459c7.988,1.242,25.675-1.691,34.233,2.711
	c8.558,4.4,25.672,15.904,32.521,18.955c6.847,3.051,17.4,5.713,17.4,5.713s-23.106-22.387-36.229-27.379
	c-13.121-4.992-39.937,2.201-46.782-3.047c-6.848-5.246-12.554-9.646-18.257-10.014c-5.708-0.365-18.259-2.201-22.254-5.867
	c-3.993-3.668-15.975-2.566-17.115-5.135C457.384,124.229,451.107,123.13,451.107,123.13z"/>
<path fill="#673B15" d="M443.123,134.864c0,0,14.261,7.338,14.833,11.371c0.569,4.035-3.995,0.367-7.417,0
	c-3.424-0.367,8.556,2.666,16.544,4.449c7.987,1.785,5.136,10.223,0,6.92c-5.135-3.301-18.257-6.92-18.257-6.92
	s0,7.109,12.554,10.133c12.55,3.023,10.682,8.156,10.682,8.156s15.563-5.133,25.261,0c9.698,5.135,1.623-3.943-12.554-10.268
	c-14.173-6.326-3.421-7.656,3.995-6.029c7.42,1.627-6.026-0.717-16.42-4.863c-10.396-4.145-10.964-8.18-10.964-10.014
	s-11.114-3.055-10.272-0.365C451.951,140.122,443.123,134.864,443.123,134.864z"/>
<path fill="#41281B" d="M408.698,163.474c0,0,7.61,6.445,12.175,7.012c4.563,0.568,10.648,2.471,14.453,7.754
	c3.804,5.283,19.017,7.307,22.439,9.229c3.423,1.924,3.423,0,3.423,0s-1.903-4.924-10.081-5.902
	c-8.176-0.977-10.073-1.221-10.837-4.643c-0.762-3.426-14.835-9.295-18.638-9.781c-3.804-0.49,3.063-4.787,5.705-0.98
	c2.64,3.809,7.603,5.381,15.785,6.115c8.176,0.732,5.137,5.57,9.699,5.963c4.565,0.393,2.664,4.305,10.271,5.773
	c7.605,1.465,7.605,1.465,7.605,1.465s-10.65-5.377-11.409-8.313c-0.76-2.934-8.752-0.734-8.182-4.402
	c0.575-3.666-10.459-3.176-14.642-4.889s-10.267-6.355-14.452-5.867C417.829,162.495,408.698,163.474,408.698,163.474z"/>
<path fill="#915E36" d="M447.877,188.567c0,0,15.214,12.559,16.736,17.938c1.52,5.379,3.045,7.561,3.045,7.561
	s1.139-7.25,9.128-3.625c7.987,3.625,11.789,3.625,11.789,3.625s-13.694-5.359-17.877-9.516c-4.182-4.156,0.382-4.852-5.705-6.705
	C458.905,195.993,447.877,188.567,447.877,188.567z"/>
<path fill="#41281B" d="M401.754,139.021c0,0,0.376,4.893-1.905,5.381c-2.28,0.488,8.37,0.471,8.75,3.412
	c0.379,2.945,12.553,11.504,12.553,11.504s-0.384-5.137,8.366-3.668c8.749,1.467,28.147,3.668,28.147,3.668
	s-4.566-4.967-3.045-6.641c1.522-1.674-20.538-11.943-22.821-8.275c-2.281,3.668-6.085,11.248-10.271,4.768
	C417.348,142.69,401.754,139.021,401.754,139.021z"/>
<path fill="#41281B" d="M461.088,167.386c0,0,4.943,10.27,14.071,12.469c9.129,2.201,17.116,6.848,17.499,11.736
	c0.381,4.891,0,6.254,0,6.254s6.085-6.877,8.368-2.287c2.282,4.59,4.183,5.76,4.183,5.76s-2.664-7.381,2.283-6.477
	c4.943,0.906,4.943,0.906,4.943,0.906s-3.424-4.576-5.326-8.279c-1.9-3.701-10.647,0.404-20.349-9.229
	C477.063,168.606,461.088,167.386,461.088,167.386z"/>
<path fill="#41281B" d="M437.126,201.317l9.506,12.748h7.988c0,0-6.085-2.25-4.564-6.373c1.524-4.121,9.132,0.326,11.032,2.748
	c1.901,2.422-7.986-9.068-9.13-13.715c-1.14-4.645-0.76,16.119-7.226,8.672C438.267,197.948,437.126,201.317,437.126,201.317z"/>
<path fill="#41281B" d="M388.438,147.813c0,0-2.66,4.412,2.665,5.879c5.323,1.467,16.354,10.023,12.551,11.736
	c-3.805,1.713-3.805,1.713-3.805,1.713s7.991-0.49,12.174,5.867s8.746,6.846,8.746,6.846s-8.369-7.088-7.228-12.469
	c1.144-5.379,11.412-3.551,11.412-3.551s-16.735,4.516-16.735,0c0-4.518-11.414-12-14.076-13.15
	C391.483,149.536,388.438,147.813,388.438,147.813z"/>
<path fill="#41281B" d="M415.444,132.667c0,0,17.524-1.355,28.279,1.703c2.181,0.621,4.083,1.42,5.503,2.451
	c8.438,6.113,17.944,11.229,25.933,10.992c7.987-0.232,11.794,2.211,15.597,1.355c3.802-0.854,3.423,1.08,8.747-1.355
	c5.326-2.432,7.229-6.953,7.229-6.953s-3.043,7.943-19.972,4.275c-16.924-3.668-18.07,1.223-20.729-2.689
	c-2.661-3.912-15.213-9.293-19.775-11.248C441.688,129.243,415.444,132.667,415.444,132.667z"/>
<path fill="#00632E" d="M452.441,167.386c0,0,37.656,0.822,43.36,3.1c5.708,2.277,19.336-4.23,27.004,0
	c7.671,4.232,23.967,8.391,24.728,12.059c0.76,3.668,21.883-4.783,28.248,2.254c6.362,7.037,13.591,10.516,20.816,14.156
	c7.225,3.641,31.57,15.111,31.57,15.111s-34.229-1.416-49.827-9.012c-15.595-7.594-43.364-15.664-62.38-13.219
	c-19.018,2.445-40.071-5.92-43.617-13.596C468.797,170.563,452.441,167.386,452.441,167.386z"/>
<path fill="#41A62A" d="M146.549,151.14c0,0,8.484,2.965,16.56,2.164c8.077-0.799,10.814-4.639,9.073-7.039
	c-1.743-2.398-10.838-3.678-5.917-4.639c4.921-0.959,5.917-0.959,3.179-3.998c-2.737-3.039-4.878-3.42-2.419-4.48
	c2.457-1.059-1.811-2.6-2.307-4.1c-0.499-1.498-5.975-3.676-3.734-6.027c2.239-2.35-2.983-3.949-1.369-6.352
	c1.617-2.398,0-6.557,0-6.557s-3.139,11.775-7.616,11.615c-4.479-0.158-2.712,1.182-0.971,3.262c1.743,2.08,3.733,4.119,0,4.059
	c-3.734-0.059-8.459,2.502-5.722,3.621c2.735,1.119,8.958,5.438,4.23,4.799c-4.729-0.641-6.607,3.518-5.045,4.318
	c1.562,0.801,5.542,2.402,1.811,2.881c-3.733,0.48-11.45,2.879-7.22,4.477C143.313,150.745,146.549,151.14,146.549,151.14z"/>
<path fill="#41A62A" d="M623.829,182.946c0,0,5.987,2.096,11.685,1.529c5.699-0.564,7.632-3.273,6.402-4.967
	s-7.648-2.596-4.177-3.275c3.474-0.676,4.177-0.676,2.246-2.82c-1.935-2.145-3.445-2.412-1.707-3.16
	c1.731-0.748-1.279-1.834-1.631-2.893s-4.215-2.596-2.633-4.254c1.58-1.656-2.104-2.787-0.966-4.479c1.141-1.693,0-4.629,0-4.629
	s-2.212,8.311-5.373,8.197c-3.159-0.113-1.915,0.832-0.687,2.299c1.23,1.469,2.633,2.908,0,2.865
	c-2.636-0.041-5.969,1.764-4.037,2.553c1.931,0.793,6.32,3.838,2.984,3.389c-3.336-0.453-4.662,2.482-3.562,3.047
	c1.102,0.564,3.913,1.693,1.277,2.031c-2.632,0.338-8.077,2.033-5.09,3.16C621.545,182.669,623.829,182.946,623.829,182.946z"/>
<path fill="#0C4223" d="M636.591,184.794c0,0,6.445,2.254,12.582,1.646c6.136-0.607,8.214-3.523,6.891-5.348
	c-1.322-1.824-8.234-2.797-4.497-3.525c3.742-0.729,4.497-0.729,2.418-3.037c-2.08-2.311-3.71-2.6-1.839-3.402
	c1.866-0.805-1.374-1.975-1.752-3.115c-0.38-1.139-4.541-2.793-2.837-4.58c1.702-1.785-2.264-3-1.039-4.824
	c1.227-1.824,0-4.98,0-4.98s-2.385,8.947-5.787,8.824c-3.402-0.121-2.059,0.896-0.734,2.477c1.321,1.58,2.832,3.131,0,3.084
	c-2.837-0.045-6.429,1.898-4.351,2.75c2.079,0.852,6.806,4.131,3.214,3.646s-5.021,2.674-3.834,3.281
	c1.187,0.605,4.212,1.824,1.376,2.186c-2.834,0.367-8.698,2.189-5.482,3.404C634.133,184.495,636.591,184.794,636.591,184.794z"/>
<path fill="#0C4223" d="M608.305,172.981c0,0,5.989,2.094,11.687,1.527c5.7-0.561,7.631-3.271,6.402-4.965
	c-1.23-1.691-7.646-2.594-4.175-3.273c3.473-0.676,4.175-0.676,2.243-2.822c-1.93-2.145-3.443-2.412-1.71-3.16
	c1.736-0.748-1.275-1.832-1.626-2.893c-0.354-1.059-4.216-2.596-2.634-4.254c1.577-1.658-2.107-2.787-0.964-4.479
	c1.136-1.693,0-4.629,0-4.629s-2.216,8.311-5.374,8.197c-3.163-0.115-1.918,0.83-0.689,2.301c1.231,1.467,2.637,2.908,0,2.863
	c-2.633-0.041-5.968,1.764-4.039,2.555c1.936,0.791,6.325,3.836,2.985,3.387c-3.337-0.453-4.659,2.484-3.559,3.049
	c1.102,0.564,3.915,1.691,1.279,2.031c-2.635,0.34-8.079,2.031-5.095,3.158C606.021,172.706,608.305,172.981,608.305,172.981z"/>
<path fill="#00632E" d="M61.842,87.887c0,0,14.264,2.199,17.118,0c2.85-2.203-9.699-6.99-6.277-6.246
	c3.423,0.744,2.853,5.146,9.127,4.042c6.277-1.1-7.985-2.566-5.133-8.068c2.852-5.5,3.795,2.566,6.748,0
	c2.952-2.566-9.031-5.867-6.748-8.801c2.283-2.933,7.59,2.934,7.218,0c-0.373-2.933-13.105-2.2-11.017-9.536
	c2.086-7.334-5.902-10.27-7.613-3.301s1.142,11.004-3.423,10.271c-4.563-0.734-7.988,5.084-2.281,4.192
	c5.704-0.892,10.84,3.142,5.134,3.142c-5.705,0-10.542,0-8.125,2.201c2.419,2.2,5.843,8.049,1.278,5.858
	c-4.565-2.191-10.842,0.744-6.275,2.943C56.136,86.787,61.842,87.887,61.842,87.887z"/>
<path fill="#0C4223" d="M100.909,100.924c0,0,8.485,2.966,16.561,2.165c8.077-0.799,10.815-4.639,9.073-7.037
	c-1.742-2.4-10.839-3.68-5.917-4.64c4.922-0.959,5.917-0.959,3.18-4c-2.738-3.039-4.88-3.419-2.421-4.479
	c2.459-1.06-1.81-2.601-2.308-4.1c-0.498-1.499-5.973-3.678-3.732-6.028c2.238-2.351-2.983-3.951-1.368-6.351
	c1.616-2.4,0-6.559,0-6.559s-3.139,11.779-7.617,11.618c-4.481-0.16-2.715,1.18-0.971,3.261c1.742,2.079,3.733,4.118,0,4.059
	c-3.734-0.06-8.461,2.499-5.723,3.62c2.736,1.12,8.957,5.438,4.23,4.799c-4.729-0.64-6.607,3.52-5.045,4.32
	c1.562,0.799,5.543,2.399,1.81,2.88c-3.732,0.479-11.449,2.879-7.217,4.478C97.674,100.531,100.909,100.924,100.909,100.924z"/>
<path fill="#0C4223" d="M9.109,100.924c0,0,8.485,2.966,16.561,2.165c8.077-0.799,10.815-4.639,9.073-7.037
	c-1.742-2.4-10.839-3.68-5.917-4.64c4.922-0.959,5.917-0.959,3.18-4c-2.738-3.039-4.88-3.419-2.421-4.479
	c2.459-1.06-1.81-2.601-2.308-4.1c-0.498-1.499-5.973-3.678-3.732-6.028c2.238-2.351-2.983-3.951-1.368-6.351
	c1.616-2.4,0-6.559,0-6.559s-3.139,11.779-7.617,11.618c-4.481-0.16-2.715,1.18-0.971,3.261c1.742,2.079,3.733,4.118,0,4.059
	c-3.734-0.06-8.461,2.499-5.723,3.62c2.736,1.12,8.957,5.438,4.23,4.799c-4.729-0.64-6.607,3.52-5.045,4.32
	c1.562,0.799,5.543,2.399,1.81,2.88c-3.732,0.479-11.449,2.879-7.217,4.478C5.875,100.531,9.109,100.924,9.109,100.924z"/>
</svg>
