<?xml version="1.0" encoding="utf-8"?>
<!-- Generator: Adobe Illustrator 14.0.0, SVG Export Plug-In . SVG Version: 6.00 Build 43363)  -->
<!DOCTYPE svg PUBLIC "-//W3C//DTD SVG 1.1//EN" "http://www.w3.org/Graphics/SVG/1.1/DTD/svg11.dtd">
<svg version="1.1" id="Capa_1" xmlns="http://www.w3.org/2000/svg" xmlns:xlink="http://www.w3.org/1999/xlink" x="0px" y="0px"
	 width="70.87px" height="70.87px" viewBox="0 0 70.87 70.87" enable-background="new 0 0 70.87 70.87" xml:space="preserve">
<path fill="#41A62A" d="M51.881,33.677c0,0-6.795,3.816-6.982,0.755c-0.189-3.061-3.775-2.948-4.53-5.27
	c-0.755-2.321-4.718-6.75-7.36-6.707c-2.643,0.045,2.031-3.106,1.203-5.682c-0.825-2.577-3.846-2.38-3.846-6.347
	s0.755-6.229,1.133-7.929c0.377-1.701,3.208-1.427,4.152,0.89c0.943,2.316,7.36-2.179,9.059,1.012
	c1.698,3.192,3.396,1.359,5.851,1.427c2.453,0.067,6.228-0.31,6.605,2.898c0.378,3.208,1.698,4.792,0,9.757
	c-1.698,4.964-4.341,4.46-4.341,9.902C52.824,33.825,51.881,33.677,51.881,33.677z"/>
<path fill="#5F4C3F" d="M52.069,34.433c0,0,0.565,2.665-0.755,4.897c-1.321,2.232-3.586,5.358-5.096,2.664
	c-1.51-2.696-10.381-7.13-10.945-3.875c-0.567,3.255-4.719,4.145-8.116,1.623c-3.397-2.52-5.095,4.945-7.737,4.043
	c-2.642-0.902-8.682-4.393-9.059-7.177c-0.377-2.784,4.718-0.247,4.53-2.931c-0.189-2.684-1.133-4.318,1.698-5.294
	c2.831-0.975-3.964-8.901,0.755-7.391c4.719,1.509,8.682,2.638,7.737-0.191c-0.943-2.829-2.831-3.714-0.943-7.707
	c1.888-3.992,4.678-6.161,6.68-7.624c2.002-1.464-2.73,3.453,1.146,8.638c3.875,5.185-1.308,5.851-0.697,8.348
	c0.609,2.499,7.026,0.724,9.103,6.707c2.076,5.983,2.923,3.914,3.82,6.458c0.897,2.545,3.917,1.943,5.805,0
	C51.881,33.677,52.069,34.433,52.069,34.433z"/>
<path fill="#97BF0D" d="M20.175,46.142c0,0-1.511-1.37,0,1.083c1.509,2.453,2.452,6.549,0.755,6.011
	c-1.699-0.538-1.51-1.161-2.643,1.415c-1.132,2.576-2.264,2.389-1.509,3.521c0.754,1.132,5.095,2.61,6.228,3.664
	c1.132,1.054,3.774-1.243,4.151,0c0.378,1.243,2.454,2.997,0.755,3.535c-1.698,0.538,4.529,0.641,4.34,2.479
	c-0.188,1.838,2.031,2.168,1.959,0.68c-0.07-1.488-1.014-5.436,1.25-5.82c2.266-0.387,3.398-3.973,4.719-3.973
	s2.453-0.301,1.697-1.754c-0.754-1.454,2.939-2.832,0.243-3.747c-2.695-0.915-1.752-3.243-0.62-3.589
	c1.133-0.347,1.602-3.365,2.688-2.045c1.087,1.321,4.86,2.738,5.428,0.896c0.565-1.84,1.32-1.268,1.32-3.253
	c0-1.984-0.509-4.53-0.509-4.53S49.17,42.76,43.26,39.33c-5.911-3.43-6.345-2.987-9.525,0c-3.18,2.987-7.577,0.48-9.342,0.412
	c-1.766-0.067-1.766-0.067-1.766-0.067l-3.207,4.11L20.175,46.142z"/>
</svg>
