<?xml version="1.0" encoding="utf-8"?>
<!-- Generator: Adobe Illustrator 14.0.0, SVG Export Plug-In . SVG Version: 6.00 Build 43363)  -->
<!DOCTYPE svg PUBLIC "-//W3C//DTD SVG 1.1//EN" "http://www.w3.org/Graphics/SVG/1.1/DTD/svg11.dtd">
<svg version="1.1" id="Capa_1" xmlns="http://www.w3.org/2000/svg" xmlns:xlink="http://www.w3.org/1999/xlink" x="0px" y="0px"
	 width="70.87px" height="70.87px" viewBox="0 0 70.87 70.87" enable-background="new 0 0 70.87 70.87" xml:space="preserve">
<g>
	<circle fill="#ECEDED" cx="35.77" cy="41.631" r="26.315"/>
	<path fill="#BE0A26" d="M34.799,21.761c7.448-5.725,0-8.693,0-8.693s-22.041,2.228-27.755,23.28
		C1.33,57.402,25.249,68.455,35.152,68.529c15.954,0.123,27.835-10.705,26.933-27.459c-0.902-16.753-6.016-16.753-6.016-16.753
		l1.504-2.406c0,0,6.015,5.414,6.316-0.301c0.301-5.715-6.617-9.925-9.324-8.121s0,6.015,0,6.015l-1.504,2.707
		c0,0-2.105-5.112-7.218-6.617c-5.113-1.504-6.016,2.707-6.016,2.707s20.91,9.156,15.339,27.821
		c-4.512,15.113-19.851,18.422-31.581,4.285c-11.73-14.135-1.997-23.459,1.335-25.264C28.423,23.248,33.017,23.131,34.799,21.761z"
		/>
	<path d="M36.779,47.984c0,0-13.136-0.09-7.81-10.295c4.26-8.166,11.425-2.862,12.249,0.088c0.384,1.381-1.243,5.592-1.243,5.592
		s8.52,7.1,7.811,9.586c-0.711,2.484-3.142,1.654-5.065-0.297C37.791,47.666,36.779,47.984,36.779,47.984z"/>
	<path fill="#5F4C3F" d="M32.833,18.927l-0.674-9.573c0,0-7.669,0.275-7.218-3.158c0.451-3.433,2.03-3.433,7.218-3.433
		c5.188,0,10.377-0.952,11.054,0c0.677,0.952,2.932,3.515,0,4.94c-2.933,1.425-5.859,1.2-5.859,1.2l0.409,9.023L32.833,18.927z"/>
</g>
</svg>
