<?xml version="1.0" encoding="utf-8"?>
<!-- Generator: Adobe Illustrator 25.0.0, SVG Export Plug-In . SVG Version: 6.00 Build 0)  -->
<svg version="1.1" id="Capa_1" xmlns="http://www.w3.org/2000/svg" xmlns:xlink="http://www.w3.org/1999/xlink" x="0px" y="0px"
	 viewBox="0 0 99.21 127.56" style="enable-background:new 0 0 99.21 127.56;" xml:space="preserve">
<style type="text/css">
	.st0{fill:#634E42;}
	.st1{fill:#C99D66;}
	.st2{fill:#B17F49;}
	.st3{fill:#683B11;}
	.st4{fill:#7E4E24;}
	.st5{fill:#008D36;}
</style>
<g>
	<g>
		<path class="st0" d="M42.4,11.57c0,0,0-2.35,4.14-2.57s3.13,2.57,3.13,2.57l0.89,102.3l-6.82,1.23L42.4,11.57z"/>
		<path class="st1" d="M46.48,10.46l1.02,103.97l-3.76,0.68L42.4,11.57c0,0-0.29-1.71,1.92-2.14S46.48,10.46,46.48,10.46z"/>
	</g>
	<g>
		<path class="st2" d="M59.36,55.5v15.2c0,0-1.9,2.57-4.14,2.35c-2.24-0.22-35.11-5.14-35.11-5.14S8.38,61.2,9.05,57.62
			c0.67-3.58,9.61-9.73,13.19-9.61s32.65,5.25,34.88,5.7C59.36,54.16,59.36,55.5,59.36,55.5z"/>
		<path class="st3" d="M20.67,49.35c0,0-3.49,2.34-6.51,4.58c-2.19,1.63-4.14,3.2-4.34,3.8c-0.47,1.42,7.96,10.09,9.46,9.69
			c1.5-0.41,1.61-1.64,1.38-4.21s-10.73-4.81-6.37-7.94S20.67,49.35,20.67,49.35z"/>
		<path class="st1" d="M24.14,49.35c0,0,32.87,3.24,33.76,9.5s0.56,7.38,0.56,7.38s1.57-10.51-1.9-11.4S24.14,49.35,24.14,49.35z"/>
		<path class="st4" d="M22.02,64.33c0,0,20.8,4.14,26.5,4.58s10.3,0.78,10.3,0.78s0.29,3.89-3.59,3.35
			c-3.89-0.53-35.11-5.14-35.11-5.14s1.44-0.89,2.24-2.12C23.15,64.55,22.02,64.33,22.02,64.33z"/>
	</g>
	<g>
		<path class="st2" d="M35.57,21.63l1.85,16.4c0,0,2.36,2.54,4.75,2.03c2.39-0.51,37.25-9.83,37.25-9.83s11.85-8.67,10.69-12.45
			s-11.56-9.32-15.4-8.77c-3.85,0.56-34.58,9.65-36.94,10.4S35.57,21.63,35.57,21.63z"/>
		<path class="st3" d="M76.56,10.28c0,0,4.05,2.1,7.58,4.15c2.56,1.49,4.86,2.95,5.14,3.57c0.68,1.48-7.36,11.86-9.03,11.6
			s-1.93-1.57-2.01-4.37s10.99-6.49,5.91-9.34C79.07,13.06,76.56,10.28,76.56,10.28z"/>
		<path class="st1" d="M72.82,10.71c0,0-35.07,7.5-35.27,14.37s0.3,8.03,0.3,8.03s-2.97-11.15,0.66-12.53S72.82,10.71,72.82,10.71z"
			/>
		<path class="st4" d="M76.94,26.61c0,0-21.93,7-28.03,8.17c-6.1,1.18-11.02,2.1-11.02,2.1s0.16,4.23,4.29,3.18
			c4.13-1.05,37.25-9.83,37.25-9.83s-1.66-0.79-2.67-2.02C75.74,26.99,76.94,26.61,76.94,26.61z"/>
	</g>
	<path class="st5" d="M42.86,118.12c0,0-5.6-4.58-14.21-0.78c-8.61,3.8-1.12-3.91,4.81-3.8s5.93,0.11,5.93,0.11
		s-5.03-5.93-13.86-2.24c-8.83,3.69,0.22-7.6,6.26-4.92s7.94,4.36,7.94,4.36s-3.91-8.27-9.39-9.5c-5.48-1.23,5.93-0.22,8.16,3.69
		c2.24,3.91,0.25-14.42,2.36-5.7c2.11,8.72,2.79,7.48,2.82,10.28c0.04,2.73,3.64-15.04,12.14-11.6c0,0-2.67-2.37-5.92,6.91
		c-3.24,9.28-0.67,7.49-0.67,7.49s6.15-12.86,8.39-8.27c2.24,4.58,2.68,1.57-0.78,2.35s-4.7,2.91-4.47,5.93s4.47-4.92,5.59,1.01
		s-0.11,4.97-0.11,4.97L42.86,118.12z"/>
</g>
</svg>
