<?xml version="1.0" encoding="utf-8"?>
<!-- Generator: Adobe Illustrator 14.0.0, SVG Export Plug-In . SVG Version: 6.00 Build 43363)  -->
<!DOCTYPE svg PUBLIC "-//W3C//DTD SVG 1.1//EN" "http://www.w3.org/Graphics/SVG/1.1/DTD/svg11.dtd">
<svg version="1.1" id="Capa_1" xmlns="http://www.w3.org/2000/svg" xmlns:xlink="http://www.w3.org/1999/xlink" x="0px" y="0px"
	 width="283.465px" height="283.464px" viewBox="155.907 279.213 283.465 283.464"
	 enable-background="new 155.907 279.213 283.465 283.464" xml:space="preserve">
<circle fill="#15AD9B" cx="297.402" cy="420.618" r="135.094"/>
<g>
	<g>
		<path fill="#634E42" d="M291.923,291.994c0,0,0-5.855,10.315-6.403s7.799,6.403,7.799,6.403l2.218,254.909l-16.993,3.064
			L291.923,291.994z"/>
		<path fill="#C99D66" d="M302.088,289.229l2.543,259.069l-9.369,1.694l-3.339-257.998c0,0-0.723-4.261,4.784-5.332
			C302.214,285.59,302.088,289.229,302.088,289.229z"/>
	</g>
	<g>
		<path fill="#B17F49" d="M334.183,401.458v37.875c0,0-4.735,6.403-10.317,5.855c-5.58-0.547-87.485-12.808-87.485-12.808
			s-29.228-16.72-27.559-25.64c1.67-8.921,23.945-24.245,32.866-23.946c8.92,0.299,81.357,13.083,86.913,14.203
			C334.183,398.119,334.183,401.458,334.183,401.458z"/>
		<path fill="#683B11" d="M237.776,386.134c0,0-8.695,5.83-16.221,11.412c-5.457,4.062-10.315,7.974-10.814,9.469
			c-1.17,3.538,19.835,25.142,23.572,24.146c3.738-1.022,4.013-4.089,3.439-10.492c-0.573-6.403-26.737-11.984-15.873-19.784
			C232.743,393.085,237.776,386.134,237.776,386.134z"/>
		<path fill="#C99D66" d="M246.423,386.134c0,0,81.904,8.072,84.122,23.671c2.219,15.598,1.395,18.389,1.395,18.389
			s3.913-26.188-4.733-28.405C318.559,397.57,246.423,386.134,246.423,386.134z"/>
		<path fill="#7E4E24" d="M241.14,423.46c0,0,51.829,10.315,66.031,11.412c14.203,1.097,25.664,1.942,25.664,1.942
			s0.724,9.694-8.944,8.349c-9.693-1.321-87.486-12.809-87.486-12.809s3.588-2.217,5.582-5.283
			C243.956,424.008,241.14,423.46,241.14,423.46z"/>
	</g>
	<g>
		<path fill="#B17F49" d="M274.904,317.062l4.61,40.865c0,0,5.881,6.329,11.835,5.058c5.956-1.271,92.819-24.495,92.819-24.495
			s29.527-21.603,26.637-31.022S382,284.245,372.431,285.615c-9.593,1.395-86.166,24.045-92.045,25.915
			C274.505,313.398,274.904,317.062,274.904,317.062z"/>
		<path fill="#683B11" d="M377.041,288.78c0,0,10.092,5.232,18.888,10.34c6.379,3.713,12.109,7.35,12.809,8.896
			c1.694,3.688-18.34,29.552-22.501,28.905c-4.161-0.648-4.81-3.912-5.009-10.889c-0.199-6.978,27.385-16.172,14.727-23.273
			C383.295,295.707,377.041,288.78,377.041,288.78z"/>
		<path fill="#C99D66" d="M367.721,289.851c0,0-87.386,18.688-87.884,35.807c-0.498,17.118,0.748,20.009,0.748,20.009
			s-7.401-27.783,1.645-31.222C291.275,311.006,367.721,289.851,367.721,289.851z"/>
		<path fill="#7E4E24" d="M377.988,329.47c0,0-54.644,17.443-69.845,20.358c-15.199,2.94-27.458,5.233-27.458,5.233
			s0.398,10.54,10.689,7.924c10.291-2.617,92.818-24.495,92.818-24.495s-4.136-1.968-6.653-5.033
			C374.998,330.418,377.988,329.47,377.988,329.47z"/>
	</g>
	<path fill="#008D36" d="M293.069,557.492c0,0-13.954-11.412-35.408-1.943c-21.455,9.469-2.791-9.742,11.985-9.469
		c14.776,0.274,14.776,0.274,14.776,0.274s-12.533-14.776-34.535-5.582c-22.002,9.195,0.548-18.938,15.599-12.258
		c15.05,6.677,19.784,10.863,19.784,10.863s-9.742-20.607-23.397-23.672c-13.654-3.064,14.776-0.55,20.333,9.194
		c5.582,9.743,0.624-35.932,5.88-14.204c5.258,21.729,6.953,18.639,7.027,25.616c0.1,6.802,9.07-37.476,30.25-28.904
		c0,0-6.654-5.905-14.751,17.218c-8.074,23.123-1.67,18.663-1.67,18.663s15.323-32.043,20.905-20.606
		c5.582,11.411,6.68,3.912-1.942,5.855c-8.621,1.944-11.712,7.252-11.139,14.777c0.572,7.523,11.139-12.261,13.929,2.515
		c2.792,14.777-0.274,12.386-0.274,12.386L293.069,557.492z"/>
</g>
</svg>
